<svg id="feedback" xmlns="http://www.w3.org/2000/svg" width="149.764" height="106.073" viewBox="0 0 149.764 106.073">
  <path id="Path_429" data-name="Path 429" d="M140.852,73.537h-96.2c-3.814,0-3.82,5.941,0,5.941h96.2a2.974,2.974,0,0,1,2.971,2.971v70.2a2.974,2.974,0,0,1-2.971,2.971H88.837a2.971,2.971,0,0,0-2.332,1.13L74.522,171.935,61.813,156.692a2.972,2.972,0,0,0-2.282-1.068H8.912a2.974,2.974,0,0,1-2.971-2.971v-70.2a2.974,2.974,0,0,1,2.971-2.971h11.3c3.814,0,3.82-5.942,0-5.942H8.912A8.922,8.922,0,0,0,0,82.449v70.2a8.922,8.922,0,0,0,8.912,8.912H58.14L72.3,178.552a2.989,2.989,0,0,0,4.614-.062l13.359-16.925h50.576a8.922,8.922,0,0,0,8.912-8.912v-70.2a8.922,8.922,0,0,0-8.912-8.912Z" transform="translate(0 -73.537)" fill="#9ab17e"/>
  <path id="Path_430" data-name="Path 430" d="M55.033,170.934a2.97,2.97,0,0,0,.538,2.813l5.784,6.983-.575,9.05c-.452,7.09,10.193-.439,12.489-.394,2.316.046,12.936,7.4,12.489.394l-.575-9.05,5.785-6.983a3.012,3.012,0,0,0-1.551-4.773l-8.784-2.249-4.854-7.659a3.012,3.012,0,0,0-5.018,0l-4.854,7.659-8.784,2.249A2.97,2.97,0,0,0,55.033,170.934Zm13.488,1.254c2.2-.562,3.642-4.238,4.748-5.983,1.088,1.717,2.573,5.426,4.748,5.983l5.385,1.379-3.546,4.281a2.97,2.97,0,0,0-.677,2.083l.353,5.548-5.167-2.049a2.972,2.972,0,0,0-2.191,0l-5.167,2.049.352-5.548a2.971,2.971,0,0,0-.677-2.083l-3.546-4.281Z" transform="translate(-38.582 -132.711)" fill="#9ab17e"/>
  <path id="Path_431" data-name="Path 431" d="M225.808,170.933a2.971,2.971,0,0,0-2.088-1.96l-8.784-2.25-4.854-7.659a3.012,3.012,0,0,0-5.018,0l-4.854,7.659-8.784,2.25a2.97,2.97,0,0,0-1.551,4.773l5.785,6.983-.575,9.05c-.452,7.089,10.193-.439,12.489-.394,2.316.046,12.936,7.4,12.489.394l-.575-9.05,5.785-6.983A2.971,2.971,0,0,0,225.808,170.933Zm-11.649,6.914a2.97,2.97,0,0,0-.677,2.083l.353,5.548c-1.855-.736-4.224-2.259-6.262-2.259s-4.412,1.525-6.262,2.259l.353-5.548a2.97,2.97,0,0,0-.677-2.083l-3.546-4.281,5.385-1.379c2.2-.562,3.642-4.238,4.748-5.983,1.088,1.717,2.573,5.426,4.748,5.983l5.385,1.379Z" transform="translate(-132.987 -132.71)" fill="#9ab17e"/>
  <path id="Path_432" data-name="Path 432" d="M360.17,170.933a2.972,2.972,0,0,0-2.089-1.96l-8.784-2.25-4.854-7.659a3.012,3.012,0,0,0-5.018,0l-4.854,7.659-8.784,2.25a3.012,3.012,0,0,0-1.551,4.773l5.785,6.983-.575,9.05c-.452,7.089,10.188-.44,12.489-.394s12.935,7.4,12.489.394l-.575-9.05,5.784-6.983A2.969,2.969,0,0,0,360.17,170.933Zm-11.649,6.914a2.971,2.971,0,0,0-.677,2.083l.352,5.548-5.167-2.049a2.971,2.971,0,0,0-2.191,0l-5.167,2.049.353-5.548a2.971,2.971,0,0,0-.677-2.083l-3.546-4.281,5.385-1.379c2.2-.562,3.642-4.238,4.748-5.983,1.088,1.717,2.573,5.426,4.748,5.983l5.385,1.379Z" transform="translate(-227.45 -132.71)" fill="#9ab17e"/>
  <path id="Path_433" data-name="Path 433" d="M100.743,78.979a2.968,2.968,0,1,0-1.123-3.536A2.99,2.99,0,0,0,100.743,78.979Z" transform="translate(-69.89 -73.54)" fill="#9ab17e"/>
</svg>
