<svg id="solution" xmlns="http://www.w3.org/2000/svg" width="40.012" height="40.003" viewBox="0 0 40.012 40.003">
  <path id="Path_393" data-name="Path 393" d="M133.409,6.534a.782.782,0,0,0-.277,1.07,11.573,11.573,0,0,1-2.85,14.972,9.392,9.392,0,0,0-3.274,4.946H119.3a9.368,9.368,0,0,0-3.269-4.942,11.569,11.569,0,0,1,7.119-20.685h0a11.563,11.563,0,0,1,5.83,1.574.781.781,0,0,0,.789-1.349A13.125,13.125,0,0,0,123.155.332h0a13.132,13.132,0,0,0-8.082,23.478,7.8,7.8,0,0,1,2.668,3.925,2.656,2.656,0,0,0,.418,5.025v2.575a5,5,0,1,0,10,0V32.76a2.656,2.656,0,0,0,.418-5.025,7.822,7.822,0,0,1,2.672-3.929,13.137,13.137,0,0,0,3.233-17A.782.782,0,0,0,133.409,6.534Zm-6.817,28.02h-6.876V32.835h6.876Zm-3.438,4.219a3.443,3.443,0,0,1-3.347-2.656H126.5A3.442,3.442,0,0,1,123.155,38.773Zm4.376-7.5H118.78a1.094,1.094,0,1,1,0-2.188h8.751a1.094,1.094,0,0,1,0,2.188Zm0,0" transform="translate(-103.145 -0.332)" fill="#596539"/>
  <path id="Path_394" data-name="Path 394" d="M447.534,59.576a.781.781,0,1,0,1.109-1.1l-.007-.007a.781.781,0,0,0-1.109,1.1Zm0,0" transform="translate(-419.336 -54.617)" fill="#596539"/>
  <path id="Path_395" data-name="Path 395" d="M228.688,83.28a2.09,2.09,0,0,0,.238-.968V79.637a1.059,1.059,0,0,0-1.657-.875,1.065,1.065,0,0,1-.6.186h-.077a1.073,1.073,0,1,1,0-2.146h.077a1.067,1.067,0,0,1,.6.186,1.059,1.059,0,0,0,1.656-.875V73.442a2.091,2.091,0,0,0-2.089-2.088h-1.93a2.626,2.626,0,0,0,.13-.817V70.46a2.636,2.636,0,0,0-5.272,0v.077a2.638,2.638,0,0,0,.13.817h-1.93a2.091,2.091,0,0,0-2.088,2.088v2.674a1.059,1.059,0,0,0,1.657.875,1.063,1.063,0,0,1,.6-.186h.077a1.073,1.073,0,1,1,0,2.146h-.077a1.066,1.066,0,0,1-.6-.186,1.059,1.059,0,0,0-1.656.875v2.671a2.091,2.091,0,0,0,2.088,2.088h1.93a2.639,2.639,0,0,0-.13.816v.077a2.636,2.636,0,1,0,5.272,0v-.077a2.623,2.623,0,0,0-.13-.816h1.93A2.083,2.083,0,0,0,228.688,83.28Zm-4.611-.442a1.059,1.059,0,0,0-.833,1.714,1.06,1.06,0,0,1,.231.665v.077a1.073,1.073,0,0,1-2.146,0v-.077a1.06,1.06,0,0,1,.231-.665,1.059,1.059,0,0,0-.833-1.714h-2.761a.527.527,0,0,1-.526-.526V80.421a2.635,2.635,0,0,0,.7.093h.077a2.636,2.636,0,1,0,0-5.272h-.077a2.636,2.636,0,0,0-.7.094V73.442a.527.527,0,0,1,.526-.526h2.761a1.059,1.059,0,0,0,.833-1.714,1.059,1.059,0,0,1-.231-.665V70.46a1.073,1.073,0,1,1,2.146,0v.077a1.061,1.061,0,0,1-.231.665,1.059,1.059,0,0,0,.833,1.714h2.761a.526.526,0,0,1,.526.526v1.891a2.642,2.642,0,0,0-.7-.093h-.077a2.636,2.636,0,0,0,0,5.272h.077a2.633,2.633,0,0,0,.7-.094v1.895a.525.525,0,0,1-.526.526Zm0,0" transform="translate(-202.383 -63.605)" fill="#596539"/>
  <path id="Path_396" data-name="Path 396" d="M548.3,125.129a.778.778,0,0,0,.553-.229l1.19-1.19a.781.781,0,1,0-1.105-1.1l-1.19,1.19a.781.781,0,0,0,.552,1.334Zm0,0" transform="translate(-513.287 -114.747)" fill="#596539"/>
  <path id="Path_397" data-name="Path 397" d="M548.851,253.786a.781.781,0,0,0-1.1,1.1l1.19,1.19a.781.781,0,0,0,1.1-1.1Zm0,0" transform="translate(-513.288 -237.725)" fill="#596539"/>
  <path id="Path_398" data-name="Path 398" d="M553.868,197.48h-4.129a.781.781,0,1,0,0,1.563h4.129a.781.781,0,0,0,0-1.563Zm0,0" transform="translate(-514.637 -185.155)" fill="#596539"/>
  <path id="Path_399" data-name="Path 399" d="M49.795,122.611a.781.781,0,0,0-1.105,1.105l1.19,1.19a.781.781,0,0,0,1.1-1.105Zm0,0" transform="translate(-45.431 -114.752)" fill="#596539"/>
  <path id="Path_400" data-name="Path 400" d="M49.879,253.786l-1.19,1.19a.781.781,0,0,0,1.105,1.1l1.189-1.19a.781.781,0,0,0-1.1-1.1Zm0,0" transform="translate(-45.431 -237.725)" fill="#596539"/>
  <path id="Path_401" data-name="Path 401" d="M5.692,198.262a.781.781,0,0,0-.781-.781H.781a.781.781,0,0,0,0,1.563H4.91A.781.781,0,0,0,5.692,198.262Zm0,0" transform="translate(0 -185.155)" fill="#596539"/>
</svg>
