<svg id="uncommon_farms-light_bulb-icon" xmlns="http://www.w3.org/2000/svg" width="96" height="96" viewBox="0 0 96 96">
  <path id="Path_393" data-name="Path 393" d="M166.133,15.216a1.876,1.876,0,0,0-.665,2.567,27.777,27.777,0,0,1-6.838,35.931,22.538,22.538,0,0,0-7.854,11.869H132.283a22.481,22.481,0,0,0-7.843-11.86,27.764,27.764,0,0,1,17.081-49.64h.008A27.738,27.738,0,0,1,155.518,7.86a1.875,1.875,0,0,0,1.893-3.238A31.485,31.485,0,0,0,141.529.332h-.009a31.514,31.514,0,0,0-19.39,56.343,18.723,18.723,0,0,1,6.4,9.419,6.375,6.375,0,0,0,1,12.058v6.179a12,12,0,1,0,23.995,0V78.152a6.375,6.375,0,0,0,1-12.058,18.772,18.772,0,0,1,6.412-9.428A31.53,31.53,0,0,0,168.7,15.881,1.875,1.875,0,0,0,166.133,15.216ZM149.778,82.457h-16.5V78.332h16.5ZM141.53,92.582a8.261,8.261,0,0,1-8.031-6.375H149.56A8.26,8.26,0,0,1,141.53,92.582Zm10.5-18h-21a2.625,2.625,0,1,1,0-5.25h21a2.625,2.625,0,0,1,0,5.25Zm0,0" transform="translate(-93.52 -0.332)" fill="#596539"/>
  <path id="Path_394" data-name="Path 394" d="M447.861,61.448a1.874,1.874,0,1,0,2.66-2.642l-.016-.016a1.875,1.875,0,0,0-2.66,2.643Zm0,0" transform="translate(-380.206 -49.551)" fill="#596539"/>
  <path id="Path_395" data-name="Path 395" d="M246.612,104.908a5.014,5.014,0,0,0,.571-2.323V96.168a2.542,2.542,0,0,0-3.975-2.1,2.554,2.554,0,0,1-1.447.446h-.185a2.575,2.575,0,1,1,0-5.15h.185a2.561,2.561,0,0,1,1.448.445,2.541,2.541,0,0,0,3.974-2.1V81.3a5.016,5.016,0,0,0-5.011-5.01h-4.63a6.3,6.3,0,0,0,.313-1.959v-.185a6.324,6.324,0,0,0-12.648,0v.185a6.329,6.329,0,0,0,.313,1.959h-4.63a5.016,5.016,0,0,0-5.011,5.01v6.417a2.541,2.541,0,0,0,3.975,2.1,2.55,2.55,0,0,1,1.447-.445h.185a2.575,2.575,0,1,1,0,5.15H221.3a2.559,2.559,0,0,1-1.448-.446,2.541,2.541,0,0,0-3.974,2.1v6.409a5.016,5.016,0,0,0,5.011,5.01h4.63a6.331,6.331,0,0,0-.313,1.959v.185a6.324,6.324,0,1,0,12.648,0v-.185a6.3,6.3,0,0,0-.313-1.959h4.63A5,5,0,0,0,246.612,104.908Zm-11.064-1.061a2.541,2.541,0,0,0-2,4.113,2.543,2.543,0,0,1,.554,1.6v.185a2.575,2.575,0,0,1-5.149,0v-.185a2.543,2.543,0,0,1,.554-1.6,2.54,2.54,0,0,0-2-4.113h-6.623a1.263,1.263,0,0,1-1.262-1.261V98.048a6.324,6.324,0,0,0,1.673.223h.185a6.324,6.324,0,1,0,0-12.648H221.3a6.323,6.323,0,0,0-1.673.224V81.3a1.263,1.263,0,0,1,1.262-1.262h6.623a2.54,2.54,0,0,0,2-4.113,2.542,2.542,0,0,1-.554-1.6v-.185a2.575,2.575,0,1,1,5.149,0v.185a2.546,2.546,0,0,1-.554,1.6,2.541,2.541,0,0,0,2,4.113h6.623a1.263,1.263,0,0,1,1.261,1.262V85.84a6.34,6.34,0,0,0-1.673-.224h-.185a6.324,6.324,0,0,0,0,12.648h.185a6.318,6.318,0,0,0,1.673-.224v4.546a1.259,1.259,0,0,1-1.261,1.261Zm0,0" transform="translate(-183.497 -57.7)" fill="#596539"/>
  <path id="Path_396" data-name="Path 396" d="M549.39,128.981a1.868,1.868,0,0,0,1.326-.55l2.854-2.854a1.875,1.875,0,0,0-2.651-2.651l-2.854,2.855a1.875,1.875,0,0,0,1.325,3.2Zm0,0" transform="translate(-465.389 -104.066)" fill="#596539"/>
  <path id="Path_397" data-name="Path 397" d="M550.718,254.106a1.874,1.874,0,1,0-2.651,2.65l2.854,2.855a1.874,1.874,0,1,0,2.651-2.651Zm0,0" transform="translate(-465.39 -215.564)" fill="#596539"/>
  <path id="Path_398" data-name="Path 398" d="M560.739,197.48h-9.907a1.875,1.875,0,1,0,0,3.749h9.907a1.875,1.875,0,0,0,0-3.749Zm0,0" transform="translate(-466.614 -167.902)" fill="#596539"/>
  <path id="Path_399" data-name="Path 399" d="M51.661,122.931a1.875,1.875,0,1,0-2.651,2.651l2.855,2.855a1.874,1.874,0,0,0,2.65-2.651Zm0,0" transform="translate(-41.192 -104.071)" fill="#596539"/>
  <path id="Path_400" data-name="Path 400" d="M51.864,254.106l-2.855,2.854a1.875,1.875,0,0,0,2.651,2.651l2.854-2.855a1.874,1.874,0,1,0-2.65-2.65Zm0,0" transform="translate(-41.192 -215.564)" fill="#596539"/>
  <path id="Path_401" data-name="Path 401" d="M13.656,199.355a1.875,1.875,0,0,0-1.874-1.874H1.874a1.875,1.875,0,0,0,0,3.749h9.907A1.875,1.875,0,0,0,13.656,199.355Zm0,0" transform="translate(0 -167.902)" fill="#596539"/>
</svg>
