<svg id="Group_249" data-name="Group 249" xmlns="http://www.w3.org/2000/svg" xmlns:xlink="http://www.w3.org/1999/xlink" width="152.92" height="153.027" viewBox="0 0 152.92 153.027">
  <defs>
    <clipPath id="clip-path">
      <rect id="Rectangle_461" data-name="Rectangle 461" width="152.92" height="153.027" fill="#9ab17e"/>
    </clipPath>
  </defs>
  <g id="Group_248" data-name="Group 248" clip-path="url(#clip-path)">
    <path id="Path_476" data-name="Path 476" d="M168.93,15.19c-1-.186-2.863-1.518-2.917.984-.033,1.51-1,3.482,2,3.929,5.526.822,8.867,4.379,9.92,9.786.357,1.832.85,2.594,2.668,2.147,2.446.534,2.711-.521,2.318-2.687A17.081,17.081,0,0,0,168.93,15.19" transform="translate(-54.873 -4.854)" fill="#9ab17e"/>
    <path id="Path_477" data-name="Path 477" d="M145.283,32.636c-2.975-2-6.917-7.839-7.849-11.45C134.664,10.459,127.892,3.427,117.176.9c-10.747-2.531-19.968.814-27.095,9.277-1.411,1.675-2.378,1.908-4.322,1.1-4.363-1.815-9.434-2.569-13.184.065-5.862,4.116-8.634.631-12.051-3.037-3.59-3.855-3.707-3.775-8.46-1.173-2.3,1.26-3.746.759-4.323-1.878-.189-.865-.486-1.708-.642-2.577C46.767.837,46.016-.1,43.834.008,39.4.222,34.95.2,30.516.019c-2.25-.09-3.269.651-3.427,2.87a10.805,10.805,0,0,1-.725,2.894c-.692,1.887-1.92,2.649-3.847,1.548a20.118,20.118,0,0,1-2.846-1.708c-1.512-1.239-2.567-1.016-3.876.432-2.38,2.632-4.986,5.059-7.5,7.572C4.528,17.4,4.5,17.414,7.109,22.1c1.3,2.33.711,3.744-1.834,4.409a10.6,10.6,0,0,1-2.249.563C.311,27.159-.107,28.725.02,31.049c.169,3.1.042,6.215.042,9.323,0,5.72-.012,5.758,5.369,7.414,2.355.725,2.982,2.019,1.744,4.167A14.654,14.654,0,0,1,5.8,54.227c-1.429,1.674-1.231,2.925.449,4.405,2.493,2.2,4.705,4.712,7.115,7.01A4.689,4.689,0,0,1,15,69.357,20.989,20.989,0,0,0,23.263,86.4,9.982,9.982,0,0,1,27.279,95c-.115,15.764-.072,31.531-.038,47.3.013,6.525,4.011,10.543,10.552,10.7,2.441.059,4.885.011,7.327.011q38.97,0,77.94.019c1.685,0,2.922.1,2.854-2.329-.06-2.125-.525-3.133-2.759-2.731-2.552.458-2.222-1.3-2.222-2.852q.01-30.143.015-60.287c0-2.1.147-4.195.225-6.292-1.277.029-1.886,1.057-2.652,1.818-5.193,5.166-10.333,10.386-15.576,15.5a5.486,5.486,0,0,0-1.807,4.337c.069,14.872.027,29.745.054,44.617,0,1.817.31,3.287-2.541,3.281-2.794-.005-2.362-1.517-2.361-3.156,0-11.432-.07-22.864.062-34.294a5.989,5.989,0,0,0-2.538-5.3c-5.552-4.443-10.967-9.063-16.882-14a2.454,2.454,0,0,0-.3.12c-.037.019-.068.041-.1.062V94.78q0,25.139.019,50.277c0,1.78.147,3.024-2.464,3.028-2.654,0-2.46-1.32-2.456-3.071q.039-22.808.015-45.616V95.856a2.5,2.5,0,0,0-.245-.11,2.088,2.088,0,0,0-.234-.07c-1.932,1.929-3.406,3.4-4.872,4.865-4.159,4.16-8.257,8.383-12.508,12.446a5.7,5.7,0,0,0-1.947,4.609c.1,8.434.042,16.87.042,25.3,0,5.284,0,5.284-5.576,4.908,1.406-10.749.468-21.548.62-32.323a7.873,7.873,0,0,1,2.584-6.062Q62.108,97.07,74.46,84.465c1.6-1.633,2.5-1.827,4.1-.042C81.3,87.473,84.405,90.2,87.2,93.2c1.306,1.408,2.039,1.3,3.341-.025,7-7.129,14.134-14.119,21.127-21.252,1.378-1.406,2.208-1.71,3.613-.064,2,2.35,4.261,4.485,6.41,6.713l3.235,2.722c.827-4.215,1.583-8.084,2.345-11.951,1.011-5.131,1.012-5.121,6.144-5.146,1.331-.006,2.668-.027,3.991-.155a17.178,17.178,0,0,0,7.882-31.411M108.173,97.628c2.482-2.287,4.765-4.792,7.137-7.208a2.216,2.216,0,0,1,.591,2.151c.02,17.532-.035,35.063.076,52.595.015,2.4-.7,2.894-2.964,2.86-6.955-.1-6.956,0-6.957-6.89,0-12.76.05-25.521-.048-38.281a6.384,6.384,0,0,1,2.163-5.226m-26.762,3.891c3.305,2.725,6,5.018,8.775,7.2a3.2,3.2,0,0,1,1.092,2.923c-.015,11.3-.043,22.6.026,33.906.011,1.771-.334,2.45-2.313,2.478-7.581.108-7.58.191-7.58-7.243ZM58.663,115.1c2.485-2.359,4.8-4.892,7.958-8.14v15.851c0,7.634-.041,15.269.032,22.9.015,1.63-.286,2.264-2.135,2.314-7.758.208-7.756.284-7.756-7.378,0-6.97.068-13.942-.043-20.911a5.722,5.722,0,0,1,1.944-4.638M15.733,61.828a13.145,13.145,0,0,0-1.957-2.662c-2.593-2.029-3.554-4-1.145-7.006,1.521-1.9-1.2-8.161-3.668-8.481-3.471-.45-4.361-2.246-3.879-5.348a8.849,8.849,0,0,0,0-2.678C4.631,32.676,5.5,31,8.826,30.545c2.876-.4,5.346-6.618,3.575-8.988-1.855-2.483-1.667-4.226.812-5.932a6.613,6.613,0,0,0,1.6-1.572c2.025-2.79,4.086-3.93,7.269-1.364,1.9,1.532,8.116-1.287,8.452-3.772.432-3.192,1.914-4.363,5.006-3.836a9.239,9.239,0,0,0,3.026.005c3.059-.5,4.593.541,5.072,3.8.417,2.842,6.7,5.278,9.032,3.507,2.52-1.915,4.227-1.543,5.93.858a8.323,8.323,0,0,0,1.926,1.916c2.633,1.9,3.283,3.87,1.059,6.737-1.638,2.113,1.052,8.252,3.762,8.648,3.146.459,4.4,1.86,3.853,4.98a9.048,9.048,0,0,0-.007,3.03c.5,3.047-.511,4.657-3.787,5.03-2.242.256-5.495,6.463-4.176,8.031,3.1,3.688,1.293,6.008-1.643,8.3-.5.394-.945.869-1.556,1.437-1.413-2.691-2.643-5.306-4.666-7.391a3.009,3.009,0,0,1-.289-.347A16.424,16.424,0,0,0,50.8,51.889c-2.907-1.817-2.047-1.386-3.369-1.732-.058-.014-.134-.031-.225-.05a4.28,4.28,0,0,0-5.127,4.218V64.862a2.644,2.644,0,0,1-2.644,2.644H34.421a2.644,2.644,0,0,1-2.644-2.644V54.911l.01-.9a4.418,4.418,0,0,0-5.319-4.375c-.023.005-.041,0-.064.008a19.608,19.608,0,0,0-2.688,1.617A20.6,20.6,0,0,0,20.8,53.783a4.354,4.354,0,0,1-1.1,1.669c-1.488,1.558-2.357,3.709-3.973,6.377m26.15,36.257c.284,14.643.059,29.3.113,43.944.01,2.728-.767,4.859-3.5,5.734-3.3,1.058-6.227-1.314-6.353-5.2s-.032-7.767-.032-11.651c0-11.763-.144-23.529.063-35.289a15.6,15.6,0,0,0-6.046-13.28c-8.8-7.3-8.353-20.256,1.1-27.339,0,3.469-.048,6.441.012,9.41.088,4.4,2.59,6.942,7.008,7.235,10.679.708,12.741-1.214,12.741-11.88V55.382c8.9,5.2,10.135,19.212,1.888,26.117-5.483,4.59-7.128,9.819-7,16.586M107.575,69.07c-5.59,5.694-11.323,11.25-16.857,17-1.532,1.59-2.347,1.5-3.77-.049-2.773-3.016-5.86-5.744-8.623-8.768-1.428-1.564-2.2-1.408-3.621.035-8.233,8.381-16.575,16.654-24.885,24.959-.749.748-1.534,1.459-2.827,2.686,0-2.373.134-3.935-.023-5.467-.624-6.084.675-11.011,5.962-15.109,4.505-3.493,6.189-9.024,6.305-14.822.066-3.311,2-5.308,5.262-5.313,13.633-.022,27.265.03,40.9-.054,1.92-.012,3.424.647,4.106,2.187.587,1.326-1.148,1.928-1.926,2.72M121.884,71.2,109.249,58.254l15.9-3.219L121.884,71.2m13.8-11.953c-6.31.159-6.31.159-5.174-5.952.838-4.506.84-4.492-3.766-3.567q-13.192,2.65-26.388,5.279c-.391.078-.767.226-1.971.589l3.939,2.778-.423.646H67.921c2.788-2.387.728-4.345-.549-6.47-1.718-2.86-1.243-4.35,2.061-4.854,3.809-.581,5.085-2.26,4.66-6.1a78.633,78.633,0,0,1-.05-11.309c.066-1.866-.363-2.955-2.4-3.127a12.22,12.22,0,0,1-3.22-.788c-2.129-.8-2.445-2.155-1.367-4.186,3.752-7.068,12.409-9.7,19.277-5.111,3.326,2.222,4.224,1.526,6.037-1.55a21.8,21.8,0,0,1,26.985-8.862,22.087,22.087,0,0,1,13.386,24.808c-.565,2.713-.023,3.273,2.723,3.225a12.278,12.278,0,1,1,.223,24.554" transform="translate(0 0)" fill="#9ab17e"/>
    <path id="Path_478" data-name="Path 478" d="M44.182,60.54A15.271,15.271,0,0,0,49.428,61.6,12.576,12.576,0,0,0,55.1,60.248l-.036.014c.248-.153.5-.3.743-.463a12.21,12.21,0,0,0,5.124-14.447,12.257,12.257,0,0,0-23.762,2.184c-.9,5.208,1.465,9.578,7.018,13m5.061-18.524a7.369,7.369,0,0,1,7.494,7.239,7.512,7.512,0,0,1-7.315,7.491,7.352,7.352,0,0,1-7.415-7.315,7.182,7.182,0,0,1,7.236-7.415" transform="translate(-12.235 -12.233)" fill="#9ab17e"/>
  </g>
</svg>
