<svg id="Group_239" data-name="Group 239" xmlns="http://www.w3.org/2000/svg" xmlns:xlink="http://www.w3.org/1999/xlink" width="152.642" height="152.485" viewBox="0 0 152.642 152.485">
  <defs>
    <clipPath id="clip-path">
      <rect id="Rectangle_457" data-name="Rectangle 457" width="152.642" height="152.485" fill="#f0eadc"/>
    </clipPath>
  </defs>
  <g id="Group_238" data-name="Group 238" clip-path="url(#clip-path)">
    <path id="Path_453" data-name="Path 453" d="M169.274,15.419H75.438c-.067,1.2-.19,2.4-.193,3.6-.017,8.243,0,16.488-.018,24.731,0,1.93.276,4.344-2.513,4.4-3.068.061-2.708-2.511-2.712-4.536q-.033-17.346,0-34.692C70.025,2.995,73,.016,78.852.012q43.289-.026,86.579,0c5.967,0,8.91,2.9,8.915,8.793q.03,33.146,0,66.292c0,5.954-2.879,8.8-8.879,8.805q-41.743.023-83.487.006c-.687,0-1.547.231-2.023-.092-.934-.634-2.267-1.57-2.286-2.408-.019-.807,1.279-1.916,2.245-2.391.837-.411,2.02-.135,3.05-.135q40.541,0,81.082,0c4.816,0,5.221-.414,5.223-5.336q.008-27.135,0-54.27Zm-.141-5.379c.606-4.064-.02-4.939-3.808-4.942q-42.92-.036-85.84,0c-3.921,0-4.452.716-3.915,4.945Z" transform="translate(-21.725 0)" fill="#f0eadc"/>
    <path id="Path_454" data-name="Path 454" d="M10.025,137.671C2.954,138.016.015,135.2.01,128.2Q0,111.886.014,95.569c.021-8.461,5.249-13.749,13.677-13.8,7.673-.048,15.351.114,23.019-.107a8.179,8.179,0,0,0,5.036-2.083C50.6,70.937,59.252,62.1,68,53.356c3-3,6.65-3.595,9.6-1.695,3.9,2.508,4.439,7.508.987,11.272-7.275,7.933-14.678,15.75-22.005,23.635-3.5,3.77-8.312,7.061-10.055,11.532-1.791,4.6-.619,10.368-.648,15.626-.047,8.244-.088,16.49.024,24.732.043,3.206-1.11,4.515-4.436,4.455-8.7-.156-17.408-.049-26.113-.053-4.852,0-4.861-.017-5.332-5.19m30.62-.134c0-12.126.1-24.021-.055-35.913a12.669,12.669,0,0,1,3.715-9.537C54.17,81.721,63.874,71.2,73.635,60.739c.622-.667,1.477-1.28,1.734-2.076a2.879,2.879,0,0,0-.481-2.366c-.308-.368-1.51-.323-2.1-.034a8.668,8.668,0,0,0-2.033,1.811c-8.2,8.155-16.5,16.206-24.524,24.53A13.443,13.443,0,0,1,35.27,87.046c-6.86-.248-13.737-.077-20.607-.061C7.706,87,5.109,89.567,5.095,96.491c-.023,10.417-.007,20.833,0,31.25,0,.686-.23,1.531.083,2.027l.019.031a2.9,2.9,0,0,0,4.85-.045c.04-.061.078-.123.116-.186.353-.593.072-1.566.072-2.367q0-12.877,0-25.755c0-1.976-.21-4.308,2.608-4.253,2.548.049,2.425,2.23,2.42,4.11-.016,5.494,0,10.989,0,16.483v19.751Z" transform="translate(0 -15.7)" fill="#f0eadc"/>
    <path id="Path_455" data-name="Path 455" d="M18.739,59.077c-2.191-13.257,9.09-21.231,20.3-17.645a14.107,14.107,0,0,1,9.973,14.045c-.039,2.281-.268,4.562-.47,6.837-.747,8.426-7.031,14.114-15.3,13.875-8.288-.239-14.178-6.211-14.5-14.716-.039-1.026-.006-2.056-.006-2.4m5.452,1.829c-.245,5.816,3.386,9.934,9.192,10.137,5.854.205,10.285-3.543,10.389-8.976a3.922,3.922,0,0,0-1.264-2.734,58.572,58.572,0,0,0-5.123-3.521L24.191,60.905M24,54.847A16.024,16.024,0,0,0,35.184,49.9c2.653-2.783,3.846-2.519,5.6,1.036a28.981,28.981,0,0,0,2.689,3.641c-.574-5.918-4.923-9.25-10.44-8.907C27.751,46,23.976,49.756,24,54.847" transform="translate(-5.732 -12.596)" fill="#f0eadc"/>
    <path id="Path_456" data-name="Path 456" d="M162.569,146.919c-.854-7.624,1.457-13.052,7.718-16.168a15.459,15.459,0,0,1,17.118,1.537,12.746,12.746,0,0,1,5.381,10.605,62.059,62.059,0,0,1-.543,9.223c-1.234,7.988-7.531,12.824-15.834,12.426a14.553,14.553,0,0,1-13.82-13.62,39.844,39.844,0,0,1-.02-4m25.091-.059c.039-.8.1-1.6.112-2.4.118-6.293-4.147-10.451-10.567-10.311-6.1.134-10.087,4.519-9.74,10.748.108,1.938.274,3.874.454,5.807a9.768,9.768,0,0,0,19.419.251c.153-1.361.213-2.733.321-4.1" transform="translate(-50.418 -40.007)" fill="#f0eadc"/>
    <path id="Path_457" data-name="Path 457" d="M81.272,146.895c-2.013-12.841,9.707-20.806,20.838-16.825,5.107,1.827,8.768,5.513,9.2,10.936a41.8,41.8,0,0,1-1.14,14.189c-1.9,6.867-9.194,10.453-16.757,9.25a14.523,14.523,0,0,1-11.955-13.565c-.083-1.369-.128-2.74-.184-3.984m24.965-.13h.162a43.641,43.641,0,0,0-.023-4.446c-.5-4.839-4.74-8.173-10.191-8.112-5.191.057-9.533,3.5-9.776,8.177a43.9,43.9,0,0,0,.53,9.543c.838,4.941,5.158,7.984,10.221,7.652a9.6,9.6,0,0,0,9.056-8.706c.134-1.356.021-2.737.021-4.107" transform="translate(-25.161 -40.061)" fill="#f0eadc"/>
    <path id="Path_458" data-name="Path 458" d="M91.907,184.364c4.231,0,8.462-.043,12.692.008a12.848,12.848,0,0,1,12.657,11.964,60.707,60.707,0,0,1-.065,10.121,1.913,1.913,0,0,1-.252.739,2.572,2.572,0,0,1-4.514-.2,2.164,2.164,0,0,1-.206-.682c-.354-3.046-.072-6.16-.135-9.246-.1-4.683-2.731-7.507-7.463-7.578q-12.861-.194-25.727.01c-4.665.082-7.3,3-7.389,7.686-.059,2.971-.041,5.945,0,8.916.024,1.9-.418,3.808-2.6,3.5-.962-.137-2.251-2.08-2.364-3.3a72.181,72.181,0,0,1-.052-10.276,12.043,12.043,0,0,1,12.043-11.639c4.457-.1,8.919-.019,13.378-.021" transform="translate(-20.592 -57.228)" fill="#f0eadc"/>
    <path id="Path_459" data-name="Path 459" d="M172.909,184.365c4.353,0,8.708-.064,13.059.011a12.236,12.236,0,0,1,12.407,12.429c.063,3.091-.015,6.185.021,9.277.023,1.9-.352,3.653-2.617,3.63-2.348-.023-2.471-1.936-2.469-3.744,0-3.04.092-6.085-.045-9.119a7.7,7.7,0,0,0-7.581-7.367q-12.714-.187-25.431,0c-4.859.07-7.508,2.9-7.659,7.837-.094,3.09.181,6.207-.147,9.265a1.824,1.824,0,0,1-.156.554,2.492,2.492,0,0,1-4.362.174,1.952,1.952,0,0,1-.309-.839,72.733,72.733,0,0,1-.069-10.638,12.134,12.134,0,0,1,11.955-11.444c4.465-.117,8.935-.023,13.4-.026" transform="translate(-45.759 -57.227)" fill="#f0eadc"/>
    <path id="Path_460" data-name="Path 460" d="M172.592,43.7c2.651-3.952,5.206-7.73,7.724-11.533,1.067-1.612,2.213-3.251,4.352-1.8,1.944,1.318,1.047,2.931.017,4.459-2.939,4.357-5.884,8.713-8.739,13.126-1.444,2.233-3.036,2.513-5.1.9-2.151-1.682-4.352-3.3-6.755-5.118-2.565,5.084-5.137,9.915-7.463,14.862-2.672,5.685-8.392,7.833-12.9,11.367a2.088,2.088,0,0,1-2.8-.807c-1.149-1.571-.048-2.812.69-3.525,1.958-1.892,4.44-3.235,6.444-5.09a22.441,22.441,0,0,0,4.474-5.406c2.649-4.794,4.952-9.777,7.42-14.671,1.954-3.875,2.926-4.073,6.492-1.4,2,1.5,3.988,3.005,6.153,4.637" transform="translate(-43.595 -9.253)" fill="#f0eadc"/>
    <path id="Path_461" data-name="Path 461" d="M199.239,67.565c0-5.484.019-10.968-.01-16.452-.01-1.942.089-3.991,2.587-3.966,2.238.023,2.458,1.907,2.454,3.764q-.039,16.794-.01,33.589c0,1.788-.01,3.692-2.414,3.745-2.656.059-2.611-1.989-2.609-3.886q.01-8.4,0-16.794" transform="translate(-61.852 -14.637)" fill="#f0eadc"/>
    <path id="Path_462" data-name="Path 462" d="M102.568,34.629c-4.682,0-9.365-.024-14.047.012-1.938.014-3.775-.541-3.4-2.684.169-.967,2.181-2.27,3.38-2.293,9.475-.188,18.956-.1,28.434-.107,1.876,0,3.824.434,3.407,2.656-.184.983-2.166,2.239-3.391,2.308-4.781.267-9.587.109-14.383.109" transform="translate(-26.411 -9.171)" fill="#f0eadc"/>
    <path id="Path_463" data-name="Path 463" d="M174.8,78.087c0,3.886.193,7.788-.115,11.649-.1,1.207-1.4,3.1-2.413,3.29-2.231.423-2.686-1.519-2.686-3.4,0-7.772-.1-15.547.112-23.314.032-1.177,1.4-3.115,2.411-3.3,2.24-.419,2.676,1.568,2.685,3.418.019,3.886.006,7.773.006,11.659" transform="translate(-52.641 -19.545)" fill="#f0eadc"/>
    <path id="Path_464" data-name="Path 464" d="M189.478,82.705a84.184,84.184,0,0,1-.11,9.258c-.135,1.219-1.377,3.112-2.358,3.281-2.268.39-2.613-1.566-2.606-3.444.019-6.066-.123-12.137.119-18.192.048-1.2,1.519-2.342,2.334-3.511.874,1.113,2.358,2.153,2.5,3.353a79.454,79.454,0,0,1,.121,9.256" transform="translate(-57.242 -21.762)" fill="#f0eadc"/>
    <path id="Path_465" data-name="Path 465" d="M159.993,92.62a21.557,21.557,0,0,1-.113,5.12,3.421,3.421,0,0,1-2.45,2.158,3.281,3.281,0,0,1-2.412-2.161,64.169,64.169,0,0,1-.024-10.277c.07-.9,1.655-2.478,2.247-2.351a4.067,4.067,0,0,1,2.646,2.4c.442,1.594.117,3.4.117,5.116h-.012" transform="translate(-48.059 -26.42)" fill="#f0eadc"/>
    <path id="Path_466" data-name="Path 466" d="M148.521,34.635a5.448,5.448,0,0,1-2.548-.649,2.48,2.48,0,0,1-1.079-2.053,2.172,2.172,0,0,1,1.523-2.237,9.916,9.916,0,0,1,4.708-.088l.034.01a2.345,2.345,0,0,1,.85,4.141c-.266.208-.513.354-.8.536a2.837,2.837,0,0,1-1.656.357c0-.02-1.038,0-1.038-.017" transform="translate(-44.979 -9.117)" fill="#f0eadc"/>
    <path id="Path_467" data-name="Path 467" d="M41.963,124.666c0,4.793.155,9.595-.109,14.374-.067,1.208-1.321,3.161-2.3,3.344-2.2.412-2.678-1.473-2.675-3.382.017-9.472-.076-18.946.114-28.414.023-1.2,1.336-3.208,2.308-3.377,2.178-.381,2.673,1.52,2.666,3.419-.017,4.679-.006,9.358-.006,14.037" transform="translate(-11.448 -33.269)" fill="#f0eadc"/>
  </g>
</svg>
