<svg id="Group_245" data-name="Group 245" xmlns="http://www.w3.org/2000/svg" xmlns:xlink="http://www.w3.org/1999/xlink" width="146.224" height="146.513" viewBox="0 0 146.224 146.513">
  <defs>
    <clipPath id="clip-path">
      <rect id="Rectangle_459" data-name="Rectangle 459" width="146.224" height="146.513" fill="#f0eadc"/>
    </clipPath>
  </defs>
  <g id="Group_242" data-name="Group 242" clip-path="url(#clip-path)">
    <path id="Path_470" data-name="Path 470" d="M70.668,124.435V119.41c5.11,0,10.167-.427,15.122.1,7.542.8,13.5-1.577,19.072-6.609,5.685-5.139,12.014-9.565,18.056-14.31,3.663-2.877,4.393-4.793,2.649-6.891-1.7-2.046-3.6-1.82-7.137.842-6.14,4.616-12.324,9.175-18.4,13.87a15.156,15.156,0,0,1-9.728,3.362c-7.684-.063-15.369.02-23.053-.032-5.26-.036-8.674-3.071-8.572-7.466.1-4.3,3.466-7.191,8.514-7.236q7.245-.063,14.49,0c2.461.02,4.529-.556,4.579-3.458.052-3.023-2.021-3.826-4.637-3.825-9.66.007-19.323-.117-28.979.1a11.568,11.568,0,0,0-6.023,2.094c-9.324,6.578-18.739,13.069-27.631,20.2-5.842,4.688-12.106,4.88-18.988,4.282v-4.422a5.611,5.611,0,0,1,1.63-.271c6.934,1.035,12.386-1.719,17.71-5.959C27.23,97.5,35.5,91.685,43.789,85.919c2.864-1.993,5.329-3.84,7-7.191,2.421-4.864,8.343-6.609,13.692-4.989a4.483,4.483,0,0,0,6-4.433c.038-1.426.007-2.854.007-4.282,0-5.412-2.925-7.353-8.046-5.339-11.741,4.617-21.529.983-27.5-10.1-1.388-2.578-1.027-4.158,1.728-5.476C47.9,38.744,57.588,41.36,64.542,51.523c1.143,1.67,3.251,2.681,4.913,4l.8-.715V43.9C63.092,42.521,57.293,39,53.686,32.374a21.29,21.29,0,0,1-2.137-15A21.912,21.912,0,0,1,74.727.054c10.418.7,19.34,9.487,20.077,19.763.872,12.16-6.235,21.244-19.016,24.017V54.825a6.583,6.583,0,0,0,5.89-3.367c6.7-10.324,17.276-12.879,28.1-7.122,2.238,1.19,2.576,2.6,1.48,4.818-5.466,11.067-15.742,15.229-27.231,10.627a7.444,7.444,0,0,0-6.534.085,3.785,3.785,0,0,0-1.887,2.391,47.362,47.362,0,0,0-.089,6.351c1.589-.106,2.764-.2,3.94-.26A16.661,16.661,0,0,1,96.622,80.438c.515,1.806,1.24,2.743,3.075,3.209,4.732,1.2,8.032,4.32,10.6,8.735,6-3.659,11.267-11.506,19.231-3.9,2.01-.744,3.864-1.784,5.831-2.088a9.4,9.4,0,0,1,10.065,5.791c1.737,4.073.613,8.378-3.2,11.446-8.895,7.153-17.848,14.234-26.779,21.341-3.435,2.734-6.924,5.4-10.3,8.211a14.374,14.374,0,0,1-9.693,3.367c-20.528-.068-41.057-.1-61.584.058-2.6.02-5.268,1.071-7.768,2.006a39.047,39.047,0,0,0-5.448,3.044c-9.134,5.23-9.309,5.268-20.541,4.49V141.7a4.221,4.221,0,0,1,1.268-.21c7.723,1.228,14.149-1.911,20.23-6.067,4.246-2.9,8.823-3.847,13.972-3.794,19.648.2,39.3.043,58.949.119a12.208,12.208,0,0,0,8.148-2.829c11.879-9.573,23.887-18.985,35.7-28.634a7.82,7.82,0,0,0,2.658-5.119,3.76,3.76,0,0,0-4.39-3.86c-1.935.38-4.559,1.977-5.118,3.63a14.674,14.674,0,0,1-5.239,7.278c-7.9,6.111-15.777,12.253-23.562,18.508a16.252,16.252,0,0,1-10.92,3.75c-6.9-.117-13.813-.032-21.146-.032m2.293-85.475a17.032,17.032,0,1,0-17.03-17.2,17.042,17.042,0,0,0,17.03,17.2M54.43,82.948h3.276c8.009,0,16.018-.021,24.027.008,5.749.02,9.628,3.5,9.614,8.536-.013,4.97-3.97,8.5-9.681,8.554-4.717.045-9.436.006-14.153.014-1.785,0-3.823-.134-3.748,2.459.066,2.293,1.9,2.3,3.62,2.3,7.9-.01,15.8.067,23.7-.069a9.1,9.1,0,0,0,4.6-1.377c3.116-2.034,5.968-4.467,9.023-6.6,1.46-1.021,1.377-1.97.513-3.273-2.056-3.1-4.891-5.234-8.561-5.491-3.07-.215-4.064-1.491-4.423-4.388A12.027,12.027,0,0,0,70.447,78.36c-1.716,2.448-3.112,2.754-5.612,1.025-4.04-2.793-8.724-1.177-10.406,3.562m3.143-31.835a13.5,13.5,0,0,0-17.367-2.731c3.389,6.257,8.694,9.042,15.561,7.964-1.672-1.439-5.537-.967-4.431-4.278,1.2-3.586,4.108-.639,6.237-.955m48.485-2.705c-6.68-3.5-14.127-2.229-16.993,2.08,1.649.326,4.721.095,5.33,1.209,1.933,3.538-2.559,3.105-4.1,4.818,7.346,1.124,11.943-2.425,15.762-8.107" transform="translate(0 0)" fill="#f0eadc"/>
    <path id="Path_471" data-name="Path 471" d="M114.731,16.35c1.49.246,3.619-1.148,4.643,1.782.227.65,2.56.563,4.133.854v4.4l-9.31.512-.1,1.264c1.251.327,2.487.741,3.756.963,2.822.493,5.035,1.8,5.7,4.71s-.636,5-3.183,6.582c-.927.574-1.387,1.9-2.244,3.156-1.484-.146-3.756,1.185-4.6-2.054-.129-.5-2.6-.386-4.2-.582V33.611l9.288-.689q.038-.636.075-1.272c-1.147-.277-2.287-.59-3.443-.822-2.846-.571-5.349-1.684-5.987-4.826-.592-2.917.736-5.01,3.262-6.575.857-.53,1.287-1.752,2.2-3.076" transform="translate(-43.418 -6.457)" fill="#f0eadc"/>
  </g>
</svg>
