<?xml version="1.0" encoding="UTF-8"?>
<svg id="Layer_1" data-name="Layer 1" xmlns="http://www.w3.org/2000/svg" viewBox="0 0 100 100">
  <defs>
    <style>
      .cls-1 {
        fill: #eee9dc;
      }
    </style>
  </defs>
  <g id="fMUAmI.tif">
    <g>
      <path class="cls-1" d="m73.16,77.71c-.01,2.06-1.72,3.72-3.82,3.71-2.09-.01-3.8-1.71-3.78-3.76.02-2.06,1.72-3.71,3.83-3.7,2.1,0,3.78,1.68,3.77,3.75Z"/>
      <path class="cls-1" d="m56.21,77.71c0-2.15,1.57-3.73,3.71-3.74,2.12,0,3.75,1.6,3.75,3.71,0,2.13-1.59,3.74-3.72,3.75-2.14,0-3.73-1.58-3.74-3.72Z"/>
      <path class="cls-1" d="m27.86,79.62c1.04,0,1.86.79,1.88,1.8.02,1.09-.81,1.89-1.93,1.87-1.01-.02-1.86-.88-1.84-1.85.02-.96.91-1.82,1.9-1.82Z"/>
      <path class="cls-1" d="m43.92,13.56c2.68,0,5.36-.01,8.03,0,1.42,0,2.27.69,2.32,1.79.05,1.13-.85,1.99-2.3,2-5.4.03-10.8.03-16.2,0-1.45,0-2.2-.73-2.21-1.9,0-1.24.74-1.87,2.32-1.88,2.68-.02,5.36,0,8.03,0Z"/>
      <path class="cls-1" d="m57.98,13.59c1.07-.03,1.86.69,1.92,1.74.06,1.05-.82,1.99-1.86,1.99-1.02,0-1.81-.8-1.82-1.86-.02-1.11.67-1.85,1.76-1.88Z"/>
      <path class="cls-1" d="m39.08,66.35c-1.76,0-3.51.02-5.27,0-1.34-.02-2.12-.7-2.15-1.8-.03-1.11.72-1.94,2.02-1.96,3.64-.05,7.29-.05,10.93,0,1.38.02,2.13.85,2.06,2.04-.06,1.12-.8,1.71-2.2,1.73-1.8.02-3.6,0-5.4,0Z"/>
      <path class="cls-1" d="m35.41,57.01c.7,0,1.41-.04,2.11,0,1.05.08,1.58.78,1.62,1.75.04.91-.41,1.74-1.38,1.81-1.57.12-3.16.12-4.72-.01-.94-.08-1.4-.85-1.37-1.81.04-.96.55-1.59,1.51-1.71.73-.09,1.49-.02,2.24-.02,0,0,0-.01,0-.02Z"/>
    </g>
  </g>
  <path class="cls-1" d="m80.68,41.81c-1.04,0-1.88.84-1.88,1.88,0,6.94,0,15.88,0,22.81,0,1.73,0,1.73-1.75,1.73-6.42,0-12.84,0-19.26,0-.47,0-.95-.04-1.75-.08.32-.68.45-1.22.77-1.59.69-.8,1.46-1.52,2.22-2.25.81-.78,1.21-1.7.56-2.71-.65-1.02-1.64-1.06-2.67-.53-.15.07-.32.1-.48.15-.54-2.11-.38-2.36,1.53-2.73,13.21-2.57,19.29-17.87,11.89-29.1-.67-1.01-.58-1.42.63-1.88,2.3-.87,4.52-1.91,6.79-2.87,1.36-.58,1.52-.49,1.52.96,0,2.9,0,5.81,0,8.71,0,1.04.84,1.88,1.88,1.88h0c1.04,0,1.88-.84,1.88-1.88,0-5.53,0-11.05,0-16.58,0-.57,0-1.14-.05-1.71-.38-5.65-4.78-10.01-10.43-10.03-17.72-.06-35.44-.03-53.16-.02-1.66,0-2.28.66-2.35,2.33-.02.53-.01,1.06-.01,1.58,0,13.15,0,26.3,0,39.45,0,13.59,0,27.18,0,40.77,0,2.17.58,2.74,2.74,2.74,3.08,0,6.16,0,9.23,0,14.29,0,28.58,0,42.87,0,4.18,0,7.46-1.71,9.69-5.31,1.23-1.99,1.46-4.19,1.46-6.46,0-11.79,0-25.58,0-37.37,0-1.04-.84-1.88-1.88-1.88h0Zm-21.86,12.48q-2.6.8-2.6-1.92c0-1.58-.07-3.17.04-4.75.04-.56.42-1.23.86-1.58,1.13-.9,2.4-1.62,3.59-2.45,1.07-.74,1.37-1.94.74-2.84-.58-.84-1.72-.98-2.83-.31-.7.42-1.38.86-2.3,1.44-.06-.81-.07-1.36-.14-1.9-.15-1.19-.93-1.9-2-1.86-1.1.05-1.75.76-1.78,2.02-.03,1.08,0,2.15,0,3.23-.12.04-.24.09-.36.13-1.06-1.31-2.13-2.61-3.19-3.92-1.2-1.49-2.32-1.87-3.3-1.09-1.04.83-.96,1.86.3,3.44,1.67,2.09,3.3,4.23,5.06,6.25,1.11,1.27,1.71,2.59,1.49,4.29-.09.68-.01,1.39-.01,2.31-2.98-.19-5.34-1.32-7.41-2.99-4.82-3.9-6.72-9.07-5.39-15.04,1.43-6.41,5.64-10.41,12.2-11.6,7.57-1.38,15.24,3.56,17.02,10.83,1.97,8.08-2.34,15.97-10,18.32ZM29.87,9.79h1.49c13.28,0,26.55,0,39.83,0,4.82,0,7.59,2.77,7.6,7.62,0,2.89.29,2.25-2.15,3.35-3.08,1.38-6.22,2.63-9.31,4.01-.87.39-1.48.3-2.26-.25-6.67-4.67-15.35-4.59-21.93.23-4.24,3.11-6.74,7.33-7.54,12.52-.13.86-.44,1.31-1.25,1.61-1.46.54-2.88,1.22-4.48,1.91V9.79Zm1.16,34.63c1.44-.5,2.82-1.18,4.41-1.87.39,1.36.63,2.56,1.07,3.7,2.63,6.81,7.53,10.95,14.72,12.3.87.16,1.2.45,1.19,1.33-.04,2.42-.02,4.83,0,7.25,0,.63-.04,1.11-.88,1.11-7.12-.03-14.24-.03-21.35-.05-.08,0-.16-.07-.36-.16-.02-.37-.05-.8-.05-1.23,0-6.81.02-13.63-.02-20.44,0-1.03.29-1.59,1.3-1.95ZM20.35,11.62q0-1.83,1.78-1.83c.7,0,1.41,0,2.11,0q1.69,0,1.69,1.75c0,9.19,0,18.38,0,27.57,0,9.14,0,18.29,0,27.43q0,1.69-1.74,1.69c-.92,0-1.85-.03-2.77,0-.81.04-1.12-.33-1.07-1.1.02-.26,0-.53,0-.79,0-18.25,0-36.49,0-54.74Zm58.45,69.97c-.05,4.58-2.88,7.41-7.42,7.41-16.49,0-32.97,0-49.46.03-1.2,0-1.61-.32-1.59-1.55.06-4.66.05-9.32,0-13.98,0-1.07.32-1.58,1.43-1.42.13.02.26,0,.4,0,1.18.04,2.68-.33,3.43.26.6.47.27,2.11.35,3.23.09,1.27.84,2.1,1.92,2.1,1.15,0,1.86-.82,1.89-2.22.02-1.05,0-2.09,0-3.38h1.65c15.21,0,30.42,0,45.63,0,1.76,0,1.77,0,1.77,1.73,0,2.59.02,5.19,0,7.78Z"/>
</svg>