<?xml version="1.0" encoding="UTF-8"?>
<svg id="Layer_1" data-name="Layer 1" xmlns="http://www.w3.org/2000/svg" viewBox="0 0 100 100">
  <defs>
    <style>
      .cls-1 {
        fill: #5b653e;
      }
    </style>
  </defs>
  <path class="cls-1" d="m20.94,77.72c-2.84,0-3.3-.47-3.3-3.34v-34.08c0-2.63.52-3.16,3.09-3.16h2.9c.68,0,1.36,0,2.05,0h0c.33,0,.38-.06.39-.06,0,0,.06-.07.05-.35-.02-.61-.02-1.22,0-1.83,0-.38,0-.76,0-1.15-.01-1.36.73-2.17,2.09-2.27.29-.02.57-.02.86-.02h46.08c.13,0,.26,0,.39,0,1.8.07,2.47.75,2.48,2.53.02,2.65.01,5.29.01,7.94v14.68c0,4.19,0,8.38,0,12.58,0,2.24-.63,2.86-2.9,2.86h-2.92c-.72,0-1.44,0-2.16,0h0c-.36,0-.44.06-.45.07,0,0-.07.08-.05.39.04.81.03,1.63.01,2.42v.33c-.04,1.71-.69,2.37-2.42,2.45-.12,0-.23,0-.35,0H20.94Zm6.99-17.49c-2.02,2.04-4.11,4.14-6.13,6.24-.05.05-.21.28-.23,1.03-.02.75-.01,1.51,0,2.26,0,1.04.02,2.12-.04,3.18-.02.39.03.65.13.75.11.11.38.17.83.17,3.84-.02,7.66-.03,11.47-.03h10.13c.06,0,.12,0,.18,0l-14.98-14.97-1.36,1.37Zm33.92,13.6c1.04,0,2.08,0,3.12.02h0c.34,0,.54-.04.62-.12.08-.08.12-.28.12-.57-.02-1.69-.02-3.38-.02-5.07,0-2.09,0-4.19-.03-6.28,0-.42-.23-.97-.53-1.27-1.96-2-3.93-3.98-5.91-5.96-1.3-1.3-2.61-2.61-3.91-3.92-.27-.27-.39-.3-.42-.3-.03,0-.14.02-.38.26-4.59,4.63-9.12,9.15-13.44,13.44-.26.26-.29.38-.29.43,0,.05.04.18.33.47,1.23,1.21,2.45,2.43,3.67,3.65,1.57,1.57,3.14,3.15,4.74,4.69.29.28.84.5,1.28.52,1.08.03,2.17.04,3.25.04l7.8-.02Zm9.91-5.62c.46,0,.92.02,1.38.06.1,0,.19.01.27.01.27,0,.45-.05.54-.14.13-.13.19-.43.19-.91-.04-11.05-.04-21.15,0-30.88,0-.44-.06-.72-.17-.83-.11-.12-.39-.17-.84-.17-3.54.02-7.04.03-10.54.03h-10.49s-19.36,0-19.36,0c-.71,0-1.42,0-2.13-.01h0c-.55,0-.63.07-.64.56-.01.41-.03,1.02.05,1.12.1.09.79.09,1.12.09h35.68c2.1,0,2.74.65,2.75,2.75,0,4.37,0,8.74,0,13.11v7.62c0,2.31.01,4.62-.01,6.93,0,.42.07.57.12.61.06.06.21.09.41.09h.15c.51-.04,1.03-.06,1.54-.06Zm-42.28-14.09c.74,0,1.37.53,1.89,1.04l1.3,1.29c1.53,1.52,3.12,3.08,4.62,4.68.28.3.5.45.65.45s.39-.16.7-.48c3.78-3.84,7.6-7.65,11.41-11.46l2.89-2.89c.68-.68,1.27-1.13,1.96-1.13s1.26.44,1.93,1.11c1.5,1.5,8.39,8.37,8.39,8.37.14.14.28.26.45.41.02-.17.03-.32.03-.47,0-1.42,0-2.85,0-4.27,0-2.94,0-5.89.03-8.83,0-.43-.05-.71-.18-.83-.13-.13-.42-.19-.9-.19-6.97.01-13.93.02-20.9.02s-14.15,0-21.22-.02h0c-.44,0-.71.06-.82.17-.11.11-.17.39-.17.81.03,4.22.03,8.43.02,12.65,0,2.04,0,4.09,0,6.13,0,.21.02.41.05.62l1.5-1.55c1.48-1.52,2.96-3.04,4.44-4.55.53-.54,1.17-1.09,1.92-1.09Z"/>
  <path class="cls-1" d="m23.69,35.54c-.41,0-.81-.13-1.17-.37-.52-.35-.58-1.24-.58-1.61-.02-2.58-.02-5.16-.02-7.74v-5.59c0-2.88,0-5.77,0-8.65,0-3.74,1.82-5.57,5.54-5.57h32.42s8.44,0,8.44,0c3.53,0,5.4,1.84,5.41,5.32.01,5.47.01,10.95-.01,16.42,0,.07-.02,1.59-.77,1.75-.32.07-.67.1-1.04.1-.41,0-.85-.04-1.33-.13-.43-.08-.65-.61-.65-1.59-.01-3.88-.01-7.75-.01-11.63v-4.43c0-1.83-.09-1.92-1.92-1.93h-4.3c-.79,0-1.58,0-2.37,0h0c-.62,0-.78.12-.86.63-.15.92-.44,1.84-.73,2.69-.5,1.48-1.62,2.3-3.16,2.31-2.95.01-5.9.02-8.85.02s-5.78,0-8.68-.02c-1.18,0-2.72-.52-3.37-2.94q-.72-2.69-3.49-2.69h-2.78c-.64,0-1.27,0-1.91,0-1.61.01-1.76.16-1.76,1.72v21.73c0,1.22-.9,2.18-2.05,2.18Zm15.36-25.45c.05.36.1.67.22.88.23.39.59.7.72.71,2.62.03,5.25.05,7.88.05h0c2.59,0,5.17-.02,7.76-.05.13,0,.51-.31.74-.7.12-.2.17-.52.22-.88,0-.02,0-.04,0-.06h-17.56s0,.03,0,.04Z"/>
  <path class="cls-1" d="m47.8,91.89c-6.98,0-13.95,0-20.93-.02-2.9,0-4.89-1.98-4.94-4.91-.02-1.31-.02-2.61-.01-3.92v-1.4c0-1.39,0-2.09,1.62-2.09.16,0,.34,0,.55,0,.22,0,.45.02.72.05l.92.08v6.27c0,1.98.06,2.04,2.07,2.04h40c2.06,0,2.1-.04,2.1-2.12v-2.7c.01-2.47.02-5.03-.02-7.54,0-.41.03-.99.41-1.38.38-.38.92-.43,1.4-.43.62,0,1.22.04,1.62.46.3.3.43.74.42,1.38-.04,2.13-.03,4.26-.03,6.39,0,1.62,0,3.23,0,4.84-.03,3.03-1.98,4.99-4.99,4.99-6.98,0-13.95.01-20.93.01Z"/>
  <path class="cls-1" d="m39.33,21.24c-.55-.02-1.17-.07-1.57-.51-.29-.31-.41-.75-.38-1.39v-.11c.05-.83.1-1.97,1.67-1.97.06,0,.13,0,.2,0,.6.03,1.34.07,1.74.59.25.32.32.75.23,1.32.1.67,0,1.16-.29,1.51-.3.36-.79.54-1.48.54h-.13Z"/>
  <path class="cls-1" d="m56.34,21.24c-.54,0-1.14-.08-1.54-.49-.3-.32-.43-.76-.42-1.41.02-.82.06-2.06,1.74-2.06h.17c.66.03,1.33.1,1.72.6.25.33.32.76.21,1.34.11.64.02,1.13-.26,1.48-.31.37-.81.55-1.54.55h-.09Z"/>
  <path class="cls-1" d="m44.93,21.24c-.41,0-.99-.05-1.4-.45-.41-.41-.46-1.01-.45-1.49,0-1.05.24-2.02,1.85-2.02h.11c.56.01,1.26.09,1.66.59.27.34.35.8.24,1.41.11.6.03,1.06-.24,1.4-.4.49-1.08.57-1.69.58h-.07Z"/>
  <path class="cls-1" d="m50.65,21.25c-.5,0-1.12-.05-1.54-.48-.41-.42-.45-1.04-.44-1.52.01-.54.05-1.96,1.4-1.96.16,0,.34.02.54.07.19-.04.35-.05.51-.05,1.4,0,1.44,1.36,1.45,2.01.01.43-.02,1.05-.43,1.47-.41.42-1.01.47-1.49.47h0Z"/>
  <path class="cls-1" d="m32.32,52.23c-2.64,0-4.74-2.03-4.79-4.62-.05-2.59,2.06-4.75,4.69-4.81h.1c2.57,0,4.68,2.09,4.71,4.66.02,1.27-.46,2.47-1.34,3.36-.88.9-2.06,1.4-3.33,1.41h-.04Zm.22-5.51c-.06,0-.12,0-.18.02-.47.17-.6.53-.6.83,0,.29.14.65.51.78.13.03.18.04.23.04.45,0,.66-.44.66-.85,0-.27-.08-.52-.23-.66-.1-.1-.23-.16-.39-.16Z"/>
</svg>