<?xml version="1.0" encoding="UTF-8"?>
<svg id="Layer_1" data-name="Layer 1" xmlns="http://www.w3.org/2000/svg" viewBox="0 0 100 100">
  <defs>
    <style>
      .cls-1 {
        fill: #eee9dc;
      }
    </style>
  </defs>
  <path class="cls-1" d="m29.98,88.87c-.98,0-1.71-.8-1.73-1.91-.04-2.18-.04-3.95,0-5.56.01-.52-.02-.59-.6-.65-3.69-.38-7.19-1.42-10.42-3.09-1.7-.88-2.58-2.3-2.59-4.19-.03-4.18,1.96-6.82,6.45-8.57.82-.32,1.66-.62,2.52-.92l.7-.25s-.03-.05-.05-.07c-1.52-1.73-2.38-3.75-2.57-6.01-.19-2.36.05-4.4.76-6.26,1.01-2.65,2.99-4.2,5.74-4.48.49-.05,1-.08,1.51-.08,1.26,0,2.54.16,3.71.45,2.19.56,3.74,2.2,4.47,4.76,1.11,3.86.81,7.16-.92,10.07-.31.52-.68.99-1.08,1.48-.07.09-.14.18-.22.27l.48.19c1.03.4,2,.77,3,1.11.12,0,.39-.14.51-.19l.57-.28c1.59-.78,3.23-1.58,4.81-2.43.14-.08.29-.4.41-.64l.11-.24s0,0,0,0c0,0-.01-.06-.02-.11,0-.1-.02-.22,0-.36.21-1.73-.25-3.03-1.54-4.35-1.93-1.96-3.13-4.66-3.54-8.02-.62-5-.09-8.89,1.66-12.25,1.51-2.9,3.98-4.64,7.56-5.33,1.06-.2,2.11-.31,3.13-.31,1.73,0,3.44.3,5.08.88,3.28,1.16,5.46,3.7,6.5,7.55,1.05,3.91,1.09,7.77.1,11.48-.76,2.85-2.11,5.22-4.03,7.07-.47.45-.65.89-.65,1.56q0,2.88,2.56,4.13s.38.18.47.22c1.79.9,2.69,1.35,3.54,1.35.78,0,1.65-.38,3.25-1.13-2.91-3.32-3.55-7.34-1.97-12.28.85-2.63,2.84-4.23,5.75-4.62.65-.09,1.29-.13,1.91-.13.83,0,1.61.08,2.32.23,3.48.75,5.6,3.31,5.98,7.22.4,4.08-.44,7.14-2.64,9.57l.81.31c1.01.39,1.99.76,2.95,1.15,1.94.79,3.52,2.07,4.69,3.79,1.26,1.85,1.43,4.06.49,6.38-.48,1.17-1.79,2-2.34,2.3-2.82,1.55-6.06,2.54-9.91,3.02-.55.07-.59.14-.58.6.04,1.56.03,3.13,0,4.66v.49c0,.05-.02,1.35-.41,1.8-.44.52-1,.53-1.44.53-.86-.04-1.07-.24-1.37-.66l-.06-.08c-.33-.46-.34-1.53-.34-1.65v-1.65c-.02-2.6-.03-5.19,0-7.79.02-1.74-.54-3.1-1.67-4.04-1.34-1.12-2.78-2.11-4.3-2.95-1.72-.95-3.52-1.83-5.27-2.67-.68-.33-1.36-.66-2.04-1-.18-.09-.37-.17-.58-.24l-.02.05c-.11.35-.21.66-.34.96-1.11,2.73-3.72,4.56-6.52,4.56-.11,0-.22,0-.34,0-3.19-.16-5.71-2.15-6.59-5.19-.09-.33-.17-.38-.17-.39-.03,0-.13.01-.33.12-.96.49-1.93.97-2.89,1.45-1.94.96-3.94,1.95-5.85,3.02-1.28.72-2.44,1.76-3.5,2.77-.85.82-1.28,1.96-1.28,3.4,0,2.27,0,4.53,0,6.8v3.37c0,1.11-.62,1.8-1.71,1.89-.05,0-.1,0-.15,0Zm-.31-22.55c-.74,0-1.44.09-2.14.26-1.75.44-3.5,1.08-5.19,1.7l-.3.11c-1.51.55-2.69,1.47-3.51,2.73-.38.58-.49,1.46-.29,2.24.15.56.44.98.8,1.17,2.59,1.33,5.47,2.2,8.82,2.65.07,0,.14.01.2.01.11,0,.14-.02.15-.02,0,0,.05-.07.04-.35-.07-2.75,1.05-5.13,3.33-7.06.81-.69,1.67-1.29,2.58-1.93.19-.14.39-.27.58-.41-1.61-.6-3.32-1.1-5.07-1.1Zm47.49,10.62c.07.07.21.16.27.17,3.29-.42,6.16-1.3,8.72-2.71.3-.16.57-.48.59-.62.18-1.3.26-2.36-.6-3.15l-.39-.37c-.54-.52-1.09-1.05-1.71-1.34-2.98-1.4-5.69-2.55-8.66-2.55-.29,0-.59.01-.88.03-1.09.09-2.16.38-3.29.7-.29.08-.58.16-.87.24.02,0,.03.02.05.03,3.33,1.89,6.73,4.51,6.78,9.57Zm-27.98-16.41c0,.37-.02.73-.03,1.1-.03,1.18-.07,2.3.07,3.39.22,1.75,1.62,2.97,3.4,2.97.1,0,.21,0,.31-.01,1.89-.15,3.19-1.56,3.24-3.5.01-.53.01-1.07,0-1.6,0-.66,0-1.32.02-1.98.01-.27-.03-.36-.03-.37t0,0s-.05-.01-.14-.01c-.1,0-.22.01-.35.03-1.62.23-2.95.34-4.2.35-.67,0-1.29-.13-1.95-.28-.11-.02-.23-.05-.35-.07Zm26.15-10.36c-2.31,0-4.19,1.55-4.67,3.85-.58,2.75-.2,4.97,1.16,6.78.91,1.2,2.14,1.86,3.47,1.86s2.63-.71,3.52-1.95c.95-1.32,1.39-2.85,1.3-4.54,0-.19-.02-.37-.02-.56,0-.4-.02-.77-.08-1.13-.22-1.4-.61-2.8-2.04-3.6-.84-.47-1.76-.71-2.66-.71Zm-50.21,5.88c.05.29.1.59.15.9.12.79.25,1.6.51,2.36.62,1.87,2.29,3.25,3.97,3.28h.12c2.07,0,3.55-1.04,4.41-3.11.94-2.25.92-4.58-.07-6.92-.28-.67-.97-1.38-1.71-1.76-.67-.35-1.41-.52-2.26-.52-.62,0-1.28.09-2.02.28-1.32.34-2.17,1.17-2.52,2.47-.17.62-.27,1.26-.4,1.99-.05.33-.11.66-.18,1.02Zm30.48-13.54c-.11,0-.23.02-.31.06-3.4,1.51-7.01,2.53-11.03,3.11-.39.06-.47.12-.44.63.18,3.06,1,5.51,2.51,7.51,1.66,2.19,3.75,3.35,6.39,3.54,2.53-.18,4.68-1.37,6.31-3.54,1.5-2,2.33-4.46,2.44-7.3.01-.35-.23-.86-.41-.98-1.73-1.08-3.54-2.06-5.29-3.01-.01,0-.07-.03-.17-.03Zm-11.44-.52s.06.01.15.01c.07,0,.15,0,.24-.02,3.35-.53,6.51-1.46,9.38-2.78.55-.25,1.07-.37,1.59-.37.42,0,.84.08,1.25.25,1,.4,1.99.86,2.94,1.3l.99.45c.08.04.16.08.25.12-.6-3.08-1.97-4.91-4.37-5.89-.98-.4-2.08-.59-3.48-.59-.72,0-1.44.05-2.19.1-1.87.13-3.43.88-4.65,2.21-1.24,1.36-1.7,3.09-2.1,4.89-.05.22-.03.31-.02.33,0,0,0,0,0,0Z"/>
  <path class="cls-1" d="m67.29,88.86c-1.03,0-1.74-.71-1.77-1.77-.05-1.66-.05-3.43,0-5.26.03-1.08.74-1.81,1.77-1.81,1.12.03,1.79.76,1.79,1.89,0,.59,0,1.18,0,1.77v1.58c0,.6,0,1.2,0,1.79-.02,1.07-.66,1.76-1.68,1.8h-.1Z"/>
  <path class="cls-1" d="m37.98,88.87c-.97,0-1.66-.77-1.72-1.91-.03-.6-.02-1.21-.02-1.81,0-.26,0-.52,0-.77v-.74c-.01-.58-.02-1.16,0-1.74.04-1.1.67-1.79,1.71-1.89.05,0,.11,0,.16,0,.96,0,1.68.81,1.71,1.92.05,1.76.03,3.54,0,5.04-.02,1.1-.66,1.81-1.71,1.9-.05,0-.1,0-.15,0Z"/>
  <path class="cls-1" d="m13.72,28.76c.78,0,1.41-.63,1.41-1.41v-8.11c.01-.71.59-1.29,1.3-1.29h27.3c.78-.01,1.41-.65,1.41-1.43v-4.58h0v-1.99c0-.78.63-1.41,1.41-1.41h41.62s1.49,0,1.49,0c.78,0,1.41.63,1.41,1.41v36.17c0,.78-.63,1.41-1.41,1.41h-.58c-.78,0-1.41-.63-1.41-1.41V13.36c0-.78-.63-1.41-1.41-1.41h-36.29c-.78,0-1.41.63-1.41,1.41v3.17c0,.78.63,1.41,1.41,1.41h6.8c.78,0,1.41.63,1.41,1.41v.02h.03v6.37c0,.78-.63,1.41-1.41,1.41h-.58c-.78,0-1.41-.63-1.41-1.41v-2.99c0-.78-.63-1.41-1.41-1.41H19.94c-.78,0-1.41.63-1.41,1.41v4.6c0,.78.63,1.41,1.41,1.41h10.69s1.99,0,1.99,0c.78,0,1.41.63,1.41,1.41v10.35c0,.78-.63,1.41-1.41,1.41h-.58c-.78,0-1.41-.63-1.41-1.41v-6.94c0-.78-.63-1.41-1.41-1.41h-15.28c-.78,0-1.41.63-1.41,1.41v10.42c0,.78-.63,1.41-1.41,1.41h-.58c-.78,0-1.41-.63-1.41-1.41v-13.89c0-.74.61-1.34,1.35-1.34h3.25Z"/>
  <path class="cls-1" d="m83.09,18.78c-1.18,0-2.08-.88-2.09-2.05,0-1.16.89-2.1,2.04-2.13h0c.61,0,1.17.24,1.58.66.4.41.62.95.61,1.48-.03,1.14-.96,2.03-2.14,2.04h0Z"/>
  <path class="cls-1" d="m76.36,18.78c-1.21-.03-2.04-.9-2.02-2.11.02-1.18.91-2.07,2.08-2.07,1.17,0,2.09.91,2.11,2.07,0,.57-.2,1.1-.58,1.49-.39.4-.94.62-1.54.62h-.06Z"/>
  <path class="cls-1" d="m68.8,18.78c-1.17,0-2.05-.84-2.09-2-.02-.59.18-1.15.58-1.55.39-.4.93-.63,1.51-.63,1.18,0,2.08.9,2.09,2.08.01,1.19-.85,2.07-2.04,2.1h-.05Z"/>
  <path class="cls-1" d="m25.26,38.35c-1.21-.03-2.04-.9-2.02-2.11.02-1.18.91-2.07,2.08-2.07,1.17,0,2.09.91,2.11,2.07,0,.57-.2,1.1-.58,1.49-.39.4-.94.62-1.54.62h-.06Z"/>
  <path class="cls-1" d="m17.7,38.35c-1.17,0-2.05-.84-2.09-2-.02-.59.18-1.15.58-1.55.39-.4.93-.63,1.51-.63,1.18,0,2.08.9,2.09,2.08.01,1.19-.85,2.07-2.04,2.1h-.05Z"/>
  <path class="cls-1" d="m25.26,44.54c-1.21-.03-2.04-.9-2.02-2.11.02-1.18.91-2.07,2.08-2.07,1.17,0,2.09.91,2.11,2.07,0,.57-.2,1.1-.58,1.49-.39.4-.94.62-1.54.62h-.06Z"/>
  <path class="cls-1" d="m17.7,44.54c-1.17,0-2.05-.84-2.09-2-.02-.59.18-1.15.58-1.55.39-.4.93-.63,1.51-.63,1.18,0,2.08.9,2.09,2.08.01,1.19-.85,2.07-2.04,2.1h-.05Z"/>
  <path class="cls-1" d="m61.62,18.78c-1.17,0-2.05-.84-2.09-2-.02-.59.18-1.15.58-1.55.39-.4.93-.63,1.51-.63,1.18,0,2.08.9,2.09,2.08.01,1.19-.85,2.07-2.04,2.1h-.05Z"/>
  <path class="cls-1" d="m47.92,27.23c-1.21-.03-2.04-.9-2.02-2.11.02-1.18.91-2.07,2.08-2.07,1.17,0,2.09.91,2.11,2.07,0,.57-.2,1.1-.58,1.49-.39.4-.94.62-1.54.62h-.06Z"/>
  <path class="cls-1" d="m40.37,27.23c-1.17,0-2.05-.84-2.09-2-.02-.59.18-1.15.58-1.55.39-.4.93-.63,1.51-.63,1.18,0,2.08.9,2.09,2.08.01,1.19-.85,2.07-2.04,2.1h-.05Z"/>
  <path class="cls-1" d="m33.18,27.23c-1.17,0-2.05-.84-2.09-2-.02-.59.18-1.15.58-1.55.39-.4.93-.63,1.51-.63,1.18,0,2.08.9,2.09,2.08.01,1.19-.85,2.07-2.04,2.1h-.05Z"/>
  <path class="cls-1" d="m25.4,27.23c-1.17,0-2.05-.84-2.09-2-.02-.59.18-1.15.58-1.55.39-.4.93-.63,1.51-.63,1.18,0,2.08.9,2.09,2.08.01,1.19-.85,2.07-2.04,2.1h-.05Z"/>
  <path class="cls-1" d="m83.09,25.5c-1.18,0-2.08-.88-2.09-2.05,0-1.16.89-2.1,2.04-2.13h0c.61,0,1.17.24,1.58.66.4.41.62.95.61,1.48-.03,1.14-.96,2.03-2.14,2.04h0Z"/>
  <path class="cls-1" d="m76.36,25.5c-1.21-.03-2.04-.9-2.02-2.11.02-1.18.91-2.07,2.08-2.07,1.17,0,2.09.91,2.11,2.07,0,.57-.2,1.1-.58,1.49-.39.4-.94.62-1.54.62h-.06Z"/>
  <path class="cls-1" d="m68.8,25.5c-1.17,0-2.05-.84-2.09-2-.02-.59.18-1.15.58-1.55.39-.4.93-.63,1.51-.63,1.18,0,2.08.9,2.09,2.08.01,1.19-.85,2.07-2.04,2.1h-.05Z"/>
  <path class="cls-1" d="m83.09,31.63c-1.18,0-2.08-.88-2.09-2.05,0-1.16.89-2.1,2.04-2.13h0c.61,0,1.17.24,1.58.66.4.41.62.95.61,1.48-.03,1.14-.96,2.03-2.14,2.04h0Z"/>
  <path class="cls-1" d="m76.36,31.63c-1.21-.03-2.04-.9-2.02-2.11.02-1.18.91-2.07,2.08-2.07,1.17,0,2.09.91,2.11,2.07,0,.57-.2,1.1-.58,1.49-.39.4-.94.62-1.54.62h-.06Z"/>
  <path class="cls-1" d="m68.8,31.63c-1.17,0-2.05-.84-2.09-2-.02-.59.18-1.15.58-1.55.39-.4.93-.63,1.51-.63,1.18,0,2.08.9,2.09,2.08.01,1.19-.85,2.07-2.04,2.1h-.05Z"/>
  <path class="cls-1" d="m83.09,37.96c-1.18,0-2.08-.88-2.09-2.05,0-1.16.89-2.1,2.04-2.13h0c.61,0,1.17.24,1.58.66.4.41.62.95.61,1.48-.03,1.14-.96,2.03-2.14,2.04h0Z"/>
  <path class="cls-1" d="m76.36,37.96c-1.21-.03-2.04-.9-2.02-2.11.02-1.18.91-2.07,2.08-2.07,1.17,0,2.09.91,2.11,2.07,0,.57-.2,1.1-.58,1.49-.39.4-.94.62-1.54.62h-.06Z"/>
  <path class="cls-1" d="m68.8,37.96c-1.17,0-2.05-.84-2.09-2-.02-.59.18-1.15.58-1.55.39-.4.93-.63,1.51-.63,1.18,0,2.08.9,2.09,2.08.01,1.19-.85,2.07-2.04,2.1h-.05Z"/>
  <path class="cls-1" d="m61.62,25.5c-1.17,0-2.05-.84-2.09-2-.02-.59.18-1.15.58-1.55.39-.4.93-.63,1.51-.63,1.18,0,2.08.9,2.09,2.08.01,1.19-.85,2.07-2.04,2.1h-.05Z"/>
  <g>
    <path class="cls-1" d="m52.61,17.94c.37.52.98.84,1.7.84h.05c.69-.01,1.27-.32,1.63-.81l-3.39-.03Z"/>
    <path class="cls-1" d="m56.3,16.05c-.26-.85-1.02-1.44-1.98-1.45-.59,0-1.12.22-1.51.63-.22.23-.37.5-.47.79l3.96.03Z"/>
  </g>
</svg>