<?xml version="1.0" encoding="UTF-8"?>
<svg id="Layer_1" data-name="Layer 1" xmlns="http://www.w3.org/2000/svg" viewBox="0 0 100 100">
  <defs>
    <style>
      .cls-1 {
        fill: #eee9dc;
      }
    </style>
  </defs>
  <g id="P3DhhZ.tif">
    <g>
      <path class="cls-1" d="m45.44,31.87c-.15,4.82,6.16,19.11,9.96,22.56.44-2.99.86-5.91,1.3-8.92,1.11.16,2.17.3,3.21.51.12.02.26.47.23.69-.39,2.7-.82,5.4-1.23,8.1-.28,1.79-.55,3.58-.83,5.37-.02.15-.07.3-.13.52-4.64-.74-9.24-1.48-13.95-2.24.22-1.23.44-2.41.66-3.64,2.75.46,5.4.9,8.23,1.38-.75-.97-1.4-1.78-2.03-2.61-4.02-5.34-6.92-11.2-8.29-17.78-.2-.98-.28-1.98-.51-2.95-.78-3.32-.27-6.67-.37-10.01-.09-3.18-.02-6.36-.02-9.62.32-.02.6-.05.88-.05,5.62,0,11.25.01,16.87-.02.79,0,.96.26.95.99-.03,5.57-.03,11.14,0,16.72,0,.8-.22,1.03-1.02,1.02-4.31-.04-8.62-.02-12.93-.02-.31,0-.62,0-.98,0Zm10.92-15.09h-11.07v11.1c.19.02.32.05.45.05,3.34,0,6.67,0,10.01.01.58,0,.7-.24.7-.75-.02-3.26,0-6.51-.01-9.77,0-.2-.04-.41-.06-.65Z"/>
      <path class="cls-1" d="m13.51,12.99h.79c5.65,0,11.3.01,16.94-.02.71,0,.93.18.93.92-.03,5.62-.03,11.24,0,16.86,0,.7-.16.96-.91.95-5.65-.03-11.3-.02-16.94,0-.62,0-.88-.12-.87-.81.03-5.73.01-11.45.02-17.18,0-.2.03-.41.05-.72Zm3.73,14.89c.19.03.32.06.44.06,3.36,0,6.72,0,10.08.01.56,0,.64-.25.64-.72-.01-3.28,0-6.56-.01-9.85,0-.2-.05-.4-.07-.58h-11.08v11.08Z"/>
      <path class="cls-1" d="m69.47,13.04h18.66c.02.3.04.55.04.81,0,5.65-.01,11.3.02,16.95,0,.76-.25.91-.95.91-5.62-.02-11.25-.03-16.87,0-.73,0-.93-.21-.92-.93.03-5.62.02-11.25.02-16.87v-.87Zm3.78,14.84c.2.03.33.06.45.06,3.36,0,6.73,0,10.09.01.57,0,.63-.26.63-.72-.01-3.29,0-6.57,0-9.86,0-.2-.05-.4-.07-.57h-11.1v11.08Z"/>
      <path class="cls-1" d="m60.15,84.46c-1.14,1.14-2.09,2.11-3.12,3.13-.16-.14-.35-.29-.53-.47-1.71-1.71-3.43-3.4-5.12-5.13-.43-.44-.68-.46-1.13,0-1.66,1.71-3.37,3.39-5.06,5.08-.18.18-.38.36-.54.51-1.01-1.03-1.99-2.03-3.07-3.14.94-.92,1.99-1.94,3.03-2.97,1.03-1.01,2.05-2.02,3.22-3.18-2.17-2.1-4.26-4.12-6.28-6.07,1.06-1.08,2.03-2.06,3.06-3.11.19.18.42.38.64.6,1.67,1.67,3.36,3.33,5,5.02.45.46.7.42,1.13-.02,1.65-1.69,3.33-3.35,5.01-5.02.2-.2.41-.39.56-.53,1.02,1.02,1.99,1.99,2.98,2.98-1.97,1.93-4.04,3.96-6.21,6.1,2.28,2.2,4.36,4.22,6.43,6.22Z"/>
      <path class="cls-1" d="m78.82,41.01c5.12,0,9.36,4.22,9.35,9.33,0,5.11-4.23,9.34-9.34,9.35-5.11,0-9.35-4.23-9.35-9.34,0-5.12,4.22-9.34,9.34-9.34Zm-5.59,9.33c0,3.07,2.58,5.64,5.63,5.61,3.04-.03,5.56-2.56,5.56-5.6,0-3.05-2.5-5.57-5.55-5.59-3.1-.02-5.64,2.5-5.64,5.58Z"/>
      <path class="cls-1" d="m13.47,50.36c0-5.13,4.19-9.34,9.32-9.35,5.13,0,9.35,4.19,9.37,9.31.02,5.1-4.21,9.34-9.33,9.36-5.11.02-9.35-4.2-9.35-9.32Zm3.75-.05c-.01,3.1,2.5,5.64,5.59,5.64,3.03,0,5.57-2.52,5.6-5.57.03-3.07-2.52-5.62-5.6-5.62-3.07,0-5.57,2.49-5.58,5.55Z"/>
      <path class="cls-1" d="m28.88,69c1.13,1.15,2.1,2.14,3.09,3.14-2,1.97-4.07,4.01-6.27,6.18,2.23,2.17,4.32,4.19,6.36,6.17-1.06,1.06-2.04,2.04-3.04,3.04-1.98-2-4.02-4.07-6.17-6.24-2.18,2.22-4.21,4.3-6.21,6.33-1.06-1.06-2.04-2.04-3.08-3.09,2.02-1.97,4.09-4,6.28-6.14-2.22-2.16-4.3-4.19-6.35-6.18,1.08-1.09,2.05-2.07,3.06-3.09,2.01,2.03,4.05,4.09,6.12,6.18,2.16-2.19,4.18-4.25,6.21-6.31Z"/>
      <path class="cls-1" d="m84.94,69.05c1.09,1.1,2.07,2.08,3.06,3.08-2,1.97-4.06,4.01-6.23,6.16,2.22,2.18,4.29,4.21,6.31,6.21-1.05,1.05-2.03,2.03-3.05,3.04-1.97-2-4.01-4.06-6.16-6.25-2.17,2.22-4.19,4.3-6.16,6.32-1.07-1.06-2.05-2.03-3.08-3.05,2.01-1.97,4.08-4,6.26-6.14-2.23-2.17-4.31-4.2-6.36-6.19,1.09-1.08,2.07-2.05,3.09-3.05,1.97,2,4.01,4.06,6.16,6.24,2.16-2.23,4.18-4.31,6.17-6.36Z"/>
    </g>
  </g>
</svg>