<?xml version="1.0" encoding="UTF-8"?>
<svg id="Layer_1" data-name="Layer 1" xmlns="http://www.w3.org/2000/svg" viewBox="0 0 100 100">
  <defs>
    <style>
      .cls-1 {
        fill: #eee9dc;
      }
    </style>
  </defs>
  <path class="cls-1" d="m13.5,28.16c1.02.07,1.37-.7,1.39-1.59.02-.67.28-1.05.96-.95,2.12.31,2.31-1.45,2.92-2.73.5-1.04-.08-1.76-.82-2.38-.6-.51-.48-.92.04-1.41.78-.73,1.54-1.48,2.27-2.27.51-.55.93-.56,1.41.01.63.75,1.36,1.29,2.39.78,1.23-.61,2.97-.75,2.69-2.83-.1-.72.25-1.05.99-1.03,1.07.03,2.14.03,3.21,0,.77-.03.97.34.98,1.05,0,.55.05,1.2.35,1.62.99,1.37,3.47,1.56,4.67.39.53-.52.91-.54,1.42,0,.75.81,1.54,1.59,2.35,2.35.52.48.45.85-.01,1.34-.41.43-.9.93-1,1.47-.3,1.58,1.4,3.55,3.03,3.62.66.02.99.23.97.93-.03,1.11-.03,2.22,0,3.33.02.7-.26.93-.94.94-.59.01-1.29.04-1.73.36-1.38,1.02-1.54,3.47-.36,4.67.53.54.52.92-.02,1.42-.73.68-1.45,1.37-2.1,2.11-.62.71-1.1.77-1.76.03-.33-.38-.84-.75-1.31-.83-1.62-.25-3.54,1.41-3.58,3.05-.01.67-.21.98-.92.96-1.11-.04-2.22-.03-3.33,0-.7.02-1.02-.28-.92-.96.3-2.05-1.37-2.25-2.63-2.87-1.1-.53-1.82.03-2.47.8-.5.6-.93.48-1.41-.04-.68-.73-1.37-1.45-2.11-2.1-.71-.62-.78-1.14,0-1.75.69-.54,1.1-1.24.69-2.11-1.28-2.69-.5-2.85-3.88-2.78-.11,0-.23,0-.34,0-1.6,0-2.37.46-2.33,1.38.04.9.67,1.22,2.32,1.27.32.01.64.1.96.18.11.03.21.05.32.08-.23.4-.45.81-.68,1.21-.06.1-.16.17-.24.25-1.07,1.1-1.07,1.71,0,2.8,1.54,1.54,3.07,3.09,4.62,4.62,1.14,1.13,1.63,1.12,2.79.04.4-.37.89-.66,1.34-.98.12.56.31,1.12.34,1.68.08,1.5.45,1.93,1.92,1.94,2.29.02,4.59.03,6.88,0,1.26-.02,1.63-.43,1.73-1.64.03-.33.08-.65.14-.98.06-.32.13-.65.18-.97.13.09.27.19.41.28.41.27.82.54,1.19.86.92.79,1.5.82,2.39-.02.69-.66,1.3-1.42,2.05-2,.5-.38,1.18-.74,1.78-.74,6.2-.05,12.39-.03,18.59-.04.38,0,.88.11,1.12-.08.42-.35.9-.88.91-1.35,0-.37-.6-.84-1.03-1.11-.28-.17-.75-.06-1.13-.06-5.09,0-10.17,0-15.26,0-.81,0-1.53.07-1.46-1.13.02-.33-.41-.69-.65-1.03-.34-.48-.69-.96-1.04-1.43.6-.13,1.19-.34,1.79-.38,1.39-.1,1.81-.43,1.83-1.78.03-2.33.03-4.67,0-7-.02-1.29-.47-1.7-1.75-1.75-.62-.02-1.24,0-2.11,0,.91-1.39,1.62-2.48,2.33-3.56-.09-.11-.18-.22-.26-.34h1.46c8.72,0,17.44,0,26.16,0,.9,0,1.64-.25,1.68-1.29.04-1.07-.7-1.33-1.61-1.33-.42,0-.84,0-1.26,0-8.49,0-16.98-.11-25.47.06-2.73.05-4.87-.43-6.56-2.69-.82-1.1-1.61-.98-2.62-.07-.45.41-1.01.7-1.52,1.04-.1-.58-.25-1.15-.28-1.73-.08-1.52-.43-1.91-1.94-1.91-2.26-.01-4.51-.02-6.77,0-1.3.01-1.78.5-1.82,1.82-.02.62,0,1.24,0,1.86-.15.06-.29.12-.44.17-.45-.42-.91-.83-1.36-1.26-.95-.9-1.63-.91-2.56,0-1.55,1.53-3.08,3.08-4.62,4.62-1.26,1.26-1.25,1.79-.02,3.05.36.37.67.8,1.12,1.34-.49.12-.67.18-.85.2q-3.17.24-3.1,3.43s0,.08,0,.11c0,.9.31,1.66,1.29,1.73Z"/>
  <path class="cls-1" d="m87.36,66.24c-7.53,0-15.07,0-22.6,0-7.65,0-15.3,0-22.94,0-1.61,0-1.97.37-1.97,1.95,0,6.58,0,13.15,0,19.73,0,1.61.4,1.99,2.06,2,3.59,0,7.19,0,10.78,0,.5,0,1,.03,1.49-.02.75-.09,1.31-.44,1.33-1.3.02-.86-.5-1.24-1.27-1.33-.38-.05-.76-.04-1.15-.04-3.1,0-6.19-.03-9.29.01-1.01.02-1.4-.26-1.39-1.35.06-5.2.06-10.4,0-15.6-.01-1.13.35-1.4,1.43-1.4,13.92.03,27.84.04,41.76,0,1.2,0,1.46.39,1.45,1.51-.05,5.08-.02,10.17-.02,15.26,0,1.57,0,1.57-1.61,1.57-8.26,0-16.52,0-24.78,0-.46,0-1-.09-1.35.12-.43.25-.95.76-.96,1.18-.01.42.47.96.88,1.26.29.21.81.13,1.23.13,8.99,0,17.97,0,26.96,0,1.95,0,2.34-.39,2.34-2.35,0-6.31,0-12.62,0-18.93,0-2.09-.31-2.4-2.38-2.4Z"/>
  <path class="cls-1" d="m35.37,68.89c-2.83.02-5.66-.05-8.49.03-1.18.03-1.5-.37-1.49-1.51.05-5.12.02-10.24.02-15.37,0-1.53,0-1.53,1.5-1.53,13.8,0,27.6,0,41.4,0q1.71,0,1.72,1.76c0,3.25-.01,6.5.01,9.75,0,1.25.92,1.99,1.8,1.41.43-.29.76-1.05.77-1.6.06-3.94.04-7.87.03-11.81,0-1.86-.25-2.11-2.14-2.11-7.61,0-15.22,0-22.82,0-7.68,0-15.37,0-23.05,0-1.48,0-1.9.39-1.9,1.8-.01,6.65-.01,13.3,0,19.95,0,1.37.49,1.84,1.88,1.85,3.59,0,7.19,0,10.78,0,1.14,0,1.83-.5,1.77-1.32-.08-1.1-.85-1.3-1.79-1.29Z"/>
  <path class="cls-1" d="m91.06,18.27c0-.91-.18-1.81-1.28-1.82-4.01-.05-8.03-.05-12.04.04-.39,0-1.21.27-1.19,1.21.02,1.05.67,1.16,1.14,1.26.27.06.66.06,1.01.06,2.79,0,5.58.04,8.37-.02,1-.02,1.33.27,1.32,1.29-.04,5.24-.05,10.47,0,15.71,0,1.11-.35,1.44-1.45,1.43-6.16-.05-12.31-.02-18.47-.02-.42,0-.93-.12-1.24.07-.46.29-1.02.78-1.06,1.23-.04.39.53.91.94,1.23.22.17.66.08,1.01.08,3.48,0,6.96,0,10.44,0,3.36,0,6.73,0,10.09,0,2.1,0,2.41-.31,2.41-2.36,0-2.75,0-5.51,0-8.26,0-3.71,0-7.42,0-11.12Z"/>
  <path class="cls-1" d="m27.56,75.82c-.32-.26-1.09-.32-1.44-.11-.35.2-.48.84-.61,1.31-.06.22.09.51.16.81-.18.1-.25.17-.32.17-3.21.02-6.42.06-9.63,0-.27,0-.76-.63-.76-.97-.05-5.47-.03-10.94-.04-16.4,0-.71.31-.94.98-.92.8.03,1.61,0,2.41,0,.93.01,1.7-.23,1.82-1.3.09-.83-.56-1.31-1.74-1.33-1.41-.02-2.83-.02-4.24,0-1.53.02-1.9.39-1.9,1.92,0,6.58,0,13.15,0,19.73,0,1.49.5,1.97,2.01,1.97,3.1,0,6.19,0,9.29,0,.72,0,1.43,0,2.19,0-.04.26-.03.38-.07.48-.37.75-.35,1.45.4,1.91.69.43,1.31.12,1.84-.42.75-.76,1.52-1.51,2.26-2.28.53-.55.75-1.21.18-1.84-.88-.95-1.77-1.91-2.76-2.74Z"/>
  <path class="cls-1" d="m35.07,31.8c.74.3,1.51-.25,1.79-1.31.84-3.24.15-6.09-2.4-8.31-2.47-2.15-5.35-2.57-8.34-1.27-3.09,1.35-4.6,3.87-4.73,6.45-.01,6.09,5.07,9.9,10.19,8.38.84-.25,1.63-.64,1.43-1.73-.16-.86-.91-1.09-2.11-.82-2.26.51-4.28.1-5.75-1.83-1.32-1.73-1.52-3.64-.54-5.59,1.24-2.47,3.98-3.49,6.62-2.53,2.48.9,3.86,3.7,3.09,6.5-.26.95-.23,1.68.76,2.07Z"/>
  <path class="cls-1" d="m79.88,52.06c-.71-.52-1.29-.18-1.82.34-.79.78-1.58,1.55-2.34,2.35-.54.57-.68,1.24-.12,1.84.88.95,1.78,1.89,2.77,2.72.31.26,1.1.31,1.41.09.36-.26.48-.91.62-1.42.06-.21-.09-.47-.15-.7.15-.07.22-.13.29-.13,1.07-.02,2.14-.03,3.2-.04,1.58-.02,1.98-.41,2-1.96.02-1.83,0-3.66,0-5.5,0-1.87.03-3.74-.03-5.61-.04-1.2-1.11-1.84-1.93-1.15-.37.31-.62.96-.63,1.46-.06,2.98-.01,5.95-.05,8.93,0,.36-.28.99-.51,1.03-.76.13-1.55.05-2.37.05.03-.3,0-.43.05-.52.41-.72.25-1.33-.4-1.8Z"/>
  <path class="cls-1" d="m54.59,72.86c-1.08-1.23-2.46-1.66-4.03-1.22-1.56.44-2.65,1.79-2.79,3.28-.08.83.05,1.59,1.04,1.74.94.14,1.42-.4,1.56-1.28.13-.81.63-1.33,1.39-1.18.44.09.96.64,1.1,1.09.23.73-.3,1.2-1.02,1.38-.77.2-1.52.44-1.46,1.45.05.91.75,1.09,1.46,1.35.42.16.89.62,1.02,1.03.21.72-.26,1.28-.98,1.41-.86.15-1.36-.33-1.5-1.18-.15-.87-.6-1.43-1.54-1.3-1,.14-1.13.89-1.06,1.72.16,1.96,1.85,3.44,3.9,3.42,2.85-.02,4.77-2.93,3.55-5.48-.36-.75-.4-1.29-.02-2.08.68-1.44.5-2.92-.59-4.16Z"/>
  <path class="cls-1" d="m83.33,29.46c.45-.1,1.03-.14,1-1.29-.03-1.07-.41-1.03-1.05-1.21-.28-.07-.67-.06-1.01-.06-3.4,0-6.8,0-10.2,0-3.63,0-7.26,0-10.89,0-1.28,0-1.93.77-1.54,1.77.3.78.99.84,1.71.84,7.07,0,14.14,0,21.21,0,.27,0,.58,0,.78-.06Z"/>
  <path class="cls-1" d="m37.16,56.76c-.02-1.91-1.78-3.57-3.75-3.67-1.83-.09-3.68,1.34-4.01,3.12-.22,1.13.17,2.01,1.01,2.11,1,.11,1.46-.48,1.56-1.42.01-.11.06-.22.11-.33.34-.71,1.18-.98,1.84-.58.79.47.44.99.07,1.53-1.45,2.16-2.9,4.31-4.31,6.49-.72,1.11-.26,2.13,1.04,2.2,1.68.1,3.36.06,5.05.02.83-.02,1.42-.46,1.39-1.35-.04-.86-.64-1.27-1.47-1.3-.72-.03-1.44,0-2.54,0,1.29-1.95,2.4-3.58,3.45-5.25.29-.46.57-1.05.56-1.57Z"/>
  <path class="cls-1" d="m60.37,76.91c-.34.22-.73.65-.75,1-.01.41.26.95.59,1.21.31.25.86.27,1.3.28,3.29.02,6.57.01,9.86.01,2.68,0,5.35,0,8.03,0,.76,0,1.53.04,2.29-.02.8-.07,1.41-.46,1.41-1.35,0-.85-.58-1.18-1.34-1.28-.19-.03-.38-.03-.57-.03-6.57,0-13.15,0-19.72,0-.38,0-.82,0-1.11.18Z"/>
  <path class="cls-1" d="m59.58,83.49c.12.94.81,1.11,1.59,1.11,3.4,0,6.81,0,10.21,0,3.33,0,6.65,0,9.98,0,.72,0,1.4-.08,1.7-.87.34-.9-.36-1.73-1.51-1.74-3.25-.02-6.5,0-9.75,0-3.56,0-7.11,0-10.67,0-1.11,0-1.67.57-1.55,1.5Z"/>
  <path class="cls-1" d="m41.17,61.01c0,1.03.75,1.31,1.66,1.29.46-.01.92,0,1.38,0,6.65,0,13.3.02,19.94-.03.57,0,1.35-.24,1.68-.65.67-.86-.1-1.9-1.36-1.91-3.63-.02-7.26,0-10.89,0-3.59,0-7.18,0-10.77,0-.92,0-1.65.29-1.64,1.31Z"/>
  <path class="cls-1" d="m64.41,34.76c5.92,0,11.85,0,17.77,0,.42,0,.91.07,1.23-.13.4-.24.9-.71.92-1.1.03-.4-.38-.95-.75-1.24-.28-.22-.8-.19-1.21-.2-3.02-.01-6.04,0-9.06,0-2.98,0-5.96,0-8.94,0-1.52,0-2.24.45-2.23,1.36,0,.92.66,1.31,2.26,1.31Z"/>
  <path class="cls-1" d="m51.73,32.13c-.79-.03-1.39.45-1.37,1.35.02.86.61,1.22,1.36,1.24,1.68.04,3.36.04,5.03,0,.83-.01,1.42-.45,1.4-1.33-.02-.79-.57-1.31-1.34-1.28-1.15.05-1.29-.52-1.28-1.47.05-2.48.06-4.96-.03-7.44-.02-.51-.41-1.16-.84-1.43-.29-.18-1.05.04-1.39.33-.93.79-1.81,1.65-2.56,2.6-.27.34-.32,1.17-.08,1.51.24.34.94.39,1.46.5.18.04.4-.14.82-.3,0,1.53-.04,2.93.02,4.32.04.9-.1,1.43-1.2,1.38Z"/>
  <path class="cls-1" d="m73.86,74.1c2.52,0,5.04,0,7.56,0,.9,0,1.62-.23,1.69-1.27.06-.83-.61-1.34-1.74-1.34-4.93,0-9.85,0-14.78-.01-.96,0-1.69.25-1.82,1.29-.1.8.62,1.32,1.76,1.32,2.44.01,4.89,0,7.33,0Z"/>
  <path class="cls-1" d="m83.72,21.86c-.32-.24-.86-.26-1.3-.26-2.36-.02-4.73-.01-7.09-.01-2.36,0-4.73,0-7.09,0-1.45,0-2.12.43-2.13,1.34,0,.94.61,1.33,2.12,1.35.04,0,.08,0,.11,0,4.62,0,9.23,0,13.85,0,.45,0,.97.03,1.34-.17.38-.21.8-.67.84-1.06.03-.39-.3-.93-.64-1.19Z"/>
  <path class="cls-1" d="m49.83,57.11c4.7,0,9.4,0,14.11,0,.45,0,.98,0,1.32-.23.35-.24.71-.75.71-1.14,0-.39-.39-.88-.74-1.13-.3-.21-.8-.19-1.21-.2-2.37-.02-4.74,0-7.11,0-2.14,0-4.28,0-6.42,0-.5,0-1-.03-1.49.04-.7.11-1.21.47-1.23,1.27-.02.79.45,1.18,1.16,1.34.29.06.61.06.91.06Z"/>
</svg>