<?xml version="1.0" encoding="UTF-8"?>
<svg id="Layer_1" data-name="Layer 1" xmlns="http://www.w3.org/2000/svg" viewBox="0 0 100 100">
  <defs>
    <style>
      .cls-1 {
        fill: #9daf82;
      }
    </style>
  </defs>
  <g id="stKJlS.tif">
    <g>
      <path class="cls-1" d="m46.37,96.38c-4.18,0-8.36,0-12.54-.02-4.3-.01-7.58-3.29-7.62-7.62-.03-3.35-.02-6.7-.02-10.06v-4.39c0-1.41.01-2.82.02-4.23.02-3.16.05-6.43-.05-9.63-.07-2.3.71-4.42,2.22-5.97,1.44-1.49,3.4-2.31,5.51-2.31.18,0,.37,0,.56.02,0,0,.2.02.24.02.06-.03.11-.06.16-.09-.03-.07-.06-.13-.09-.15-1.57-.62-2.37-1.83-2.31-3.57,0-.18,0-.36,0-.54,0-.29,0-.57.02-.86.11-1.54,1.26-2.78,2.78-3.02.4-.06.8-.06,1.19-.06h22.89c2.69,0,3.91,1.22,3.98,3.97.04,1.51-.21,3.34-2.39,4.12-.01.04-.03.09-.04.15.02.01.04.02.06.02.22.03.47.03.71.03h.27c.21,0,.42,0,.62.02,3.66.25,6.65,3.19,6.96,6.84.04.41.06.83.06,1.24v9.32c0,6.21,0,12.42,0,18.63,0,3.43-1.41,5.88-4.2,7.27-1.03.52-2.28.82-3.42.82-5.2.03-10.4.04-15.59.04Zm-12.04-41.05c-3.21,0-4.98,1.76-4.98,4.96,0,3.2,0,6.41,0,9.61v8.65c0,3.26,0,6.52,0,9.79,0,3.09,1.78,4.86,4.87,4.86h27.31c3.12,0,4.91-1.8,4.91-4.94,0-9.32,0-18.64,0-27.95,0-3.2-1.77-4.97-4.98-4.97-4.52,0-9.04,0-13.56,0s-9.04,0-13.56,0Zm23.32-3.14s0-.05,0-.06c-.02,0-19.53,0-19.55,0,0,.02,0,.06,0,.06,0,0,.29-.01.36-.01,1.66,0,7.16,0,7.16,0h6.65c1.67,0,3.33,0,5,0,.08,0,.37.02.37.02Zm-6.17-3.2c2.59,0,5.17,0,7.76-.02.26,0,.56-.05.73-.1.12-.57.15-1.14.06-1.62-.17-.08-.53-.18-.8-.18-2-.02-3.99-.02-5.99-.02h-16.77c-.59,0-.74.06-.78.08-.04.05-.08.24-.08.89,0,.69.06.85.09.89.03.02.16.08.77.08h9.36s5.64,0,5.64,0Z"/>
      <path class="cls-1" d="m47.9,27.51c4.45,0,8.07,3.63,8.07,8.07,0,4.43-3.66,8.06-8.1,8.05-4.44,0-8.06-3.64-8.05-8.08,0-4.46,3.62-8.04,8.08-8.04Zm-.04,14.07c3.33.01,6.05-2.65,6.08-5.97.03-3.3-2.67-6.04-5.99-6.07-3.37-.04-6.12,2.67-6.11,6.02,0,3.33,2.67,6.01,6.02,6.02Z"/>
      <path class="cls-1" d="m60.23,84.99c-.08,1.25-.52,2.09-1.56,2.56-.15.07-.26.38-.27.58,0,.08.32.24.5.25,1.19.02,2.39,0,3.58.02,1.58.02,2.58.96,2.57,2.37-.01,1.38-.98,2.31-2.53,2.32-3.28.02-6.55.01-9.83,0-2.15,0-2.77-.51-3.23-2.7-1.15,0-2.34.01-3.52,0-.49,0-1,0-1.46-.14-.86-.25-1.4-.85-1.57-1.75-.17-.91.03-1.77.82-2.28.63-.41,1.01-.79,1.1-1.6.12-.94,1.1-1.6,2.17-1.66.58-.04,1.17.02,1.74-.03.28-.02.54-.2.82-.31-.24-.13-.46-.32-.71-.37-1.53-.34-2.38-1.82-1.8-3.22.38-.9,1.08-1.44,2.06-1.45,3.67-.03,7.35-.04,11.02,0,1.19.01,1.95.76,2.18,1.98.09.46.26.65.73.74,1.37.27,2.1,1.25,1.99,2.54-.1,1.24-1.07,2.08-2.45,2.12-.76.02-1.52,0-2.36,0Zm-15.35,3c.73.6,10.84.55,11.34,0-.63-.39-10.53-.42-11.34,0Zm15.46-8.1c-.92-.49-10.84-.41-11.38.06.68.46,10.64.45,11.38-.06Zm-7.89,5.78c1.62,0,3.24.01,4.86-.01.26,0,.51-.19.77-.29-.23-.12-.47-.34-.7-.35-3.3-.03-6.6-.03-9.89-.01-.22,0-.45.2-.67.3.23.12.47.34.7.35,1.65.03,3.3.02,4.95.02Zm-.83-2.96c.97.4,10.79.32,11.34-.05-.57-.54-10.69-.55-11.34.05Zm.03,7.94c1.32.62,10.84.47,11.44-.03-.37-.09-.63-.21-.9-.21-3.24-.01-6.48-.01-9.71,0-.27,0-.55.15-.82.24Z"/>
      <path class="cls-1" d="m42.85,64.89c.09-4.32,3.65-7.75,7.92-7.62,4.31.12,7.68,3.68,7.57,7.98-.11,4.23-3.7,7.64-7.92,7.53-4.26-.11-7.65-3.65-7.56-7.89Zm13.44.12c0-3.19-2.53-5.7-5.71-5.69-3.16,0-5.72,2.58-5.71,5.72.01,3.14,2.6,5.72,5.74,5.71,3.16,0,5.69-2.56,5.69-5.74Z"/>
      <path class="cls-1" d="m32.89,67.22c.2.06.62.14,1.01.31,3.1,1.38,6.2,2.76,9.3,4.16,1.5.68,2.07,2.08,1.38,3.37-.57,1.08-1.8,1.58-2.98,1.06-3.34-1.45-6.66-2.94-9.96-4.46-1.07-.49-1.55-1.65-1.26-2.68.29-1.06,1.21-1.77,2.53-1.76Zm-.56,2.29c.76.82,9.8,4.74,10.4,4.54-.4-.73-9.61-4.81-10.4-4.54Z"/>
      <path class="cls-1" d="m32.59,90.88c-1.29-.02-2.2-.73-2.47-1.74-.28-1.02.14-2.09,1.13-2.67,1.4-.81,2.84-1.57,4.26-2.35,1.66-.91,3.32-1.84,4.98-2.74,1.36-.74,2.76-.38,3.41.83.64,1.19.21,2.55-1.08,3.27-3.05,1.7-6.1,3.37-9.17,5.03-.39.21-.85.29-1.06.36Zm9.59-7.48c-.04-.11-.08-.21-.13-.32-.3.08-.62.11-.89.25-2.66,1.44-5.31,2.9-7.96,4.36-.27.15-.56.27-.79.46-.13.11-.17.33-.25.5.19.02.39.06.58.04.11,0,.22-.1.32-.16,2.81-1.54,5.62-3.08,8.43-4.63.24-.13.45-.33.68-.49Z"/>
      <path class="cls-1" d="m50.22,70.46v-.96c-.26-.04-.52-.12-.78-.24-.38-.17-.69-.39-.93-.66l-.2-.23.88-1.19.3.35c.16.18.34.32.53.42.06.03.13.06.19.08v-2.4c-.17-.07-.33-.16-.48-.24-.24-.14-.44-.3-.62-.5-.18-.2-.32-.44-.43-.72-.1-.27-.15-.6-.15-.97,0-.72.19-1.31.57-1.75.31-.35.68-.58,1.11-.7v-.98h1.17v.94c.24.03.47.09.69.18.36.14.67.36.92.67l.18.22-.87,1.19-.3-.4c-.12-.15-.26-.27-.44-.36-.06-.03-.13-.06-.19-.08v2.35c.17.08.33.15.48.24.25.13.48.3.67.49.2.2.35.44.47.72s.17.62.17,1.01-.05.72-.16,1.02c-.11.31-.26.58-.45.8-.19.23-.43.41-.7.54-.16.08-.33.14-.51.17v.96h-1.17Zm1.19-2.1s.1-.09.14-.14c.27-.28.4-.7.4-1.23,0-.27-.04-.5-.11-.67-.07-.17-.17-.32-.29-.44-.05-.05-.09-.09-.14-.13v2.61Zm-1.22-6.59c-.32.3-.48.77-.48,1.37,0,.34.05.62.13.84.08.21.19.37.33.5.02.02.03.03.05.05v-2.79s-.02.02-.03.03Z"/>
      <path class="cls-1" d="m47.34,41.2v-.96c-.26-.04-.52-.12-.78-.24-.38-.17-.69-.39-.93-.66l-.2-.23.88-1.19.3.35c.16.18.34.32.53.42.06.03.13.06.19.08v-2.4c-.17-.07-.33-.16-.48-.24-.24-.14-.44-.3-.62-.5-.18-.2-.32-.44-.43-.72-.1-.27-.15-.6-.15-.97,0-.72.19-1.31.57-1.75.31-.35.68-.58,1.11-.7v-.98h1.17v.94c.24.03.47.09.69.18.36.14.67.36.92.67l.18.22-.87,1.19-.3-.4c-.12-.15-.26-.27-.44-.36-.06-.03-.13-.06-.19-.08v2.35c.17.08.33.15.48.24.25.13.48.3.67.49.2.2.35.44.47.72s.17.62.17,1.01-.05.72-.16,1.02c-.11.31-.26.58-.45.8-.19.23-.43.41-.7.54-.16.08-.33.14-.51.17v.96h-1.17Zm1.19-2.1s.1-.09.14-.14c.27-.28.4-.7.4-1.23,0-.27-.04-.5-.11-.67-.07-.17-.17-.32-.29-.44-.05-.05-.09-.09-.14-.13v2.61Zm-1.22-6.59c-.32.3-.48.77-.48,1.37,0,.34.05.62.13.84.08.21.19.37.33.5.02.02.03.03.05.05v-2.79s-.02.02-.03.03Z"/>
    </g>
  </g>
  <path class="cls-1" d="m46,2.86c1.1,0,2.26.24,3.54.73,4.83,1.86,10.07,3.71,16.47,5.83.81.27,1.74.29,2.73.31h.09c.19,0,.39,0,.58.02h.21s0-.2,0-.2c0-.49,0-.92,0-1.36.04-2.22,1.5-3.66,3.71-3.67,1.16,0,2.32-.01,3.48-.01s2.32,0,3.48.01c2.23.01,3.73,1.49,3.73,3.67.02,8.17.02,16.18,0,23.8,0,2.18-1.51,3.65-3.75,3.66-1.19,0-2.38.01-3.57.01s-2.26,0-3.39-.01c-2.2-.02-3.66-1.46-3.7-3.68-.02-.82-.04-1.42-.13-1.66l-.04-.09-.1-.03c-.1-.03-.26-.04-.45-.04-.28,0-.65.03-1.01.06-.58.05-1.17.07-1.75.07-4.88,0-9.44-1.71-13.34-3.31-1.59-.66-3.08-.98-4.55-.98-.16,0-.31,0-.47.01-.81.04-1.67.05-2.71.05-.71,0-1.42,0-2.13-.02h-.12c-.57,0-1.14-.01-1.71-.02-3.15,0-4.87-1.53-5.1-4.51l-.02-.23-.22.05c-2.62.82-5.21,1.63-7.81,2.45l-.28.09c-1.95.61-3.91,1.23-5.86,1.84-.54.17-1.09.26-1.62.26-1.81,0-3.31-.97-4.01-2.6-.94-2.2-.11-4.51,2.07-5.75,3.74-2.14,7.49-4.27,11.24-6.4l5.74-3.26c.65-.37,1.31-.73,1.97-1.09,1.49-.82,3.03-1.66,4.45-2.61,1.41-.93,2.83-1.39,4.34-1.39Zm22.52,9.61c-1.42,0-2.96-.08-4.52-.66-3.93-1.45-7.92-2.87-11.77-4.24l-.19-.07c-1.6-.57-3.2-1.14-4.8-1.71-.44-.16-.85-.23-1.26-.23-.61,0-1.2.17-1.81.52-5.31,3.04-10.63,6.07-15.94,9.1l-8.37,4.77c-1.37.78-1.33,1.69-1.07,2.31.25.57.74.87,1.42.87.29,0,.6-.05.94-.16,1.52-.48,3.04-.96,4.56-1.45,2.91-.93,5.91-1.89,8.89-2.78.48-.14.96-.3,1.43-.45l.05-.02c1.8-.59,3.67-1.19,5.7-1.19.11,0,.23,0,.34,0,.99.03,2.06.05,3.35.05.87,0,1.74,0,2.61-.01h.31c.69,0,1.39-.01,2.08-.02,2.1,0,3.13-.99,3.23-3.1.04-.73.22-1.7,1.38-1.7h.07c1.13.04,1.29.99,1.31,1.7.05,1.64-.49,3.13-1.51,4.2-1.05,1.1-2.56,1.71-4.27,1.73-1.26.02-2.52.02-3.77.02h-4.27c-.48,0-.96,0-1.45,0-.49,0-.91.04-1.28.11-.49.1-1.04.43-1.07,1.07-.03.53.19,1.21.48,1.47.34.31,1.02.53,1.71.55,1.35.04,2.66.04,3.76.04h2.9c.6,0,1.2,0,1.8,0,.78,0,1.43.1,1.97.29l.59.2c1.54.52,3.13,1.06,4.65,1.75,2.99,1.35,6.29,2,10.1,2,.85,0,1.71-.03,2.61-.09h.19s0-5.52,0-5.52c0-3.06,0-6.11.02-9.17v-.2s-.2,0-.2,0c-.34,0-.63,0-.92,0Zm8.14,20.41c1.06,0,2.11,0,3.17,0,1.27,0,1.38-.11,1.38-1.35,0-2.96,0-5.92,0-8.88v-2.61s0-3.57,0-3.57c0-2.67,0-5.35,0-8.02,0-.99-.17-1.15-1.16-1.16-1.04,0-2.08-.01-3.12-.01s-2.15,0-3.22,0c-1.1,0-1.25.26-1.25,1.19-.01,7.6-.01,15.4,0,23.18,0,1,.21,1.2,1.24,1.21.99,0,1.98,0,2.97,0Z"/>
</svg>