<?xml version="1.0" encoding="UTF-8"?>
<svg id="Layer_1" data-name="Layer 1" xmlns="http://www.w3.org/2000/svg" viewBox="0 0 100 100">
  <defs>
    <style>
      .cls-1 {
        fill: #9daf82;
      }
    </style>
  </defs>
  <g id="oLcD7o.tif">
    <g>
      <path class="cls-1" d="m34.72,45.73c-4.14,0-8.28,0-12.42,0-2.51,0-3.31-.87-3.2-3.41.6-14.1,10.05-26.08,23.64-29.89,1.7-.48,3.47-.73,5.22-.96.87-.11,1.2-.43,1.13-1.27-.05-.59-.06-1.18-.05-1.77.03-1.33,1.04-2.37,2.29-2.4,1.23-.03,2.31,1,2.42,2.31.08.98-.2,2.31.33,2.86.57.58,1.9.41,2.89.6,10.66,2.05,18.42,7.98,23.34,17.62,2.07,4.05,3.04,8.39,3.26,12.91.12,2.53-.71,3.4-3.22,3.4-8.28,0-16.56,0-24.84,0q-1.82,0-1.83,1.81c0,6.46,0,12.93,0,19.39,0,1.78,0,1.8-1.73,1.79-3.49-.03-3.04.44-3.05-3-.02-6.13-.04-12.25.02-18.38.01-1.31-.42-1.65-1.67-1.63-4.18.07-8.36.03-12.55.02Zm16.47-4.53c8.7,0,17.41-.02,26.11.02,1.12,0,1.49-.28,1.33-1.44-.81-5.88-3.22-11.01-7.33-15.26-8.59-8.89-21.08-11.22-32.22-5.72-8.59,4.25-13.6,11.35-15.09,20.88-.19,1.18.11,1.55,1.35,1.54,8.62-.05,17.24-.03,25.85-.03Z"/>
      <path class="cls-1" d="m50.82,89.53c-12.97,0-25.95,0-38.92,0-1.52,0-2.62-.95-2.63-2.3,0-1.39,1.16-2.39,2.72-2.39,6.72.02,13.44.01,20.16.07,1.07,0,1.38-.36,1.36-1.39-.06-2.7.03-5.41-.06-8.11-.02-.68-.34-1.49-.79-2-4.13-4.7-8.32-9.33-12.48-14-1.17-1.32-1.01-2.81.34-3.67,1.09-.68,2.08-.5,3.12.65,3.38,3.72,6.93,7.3,10.05,11.23,2.11,2.65,4.4,3.51,7.74,3.46,12.72-.2,25.44-.08,38.16-.08.51,0,1.02-.01,1.52.01,1.46.08,2.47,1.07,2.45,2.37-.02,1.3-1.05,2.3-2.49,2.36-1.05.04-2.12.06-3.17,0-.96-.06-1.38.24-1.35,1.28.06,2.2.06,4.4,0,6.59-.03,1.03.41,1.3,1.36,1.29,3.93-.03,7.86,0,11.79-.01,1.08,0,2.03.42,2.26,1.46.16.73.02,1.73-.4,2.32-.35.49-1.29.77-1.98.78-5.03.06-10.06.03-15.09.04-7.9,0-15.8,0-23.71,0,0,.01,0,.03,0,.04Zm4.27-13.78c-5.24,0-10.48.02-15.72-.02-.91,0-1.28.22-1.26,1.2.06,2.28.05,4.56,0,6.85-.02.84.31,1.12,1.11,1.11,2.83-.02,5.66-.03,8.49,0,.87.01,1.22-.29,1.19-1.18-.04-1.56,0-3.13,0-4.69,0-.73.28-1.1,1.05-1.07.84.03,1.69.05,2.53,0,.89-.05,1.21.33,1.2,1.19-.03,1.52.03,3.04-.02,4.56-.02.87.31,1.19,1.18,1.19,5.32-.02,10.65-.03,15.97,0,.97,0,1.22-.42,1.2-1.31-.04-2.11-.07-4.23.01-6.34.05-1.16-.32-1.53-1.5-1.52-5.15.06-10.31.02-15.46.02Z"/>
    </g>
    <path class="cls-1" d="m49.96,42.95v-2.57c-.71-.12-1.41-.33-2.09-.64-1.01-.45-1.85-1.05-2.5-1.78l-.54-.61,2.37-3.21.82.95c.42.49.9.87,1.44,1.13.17.08.34.15.5.21v-6.45c-.45-.2-.88-.42-1.28-.65-.63-.37-1.19-.82-1.66-1.33-.49-.54-.87-1.19-1.14-1.94-.26-.73-.4-1.61-.4-2.6,0-1.95.52-3.53,1.54-4.7.83-.94,1.83-1.57,2.99-1.87v-2.64h3.15v2.52c.64.09,1.26.25,1.86.48.96.37,1.79.98,2.48,1.81l.5.6-2.33,3.19-.82-1.06c-.32-.42-.7-.73-1.17-.96-.17-.08-.34-.15-.52-.2v6.32c.45.2.89.42,1.3.63.67.35,1.28.8,1.79,1.33.53.54.95,1.19,1.26,1.94s.46,1.66.46,2.71-.14,1.94-.43,2.75c-.29.82-.69,1.55-1.2,2.15-.52.62-1.15,1.11-1.88,1.46-.43.21-.9.36-1.38.46v2.58h-3.15Zm3.21-5.65c.13-.11.26-.23.39-.37.72-.77,1.09-1.87,1.09-3.3,0-.74-.1-1.35-.3-1.81-.2-.46-.47-.86-.79-1.19-.12-.12-.25-.24-.38-.34v7Zm-3.29-17.71c-.86.81-1.29,2.06-1.29,3.69,0,.91.12,1.67.36,2.26.22.55.51,1.01.87,1.35.04.04.09.09.13.13v-7.51s-.05.05-.08.07Z"/>
  </g>
</svg>