<?xml version="1.0" encoding="UTF-8"?>
<svg id="Layer_1" data-name="Layer 1" xmlns="http://www.w3.org/2000/svg" viewBox="0 0 100 100">
  <defs>
    <style>
      .cls-1 {
        fill: #9daf82;
      }
    </style>
  </defs>
  <path class="cls-1" d="m36.12,70.52c-3.83,0-5.7-1.86-5.71-5.66,0-.36,0-.72,0-1.08.01-2.12.47-2.62,2.59-2.81.07,0,.14-.03.23-.05,0,0,0-17.43,0-22.46,0-3.98,1.77-5.76,5.72-5.76,4.4,0,8.79,0,13.19,0s8.79,0,13.19,0c3.95,0,5.72,1.78,5.72,5.77,0,5.03,0,21.14,0,21.14v1.32h.04c.27.03.49.06.71.06,1.22.05,1.98.79,2.05,1.97.07,1.23.09,2.27-.03,3.31-.28,2.53-2.34,4.24-5.13,4.25-2.59.01-5.19.01-7.78.01h-24.8Zm-1-3.93s.11.04.43.04c.1,0,.53-.01.63-.01,6.1,0,12.2,0,18.3,0h13.59c.34,0,.68,0,1.02-.04.57-.06.92-.31.93-1.32,0-.28-.06-.37-.08-.39-.08-.08-.37-.08-.47-.08h-.47s-23.73,0-23.73,0c-3.39,0-6.78,0-10.17.04-.14,0-.5.2-.69.35.15.57.41,1.08.72,1.42t0,0Zm3.67-30.01c-1.6,0-1.65.05-1.65,1.73,0,2.37,0,4.73,0,7.1,0,4.86,0,9.72-.03,14.58,0,.46.05.74.16.85.11.11.38.17.82.17,4.93-.03,9.84-.03,14.75-.03h14.24s0,0,0,0c.04-.24.07-.44.07-.65v-.77c0-7.19.01-14.39,0-21.58,0-1.23-.06-1.39-1.58-1.39-5.6,0-11.21,0-16.81,0h-9.97Z"/>
  <path class="cls-1" d="m75.46,39.37c-2.03,0-2.59-.58-2.59-2.66,0-3.46,0-6.93,0-10.39v-7.26c0-3.09,0-6.18,0-9.27,0-2.71,1.24-3.97,3.9-3.97,2.65,0,5.29,0,7.94,0s5.29,0,7.94,0c2.48,0,3.85,1.36,3.85,3.8.01,9.06.01,18.13,0,27.19,0,1.89-.68,2.56-2.6,2.57-3.07,0-6.15,0-9.22,0s-6.15,0-9.22,0Zm14.09-7.36c-.05.07.05.15.06,1.02.02,1.13.05,2.07.37,2.45.23.27.25.1,1.38.1.15,0,.32,0,.49,0,.73-.01.81-.16.81-.74-.02-8.12-.02-16.24,0-24.36,0-.34-.05-.56-.15-.66s-.34-.16-.69-.16c-2.45.01-4.88.02-7.31.02s-4.65,0-6.98-.03h0c-.39,0-.62.05-.72.16-.11.11-.16.36-.15.76.03,2.93.03,5.87.02,8.8v6.63c0,2.48-.01,4.97,0,7.45,0,.36,0,.67,0,.94,0,.49-.01,1,.05,1.11.06.04.33.06.8.06h1.34c.78-.01.99-.15.99-.19.06-.72.07-3.33-.16-3.33-.96.01-.71-1.95-.71-2.74,0-.63.57-.82,1.08-.83,1.54-.03,3.07-.04,4.61-.04s3.04.01,4.56.03c.44,0,1.52-.22,1.56.89,0,.17,0,.51,0,.69,0,1.06.16,1.99-1.23,1.97Zm-3.45-1.22c-.35,0-1.92.04-2.45.02l.04,4.69c.21,0,2.2-.02,2.46-.02l-.04-4.69Z"/>
  <path class="cls-1" d="m15.42,63.43c-.48,0-1.09-.05-1.5-.47-.42-.42-.46-1.04-.46-1.59.04-2.85.04-5.76.03-8.56v-3.77s.11,0,.11,0c0-1.02-.02-2.05-.03-3.07-.04-2.59-.08-5.26.07-7.89.56-9.8,8.15-18.99,17.67-21.36,2.26-.56,4.71-.88,7.27-.93,2.39-.05,4.98-.08,7.93-.08s5.76.02,8.64.05c0,0,1.2,0,1.2,0,.44,0,.7-.05.8-.16.11-.11.16-.37.16-.78,0-1.57.18-2.41.66-2.89.26-.26.59-.39.99-.39.6,0,1.35.29,2.5.99l1.84,1.1c1.2.71,2.4,1.42,3.58,2.16,1.07.66,1.29,1.38,1.3,1.86,0,.49-.23,1.21-1.31,1.88-2.23,1.38-4.26,2.61-6.23,3.75-.58.34-1.1.51-1.56.51-.5,0-1.68-.23-1.79-2.32-.03-.49-.03-.9,0-1.26.01-.18,0-.42-.09-.53-.08-.09-.29-.14-.58-.14h-1.37c-1.75,0-3.51,0-5.26-.02-1.75-.01-3.5-.03-5.25-.03-2.91,0-5.29.04-7.48.11-11.11.39-19.84,9.49-19.89,20.7-.03,6.94-.03,14.05.01,21.12,0,1.2-.31,2-1.89,2.01h-.05ZM61.28,18.37l1.22-.72-1.22-.74v1.46Z"/>
  <path class="cls-1" d="m14.66,94.54c-1.9-.01-2.58-.68-2.6-2.57-.03-2.54-.04-5.26,0-7.96,0-.49-.08-.66-.14-.71-.06-.06-.18-.09-.36-.09-.08,0-.17,0-.26.02-.09.01-.18.02-.27.02h-.37c-.2,0-.33,0-.46,0-1.32,0-2.06-.49-2.21-1.44-.13-.82.4-1.85,1-2.46,3.14-3.21,6.37-6.43,9.49-9.54l2.09-2.08c.52-.52,1.15-1.05,1.9-1.05s1.35.52,1.86,1.02l1.82,1.82c3.25,3.23,6.61,6.58,9.86,9.92.57.59,1.02,1.75.77,2.55-.17.57-.86.79-1.53,1-.21.07-.42.13-.59.21-.1.04-.21.06-.33.06-.06,0-.11,0-.17,0-.08,0-.16,0-.24,0-.5,0-.91.01-1,.08-.08.1-.08.67-.08,1.22v2.68c0,1.49,0,2.97,0,4.46,0,2.33-.54,2.86-2.82,2.87h-12.27c-1.03,0-2.05,0-3.08,0Zm6.86-5.17v.16c-.02.43-.03.84.12,1,.11.12.37.19.74.19h0c.33,0,.67-.03.82-.19.18-.19.17-.62.14-1.17,0-.18,0-.36,0-.54v-.29q0-1.13-.88-1.13h-.3c-.43,0-.55.11-.58.14-.09.1-.07.39-.05.64.02.24.03.48-.01.72,0,0,0,.37,0,.47Zm3.1-5.76c1.95.01,2.61.69,2.63,2.68v.38c.02.94.03,1.91,0,2.87-.02.44-.02.85.14,1.01.11.11.36.18.73.18h0c.4,0,.66-.06.77-.17.15-.16.16-.57.15-.95-.04-1.65-.03-3.32-.02-4.94v-1.94c0-2.03,1.69-2.13,4.42-2.42l-11.01-8.59-10.26,8.59c1.23.55,3.86-.85,3.79,2.03-.03,1.19-.02,2.38-.01,3.57,0,1.32.01,2.64-.02,3.96,0,.34.04.57.14.68.11.11.36.16.79.16.43,0,.68-.05.78-.15.08-.09.12-.3.1-.61-.06-.99-.04-1.99-.03-2.96v-.84c.03-1.93.63-2.53,2.6-2.54.74,0,1.47,0,2.21,0s1.4,0,2.1,0Z"/>
  <path class="cls-1" d="m51.01,90.22c-.61,0-1.4-.32-2.65-1.06l-1.27-.76c-1.35-.8-2.7-1.61-4.03-2.44-.89-.56-1.35-1.18-1.35-1.86,0-.68.45-1.3,1.33-1.84,2.51-1.56,4.47-2.74,6.35-3.83.51-.3.99-.45,1.44-.45.84,0,1.77.6,1.83,2.28.03.94.06,1.61.23,1.78.18.17.87.17,1.83.17h6.97c1.44,0,2.89,0,4.33,0,11.87-.07,20.87-9.07,20.93-20.94.02-4.22.04-8.35-.02-12.51,0-.47.04-1.06.43-1.46.39-.4.97-.45,1.42-.45.61,0,1.22.06,1.62.48.31.32.44.77.42,1.44-.05,1.84-.04,3.72-.03,5.53,0,.6,0,1.2,0,1.8l.28.02-.04.5c-.09,1.05-.13,2.12-.18,3.18-.1,2.33-.21,4.74-.74,7.04-2.12,9.24-7.85,15.35-17.04,18.16-2.33.71-4.87.89-7.28.98-1.6.06-3.34.09-5.33.09-1.8,0-3.6-.02-5.4-.04,0,0-1.54-.02-1.55-.02-.44,0-.67.04-.76.13-.06.06-.14.24-.14.7.01,1.67-.18,2.54-.65,3.02-.25.25-.58.38-.97.38Zm-2.32-5.4v-1.47l-1.23.77,1.23.7Z"/>
  <path class="cls-1" d="m88.31,15.54c-.16,0-.34-.02-.53-.07-.18.03-.34.04-.49.04-1.46,0-1.5-1.42-1.51-1.95-.02-.68.12-1.14.43-1.47.41-.42,1.01-.49,1.55-.49h0c.48,0,1.1.05,1.51.47.42.43.46,1.04.45,1.52-.03,1.28-.5,1.93-1.42,1.93Z"/>
  <path class="cls-1" d="m87.78,21.14c-.65-.02-1.33-.09-1.72-.58-.26-.32-.33-.76-.24-1.33-.1-.63-.01-1.11.27-1.45.41-.49,1.08-.55,1.55-.55.59,0,1.13.06,1.53.38.52.41.57,1.07.56,1.54-.01.93-.23,2.01-1.81,2.01h-.15Z"/>
  <path class="cls-1" d="m87.73,26.83c-.86-.05-2.03-.12-1.96-1.85.04-.82.09-2.06,1.66-2.06.07,0,.44.02.44.02.6.03,1.22.06,1.59.54.23.3.3.7.21,1.22.06.58.05,1.21-.34,1.65-.28.32-.71.47-1.28.47-.07,0-.32-.01-.32-.01Z"/>
  <path class="cls-1" d="m81.98,15.54c-1.52,0-1.75-.96-1.78-1.99,0-.43.02-1.04.43-1.46.41-.42,1.01-.48,1.55-.48h0c.52,0,1.22.06,1.62.57.27.34.34.8.21,1.4.12.59.05,1.04-.2,1.37-.38.49-1.07.56-1.68.58h-.15Z"/>
  <path class="cls-1" d="m82.06,21.15c-1.62,0-1.85-1-1.86-1.98,0-.47.04-1.07.45-1.48.41-.41,1.02-.46,1.52-.46.51,0,1.22.06,1.62.55.27.34.35.8.23,1.42.12.59.04,1.04-.22,1.38-.38.49-1.06.57-1.66.58h-.08Z"/>
  <path class="cls-1" d="m81.98,26.85c-1.52,0-1.75-.95-1.78-1.99,0-.43.02-1.04.43-1.46.4-.42,1.01-.48,1.55-.48h0c.52,0,1.19.06,1.59.55.28.34.36.82.25,1.46.11.57.05,1.01-.2,1.33-.38.5-1.07.56-1.69.58h-.15Z"/>
</svg>