<?xml version="1.0" encoding="UTF-8"?>
<svg id="Layer_1" data-name="Layer 1" xmlns="http://www.w3.org/2000/svg" viewBox="0 0 100 100">
  <defs>
    <style>
      .cls-1 {
        fill: #9daf82;
      }
    </style>
  </defs>
  <g id="GWQceA.tif">
    <g>
      <path class="cls-1" d="m70.89,76.67c.93,2.91,1.96,5.62,2.64,8.42.38,1.59.21,3.31.22,4.97,0,.26-.33.71-.57.76-1.04.22-2.1.4-3.15.4-.27,0-.73-.68-.78-1.08-.23-2.01-.09-4.1-.54-6.05-1.38-6.04-6.6-10.57-12.82-10.92-3.91-.21-7.9-.2-11.76.35-6.18.87-11.08,6.7-11.44,12.93-.07,1.2-.09,2.41-.05,3.61.03.92-.29,1.29-1.22,1.13-.87-.16-1.77-.17-2.59-.46-.35-.12-.71-.75-.74-1.18-.26-4.26.59-8.28,2.85-11.95.12-.19.21-.4.3-.57-.09-.13-.14-.26-.19-.27-3.45-.06-6.97-.65-10.3.7-4.03,1.63-6.49,4.65-7.2,8.98-.16.99-.56,1.21-1.48,1.04-3.43-.63-3.59-.89-2.44-4.19,2.4-6.89,8.3-11.17,15.59-11.16,3.18,0,6.36.29,9.55.39.46.01,1-.18,1.38-.45,3.49-2.45,7.39-3.56,11.62-3.52,3.05.03,6.11.04,9.16.22,3.12.18,5.93,1.38,8.47,3.17.8.57,1.53.56,2.45.49,5.2-.39,10.47-1.11,15.46,1.09,5.35,2.36,8.42,6.6,9.53,12.3.15.77-.01,1.21-.89,1.34-1,.15-2.15.85-2.92.53-.59-.24-.71-1.67-1-2.59-1.66-5.19-5.7-8.28-11.13-8.42-2.07-.05-4.14,0-6.01,0Z"/>
      <path class="cls-1" d="m52.05,14.17c.74-.89,1.41-1.84,2.23-2.65,3.53-3.46,8.96-3.49,12.35-.1,3.44,3.43,3.53,8.81.07,12.36-4.66,4.77-9.42,9.43-14.11,14.16-.68.68-1.18.68-1.85,0-4.7-4.73-9.46-9.4-14.11-14.17-3.48-3.57-3.38-8.93.07-12.35,3.4-3.38,8.8-3.34,12.36.12.82.8,1.51,1.75,2.25,2.63.25,0,.49,0,.74.01Zm-.26,6.36c-.54-.5-.88-.81-1.2-1.13-1.64-1.63-3.23-3.31-4.93-4.87-1.72-1.58-4.15-1.48-5.76.1-1.57,1.54-1.76,4.16-.21,5.77,3.69,3.82,7.49,7.54,11.24,11.31.47.48.9.58,1.41.06,3.81-3.83,7.72-7.58,11.42-11.52,2.04-2.17.84-5.71-1.99-6.61-1.74-.55-3.19-.05-4.42,1.2-1.85,1.87-3.67,3.76-5.55,5.7Z"/>
      <path class="cls-1" d="m50.89,66.08c-5.99-.01-10.77-4.76-10.77-10.72,0-6.15,4.76-10.91,10.9-10.88,6.03.03,10.74,4.84,10.71,10.93-.03,5.94-4.84,10.68-10.83,10.67Zm0-17.12c-3.51.02-6.37,2.93-6.3,6.41.07,3.47,2.89,6.23,6.35,6.21,3.46-.01,6.27-2.81,6.29-6.26.03-3.5-2.85-6.39-6.34-6.36Z"/>
      <path class="cls-1" d="m17.27,58.67c.01-6.05,4.8-10.85,10.82-10.85,6.01,0,10.79,4.81,10.8,10.87,0,6.01-4.84,10.8-10.89,10.76-5.98-.04-10.74-4.82-10.73-10.78Zm11-6.3c-3.57-.09-6.4,2.59-6.49,6.16-.09,3.43,2.66,6.33,6.12,6.45,3.44.12,6.44-2.73,6.53-6.22.09-3.41-2.7-6.31-6.16-6.4Z"/>
      <path class="cls-1" d="m84.56,58.67c0,6.02-4.85,10.81-10.88,10.78-6-.04-10.75-4.81-10.75-10.77,0-6.1,4.84-10.9,10.95-10.87,5.91.03,10.68,4.89,10.68,10.86Zm-10.83-6.31c-3.49.01-6.3,2.77-6.34,6.23-.04,3.44,2.9,6.4,6.36,6.4,3.49,0,6.34-2.91,6.29-6.42-.05-3.5-2.81-6.22-6.31-6.21Z"/>
    </g>
  </g>
</svg>