<?xml version="1.0" encoding="UTF-8"?>
<svg id="Layer_1" data-name="Layer 1" xmlns="http://www.w3.org/2000/svg" viewBox="0 0 100 100">
  <defs>
    <style>
      .cls-1 {
        fill: #9daf82;
      }
    </style>
  </defs>
  <g id="YnlLVP.tif">
    <g>
      <path class="cls-1" d="m55.76,9.09c1.51.64,3.21-.12,4.95-1.18,1.33-.8,2.81-.46,4.06.45,1.08.79,2.16,1.06,3.51.74,2.08-.49,3.75.24,4.82,2.14.54.95,1.26,1.49,2.4,1.64,2.1.28,3.49,1.42,3.79,3.64.16,1.22.75,2.11,1.85,2.75,1.88,1.09,2.54,2.78,1.95,4.87-.3,1.07-.18,1.99.5,2.88,1.5,1.94,1.53,3.92,0,5.86-.69.88-.81,1.81-.51,2.88.57,2.02.01,3.71-1.82,4.8-1.17.7-1.83,1.62-2.02,2.95-.3,2.15-1.69,3.1-3.73,3.55-.85.19-1.84.8-2.3,1.51-1.22,1.88-2.77,2.67-4.95,2.21-1.25-.26-2.34-.09-3.4.7-1.68,1.24-3.48,1.25-5.16,0-1.01-.75-2.05-.99-3.26-.72-2.29.52-3.91-.33-5.18-2.3-.43-.68-1.39-1.24-2.21-1.41-2.11-.44-3.45-1.48-3.78-3.68-.17-1.15-.66-2.04-1.75-2.66-1.91-1.1-2.53-2.75-2.1-4.98.18-.89-.04-2.08-.53-2.84-1.34-2.06-1.32-3.89.02-5.94.49-.75.68-1.95.51-2.84-.43-2.16.17-3.78,2.02-4.88,1.05-.62,1.66-1.44,1.8-2.62.28-2.28,1.68-3.47,3.85-3.75,1.15-.15,1.82-.74,2.39-1.66.85-1.36,1.94-2.4,4.26-2.14Zm-11.56,27.9c.3.38.59,1.04,1.1,1.34,1.65.97,2.6,2.37,2.82,4.23.12,1.02.64,1.49,1.6,1.59,1.8.18,3.18,1.05,4.03,2.62.56,1.04,1.34,1.39,2.4,1.07,1.86-.55,3.49-.06,4.97,1.05.85.64,1.6.55,2.41-.05,1.45-1.08,3.04-1.53,4.85-1.01,1.05.3,1.86.02,2.42-1.03.85-1.57,2.21-2.47,4.01-2.65.96-.09,1.5-.56,1.62-1.56.23-1.93,1.27-3.29,2.91-4.34.47-.3.86-1.23.78-1.8-.27-1.97-.18-3.79,1.14-5.4.58-.7.58-1.48.01-2.17-1.34-1.61-1.42-3.42-1.15-5.39.08-.57-.31-1.5-.79-1.8-1.64-1.06-2.69-2.42-2.91-4.35-.11-.95-.61-1.44-1.49-1.54-1.95-.22-3.37-1.2-4.31-2.91-.47-.85-1.15-1.14-2.1-.84-1.77.56-3.41.23-4.86-.9-.94-.73-1.78-.8-2.74-.03-1.48,1.18-3.16,1.5-4.99.92-.9-.29-1.56.02-1.99.81-.93,1.72-2.33,2.71-4.29,2.94-.92.11-1.45.6-1.57,1.62-.21,1.74-1.02,3.17-2.64,4.02-.94.49-1.31,1.21-1.06,2.29.44,1.86.06,3.55-1.05,5.15-.32.46-.46,1.47-.18,1.87,1.3,1.84,1.75,3.76,1.02,6.26Z"/>
      <path class="cls-1" d="m62.25,15.5c7.91-.07,14.46,6.32,14.54,14.21.08,8.09-6.33,14.7-14.3,14.76-8.05.06-14.66-6.41-14.71-14.39-.05-8.03,6.37-14.5,14.48-14.57Zm-.05,25.95c6.35.07,11.58-5.02,11.67-11.36.08-6.22-5.09-11.58-11.26-11.66-6.55-.08-11.79,4.99-11.85,11.46-.05,6.35,5.03,11.49,11.44,11.56Z"/>
      <path class="cls-1" d="m69.2,26.98c-3,.03-4.69-1.36-5.58-4.09-.06-.17-.2-.32-.39-.46-.55-.42-1.31-.41-1.86,0-.19.14-.33.29-.38.46-.87,2.75-2.59,4.11-5.57,4.09-1.39,0-1.96,1.68-.86,2.53,2.3,1.78,3,3.8,2.16,6.62-.41,1.36.99,2.31,2.18,1.49,2.37-1.63,4.47-1.62,6.84,0,1.19.82,2.55-.12,2.16-1.51-.79-2.8-.15-4.84,2.17-6.6,1.1-.84.53-2.54-.85-2.53Zm-4.41,6.33c-.03.36-.37.6-.72.51-.59-.14-1.18-.21-1.78-.21s-1.18.07-1.77.21c-.35.08-.69-.16-.72-.51-.1-1.19-.47-2.3-1.09-3.32-.19-.3-.05-.7.28-.84,1.12-.45,2.08-1.15,2.86-2.07.23-.27.66-.27.89,0,.84.99,1.82,1.64,2.83,2.05.33.14.47.53.29.84-.62,1.02-.98,2.14-1.08,3.34Z"/>
    </g>
  </g>
  <path class="cls-1" d="m55.78,87.08c-1.4,0-2.88-.31-4.51-.93-6.16-2.36-12.83-4.72-20.99-7.43-1.03-.34-2.22-.36-3.48-.39h-.12c-.24,0-.49-.01-.74-.02h-.27s0,.26,0,.26c0,.63,0,1.18,0,1.73-.06,2.82-1.91,4.66-4.73,4.68-1.48,0-2.96.01-4.44.01s-2.96,0-4.44-.01c-2.84-.02-4.75-1.9-4.76-4.68-.03-10.41-.03-20.62,0-30.33,0-2.77,1.93-4.65,4.77-4.66,1.52,0,3.03-.01,4.55-.01s2.88,0,4.33.01c2.81.02,4.66,1.86,4.72,4.69.02,1.05.05,1.81.17,2.11l.05.12.12.03c.13.03.33.05.58.05.36,0,.83-.04,1.29-.07.74-.06,1.49-.09,2.23-.09,6.21,0,12.03,2.18,17,4.22,2.03.84,3.93,1.24,5.79,1.24.2,0,.4,0,.6-.01,1.03-.05,2.13-.07,3.46-.07.91,0,1.81.01,2.72.02h.16c.73,0,1.46.02,2.18.02,4.02.01,6.2,1.95,6.49,5.75l.02.29.29-.06c3.34-1.04,6.64-2.08,9.95-3.12l.35-.11c2.49-.78,4.98-1.56,7.47-2.34.69-.22,1.38-.33,2.06-.33,2.31,0,4.22,1.24,5.11,3.31,1.2,2.8.14,5.74-2.63,7.33-4.77,2.72-9.55,5.44-14.32,8.15l-7.31,4.16c-.83.47-1.67.93-2.51,1.39-1.9,1.04-3.86,2.12-5.67,3.32-1.79,1.19-3.6,1.77-5.53,1.77Zm-28.69-12.24c1.81,0,3.77.1,5.76.84,5.01,1.85,10.09,3.65,15,5.4l.24.08c2.04.72,4.07,1.45,6.11,2.18.56.2,1.09.3,1.61.3.77,0,1.53-.22,2.3-.66,6.77-3.87,13.54-7.74,20.31-11.6l10.66-6.08c1.74-.99,1.7-2.15,1.36-2.94-.32-.73-.94-1.11-1.81-1.11-.37,0-.77.07-1.19.2-1.94.61-3.87,1.23-5.81,1.85-3.7,1.19-7.53,2.41-11.32,3.54-.61.18-1.22.38-1.83.58l-.07.02c-2.3.75-4.67,1.52-7.26,1.52-.14,0-.29,0-.43,0-1.26-.04-2.62-.06-4.27-.06-1.11,0-2.22,0-3.33.02h-.39c-.88.01-1.77.02-2.65.02-2.68,0-3.99,1.26-4.12,3.95-.05.93-.28,2.17-1.76,2.17h-.09c-1.44-.05-1.65-1.26-1.67-2.16-.06-2.09.62-3.99,1.93-5.35,1.33-1.4,3.27-2.18,5.44-2.21,1.6-.02,3.2-.03,4.81-.03h5.44c.61,0,1.23,0,1.84,0,.62,0,1.16-.05,1.64-.14.63-.12,1.32-.55,1.36-1.37.04-.68-.24-1.54-.61-1.88-.43-.39-1.3-.68-2.18-.7-1.72-.05-3.39-.05-4.79-.05h-3.69c-.77,0-1.53,0-2.3,0-1,0-1.82-.13-2.51-.37l-.76-.26c-1.96-.67-3.99-1.35-5.92-2.22-3.81-1.71-8.02-2.55-12.87-2.55-1.08,0-2.17.04-3.33.12l-.24.02v7.02c-.01,3.89-.02,7.79-.03,11.68v.26s.26,0,.26,0c.44,0,.8-.01,1.17-.01Zm-10.37-26c-1.35,0-2.69,0-4.04,0-1.62,0-1.75.13-1.76,1.72,0,3.77,0,7.54,0,11.31v3.33s0,4.54,0,4.54c0,3.41,0,6.81,0,10.22,0,1.26.21,1.47,1.48,1.48,1.33,0,2.65.01,3.98.01s2.74,0,4.1-.01c1.4,0,1.59-.33,1.6-1.52.02-9.69.02-19.62,0-29.53,0-1.27-.27-1.53-1.58-1.54-1.26,0-2.53-.01-3.79-.01Z"/>
</svg>