<?xml version="1.0" encoding="UTF-8"?>
<svg id="Layer_1" data-name="Layer 1" xmlns="http://www.w3.org/2000/svg" viewBox="0 0 100 100">
  <defs>
    <style>
      .cls-1 {
        fill: #9daf82;
      }
    </style>
  </defs>
  <path class="cls-1" d="m14.65,42.02v-2.57c-.71-.12-1.41-.33-2.09-.64-1.01-.45-1.85-1.05-2.5-1.78l-.54-.61,2.37-3.21.82.95c.42.49.9.87,1.44,1.13.17.08.34.15.5.21v-6.45c-.45-.2-.88-.42-1.28-.65-.63-.37-1.19-.82-1.66-1.33-.49-.54-.87-1.19-1.14-1.94-.26-.73-.4-1.61-.4-2.6,0-1.95.52-3.53,1.54-4.7.83-.94,1.83-1.57,2.99-1.87v-2.64h3.15v2.52c.64.09,1.26.25,1.86.48.96.37,1.79.98,2.48,1.81l.5.6-2.33,3.19-.82-1.06c-.32-.42-.7-.73-1.17-.96-.17-.08-.34-.15-.52-.2v6.32c.45.2.89.42,1.3.63.67.35,1.28.8,1.79,1.33.53.54.95,1.19,1.26,1.94s.46,1.66.46,2.71-.14,1.94-.43,2.75c-.29.82-.69,1.55-1.2,2.15-.52.62-1.15,1.11-1.88,1.46-.43.21-.9.36-1.38.46v2.58h-3.15Zm3.21-5.65c.13-.11.26-.23.39-.37.72-.77,1.09-1.87,1.09-3.3,0-.74-.1-1.35-.3-1.81-.2-.46-.47-.86-.79-1.19-.12-.12-.25-.24-.38-.34v7Zm-3.29-17.71c-.86.81-1.29,2.06-1.29,3.69,0,.91.12,1.67.36,2.26.22.55.51,1.01.87,1.35.04.04.09.09.13.13v-7.51s-.05.05-.08.07Z"/>
  <path class="cls-1" d="m55.99,87.65c-1.4,0-2.88-.31-4.51-.93-6.16-2.36-12.83-4.72-20.99-7.43-1.03-.34-2.22-.36-3.48-.39h-.12c-.24,0-.49-.01-.74-.02h-.27s0,.26,0,.26c0,.63,0,1.18,0,1.73-.06,2.82-1.91,4.66-4.73,4.68-1.48,0-2.96.01-4.44.01s-2.96,0-4.44-.01c-2.84-.02-4.75-1.9-4.76-4.68-.03-10.41-.03-20.62,0-30.33,0-2.77,1.93-4.65,4.77-4.66,1.52,0,3.03-.01,4.55-.01s2.88,0,4.33.01c2.81.02,4.66,1.86,4.72,4.69.02,1.05.05,1.81.17,2.11l.05.12.12.03c.13.03.33.05.58.05.36,0,.83-.04,1.29-.07.74-.06,1.49-.09,2.23-.09,6.21,0,12.03,2.18,17,4.22,2.03.84,3.93,1.24,5.79,1.24.2,0,.4,0,.6-.01,1.03-.05,2.13-.07,3.46-.07.91,0,1.81.01,2.72.02h.16c.73,0,1.46.02,2.18.02,4.02.01,6.2,1.95,6.49,5.75l.02.29.29-.06c3.34-1.04,6.64-2.08,9.95-3.12l.35-.11c2.49-.78,4.98-1.56,7.47-2.34.69-.22,1.38-.33,2.06-.33,2.31,0,4.22,1.24,5.11,3.31,1.2,2.8.14,5.74-2.63,7.33-4.77,2.72-9.55,5.44-14.32,8.15l-7.31,4.16c-.83.47-1.67.93-2.51,1.39-1.9,1.04-3.86,2.12-5.67,3.32-1.79,1.19-3.6,1.77-5.53,1.77Zm-28.69-12.24c1.81,0,3.77.1,5.76.84,5.01,1.85,10.09,3.65,15,5.4l.24.08c2.04.72,4.07,1.45,6.11,2.18.56.2,1.09.3,1.61.3.77,0,1.53-.22,2.3-.66,6.77-3.87,13.54-7.74,20.31-11.6l10.66-6.08c1.74-.99,1.7-2.15,1.36-2.94-.32-.73-.94-1.11-1.81-1.11-.37,0-.77.07-1.19.2-1.94.61-3.87,1.23-5.81,1.85-3.7,1.19-7.53,2.41-11.32,3.54-.61.18-1.22.38-1.83.58l-.07.02c-2.3.75-4.67,1.52-7.26,1.52-.14,0-.29,0-.43,0-1.26-.04-2.62-.06-4.27-.06-1.11,0-2.22,0-3.33.02h-.39c-.88.01-1.77.02-2.65.02-2.68,0-3.99,1.26-4.12,3.95-.05.93-.28,2.17-1.76,2.17h-.09c-1.44-.05-1.65-1.26-1.67-2.16-.06-2.09.62-3.99,1.93-5.35,1.33-1.4,3.27-2.18,5.44-2.21,1.6-.02,3.2-.03,4.81-.03h5.44c.61,0,1.23,0,1.84,0,.62,0,1.16-.05,1.64-.14.63-.12,1.32-.55,1.36-1.37.04-.68-.24-1.54-.61-1.88-.43-.39-1.3-.68-2.18-.7-1.72-.05-3.39-.05-4.79-.05h-3.69c-.77,0-1.53,0-2.3,0-1,0-1.82-.13-2.51-.37l-.76-.26c-1.96-.67-3.99-1.35-5.92-2.22-3.81-1.71-8.02-2.55-12.87-2.55-1.08,0-2.17.04-3.33.12l-.24.02v7.02c-.01,3.89-.02,7.79-.03,11.68v.26s.26,0,.26,0c.44,0,.8-.01,1.17-.01Zm-10.37-26c-1.35,0-2.69,0-4.04,0-1.62,0-1.75.13-1.76,1.72,0,3.77,0,7.54,0,11.31v3.33s0,4.54,0,4.54c0,3.41,0,6.81,0,10.22,0,1.26.21,1.47,1.48,1.48,1.33,0,2.65.01,3.98.01s2.74,0,4.1-.01c1.4,0,1.59-.33,1.6-1.52.02-9.69.02-19.62,0-29.53,0-1.27-.27-1.53-1.58-1.54-1.26,0-2.53-.01-3.79-.01Z"/>
  <path class="cls-1" d="m62.77,54.49c-.26,0-.51-.04-.73-.12-3.26-1.12-6.51-2.25-9.76-3.38-3.25-1.13-6.51-2.26-9.76-3.38-1.1-.38-1.61-1.1-1.61-2.26.01-1.25,0-2.51,0-3.76,0-1.85,0-3.77.03-5.66.01-.63-.12-.8-.77-1-1.63-.5-3.25-1.04-4.86-1.58-.89-.29-1.78-.59-2.67-.88-.55-.18-1.56-.51-1.58-1.72-.03-1.31,1.1-1.68,1.58-1.84l7.13-2.35c7.41-2.44,14.82-4.88,22.23-7.31.22-.07.47-.11.74-.11.32,0,.64.05.94.15,8.08,2.64,16.15,5.3,24.23,7.96l4.9,1.61c.6.2,1.71.56,1.65,1.88-.06,1.25-1.14,1.59-1.67,1.75-.45.14-.89.28-1.33.43-.72.24-1.45.48-2.18.68-.3.09-.35.13-.35.51.02,3.4.02,6.81.01,10.21v4.77h-3.47v-14.24c-.72.01-.88.15-.88,1.12v2.52c0,2.24,0,4.48,0,6.72,0,1.42-.29,1.82-1.62,2.3-6.49,2.3-12.99,4.59-19.49,6.86-.21.07-.46.11-.71.11Zm-18.37-18.09v2.42c0,1.72,0,3.45-.02,5.17,0,.39.07.48.5.63,2.5.88,5,1.76,7.49,2.65,3.29,1.17,6.58,2.33,9.87,3.48.16.06.36.09.56.09.17,0,.33-.02.46-.07,3.19-1.12,6.38-2.25,9.57-3.38,2.62-.93,5.25-1.86,7.87-2.78.36-.13.42-.22.42-.61-.02-1.72-.02-3.45-.01-5.17v-2.41c0-.06,0-.11,0-.17-.09.02-.18.05-.27.08l-4.22,1.4c-4.29,1.42-8.58,2.85-12.87,4.25-.31.1-.66.16-1,.16-.3,0-.57-.04-.82-.12-3.41-1.1-6.81-2.23-10.21-3.36l-3.25-1.08-4.06-1.34c0,.06,0,.11,0,.17Zm-3.9-5.11c7.3,2.41,14.59,4.82,21.9,7.21.1.03.23.05.36.05h0c.16,0,.32-.02.45-.07,7.97-2.59,15.94-5.19,23.91-7.8l-1.48-.49c-7.45-2.46-14.89-4.92-22.35-7.36-.16-.05-.34-.08-.53-.08-.16,0-.31.02-.44.06-6.65,2.15-13.29,4.31-19.93,6.48l-2.96.97c-.34.11-.68.23-1.03.34l2.1.69Z"/>
</svg>