<?xml version="1.0" encoding="UTF-8"?>
<svg id="Layer_1" data-name="Layer 1" xmlns="http://www.w3.org/2000/svg" viewBox="0 0 100 100">
  <defs>
    <style>
      .cls-1 {
        fill: #9daf82;
      }
    </style>
  </defs>
  <g id="eADT6j.tif">
    <g>
      <path class="cls-1" d="m18.98,51.9c-1.19-.38-2.27-.66-3.29-1.07-3.16-1.26-3.58-3.8-1.03-6.03,2.68-2.36,5.13-4.89,5.71-8.61.14-.93.16-2.08-.27-2.85-1.12-2-1.06-3.91-.3-5.97,4.09-11.02,11.72-18.14,23.23-20.8,15.93-3.69,32.16,5.75,36.97,21.58.61,2.01.83,4.14,1.22,6.22.09.47.14.94.24,1.58.99-.58,1.74-1.27,2.61-1.47,2.41-.54,4.85-.97,7.3-1.26,1.01-.12,1.67.69,1.36,1.7-.84,2.71-1.59,5.48-2.79,8.03-1.4,2.97-4.14,4.3-7.34,4.61-3.27.32-3.57.57-4.36,4.22,3.63-.83,6.46.93,9.37,2.35,1.66.81,1.76,1.76.35,2.97-1.54,1.33-3.09,2.64-4.66,3.92-2.91,2.37-6.2,2.92-9.47,1.16-2.25-1.21-3.88-1.04-5.52.74-.06.07-.14.11-.22.16q-1.93,1.53-1.07,3.87c.25.67.45,1.36.74,2.21.71-.25,1.41-.5,2.1-.75,1.03-.37,1.9.02,1.9,1.03,0,3.15.11,6.35-.39,9.43-.43,2.64-2.42,4.48-4.9,5.59-7.4,3.32-14.81,6.64-22.22,9.95-1.95.87-2.56.56-3.09-1.48-1.24-4.8-2.49-9.6-3.75-14.4-.7-2.66-2.37-3.76-5.3-3.44-1.93.21-3.85.53-5.78.73-5.9.61-7.31-3.47-7.31-7.27l-.02-16.68Zm2.51,17.01c.18,2.33,1.71,4.3,4.05,4.17,1.89-.11,3.76-.42,5.64-.69,4.95-.71,7.85,1.27,9.06,6.1,1.01,4.02,2.09,8.03,3.19,12.02.09.32.75.8.96.72,1.78-.71,3.52-1.54,5.5-2.43-.61-.49-1.01-.83-1.44-1.13-1.57-1.13-3.18-2.22-4.73-3.39-1-.76-1.12-1.8-.18-2.35,2.32-1.35,4.44-3.17,7.26-3.45.82-.08,1.17-.38,1.13-1.28-.09-1.94-.07-3.88-.07-5.82,0-1.23-.31-2.57,1.1-3.31q-1.69-1.86-3.6-.69c-.27.16-.54.33-.81.49-3.09,1.78-6.28,1.54-9.08-.69-.88-.7-1.76-1.41-2.62-2.14-1.33-1.12-1.26-2.02.21-2.96,2.54-1.61,5.02-3.4,8.68-2.99-1.35-1.99-2.47-3.63-3.69-5.43-.86.92-1.54,1.63-2.19,2.35-1.18,1.31-2.6,2.18-4.34,2.59-3.25.77-5.87-.95-8.59-2.16-.87-.39-.82-1.36-.21-2.1.83-1.01,1.72-1.97,2.6-2.95,1.53-1.7,3.45-2.56,5.72-2.69.36-.02.72-.08,1.46-.17-.54-.32-.71-.48-.91-.53-1.64-.45-3.28-.93-4.94-1.29-.84-.18-1.52-.45-1.55-1.38-.03-.92.52-1.39,1.45-1.42.25,0,.49-.11.62-.14-.2-1.24-.5-2.39-.53-3.54-.03-1.19-.09-2.24-.79-3.31-.48-.73-.55-1.79-.65-2.71-.14-1.27-.13-2.56-.2-3.83-.08-1.39.43-2.53,1.3-3.59.43-.52.81-1.18.95-1.83.5-2.33,1.82-4,4.06-4.66,1.47-.43,3.09-.35,4.64-.53.54-.06,1.21-.08,1.57-.4,1.38-1.21,2.86-1.4,4.54-.83.33.11.84.17,1.09,0,2.44-1.66,5.1-1.39,7.71-.75,3.53.86,6.69,2.41,8.91,5.49.21.3.84.37,1.28.4.2.01.54-.31.61-.54.56-1.96.72-2.06,2.78-1.78,1.81.25,3.63.48,5.69.75-.28-.51-.43-.86-.64-1.17-6.12-9.16-18.22-14.21-29.01-11.89-11.1,2.38-18.52,9.02-22.19,19.81-.35,1.04-.36,1.93.22,2.83,1.05,1.65.98,3.4.62,5.23-.77,3.93-3.09,6.85-5.98,9.42-.43.38-.98.63-1.47.93.12.21.24.42.36.63.48.21.95.5,1.46.61,1.1.25,2.21.41,3.32.6,1.57.28,2,1.03,1.4,2.48-.31.75-.58,1.53-.99,2.22l.29,15.12Zm46.18-34.66c.27-.76.52-1.38.7-2.01.09-.32.18-.72.08-1.02-.41-1.24-.83-2.48-1.37-3.67-.19-.41-.69-.78-1.13-.94-1.01-.36-1.61.11-2.15,1.04-.25.44-1.23.76-1.75.64-.36-.08-.86-1.18-.69-1.58.59-1.46-.13-2.39-1.07-3.2-2.6-2.22-5.62-3.38-9.06-3.38-1.38,0-2.51.33-3.1,1.86-.52,1.35-1.76,1.3-2.54.04-.1-.15-.14-.4-.27-.45-.46-.18-.95-.29-1.42-.42-.09.42-.25.83-.26,1.25,0,.49.31,1.06.14,1.44-.25.57-.72,1.3-1.25,1.45-.86.25-1.3-.39-1.51-1.29-.12-.51-.59-1.19-1.05-1.32-1.72-.52-3.41-.33-4.86.84-1.18.95-1.05,1.5.19,2.33.44.3.87,1.15.75,1.61-.11.43-.92.74-1.48.96-.31.12-.73-.05-1.31-.11,1.8,1.54,1.79,1.91.21,3.38-.43.4-.75.91-1.11,1.37,1.06.44,1.91.79,2.72,1.13.43-.4.81-.84,1.27-1.18,2.22-1.68,2.73-3.5,1.66-6.04-.36-.85-.57-1.71.48-2.2,1.01-.47,1.61.16,2.05.99,1.6,2.98.78,6.84-1.93,9.06-.34.28-.69.54-1.37,1.08.46.28.92.41,1.13.71.79,1.13,1.86,2.24,2.15,3.51.45,2.02,1.56,2.95,3.38,3.6,2.71.98,5.18,1.32,7.72-.6,1.49-1.13,2.46-.49,2.71,1.38.25,1.95.52,3.89.79,5.93.79-.18,1.7-.15,2.31-.57,1.69-1.14,1.6-1.15,3.21.13.56.44,1.43.49,2.16.72.17-.6.26-1.24.52-1.8.25-.54.62-1.34,1.05-1.41.46-.08,1.16.44,1.54.88.3.34.3.96.43,1.47,2.93-1.38,5.36-6.29,4.52-9-.39,0-.8.04-1.2,0-1.04-.14-1.53-1.19-.92-2.01.26-.35.68-.59,1-.89.93-.88.81-2.02-.09-2.61-.59.61-1.08,1.56-1.72,1.68-1.23.23-2.88.48-3.76-.14-1.76-1.23-3.44-1.52-5.45-1.13-.9.18-1.6-.47-1.47-1.32.08-.53.84-1.3,1.34-1.34,1.42-.11,2.28-.43,2.38-2.07.03-.44.91-1.1,1.46-1.18.86-.12,1.18.64,1.2,1.46.08,2.84,1.33,3.73,4.06,2.93Zm-17.1,21.86c-.73.4-1.19.69-1.68.91-.66.3-.74.73-.36,1.3,1.9,2.81,3.75,5.66,6.59,7.65.53.37,1.12.67,1.38.82,1.89-2.14,3.57-4.11,5.34-6.01,1.27-1.37,2.08-1.19,2.95.52.07.14.2.26.35.46,3.3-2.23,6.15-4.81,8.37-8.05,3.36-4.91,5.07-10.33,5.06-16.28,0-.53-.33-1.45-.65-1.52-1.56-.34-3.17-.45-4.74-.64,0,1.18-.29,2.35.06,3.28.85,2.26.83,4.47,0,6.62-1.54,4.04-3.5,7.75-8.63,7.93-.17,0-.33.13-.5.2-1.43.61-2.89.6-4.14-.28-1.1-.77-2.06-.25-2.89.19-.36.19-.28,1.28-.3,1.97-.02.49.13.98.18,1.48.29,2.69-.43,3.87-2.94,4.87-1.38.55-2.16.14-2.49-1.29-.3-1.3-.61-2.61-.97-4.13Zm18.79-31.58c.02,5.15,3.8,8.95,8.47,8.26-.62-1.75-1.11-3.52-1.85-5.18-.86-1.92-3.63-3.61-6.62-3.08Zm-9.17,57.98c1.38-5.18-1.15-10.06-5.36-10.31-1.1,5.57,1.03,9.67,5.36,10.31Zm20.67-37.79c4.49.66,8.3-3.21,8.26-8.37-5.87-.14-7.28,3.19-8.26,8.37Zm-7.59,14.04c4.56,3.1,7.62,1.29,11.31-2.77-4.13-3.08-7.9-1.63-11.31,2.77Zm-9.83,23.82c5.57-1.54,6.03-5.11,5.33-10.38-4.2.4-6.35,4.55-5.33,10.38Zm-16.42.27c3.74,4.3,7.45,4.94,10.82,2.18-1.17-.86-2.53-1.57-3.49-2.64-.99-1.11-2.04-1.48-3.33-1.11-1.3.38-2.54.98-4.01,1.57Zm14.74-9.47c.76-.72,1.41-1.48,2.19-2.05.78-.56,1.09-1.24.8-2.09-.57-1.73-1.24-3.42-2-5.49-.82.89-1.42,1.48-1.96,2.13-1.88,2.26-1.83,4.38.11,6.52.24.27.47.54.85.98Zm-13.12-9.08c-2.54-3.06-6.17-3.25-8.67-.46,2.75,3.01,5.95,3.18,8.67.46Zm2.94-17.81c-3.8,1.16-5.35,4.39-3.8,7.79,3.77-1.3,5.2-4.19,3.8-7.79Zm-14.27-1.26c1.85-3.08.4-6.61-3.25-7.95-1.59,3.65-.26,6.89,3.25,7.95Zm1.4,7.61c-2.76-2.28-6.35-1.5-8.41,1.84,2.88,2.27,6.44,1.49,8.41-1.84Zm5.56-1.79c.29-.91.73-2.31,1.21-3.82-1.23-.44-2.51-.93-3.81-1.36-.41-.13-.88-.09-1.32-.13-.03.65-.36,1.58-.05,1.89,1.28,1.29,2.76,2.4,3.97,3.41Zm9.51,2.62c-.13-.01-.26-.02-.39-.04-.49,1.51.19,2.88.84,4.25-.15-1.4-.3-2.81-.45-4.21Z"/>
      <path class="cls-1" d="m56.07,38.77c1.29.48,2.86,1.09,4.45,1.64.63.22,1.31.34,1.97.39.8.07,1.68-.18,2.4.07.52.19,1.11.92,1.18,1.48.11.84-.62,1.17-1.45,1.19-2.7.06-3.01.31-3.68,2.89-.22.85-.74,1.52-1.6,1.18-.51-.2-1.04-.98-1.09-1.54-.06-.76.25-1.58.55-2.32.28-.71.16-1.22-.54-1.35-1.26-.23-2.54-.35-3.81-.46-.34-.03-.7.17-1.05.23-.87.15-1.69-.14-1.7-1.04,0-.54.55-1.35,1.07-1.59.87-.41,1.9-.47,3.31-.78Z"/>
      <path class="cls-1" d="m47.98,36.34c.55.8,1.17,1.42,1.41,2.15.16.5,0,1.46-.37,1.7-.4.26-1.51.15-1.74-.19-1.21-1.73-2.78-2.59-4.85-2.84-.44-.05-1.12-.93-1.07-1.36.06-.48.95-1.32,1.25-1.23,2.07.62,3.51-.5,5.16-1.37,1.73-.92,3.6-.6,5.3.41.81.48,1.18,1.19.69,2.05-.47.83-1.27.8-2.01.4-1.31-.7-2.54-.81-3.77.29Z"/>
      <path class="cls-1" d="m52.48,25.75c.91.32,1.67.68,2.48.87.91.21,1.58.65,1.45,1.61-.14,1.05-1,1.39-1.94,1.13-1.07-.3-2.17-.65-3.12-1.21-.89-.52-1.63-.6-2.65-.39-1.15.24-2.4.15-3.59,0-.87-.1-1.53-.71-1.25-1.72.26-.95,1-1.15,1.93-.94,1.95.44,3.57-.17,4.79-1.73.61-.77,1.25-1.45,2.24-.77.99.68.62,1.55.08,2.37-.1.15-.17.31-.43.78Z"/>
    </g>
  </g>
</svg>