<?xml version="1.0" encoding="UTF-8"?>
<svg id="Layer_1" data-name="Layer 1" xmlns="http://www.w3.org/2000/svg" viewBox="0 0 100 100">
  <defs>
    <style>
      .cls-1 {
        fill: #9daf82;
      }
    </style>
  </defs>
  <g id="bQkQeQ.tif">
    <g>
      <path class="cls-1" d="m52.7,32.95c1.37,0,2.74.01,4.1,0,.58,0,.79.2.8.8.03,2.8-2.14,5.04-4.92,5.04-2.8,0-4.93-2.22-4.89-5.04,0-.6.23-.81.81-.8,1.37.02,2.74,0,4.1,0Zm-3.5,1.53c.31,1.65,1.73,2.76,3.43,2.75,1.7,0,3.08-1.11,3.38-2.75h-6.81Z"/>
      <path class="cls-1" d="m47.63,27.62c.27-.64.98-1.03,1.65-.81.41.14.64.46.76.93.19.77-.15,1.37-.9,1.58-.79.22-1.55-.14-1.65-.93-.03-.25.04-.51.15-.76Z"/>
      <path class="cls-1" d="m56.33,26.84c.69.08,1.26.65,1.24,1.35-.01.43-.25.74-.67.98-.69.4-1.35.24-1.76-.42-.43-.7-.29-1.52.43-1.84.23-.1.49-.1.76-.07Z"/>
      <path class="cls-1" d="m34.56,96.85c-.41,0-.93-.04-1.25-.37-.32-.33-.36-.83-.36-1.28.03-3.94.03-7.88.02-11.82v-5.21s-1.3.85-1.3.85c-1.21.8-2.35,1.55-3.64,2.05-1.21.47-2.48.71-3.78.71-5.8,0-10.74-4.64-11.02-10.34-.23-4.77-.37-9.6-.5-14.27l-.11-3.77c-.04-1.26-.11-1.86-1.22-1.86h-.12c-.2,0-.38-.11-.52-.2l-.1-.06c-1.88-1.08-1.8-2.72-1.73-4.31.02-.46.04-.89.02-1.31-.09-1.54.63-2.7,1.99-3.19.84-.3.98-.76.97-1.6-.04-2.81-.07-5.15.01-7.6.11-3.17,2.36-5.69,5.48-6.13.27-.04.55-.06.83-.06,2.71,0,5.1,1.74,5.81,4.23.41,1.43,1.04,2.43,2.15,3.44,1.71,1.55,1.75,5.31.59,7.3-.35.6-.39.89.02,1.47,1.39,1.93.9,6.02-.91,7.68-.19.18-.3.51-.41.83l-.09.27.41.26-.17.07-.23-.16c.03.15.04.22.05.28l.84,7.66.45-.71c4.01-6.7,9.82-10.9,17.24-12.46,1.28-.27,1.58-.96,1.71-2.13l.02-.17-.16-.08c-3.42-1.66-5.57-4.3-6.4-7.84l-.1-.44-.21.21c-.12-.06-.24-.11-.37-.14-2.37-.62-4.06-1.81-4.88-3.44-.81-1.63-.76-3.67.16-5.91.26-.65.16-1.5.05-2.33l-.04-.33c-.08-.68-.22-1.38-.36-2.05-.12-.58-.24-1.16-.32-1.75-.47-3.22.4-5.99,2.58-8.23.56-.58.69-1.03.5-1.78-.46-1.83-.04-3.85,1.13-5.39,1.08-1.42,2.67-2.26,4.36-2.31,2.08-.05,4.29-.1,6.52-.1,3.92,0,7.12.16,10.07.5,7.43.87,13.93,8.2,14.18,16.01.06,1.94-.2,3.88-.5,5.86-.16,1.04-.18,1.89.22,2.88.63,1.56.56,3.27-.2,4.8-.79,1.6-2.26,2.8-4.04,3.28-1.06.29-1.62.64-1.96,1.84-.72,2.58-2.39,4.63-4.96,6.09-.12.07-.24.12-.35.18-.58.28-.88.46-.77,1.16.15.89.57,1.31,1.57,1.55,6.21,1.48,11.33,4.94,15.2,10.29,3.2,4.42,4.85,9.37,4.9,14.7.04,4.27.04,8.54.03,12.81,0,3.42,0,6.83.02,10.25,0,.41-.04.92-.36,1.25-.32.32-.83.37-1.29.37-7.63-.01-15.26-.02-22.88-.02s-14.99,0-22.49.02h-.01Zm36.63-30.72c1.23,0,1.32.87,1.32,2.09v20.91c0,1.96,0,3.03.35,3.59.33.52,1.07.61,2.52.61.4,0,.85,0,1.36-.02,1.01-.02,1.37-.2,1.36-1.23-.02-2.3,0-4.6.01-6.9v-.21c.03-4.04.05-8.22-.08-12.35-.3-9.06-4.3-15.1-13-19.56l-3.94-1.94c-.17-.06-1.39-.42-2.1-.42-.1,0-.19,0-.26.02-.38.08-1.33.12-3.17.12h-2.71c-.66,0-1.45-.03-2.25-.05-.82-.02-1.64-.05-2.35-.05-.77,0-1.28.03-1.56.09-.86.18-3.25.84-3.97,1.03-1.06.55-2.06.81-3.02,1.06-1.15.3-2.22.58-3.12,1.28-4.67,3.59-9.95,8.79-9.25,17.14.04.45-.04.78-.24,1.01-.29.34-.77.38-1.2.41l-.29.02c-.18.02-.35.03-.5.03-.81,0-1.21-.42-1.29-1.35l-.46-4.97c-.43-4.64-1.08-11.65-1.53-16.15l-.02-.23-5.85.14.28,7.96c.16,4.41.33,9.04.44,12.54.11,3.36,2.5,6.4,5.69,7.22.65.17,1.31.25,1.97.25,2.78,0,5.36-1.49,6.72-3.89,1.22-2.15,2.37-4.18,1.94-6.68-.08-.46-.01-.82.2-1.07.33-.39.91-.42,1.47-.42.62,0,1.15.03,1.49.39.24.25.34.62.31,1.14-.03.63-.02,1.26-.01,1.89,0,.56.02,1.13,0,1.69-.01.38.05.63.19.78.14.14.39.21.77.21.66-.01,1.25-.02,1.85-.02h2.71c.69,0,1.38,0,2.07-.01.43,0,.86.04,1.16.34.31.31.33.81.33,1.16-.05,2.13-.05,4.34,0,6.58.01.53-.1.9-.34,1.14-.31.32-.79.36-1.12.36-.42,0-.76,0-1.11,0-.24,0-2.63.02-2.88.02-.7,0-1.4,0-2.1-.04h-.24c-.52,0-.85.09-1.04.28-.21.21-.29.61-.27,1.21.11,2.82.11,5.67,0,8.46-.02.64.07,1.04.28,1.27.22.23.62.33,1.3.33,3.99-.03,7.93-.04,11.87-.04h12.22s3.04.02,3.04.02c.99,0,1.97-.01,2.96-.05.25-.01.75-.35.87-.57l.03-.05v-.06c.05-2.81.04-5.76.04-8.62v-2.15s-4.27,0-4.27,0c-1.05,0-2.09,0-3.13.02-.63,0-1.03-.12-1.3-.4-.27-.28-.39-.69-.37-1.3.05-2.07.05-4.18,0-6.29,0-.37.02-.89.34-1.23.32-.33.8-.36,1.13-.36h.1c.53.01,1.07.02,1.6.02h2.69c.67-.01,1.34,0,2,.02h.16c.46,0,.74-.07.89-.23.15-.17.21-.47.17-.92-.1-1.27-.09-2.48.03-3.62.05-.51.66-1.18,1.14-1.26.42-.07.72-.1.97-.1Zm-3.68,12.06c.25,0,.5,0,.75.02,0,0,.11,0,.12,0,.25,0,.43-.05.52-.15.15-.15.15-.44.13-.85,0-.1,0-.2,0-.3v-.26c.02-.39.02-.65-.12-.79-.09-.09-.27-.14-.52-.14-.44.01-.81.02-1.18.02h-1.49c-.46,0-.92,0-1.38.02-.23.01-.6.22-.71.41-.26.69-.27,1.19-.05,1.53.23.33.7.51,1.4.51h.77s1.75-.02,1.75-.02Zm-28.7-2.47c-.52,0-1.04,0-1.56.03-.22.01-.61.21-.72.41-.26.69-.27,1.19-.05,1.53.23.34.71.51,1.42.52h.78l1.73-.02c.26,0,.52,0,.77.02h0c.27,0,.52-.02.66-.17.18-.19.19-.57.17-.95,0-.13,0-.24,0-.36,0-.69-.03-1-.74-1-.32,0-.61,0-.89,0h-1.58Zm14.29-30.04c-.47,0-.94,0-1.42,0h-1.14c-.73.01-1.31.04-1.59.32-.19.2-.29.56-.28,1.12.13.41.24.57.3.63.55.57,1.85.92,3.49.92,1.55,0,3.11-.31,3.88-.78.29-.17.29-.63.01-1.67l-.02-.06-.04-.05c-.12-.13-.67-.37-1.05-.39-.71-.04-1.43-.05-2.14-.05Zm-40.13.04c-.19.03-.34.09-.42.19-.12.13-.15.35-.11.64.03.2.01.42,0,.63-.04.51-.02.69.08.81.07.08.22.13.45.13l8.82-.22.06.09h.13c.17.02.35.04.53.05.26.03.5.05.7.05.22,0,.38-.03.46-.09.32-.32.3-1.17.17-1.84l-.02-.11-.09-.06c-.2-.12-.68-.27-1.05-.29-.64-.03-1.29-.04-1.93-.04-.41,0-1.99.01-1.99.01h-.5s-2.85.01-2.85.01c-.64,0-1.27,0-1.91,0v-.26s-.51,0-.51,0v.27Zm5.81-3.67c.62,0,1.14.03,1.62.1.15.02.29.03.44.03.93,0,1.8-.44,2.39-1.2.69-.89.91-2.07.61-3.23-.1-.38-.74-.95-1.08-.95-.36,0-.92.48-1.22.94-.12.18-.13.47-.13.92,0,.22,0,.45-.02.69l-.02.22c-.25.01-.64.03-.75.03-.37.01-.66.02-.95.06-.15.02-.28.03-.4.03-.4,0-.71-.11-.92-.33-.35-.36-.38-.94-.37-1.46.05-1.81.81-3.16,2.26-4.01.74-.44.85-.86.41-1.68-.51-.96-1.42-1.53-2.41-1.53-.17,0-.35.02-.53.05-1.34.27-2.14,1.2-2.18,2.57-.05,1.64-.05,3.31-.05,4.93,0,1.08,0,2.08,0,3.07,0,.31.06.51.18.64.13.13.35.19.67.19.39,0,.74-.02,1.09-.03.46-.02.92-.03,1.37-.03Zm27.52-23.31c-.1,0-.2,0-.29.02-2.14.29-3.42,1.85-3.44,4.15-.03,3.89-.06,8.05,0,12.16.06,3.84,2.91,6.78,6.78,6.99.99.05,2.05.08,3.23.08.97,0,1.93-.02,2.9-.04,4.63-.1,7.44-2.95,7.52-7.63.02-1.22.02-2.45,0-3.68v-1.62s0-1.86,0-1.86c0-1.29,0-2.58-.01-3.86-.02-1.47-.33-1.78-1.82-1.8-.75-.01-1.49-.01-2.24-.01h-2.24c-.75,0-1.5,0-2.24-.01-2.35-.03-4.43-.79-6.34-2.3-.45-.35-1.18-.59-1.81-.59Zm-7.69,9.04c-1.21.35-1.87,1.07-2.07,2.26-.23,1.36.56,2.18,1.27,2.64.35.22.59.33.77.35l.26.03v-.27s.03-.12.03-.12c.12-1.16.1-2.34.07-3.58l-.03-1.4-.31.09Zm28.07,5.12l.31-.07c1.3-.31,2.06-1.25,2.03-2.52-.03-1.26-.81-2.19-2.04-2.41l-.29-.05v5.05Zm-13.37-20.9c.77,0,1.22.46,1.37,1.41.34,2.13,1.63,3.63,3.74,4.32.74.24,1.55.27,2.4.3.26,0,.52.02.78.03,2.8.16,4.71,1.82,4.86,4.23.09,1.53.56,2.06,1.84,2.08h.18s.06-.16.06-.16c.07-.18.15-.39.2-.6.91-3.45.06-7.52-2.28-10.9-2.31-3.33-5.63-5.44-9.13-5.79-2.47-.25-5.14-.36-8.64-.36-1.48,0-2.96.02-4.44.04l-1.88.02c-1.13.01-2.04.51-2.51,1.38-.5.93-.39,2.12.29,3.19.66,1.02.82,1.82-.44,2.64-3.87,2.54-3.72,5.79-2.22,10.22l.06.19.2-.02c1.11-.11,1.17-.4,1.25-1.59.21-3.22,1.64-5.48,4.12-6.54,2.01-.86,2.47-1.61,1.96-3.21-.05-.14.02-.27.09-.38l.07-.14.15-.05c.81-.19,1.3-.29,1.7-.29,1.04,0,1.31.71,1.77,2.18.47,1.5,1.8,2.89,3.17,3.32l.49.15-.29-.79c-.33-.88-.71-1.88-1-2.87l-.05-.15c-.13-.41-.3-.97-.02-1.35.16-.23.45-.34.84-.34.16,0,.33-.03.51-.06.3-.05.55-.1.8-.1Z"/>
      <path class="cls-1" d="m52.68,38.53c-1.27,0-2.44-.48-3.3-1.36-.88-.9-1.36-2.12-1.34-3.43,0-.47.13-.55.52-.55.63,0,1.22.01,1.82.01h4.64c.59,0,1.19,0,1.78-.01h0c.42,0,.54.07.54.55.01,1.3-.47,2.52-1.36,3.42-.87.88-2.05,1.37-3.31,1.37Zm-3.72-4.01c.33,1.74,1.83,2.96,3.67,2.96,1.83,0,3.32-1.22,3.64-2.96l.05-.29h-7.41l.05.3Z"/>
      <path class="cls-1" d="m48.69,29.12c-.41,0-.88-.2-.96-.78-.02-.17.02-.37.13-.63.18-.43.6-.72,1.04-.72.1,0,.2.02.3.05.31.1.49.33.59.75.16.64-.1,1.11-.72,1.28-.13.04-.26.05-.38.05Z"/>
      <path class="cls-1" d="m56.17,29.14c-.41,0-.67-.28-.82-.52-.19-.31-.25-.66-.17-.95.07-.24.24-.42.49-.53.1-.05.23-.07.39-.07.08,0,.16,0,.24.01.59.07,1.04.54,1.02,1.09,0,.32-.18.56-.55.78-.21.12-.41.18-.61.18Z"/>
    </g>
  </g>
</svg>