<?xml version="1.0" encoding="UTF-8"?>
<svg id="Layer_1" data-name="Layer 1" xmlns="http://www.w3.org/2000/svg" viewBox="0 0 100 100">
  <defs>
    <style>
      .cls-1 {
        fill: #9daf82;
      }
    </style>
  </defs>
  <path class="cls-1" d="m52.47,84.94c-9.8,0-19.59,0-29.39-.01-3.61,0-5.9-2.26-5.98-5.88-.01-.51-.03-.52-.7-.55-3.31-.13-5.97-2.07-6.77-4.94-.6-2.17-.25-4.4.97-6.11,1.21-1.7,3.18-2.75,5.4-2.88.39-.02.97-.06,1.08-.13,0-.04-.02-1.06-.02-1.06,0-9.74,0-43.86,0-43.86,0-2.37.41-2.78,2.74-2.78h5.8c1.8,0,3.6,0,5.4.01h0c.67,0,.94-.16,1.23-.71,1.52-2.94,4.05-4.5,7.3-4.5,3.38.03,5.9,1.63,7.4,4.63.26.52.53.57,1.19.57,5.22,0,10.44,0,15.66,0h13.48c.4,0,.8,0,1.19.03.98.07,1.59.69,1.67,1.7.03.32.02.64.02.96v42.51s5.19,0,5.19,0c1.92,0,2.6.67,2.6,2.55v.96c0,4.47.01,8.93,0,13.4-.01,3.69-2.4,6.07-6.08,6.08-9.79,0-19.59.01-29.39.01Zm-31.47-6.42c-.14,0-.25.02-.29.06-.02.02-.1.13-.08.53.07,1.49.98,2.25,2.69,2.25h53.46c-.02-.36-.04-.7-.07-1.04-.07-1.05-.13-2.04-.13-3.03-.01-14.35-.01-28.69-.01-43.04v-12.91c0-.44,0-.89-.06-.99-.08-.03-.55-.03-1-.03h-27.68c0,.54,0,1.07,0,1.6,0,1.53-.02,3.03.02,4.53.05,2.42-.7,4.3-2.3,5.75-.21.2-.27.31-.28.34.02,0,.14.09.48.19.88.25,1.78.47,2.67.69.53.13,1.06.26,1.58.4,3.2.83,5.06,2.76,5.38,5.6.21,1.9.21,3.84.22,5.71,0,1.08,0,2.16.04,3.23.02.6-.1,1.01-.38,1.31-.39.41-.97.44-1.48.45h0c-.52,0-1.07-.05-1.45-.44-.38-.39-.41-.95-.4-1.33.06-2.57.04-5.15,0-7.55-.03-1.77-.95-2.99-2.6-3.43-1.44-.39-2.9-.73-4.35-1.08l-1.24-.3c-.8-.18-2.02-.46-2.06-1.82,0-.28-.05-.56-.08-.85-.14-1.14-.32-2.56,1.13-3.52,1.02-.68,1.5-1.61,1.5-2.93v-1.79c.02-1.6.02-3.25-.02-4.87-.02-.84-.17-1.62-.43-2.24-.71-1.72-2.28-2.75-4.2-2.75-.32,0-.65.03-.98.09-2.05.36-3.55,2.07-3.63,4.17-.06,1.49-.05,3.01-.05,4.48,0,.99,0,1.98,0,2.97-.02,1.27.44,2.18,1.5,2.94.45.32.79.93,1.04,1.86.11.4.08.79.06,1.17-.01.2-.02.41,0,.61.06.89-.21,2.04-1.88,2.45l-1.36.34c-1.37.34-2.75.69-4.12,1-2,.46-2.97,1.66-2.98,3.66v.88c-.02,2.23-.03,4.53,0,6.8,0,.5-.11.86-.36,1.12-.32.32-.76.37-1.11.37-.09,0-.4,0-.4,0h-.31c-.26,0-.75,0-1.1-.35-.24-.25-.36-.6-.35-1.08.01-1.06,0-2.12,0-3.18,0-1.74-.01-3.54.06-5.31.14-3.12,2.28-5.6,5.45-6.34,1.37-.32,2.82-.66,4.24-1.07.31-.09.47-.16.54-.2-.05-.07-.16-.21-.4-.44-1.48-1.37-2.2-3.11-2.19-5.33,0-.63,0-1.25,0-1.88,0-1.34-.01-2.67.02-4.01,0-.37-.06-.46-.08-.49-.03-.03-.13-.09-.49-.09-1.38.02-2.72.02-4.06.02h-5.03c-.41,0-.84,0-.94.05-.02.07-.02.52-.02.95v42.05c0,.49,0,1,.07,1.1.1.06.62.06,1.12.06h13.74c8.27,0,16.53,0,24.8.02.66,0,1.62.05,2.41.43,3.04,1.46,6.15,3.02,9.49,4.78.55.29,1.3,1.06,1.26,1.75-.04.71-.7,1.49-1.28,1.8-3.26,1.72-6.17,3.18-8.89,4.46-1,.47-2.1.73-3.11.73-7.66.03-15.32.03-22.99.03h-14.99s-.75,0-.75,0c-.14,0-.27,0-.41-.01h-.1Zm59.56-12.98c-.25,0-.32.05-.34.07-.02.02-.09.12-.08.5.02,1.55.02,3.1.02,4.65v3.85c0,1.49-.01,2.97,0,4.46.01,1.33.83,2.25,2.02,2.27h0c1.23,0,2.06-.85,2.08-2.06.04-3.04.04-6.08.03-9.12,0-1.39,0-2.79,0-4.18,0-.18-.03-.31-.08-.36s-.18-.08-.35-.08c-.63.01-1.19.02-1.74.02-.49,0-.98,0-1.47-.03h-.08Zm-38.63,9.3c5.71,0,11.42,0,17.13.03h0c.66,0,.66-.07.68-.9.01-.4-.05-.54-.09-.58-.04-.04-.18-.11-.61-.11-2.78.02-5.53.02-8.28.02h-17.07c-2.78,0-5.57,0-8.35-.02h0c-.46,0-.61.07-.66.12-.04.04-.11.17-.1.56.02.81.05.9.69.9,5.56-.02,11.11-.03,16.66-.03Zm-21.9-6.66c-.23,0-.55,0-.62.08,0,0-.07.08-.06.37.04,1.85.04,3.74,0,5.78,0,.29.06.36.07.38.02.02.09.07.36.07.06,0,.33-.01.39-.01h.37c.27,0,.33-.03.34-.04,0,0,.06-.06.05-.34-.02-.7-.01-1.39,0-2.09v-.74c0-.29,0-.59,0-.89,0-.69-.02-1.38.02-2.07.02-.3-.05-.39-.06-.4-.08-.08-.43-.08-.55-.08h-.29Zm-4.37.08c-.06,0-.13,0-.21.02-1.33.19-2.47,1.65-2.5,3.19-.03,1.56,1.14,3.09,2.5,3.29.08.01.15.02.21.02h0c.08,0,.11,0,.12-.01,0,0,.02-.07.02-.24-.02-.69-.01-1.38,0-2.07v-1.79c0-.72,0-1.43,0-2.15,0-.16-.02-.23-.03-.25h0s-.05,0-.11,0Zm47.78,5.44l4.39-2.19-4.39-2.18v4.37Zm-38.01-5.53c-.77,0-.86.09-.87.83,0,.42.08.57.12.62.11.11.45.13.77.13,2.78-.01,5.5-.02,8.22-.02h14.92c3.45,0,6.9,0,10.35,0,.23,0,.5-.03.66-.07.08-.48.08-.95.02-1.36-.17-.05-.48-.1-.74-.1-4.58,0-9.16,0-13.74,0-6.57,0-13.13,0-19.7-.02l-.02-.5v.5Z"/>
  <path class="cls-1" d="m71.93,90.19c-2.74-.02-5.47-.03-8.21-.03h-8.74s-8.46,0-8.46,0c-2.75,0-5.51,0-8.26.03h0c-.48,0-1.03-.05-1.4-.42-.37-.38-.41-.92-.4-1.36.02-.92.17-1.91,1.78-1.91,5.63.02,11.24.03,16.85.03s11.22,0,16.83-.02c.4,0,.97.04,1.35.43.38.38.43.93.42,1.41,0,.91-.22,1.84-1.73,1.84h-.03Z"/>
  <path class="cls-1" d="m13.75,39.87c-.35,0-.72-.09-1.1-.28-.59-.29-.73-1.23-.73-1.57-.03-2.67-.02-5.33-.02-8v-5.44c0-2.26,0-4.53,0-6.79.02-3.98,2.33-6.28,6.34-6.29h2.2c.43.01.86,0,1.28,0h.11c1.42,0,1.43,1.16,1.44,1.79,0,.57-.02,1.11-.39,1.49-.25.25-.62.38-1.09.38-.63-.02-1.18-.02-1.72-.02-.69,0-1.38.01-2.07.02-1.79.03-2.46.71-2.46,2.49,0,4.22,0,8.44,0,12.67v7.45c0,1.27-.72,2.12-1.8,2.12Z"/>
  <path class="cls-1" d="m83.42,52.64c-.47,0-.99-.05-1.35-.41-.38-.38-.42-.94-.41-1.33.04-6.6.05-13.39,0-20.77,0-.44.04-.99.42-1.36.37-.37.9-.42,1.37-.42.55,0,1.11.06,1.49.44.39.39.42.98.41,1.38-.05,2.49-.04,5.03-.03,7.48v2.9s0,2.91,0,2.91c0,2.45-.02,4.98.03,7.47.01.59-.11,1-.39,1.29-.38.39-.93.42-1.47.43h-.06Z"/>
  <path class="cls-1" d="m76.92,90.21c-1.64,0-1.66-1.25-1.68-1.92,0-.39.03-.95.41-1.35.38-.39.96-.45,1.42-.45h0c.5,0,1.16.06,1.55.53.26.32.35.77.25,1.35.1.55.03.96-.22,1.27-.36.45-.97.54-1.59.56h-.14Z"/>
  <path class="cls-1" d="m71.88,57.86c-3.24-.02-6.47-.02-9.71-.02h-28.92c-.83,0-1.51-.33-1.86-.9-.35-.57-.34-1.31.02-2.04.22-.43.74-.62.89-.67.2-.06.39-.07.51-.07h.42s15.01.01,15.01.01c7.84,0,15.68,0,23.52-.02.5,0,1.11.05,1.51.46.4.41.44.99.43,1.46-.02,1.26-.56,1.79-1.79,1.79h-.03Z"/>
  <path class="cls-1" d="m25.46,62.96c-.78,0-1.45-.37-1.8-.99-.35-.61-.32-1.35.06-2,.19-.31.58-.48.89-.54.16-.03.33-.04.5-.04h.49s40.88,0,40.88,0c.95,0,1.57.24,1.92.73.34.48.36,1.14.05,2.01-.2.55-1.02.8-1.42.8-1.39.02-2.77.03-4.16.03H25.46Z"/>
  <path class="cls-1" d="m49.23,52.64c-.12,0-.24,0-.35-.02-.09,0-.18-.02-.26-.02h-.23c-.12.02-.24.03-.36.03h0c-.14,0-.57,0-.88-.32-.23-.23-.34-.56-.33-1.02.04-2.58.02-5.19,0-7.44,0-.45.11-.79.34-1.02.29-.29.68-.32.95-.32.09,0,.48.01.48.01,0,0,.38-.02.48-.02.31,0,.7.04,1,.34.23.24.34.57.33,1.02-.02.88-.02,1.76,0,2.64v1.07s0,1.14,0,1.14c0,.86-.01,1.72.01,2.58.01.46-.09.79-.32,1.02-.3.31-.72.31-.85.31Z"/>
  <path class="cls-1" d="m31.05,52.63c-.11,0-.22,0-.33-.01-.09,0-.17-.01-.26-.01h-.16c-.12.01-.23.02-.34.02-.27,0-.66-.03-.96-.33-.24-.24-.35-.58-.34-1.05.04-2.13.04-4.45,0-7.31,0-.46.11-.81.35-1.05.32-.32.76-.36,1.11-.36h.25s.47,0,.47,0c.36,0,.78.04,1.09.35.24.24.36.59.35,1.06,0,.85,0,1.71,0,2.57v1.15s0,1.1,0,1.1c0,.83,0,1.67,0,2.5,0,.47-.1.82-.33,1.06-.29.29-.66.33-.92.33Z"/>
  <path class="cls-1" d="m65.06,26.82c-.46,0-.82-.13-1.06-.38-.36-.37-.39-.89-.38-1.4v-.2c0-.55.01-1.7,1.45-1.7,1.25,0,2.49.01,3.72.01,1.13,0,2.27,0,3.4-.02h0c.51,0,.86.12,1.11.37.38.38.37.89.37,1.35v.16c0,.52.01,1.06-.37,1.44-.24.24-.58.36-1.02.36-.52-.01-.98-.02-1.44-.02h-2.12s-2.18,0-2.18,0c-.47,0-.95,0-1.42.02h-.07Z"/>
  <path class="cls-1" d="m65.11,38.47c-.48,0-.86-.13-1.11-.4-.37-.38-.4-.92-.38-1.36v-.18c.02-.61.04-1.74,1.51-1.74,1.19.02,2.34.02,3.5.02,1.21,0,2.41,0,3.62-.02h0c.49,0,.84.12,1.08.37.37.37.36.89.35,1.3v.23c0,.48.02,1.02-.36,1.41-.24.24-.58.36-1.02.36h-.1c-.46-.02-.93-.03-1.4-.03-.37,0-2.18.01-2.18.01-.34,0-1.71-.02-2.05-.02-.43,0-.87,0-1.3.03h-.16Z"/>
  <path class="cls-1" d="m65.04,43.57c-1.42,0-1.42-1.1-1.42-1.64v-.22c-.01-.39-.03-.98.35-1.37.24-.24.58-.37,1.03-.37h.12c.47.02.93.03,1.4.03.36,0,1.81-.02,2.17-.02s1.76.02,2.11.02c.45,0,.9,0,1.35-.03h.15c.46,0,.81.12,1.05.38.34.37.35.89.32,1.35,0,.1,0,.21,0,.31,0,.38.01.85-.33,1.2-.24.24-.58.36-1.04.36-1.23-.02-2.43-.02-3.63-.02s-2.4,0-3.59.02h-.04Z"/>
  <path class="cls-1" d="m65.12,31.95c-1.46,0-1.49-1.07-1.51-1.71v-.15c-.02-.42,0-.96.37-1.34.26-.27.62-.4,1.12-.4h.17c.45.03.91.04,1.36.04,0,0,1.75-.02,2.11-.02s.69,0,1.04.01c.34,0,.68.01,1.02.01.43,0,.87,0,1.3-.04.07,0,.13,0,.19,0,.45,0,.79.12,1.03.37.39.4.38.99.37,1.42v.16c0,.58-.02,1.65-1.44,1.65-1.25-.03-2.42-.04-3.6-.04s-2.29.01-3.44.04h-.08Z"/>
  <path class="cls-1" d="m60.24,38.49c-.57-.02-1.21-.1-1.57-.56-.24-.31-.31-.74-.21-1.29-.11-.59-.03-1.03.23-1.35.38-.47,1.03-.52,1.49-.52.51,0,1.08.06,1.45.45.37.39.41.93.4,1.36-.02.71-.04,1.91-1.68,1.91h-.12Z"/>
  <path class="cls-1" d="m60.21,26.85c-.48,0-1.16-.07-1.53-.55-.25-.32-.32-.76-.2-1.32-.1-.57-.03-1,.22-1.32.37-.46,1-.53,1.58-.54h0c1.54,0,1.75.93,1.77,1.84,0,.5-.04,1.07-.43,1.46-.39.39-.96.44-1.36.44h-.05Z"/>
  <path class="cls-1" d="m27.8,57.88c-1.47,0-1.67-.93-1.68-1.84,0-.51.04-1.08.43-1.46.39-.39.96-.43,1.35-.43.5,0,1.15.06,1.54.53.34.42.32.97.25,1.38.1.56.02.98-.23,1.29-.37.46-.98.53-1.59.54h-.07Z"/>
  <path class="cls-1" d="m58.51,39.86l.56.07c.24.03.49.04.74.04.65.02,1.33.04,1.84.42.34.25.43.78.45,1.18.01.26.02,1.15-.42,1.54-.45.4-1.1.44-1.79.47-.26.01-.54.03-.81.07l-.57.08v-3.87Z"/>
  <path class="cls-1" d="m60.08,31.96c-.37,0-.91-.04-1.27-.41-.36-.37-.4-.91-.39-1.38.02-.6.05-1.84,1.24-1.84.16,0,.33.02.53.07.18-.03.33-.05.48-.05,1.33,0,1.37,1.32,1.38,1.81.01.39-.01.95-.38,1.34-.38.4-.97.45-1.49.46h-.11Z"/>
</svg>