<?xml version="1.0" encoding="UTF-8"?>
<svg id="Layer_1" data-name="Layer 1" xmlns="http://www.w3.org/2000/svg" viewBox="0 0 100 100">
  <defs>
    <style>
      .cls-1 {
        fill: #9daf82;
      }
    </style>
  </defs>
  <path class="cls-1" d="m53.69,53.76c4.15,2.67,7.48,5.92,10.41,10.15.33-1.55.6-2.73.84-3.92.15-.7.37-1.41.37-2.11,0-.53-.13-1.2-.46-1.58-1.34-1.51-2.02-3.22-2-5.23.01-.96-.17-1.96.05-2.86.25-1.04.59-2.36,1.36-2.9,1.45-1.01,1.45-2.41,1.85-3.77-2.7-.79-3.27-1.56-3.27-4.38,0-8.38,0-16.77,0-25.15,0-2.53,1.02-3.54,3.56-3.54,7.7,0,15.41,0,23.11,0,2.51,0,3.52,1.03,3.52,3.58,0,6.79,0,13.57,0,20.36,0,2.47-1.02,3.51-3.48,3.52-5.75.01-11.5,0-17.24,0-1.89,0-2.57.64-2.83,2.73.63,0,1.25-.01,1.88,0,2.39.07,4.64,1.86,5.02,4.19.16,1,.59,1.23,1.5,1.22,4.51-.03,9.02-.01,13.53-.01,1.62,0,1.63,0,1.63,1.68,0,1.8-.05,3.59.02,5.39.04.98-.35,1.21-1.25,1.21-4.59-.03-9.18-.02-13.77-.01-1.31,0-2.06,1.21-1.35,2.28.19.29.83.42,1.25.4,1.15-.08,1.42.45,1.43,1.5,0,1.06-.4,1.49-1.42,1.36-1.15-.15-1.41.41-1.42,1.46-.01,1.17.57,1.27,1.5,1.26,4.55-.03,9.1.01,13.65-.03,1.02-.01,1.4.24,1.39,1.33,0,1.08-.3,1.44-1.42,1.43-4.51-.06-9.02-.03-13.53-.02-1.55,0-1.56,0-1.56,1.63,0,4.27.03,8.54-.01,12.81-.05,4.94-2.5,8.49-7.05,9.79-3.94,1.13-7.41.05-10.18-3.03-.52-.58-1.02-1.19-1.76-2.06-.06.75-.12,1.16-.12,1.57,0,2.71-.03,5.43.01,8.14.02.96-.27,1.34-1.29,1.33-12.89-.03-25.79-.02-38.68,0-.91,0-1.3-.22-1.21-1.21.63-7.11,1.1-14.24,1.9-21.33.23-2,.29-3.5-.97-5.3-2.03-2.91-.8-6.94,2.24-8.86,2.68-1.69,2.97-3.06,1.21-5.68-2.63-3.91-2.18-7.11,1.49-10.01,1.6-1.26,2.36-2.86,2.37-4.86,0-1.36-.05-2.72.03-4.07.05-.78.36-1.53.47-2.31.08-.61.14-1.26.01-1.84-1.39-6.18.16-11.46,4.88-15.71,2.67-2.41,5.9-3.66,9.48-3.76,3.38-.1,6.77-.29,10.09.75,7.78,2.45,12.44,11.22,10.06,19.06-.12.39-.1.85-.04,1.26.19,1.16.61,2.3.64,3.46.09,3.07.03,6.15.03,9.22,0,4.61-1.89,8.23-5.7,10.84-.22.15-.42.34-.78.65Zm7.85,24.2c.53-2.76,1-5.46,1.57-8.15.23-1.11.14-2.07-.48-3.06-1.88-3.04-4.13-5.77-6.89-8.05-1.12-.93-2.33-1.74-3.67-2.73-3.24,8.77-6.38,17.29-9.53,25.81-.13.01-.26.02-.39.03-3.21-8.69-6.43-17.38-9.63-26.05-.34.07-.47.06-.56.12-6.24,3.63-10.18,8.97-11.15,16.12-.79,5.8-1.01,11.68-1.53,17.52-.08.93.25,1.21,1.12,1.19,1.68-.04,3.35,0,5.03,0q1.85,0,1.85-1.81c0-6.27,0-12.53.01-18.8,0-.4.11-1.11.3-1.16.64-.16,1.37-.21,1.98-.02.25.07.39.86.4,1.32.03,6.31.05,12.61,0,18.92-.01,1.19.31,1.59,1.54,1.58,7.1-.05,14.21-.03,21.31-.03q1.8,0,1.8-1.75c0-6.31.02-12.61-.02-18.92,0-1.18.59-1.26,1.49-1.27.91,0,1.41.2,1.38,1.26-.06,2.27-.04,4.55,0,6.82,0,.49.08,1.09.37,1.45,1.33,1.69,2.64,3.42,4.17,4.93,2.13,2.1,4.78,2.55,7.52,1.39,2.54-1.07,4.17-3.09,4.22-5.89.12-6.62.04-13.25.06-19.87,0-.71-.25-1.02-.97-1-1.16.03-2.32.05-3.47,0-.85-.04-1.28.19-1.45,1.12-1.07,5.84-2.22,11.67-3.29,17.5-.42,2.28-.36,2.29-2.62,1.68-.11-.03-.22-.09-.47-.2ZM42.3,10.97c-2.12.32-4.32.38-6.33,1.02-6.19,1.97-9.63,8.28-8.43,14.43.09.46.52,1.18.82,1.2.86.05,1.9.49,2.5-.74.77-1.56,2.04-2.62,3.69-3.23,1.01-.37,1.99-.81,3.01-1.14.67-.22.82-.58.77-1.25-.09-1.19-.09-2.39-.07-3.59,0-.3.16-.76.38-.87,1.27-.62,2.3.06,2.31,1.45,0,.6-.02,1.2.01,1.8.09,1.88,1.22,3.39,3.05,3.82,1.15.27,2.36.32,3.55.45,1.9.2,3.83.54,5.04,2.12.97,1.27,2.13,1.41,3.45,1.22.38-.05.91-.51,1-.88,1.25-5.14-1.13-10.73-5.64-13.56-2.8-1.76-5.88-2.1-9.12-2.24Zm40.25,14.97c3.3,2.69,3.47,2.9,4.78,6.47.46,1.26,1.49.57,2.25.64.82.07.72-.68.72-1.22,0-6.43-.01-12.85.02-19.28,0-.97-.3-1.35-1.31-1.34-7.34.03-14.69.03-22.03,0-1.07,0-1.36.41-1.36,1.42.03,8.18.01,16.36.02,24.54,0,.4.11.8.17,1.2.15.04.3.07.46.11.73-1.64,1.8-3.21,2.11-4.93.54-3.03,1.91-5.36,4.39-7.1.18-.13.33-.31.49-.45-2.82-4.62-2.76-7.74.17-10.32,2.45-2.15,6.23-2.24,8.82-.2,1.31,1.03,2.12,2.4,2.44,4,.48,2.48-.35,4.62-2.13,6.46Zm-30.65,9.17c0-1.63.02-2.74,0-3.86-.05-2.18-1.48-3.75-3.64-4.03-1.03-.13-2.06-.29-3.09-.35-1.73-.1-3.26-.64-4.62-1.74-.31-.25-.9-.41-1.26-.3-1.29.4-2.54.92-3.8,1.42-1.75.69-2.66,2.03-2.7,3.86-.06,2.51-.11,5.03.02,7.54.23,4.39,3.3,8.07,7.26,8.89,4.47.93,8.65-.96,10.75-4.83,1.22-2.25,1.15-4.68,1.09-6.61Zm-31.88,29.45c.06-.04.15-.07.19-.13.17-.27.33-.54.48-.83,1.95-3.7,4.65-6.78,8.16-9.04,1.82-1.17,3.84-2.09,5.85-2.94,1.42-.6,1.38-1.87,1.59-2.97.07-.36-.66-.9-1.06-1.33-1.13-1.22-2.56-2.27-3.33-3.68-.89-1.64-1.77-2.68-3.76-2.34-.38.06-.82-.31-1.24-.32-.36-.01-.83.08-1.09.31-.87.75-1.63,1.62-2.5,2.38-1.62,1.4-1.95,3.3-.82,5.14.33.54.69,1.07,1.03,1.61,1.9,3.01,1.07,6.54-1.98,8.38-.47.29-.97.57-1.36.95-1.46,1.46-1.52,3.76-.17,4.82Zm29.44-9.53c-1.73,0-3.16.06-4.58-.01-2.33-.13-4.03-1.96-3.89-4.27.06-.93-.22-1.3-1.08-1.45-.98-.17-1.03.51-1.15,1.14-.33,1.72-1.14,3.05-2.87,3.65-.69.24-.79.69-.55,1.32.55,1.45,1.04,2.93,1.67,4.34.16.36.72.77,1.11.78,2.83.07,5.66.04,8.49.02.29,0,.75-.1.83-.28.69-1.67,1.31-3.36,2.02-5.23Zm24.36-5.88h-.02c0-1.76.04-3.51-.01-5.27-.04-1.2-.92-2.15-2.11-2.45-1.05-.26-2.28.26-2.87,1.26-.48.81-.56,1.51.41,2.11,1.45.9,2.03,2.31,1.9,3.99-.02.28-.28.68-.52.76-1.28.42-2-.04-2.26-1.36-.14-.74-.52-1.4-1.32-1.23-.5.11-1.25.69-1.27,1.09-.08,1.58-.05,3.19.19,4.74.2,1.27,1.35,2.19,2.34,2.2,1.52.03,3.03-.02,4.55.02.82.02,1.01-.37.99-1.1-.04-1.6-.01-3.19-.01-4.79Zm10.59-16.13c-.29-3.19-3.63-5.56-7.23-5.28-2.83.22-5.74,2.93-5.57,5.28h12.79Zm-6.4-16.26c-2.28-.02-4.14,1.79-4.15,4.05-.01,2.22,1.9,4.12,4.12,4.11,2.19-.01,4.06-1.85,4.1-4.02.04-2.23-1.81-4.12-4.07-4.13Zm-39.7,46.62c1.34,3.6,2.61,7.03,3.89,10.47.13-.03.25-.05.38-.08,1.25-3.42,2.5-6.85,3.79-10.39h-8.06Zm14.09-12.32c.17-.09.6-.27.97-.54,2.51-1.82,3.81-4.32,4.05-7.39.14-1.79.13-1.7-1.65-1.81-1.31-.08-1.97.36-2.54,1.55-.57,1.19-1.52,2.21-2.38,3.25-.31.38-.82.6-1.23.89.17.04.34.08.51.12.73,1.27,1.46,2.54,2.26,3.92Zm31-1.47c1.91,0,3.83-.04,5.74.02.99.03,1.22-.41,1.2-1.29-.01-.84-.04-1.46-1.17-1.45-3.79.04-7.57.04-11.36,0-1.09-.01-1.22.53-1.22,1.42,0,.85.17,1.35,1.19,1.32,1.87-.06,3.75-.02,5.62-.02Zm-28.72-15.07h0c0,.96,0,1.91,0,2.87,0,1.17.25,1.41,1.39,1.23,1.02-.16,1.38-.86,1.39-1.79.02-1.55.02-3.11,0-4.66,0-.35-.05-.88-.26-1-.6-.34-1.29-.57-1.98-.7-.1-.02-.47.76-.5,1.19-.08.95-.02,1.91-.02,2.86Zm-24.67.06c0-.96.03-1.91-.01-2.87-.02-.53.29-1.29-.71-1.32-.86-.03-1.79.12-1.86,1.07-.14,2.02-.13,4.06,0,6.08.06.95.99,1.11,1.85,1.09,1.01-.02.71-.77.72-1.3.03-.91,0-1.83,0-2.75Zm16.42,17.69c.48,0,1.03.16,1.41-.04.52-.27,1.18-.75,1.29-1.25.16-.77-.44-1.32-1.28-1.35-.91-.04-1.86-.16-2.72.05-.51.12-1.17.74-1.27,1.23-.16.76.41,1.32,1.28,1.36.43.02.87,0,1.31,0Z"/>
  <path class="cls-1" d="m21.79,20.91c0,1.87-.02,3.75.01,5.62.02.85-.25,1.21-1.16,1.2-3.82-.04-7.65-.03-11.47,0-.83,0-1.12-.29-1.11-1.11.03-3.82.03-7.65,0-11.47,0-.92.37-1.15,1.21-1.15,3.78.03,7.57.03,11.36,0,.88,0,1.2.31,1.19,1.19-.04,1.91-.01,3.82-.01,5.74Zm-10.96-.14c0,1,.02,1.99,0,2.99-.03.79.26,1.19,1.1,1.18,2.03-.02,4.06-.02,6.1,0,.69,0,1.02-.24,1.02-.97-.02-2.11-.03-4.22,0-6.34,0-.69-.28-.9-.93-.89-2.07.02-4.14.03-6.22,0-.75,0-1.1.25-1.07,1.04.04.99.01,1.99.01,2.99Z"/>
  <path class="cls-1" d="m14.83,38.67c-1.91,0-3.83-.04-5.74.02-1.03.03-1.06-.56-1.03-1.3.03-.69-.21-1.49.97-1.49,3.94.02,7.89.01,11.83,0,1.18,0,.88.88.92,1.54.04.69-.02,1.26-.98,1.24-1.99-.04-3.98-.01-5.98-.01Z"/>
  <path class="cls-1" d="m14.88,33.15c-1.91,0-3.83-.04-5.74.01-1.09.03-1.1-.61-1.08-1.39.02-.73-.09-1.42,1.05-1.41,3.86.05,7.73.05,11.59,0,1.1-.01,1.1.61,1.1,1.38,0,.75.05,1.45-1.06,1.42-1.95-.05-3.9-.01-5.86-.01Z"/>
  <path class="cls-1" d="m87.54,55.03c1.47,0,2.95.04,4.42-.01,1.19-.05,1.09.71,1.11,1.49.02.81-.07,1.38-1.12,1.36-2.94-.05-5.89-.05-8.84,0-1.15.02-1.02-.71-1.03-1.43,0-.73-.1-1.47,1.04-1.42,1.47.06,2.94.01,4.42.01Z"/>
  <path class="cls-1" d="m82.07,67.49c.25,1.24-.49,1.32-1.46,1.36-1.13.04-1.28-.52-1.31-1.46-.04-1.11.4-1.42,1.47-1.43,1.19-.01,1.47.51,1.3,1.53Z"/>
  <path class="cls-1" d="m86.19,66.02c1.26-.24,1.32.52,1.35,1.47.04,1.07-.4,1.34-1.4,1.36-1.13.02-1.4-.41-1.4-1.47,0-1.11.36-1.56,1.45-1.36Z"/>
  <path class="cls-1" d="m93.03,67.42c.23,1.15-.34,1.41-1.39,1.43-1.07.01-1.37-.38-1.36-1.39,0-1.02.23-1.52,1.4-1.49,1.09.02,1.58.35,1.36,1.46Z"/>
  <path class="cls-1" d="m8.1,42.7c-.26-1.17.35-1.35,1.38-1.39,1.18-.05,1.36.46,1.38,1.47.02,1.06-.38,1.35-1.39,1.35-1.05,0-1.61-.27-1.37-1.42Z"/>
  <path class="cls-1" d="m16.32,42.7c.25,1.16-.32,1.41-1.36,1.42-1.02,0-1.4-.3-1.39-1.35.01-1.02.22-1.51,1.38-1.46,1.03.04,1.62.24,1.36,1.4Z"/>
  <path class="cls-1" d="m42.37,38.24c1.37,0,2.74.01,4.1,0,.58,0,.79.2.8.8.03,2.8-2.14,5.04-4.92,5.04-2.8,0-4.93-2.22-4.89-5.04,0-.6.23-.81.81-.8,1.37.02,2.74,0,4.1,0Zm-3.5,1.53c.31,1.65,1.73,2.76,3.43,2.75,1.7,0,3.08-1.11,3.38-2.75h-6.81Z"/>
  <path class="cls-1" d="m37.3,32.91c.27-.64.98-1.03,1.65-.81.41.14.64.46.76.93.19.77-.15,1.37-.9,1.58-.79.22-1.55-.14-1.65-.93-.03-.25.04-.51.15-.76Z"/>
  <path class="cls-1" d="m45.99,32.13c.69.08,1.26.65,1.24,1.35-.01.43-.25.74-.67.98-.69.4-1.35.24-1.76-.42-.43-.7-.29-1.52.43-1.84.23-.1.49-.1.76-.07Z"/>
</svg>