<?xml version="1.0" encoding="UTF-8"?>
<svg id="Layer_1" data-name="Layer 1" xmlns="http://www.w3.org/2000/svg" viewBox="0 0 100 100">
  <defs>
    <style>
      .cls-1 {
        fill: #5b653e;
      }
    </style>
  </defs>
  <g id="LU3EFb.tif">
    <g>
      <path class="cls-1" d="m84.57,14.58H15.76v68.78c.93,0,1.89,0,2.85,0,17.71,0,35.42,0,53.13,0,.84,0,1.95.02,2.67.05,1.72.05,2.05,1.73,2.04,2.62-.03,2.08-.86,2.82-2.09,2.8-.54-.01-1.33-.03-2-.03-19.23,0-38.45,0-57.68,0-3.68,0-4.48-.78-4.48-4.4,0-23.69,0-47.38,0-71.06,0-3.48.84-4.31,4.32-4.31,23.7,0,47.39,0,71.09,0,3.62,0,4.4.8,4.4,4.49,0,19.22,0,38.44,0,57.66,0,.59-.09,1.64-.15,2.1-.22,1.69-1.73,1.94-2.63,1.97-1.36.04-2.43-.78-2.57-2.46-.05-.64-.09-1.48-.09-2.24,0-17.62,0-35.24,0-52.86,0-.99,0-1.97,0-3.09Z"/>
      <path class="cls-1" d="m90.85,85.83c2.51,2.45-1.17,6.31-3.74,3.92-.21-.19-.41-.4-.62-.61-4.73-4.92-9.59-9.72-14.41-14.55-.53-.53-1.11-1-1.82-1.64-3.79,2.7-7.89,4.45-12.54,4.95-12.95,1.39-24.14-7.65-26.15-21.25-1.72-11.69,7.12-23.76,19.15-25.9,9.99-1.78,18.32,1.43,24.11,9.7,5.91,8.44,6.02,17.51.68,26.37-1.17,1.94-.97,2.93.54,4.39,4.97,4.8,9.76,9.79,14.74,14.58.02.02.04.04.05.05Zm-16.92-31.69c-.03-10.27-8.25-18.45-18.53-18.44-10.29,0-18.49,8.18-18.51,18.46-.02,10.39,8.25,18.63,18.65,18.57,10.26-.06,18.42-8.3,18.39-18.58Z"/>
      <path class="cls-1" d="m50.11,25.06c-8.34,0-16.67,0-25.01-.01-.83,0-1.82.07-2.44-.34-.76-.5-1.69-1.49-1.66-2.22.04-.88.86-1.95,1.65-2.49.67-.46,1.77-.36,2.68-.36,16.5-.02,33.01-.01,49.51-.01.67,0,1.44.06,1.98.1,1.71.15,2.38,1.16,2.33,2.74-.02.76-.45,2.7-2.27,2.63-1-.04-2.18-.04-3.28-.04-7.83,0-15.66,0-23.49,0Z"/>
      <path class="cls-1" d="m28.81,35.67c-1.68,0-3.36.05-5.04-.02-1.63-.07-2.82-.96-2.86-2.6-.05-1.79,1.18-2.75,2.92-2.78,3.36-.06,6.72-.06,10.07,0,1.63.03,2.82.95,2.86,2.59.04,1.79-1.19,2.71-2.93,2.79-1.68.07-3.36.02-5.04.01Z"/>
      <path class="cls-1" d="m28.84,78.16c-1.68,0-3.36.06-5.04-.02-1.74-.08-3.16-1.09-2.8-2.78.22-1.02,1.76-2.39,2.81-2.49,3.33-.32,6.72-.32,10.05,0,1.05.1,2.6,1.47,2.81,2.49.36,1.69-1.07,2.7-2.8,2.79-1.67.08-3.36.02-5.04.02Z"/>
      <path class="cls-1" d="m24.73,46.3c-1.85.11-3.48-.36-3.8-2.41-.26-1.66.84-2.63,2.42-2.97,2.67-.56,4.89.28,5.38,1.98.58,2-1.09,3.42-4,3.39Z"/>
      <path class="cls-1" d="m24.73,67.54c-1.85.11-3.48-.36-3.8-2.41-.26-1.66.84-2.63,2.42-2.97,2.67-.56,4.89.28,5.38,1.98.58,2-1.09,3.42-4,3.39Z"/>
      <path class="cls-1" d="m23.5,57.99c-2.65.13-2.5-2.91-2.45-3.93.05-.9.09-2.43,2.49-2.58,2.55.2,2.46,1.78,2.52,2.86.07,1.36.4,3.78-2.56,3.65Z"/>
    </g>
  </g>
</svg>