<?xml version="1.0" encoding="UTF-8"?>
<svg id="Layer_1" data-name="Layer 1" xmlns="http://www.w3.org/2000/svg" viewBox="0 0 100 100">
  <defs>
    <style>
      .cls-1 {
        fill: #9daf82;
      }
    </style>
  </defs>
  <path class="cls-1" d="m24,87.16c-3.11,0-6.22-.02-9.33-.04l-3.25-.02c-.24,0-.49-.02-.75-.04l-1.22-.08-.12-.85c-.16-1.19-.26-1.96.27-2.57.52-.6,1.28-.6,2.32-.6.22,0,.45,0,.67-.01.24,0,.49-.01.73-.01.36,0,.66.01.95.04,0-.04,0-.08,0-.13-.03-11.14-.03-20.43,0-29.25,0-.1,0-.17,0-.22-.06,0-.14-.01-.26-.01-4.44-.07-7.34-3.01-7.56-7.66-.1-2.12.6-3.9,1.27-5.61.22-.57.43-1.11.61-1.64,1.24-3.71,2.56-7.46,3.84-11.08l.07-.19c.69-1.95,1.38-3.91,2.06-5.87.76-2.2,1.18-2.5,3.43-2.5h62.09c2.19-.01,2.63.31,3.38,2.41l.11.32c2.48,7.03,5.05,14.3,7.61,21.43.73,2.04.42,4.51-.84,6.6-1.24,2.05-3.14,3.41-5.23,3.71-.42.06-.83.11-1.26.11-.16,0-.31,0-.46-.02-.07,0-.14-.01-.2-.01-.01,0-.02,0-.03,0,0,.07-.02.19-.02.37.04,9.68.04,19.41,0,28.91,0,.17,0,.28.02.35.02,0,.18,0,.25,0,.33-.03.68-.04,1.11-.04.24,0,.82.01.82.01.26,0,.53.01.79.01.16,0,.32,0,.48,0h.1c1.79,0,1.84,1.59,1.86,2.11.01.43-.02,1.04-.48,1.52-.34.35-.81.52-1.42.52-.5,0-.97,0-1.44,0-.87,0-1.74,0-2.61.01-.84,0-1.68.01-2.52.01h-6.24c-16.51.02-33.03.03-49.54.03h-.08Zm38.57-4.23c5.35,0,10.67.01,15.81.03.19,0,.31-.01.39-.02,0-.06.01-.18.01-.37-.05-10.46-.05-19.62,0-28.01.01-1.38-.11-1.6-1.02-1.84-.89-.24-1.6-.83-2.23-1.36-.03-.03-.06-.05-.09-.08-1.88,1.49-4.2,2.31-6.61,2.31-2.42,0-4.75-.82-6.63-2.33-.01.01-.02.02-.04.03-.64.55-1.33,1.15-2.21,1.39-1.6.43-3.25.54-4.85.66l-.43.03c-.23.02-.46.02-.69.02-2.1,0-3.87-.72-5.26-2.15-.08.07-.17.14-.25.22-.67.58-1.44,1.25-2.4,1.43-1.46.28-3.11.6-4.71.6-2.46,0-4.38-.72-6.01-2.27-1.88,1.53-4.21,2.36-6.63,2.36s-4.71-.81-6.62-2.28c-.14.09-.27.17-.4.26-.95.62-1.78,1.16-2.77,1.48q-.54.17-.54.68c.02,7.01.02,14.13.02,21.03v6.87c0,.48,0,1.02.03,1.3.26.03.73.03.98.03,0,0,.63,0,.78,0,0-.17,0-.36,0-.53v-23.03c0-2.37.64-3.02,2.96-3.02h20.31c2.3,0,2.97.68,2.97,3.01v4.86c0,6.03.01,12.27-.02,18.41,0,.15,0,.25.01.32.07,0,.17.01.31.01,5.29-.02,10.56-.03,15.83-.03Zm-34.69-.04c1.17,0,2.24.01,3.27.04h.05s0-.07,0-.11c-.03-2.71-.02-5.46-.02-8.13v-5.92c0-2.69,0-5.46.02-8.2,0-.05,0-.1,0-.13h-.02c-1.05.02-2.1.04-3.26.04s-2.32-.01-3.48-.03c-.07,0-.12,0-.16,0,0,.03,0,.06,0,.09.03,7.22.04,14.73.01,22.34v.04h0c1.4-.02,2.53-.04,3.59-.04Zm7.47-22.25c.03,2.61.03,5.27.02,7.84v3.12s0,3.2,0,3.2c0,2.66,0,5.4-.02,8.09v.04c1.16-.02,2.3-.04,3.44-.04s2.32.01,3.5.04h.03v-.04c-.03-7.6-.03-15.12,0-22.35,0-.03,0-.06,0-.09-.03,0-.06,0-.09,0-1.21.02-2.38.03-3.54.03s-2.2-.01-3.21-.03l-.06-.71v.71s-.05,0-.08,0c0,.05,0,.11,0,.19Zm42.23-14.83c-.11.78.07,1.54.51,2.16.46.65,1.16,1.08,1.98,1.21.59.09,1.24.13,2.03.13.53,0,1.07-.02,1.6-.04,1.95-.07,3.12-1.32,3.15-3.35,0-.06,0-.11,0-.15-.62.02-1.21.03-1.94.03l-5.15-.02c-.87,0-1.54.01-2.17.04Zm-47.53,3.48c.97,0,1.87-.36,2.46-1,.57-.62.84-1.46.77-2.44,0-.03,0-.06,0-.08h-.04c-1.12.02-2.19.02-3.26.02h-5.77c-.08,1.01.12,1.84.58,2.42.55.69,1.52,1.06,2.79,1.08h.47s1.22,0,1.22,0h.78Zm39.82-.02v.02c.06,0,.11,0,.17,0,1.15-.02,2.04-.36,2.59-.96.53-.58.78-1.46.74-2.54-1.02,0-3.37,0-3.37,0-1.89,0-3.84,0-5.76.02-.12.78.06,1.59.53,2.22.52.7,1.36,1.14,2.36,1.24.17.02.35.02.57.02h.55c.19-.01.39-.02.59-.02h1.05Zm-18.97-3.45c-.15.69-.02,1.42.35,2.04.4.66,1.02,1.1,1.75,1.23.93.17,1.91.2,2.66.2.39,0,.78,0,1.17-.01,1.01-.02,1.83-.34,2.39-.92.58-.61.88-1.5.86-2.58-.63.01-1.24.02-1.84.02,0,0-4.74-.02-5.15-.02-.86,0-1.53.01-2.16.03,0,0-.02,0-.03,0Zm-40.24.01c-.11.68.06,1.41.48,2.05.42.65,1.06,1.09,1.74,1.22.74.14,1.56.2,2.66.2.39,0,.78,0,1.16-.02,1.02-.02,1.85-.34,2.4-.92.57-.6.86-1.49.83-2.57-.65.01-1.28.01-1.9.01l-5.17-.02c-.88,0-1.56.01-2.2.04,0,0,0,0,0,.01Zm26.73.05c-.08.62.08,1.32.46,1.93.42.67,1.03,1.13,1.69,1.26.94.19,1.95.21,2.91.21h.8c1.17-.01,2.04-.32,2.6-.92.53-.58.78-1.47.72-2.58-.62,0-1.22.01-1.82.01h-2.67s-4.48,0-4.48,0c-.06.03-.2.09-.21.09Zm4.96-4.31c1.48,0,2.8.01,4.05.05,0,0,.12,0,.16,0,0-.06,0-.14,0-.24-.04-2.18-.03-4.38-.02-6.5v-2.54s0-2.56,0-2.56c0-2.24,0-4.54.02-6.81v-.05c-.99.02-2.02.03-3.17.03s-2.29,0-3.43-.02c-.03,0-.06,0-.08,0,0,.02,0,.04,0,.06-.12,1.78-.31,3.56-.47,5.08-.09.83-.2,1.65-.31,2.48l-.02.17c-.07.57-.15,1.14-.21,1.71-.13,1.14-.26,2.27-.39,3.41-.22,1.92-.44,3.85-.68,5.76,1.38-.02,2.95-.04,4.56-.04Zm34.86.02s.08.02.26.02c1.15-.03,2.32-.04,3.83-.04h4.66s-2.74-7.8-2.74-7.8c-1.25-3.55-2.49-7.1-3.73-10.66-.05-.13-.08-.18-.09-.18h0s-.06-.02-.21-.02c-.99.02-1.94.02-2.9.02h-3.45s.16.72.16.72c.29,1.31.58,2.59.87,3.87.34,1.47,1.09,4.62,1.09,4.62.7,2.98,1.41,5.98,2.07,8.93.09.4.15.5.17.52h0Zm-60.97-.02c1.46,0,2.65.01,3.72.04h0c.28,0,.34-.03.34-.03h0s.07-.07.14-.45c.42-2.12.9-4.21,1.36-6.17.65-2.78,1.32-5.56,1.99-8.4l.86-3.63h-3.02c-1.24.01-2.26,0-3.18-.03h-.04c-.33,0-.36.02-.53.5-1.19,3.48-2.43,7-3.63,10.41l-1.53,4.36c-.37,1.05-.73,2.1-1.1,3.18l-.08.22h4.66Zm34.7-18.68c0,.06,0,.14,0,.25.04,2.17.03,4.37.02,6.5v5.09c0,2.23,0,4.54-.02,6.81v.04c1.36-.02,2.77-.03,4.33-.03,1.48,0,2.96,0,4.43.02-.08-.71-.14-1.43-.21-2.15-.09-.92-.17-1.84-.28-2.75-.2-1.73-.4-3.47-.61-5.2-.32-2.74-.65-5.55-.96-8.32-.01-.12-.03-.2-.04-.25-.03,0-.06,0-.11,0-1.16.02-2.28.04-3.4.04s-2.08-.02-2.99-.05c0,0-.14,0-.16,0Zm-21.87.05c-.32,1.26-.63,2.55-.96,3.99l-.23,1.01c-.77,3.29-1.53,6.55-2.29,9.82-.25,1.08-.49,2.15-.75,3.3l-.12.53h8.09c.29,0,.58,0,.74-.02.04-.16.08-.49.11-.81.3-2.65.61-5.31.93-7.96l.69-5.88c.1-.9.2-1.79.29-2.69.05-.43.09-.86.14-1.29h-2.95c-1.23,0-2.45,0-3.68.02Zm35,18.59c1.98.03,3.98.04,5.68.04h3.09s-.01-.06-.02-.08c-.21-.88-.43-1.76-.64-2.64-.28-1.16-.57-2.31-.84-3.47-.33-1.43-.66-2.87-.98-4.31l-.09-.4c-.5-2.22-1.02-4.52-1.55-6.77-.1-.42-.2-.85-.28-.95-.08-.03-.55-.03-1.01-.03h-5.59c.02.27.04.52.07.77.09.74.19,1.49.29,2.23l.02.13c.13.95.26,1.93.37,2.9.18,1.58.35,3.16.51,4.75.14,1.29.27,2.59.41,3.88.15,1.32.3,2.66.53,3.94,0,0,.01.01.03.03Z"/>
  <path class="cls-1" d="m51.69,76.83c-1.8,0-2.38-.58-2.39-2.37,0-5.31,0-10.62,0-15.93,0-1.74.57-2.3,2.33-2.3,1.59,0,3.19,0,4.78,0h17.15c1.81,0,2.36.56,2.36,2.39,0,5.28,0,10.55,0,15.83,0,1.75-.63,2.38-2.4,2.38h-11.11s-10.73,0-10.73,0Zm1.08-2.99s.11,0,.2,0c3.68-.02,7.29-.02,10.34-.02h8.95c.05,0,.11,0,.16,0,0-.02,0-7.11,0-7.11,0-2.29,0-4.65.02-6.98,0-.07,0-.13,0-.17-.05,0-.11,0-.19,0-3.24.01-6.46.02-9.68.02s-6.4,0-9.6-.02h-.01c-.07,0-.13,0-.17,0,0,.05,0,.12,0,.21.04,3.55.04,10.77,0,13.84,0,.1,0,.18,0,.23Z"/>
</svg>