<?xml version="1.0" encoding="UTF-8"?>
<svg id="Layer_1" data-name="Layer 1" xmlns="http://www.w3.org/2000/svg" viewBox="0 0 100 100">
  <defs>
    <style>
      .cls-1 {
        fill: #5b653e;
      }
    </style>
  </defs>
  <path class="cls-1" d="m91.81,26.71c.02-2.78-.16-5.46-1.22-8.08-.92-2.27-1.54-4.67-2.43-6.96-.21-.54-.9-1.08-1.48-1.24-.85-.23-1.31.49-1.6,1.23-.07.17-.15.34-.21.52-.67,2.01-1.37,4.02-2.01,6.04-.66,2.12-1.41,4.16-1.39,6.49.08,17.4.04,34.81.04,52.21,0,.37-.02.75.02,1.12.02.21.14.57.24.57.92.05,1.86.14,2.76-.01.21-.04.37-.96.37-1.47.02-12.4,0-24.8.02-37.2,0-2.34-.41-2.16,2.24-2.21.9-.02,1.24.26,1.24,1.21-.03,14.01-.03,28.01,0,42.02,0,.96-.34,1.21-1.24,1.19-2.16-.05-4.33-.01-6.5-.02-2.07,0-2.51-.44-2.51-2.49,0-6.39,0-12.77,0-19.16,0-2.38.38-2.22-2.32-2.26-.86,0-1.18.29-1.18,1.17.02,6.95.01,13.89.02,20.84,0,2.19,1,3.83,2.99,4.72.82.37,1.79.52,2.69.54.95.02,1.23.35,1.19,1.26-.06,1.27-.03,2.54,0,3.81.03,1.24.63,1.82,1.88,1.83,1.87.01,3.73,0,5.6,0,2.53,0,2.78-.24,2.78-2.72,0-11.02,0-22.04,0-33.05,0-9.97-.04-19.94.02-29.92Zm-3.43,60.79q0,1.5-1.84,1.5-1.62,0-1.62-1.85,0-1.62,1.85-1.61,1.62,0,1.61,1.96Zm-1.7-53.24q-1.75,0-1.76-1.67t1.82-1.7q1.64,0,1.64,1.76,0,1.61-1.7,1.61Zm1.66-7.61c-.04.3-.5.74-.82.78-2.43.34-2.49.17-2.63-2.28-.15-2.53.83-4.72,1.71-7.26,1.42,2.95,2.1,5.76,1.74,8.76Z"/>
  <path class="cls-1" d="m13.14,50.26c0,3.4,0,6.8.01,10.2,0,.35.11.99.22,1,.95.11,1.93.2,2.87.05.21-.03.39-1,.39-1.54.02-14.9.02-29.81,0-44.71,0-.91.02-1.53,1.27-1.52,15.09.04,30.18.04,45.26,0,1.03,0,1.27.38,1.25,1.31-.05,2.24-.02,4.48,0,6.72.01,1.68.54,2.23,2.2,2.24,2.17.02,4.33,0,6.5,0,1.54,0,1.55,0,1.55,1.54,0,9,0,18,0,27,0,2.34-.32,2.17,2.25,2.21.89.01,1.26-.24,1.25-1.21-.03-10.23,0-20.47-.06-30.7,0-.7-.37-1.56-.86-2.07-3.14-3.25-6.37-6.4-9.55-9.62-.59-.6-1.22-.85-2.07-.85-8.37.03-16.73.02-25.1.02-8.4,0-16.81,0-25.21,0-1.57,0-2.14.56-2.18,2.13-.01.37,0,.75,0,1.12,0,12.21,0,24.43,0,36.64Zm54.78-33.83c1.48,1.5,2.71,2.75,4.1,4.16-1.3,0-2.48.02-3.65-.02-.16,0-.42-.33-.43-.52-.04-1.1-.02-2.21-.02-3.62Z"/>
  <path class="cls-1" d="m22.33,41.16c.95.01,1.12-.37,1.11-1.19-.03-2.65,0-5.3-.02-7.95,0-.78.17-1.15,1.05-1.15,14.11.02,28.22.02,42.33,0,.85,0,1.11.32,1.08,1.12-.04,1.34,0,2.69-.01,4.03q0,1.69-1.66,1.69c-12.39,0-24.79,0-37.18,0-2.4,0-2.12-.32-2.18,2.26-.02.85.21,1.17,1.13,1.17,13.74-.03,27.48-.02,41.21-.02,1.51,0,2.09-.59,2.1-2.1.01-2.99,0-5.97,0-8.96,0-2.25-.35-2.61-2.6-2.61-7.69,0-15.38,0-23.07,0-7.76,0-15.53,0-23.29,0-1.89,0-2.31.44-2.31,2.32,0,3.02,0,6.05,0,9.07,0,2.32,0,2.27,2.31,2.3Z"/>
  <path class="cls-1" d="m18.15,78.72c3.52.08,7.05.09,10.57,0,2.3-.06,4.32-1.67,4.77-3.93.21-1.07.68-1.3,1.59-1.22.37.04.79-.09,1.11.03.37.15.92.48.95.77.32,3.04,4.05,4.14,6.21,4.15,2.18,0,4.31-.03,6.52-.05,3.41-.03,6.27-.01,7.16-2.89.57-1.85,1.51-2.05,3.2-2.02.86.01.79-.58.83-1.16-.1-2.16.17-2.17-2.38-2.19-.76,0-1.11-.3-1.17-1-.2-2.29-3.04-4.23-5.38-4.21-3.25.04-6.5-.01-9.75.02-2.49.02-4.49,1.43-5.04,3.82-.29,1.25-.86,1.48-1.92,1.36-.29-.03-.64.08-.89-.03-.35-.16-.88-.45-.89-.72-.15-2.65-3.39-4.62-5.88-4.46-2.44.16-4.89.28-7.33.08-4.12-.34-6.09.72-7.13,4.18-.2.68-.49,1.01-1.24.95-.17-.01-.35-.02-.53-.03-.95-.02-1.72.75-1.72,1.7s.85,1.78,1.83,1.69c.03,0,.06,0,.09,0,.94-.1,1.39.21,1.61,1.19.53,2.34,2.38,3.91,4.79,3.97Zm22.39-8.39c.03-1.1.63-1.79,1.71-1.8,3.39-.04,6.79-.04,10.18,0,1.16.01,1.67.58,1.71,1.78.03,1.04.03,2.09,0,3.13-.04,1.23-.56,1.78-1.8,1.81-1.68.04-3.36,0-5.03,0h0c-1.6,0-3.21.03-4.81,0-1.37-.03-1.94-.63-1.96-2.01-.01-.97-.02-1.94,0-2.91Zm-23.87-.18c.04-1.01.61-1.62,1.62-1.62,3.43-.03,6.86-.03,10.29,0,1.02.01,1.63.69,1.67,1.72.04,1.08.04,2.16,0,3.24-.04,1.07-.67,1.71-1.77,1.74-1.71.04-3.43.01-5.14.01h0c-1.6,0-3.21.03-4.81,0-1.31-.03-1.83-.55-1.86-1.85-.03-1.08-.03-2.16,0-3.24Z"/>
  <path class="cls-1" d="m76.4,89.01c-19.22-.02-38.44-.01-57.66-.01-.34,0-.67-.03-1.01,0-.85.08-1.12-.33-1.09-1.13.04-1.12.03-2.24,0-3.36-.05-2.69.49-2.34-2.47-2.39-.77-.01-1.06.25-1.05,1.03.04,2.31,0,4.63.02,6.94,0,1.77.56,2.3,2.35,2.3,10.15,0,20.3,0,30.45,0,3.88,0,7.76,0,11.64,0,6.46,0,12.91,0,19.37-.01.37,0,1.06-.14,1.07-.26.09-.92.15-1.87-.04-2.76-.05-.23-1.03-.35-1.59-.35Z"/>
  <path class="cls-1" d="m21.37,48.03c6.94-.05,13.89-.02,20.83-.02,6.94,0,13.89,0,20.83-.01.42,0,1.18-.12,1.2-.25.13-.95.19-1.93.04-2.86-.03-.21-1.02-.37-1.56-.37-13.51-.02-27.03-.02-40.54-.01-2.41,0-2.09-.32-2.18,2.13-.04,1.07.29,1.4,1.38,1.4Z"/>
  <path class="cls-1" d="m48.73,54.77c2.38,0,1.97.24,2.08-2.11.05-1.05-.3-1.31-1.32-1.31-9.14.04-18.28.01-27.43.03-2.37,0-1.97-.36-2.07,2.09-.04,1.03.27,1.34,1.31,1.33,4.7-.05,9.4-.02,14.1-.02,4.44,0,8.88,0,13.32,0Z"/>
  <path class="cls-1" d="m43.6,61.67c8.8-.05,17.61-.03,26.41-.03h1.28c0-.78,0-1.37,0-1.96q0-1.44-1.49-1.45c-7.5,0-14.99,0-22.49,0-1.38,0-2.76.02-4.14,0-.71-.01-1.04.26-.97.99.03.33.05.68,0,1.01-.18,1.14.27,1.45,1.41,1.44Z"/>
  <path class="cls-1" d="m22.32,58.24c-2.66.01-2.25-.44-2.32,2.41-.02.8.28,1.01,1.04,1,2.79-.03,5.59-.01,8.38-.01,2.5,0,4.99,0,7.49,0,2.24,0,1.86.21,1.97-1.99.06-1.17-.36-1.45-1.47-1.44-5.03.05-10.06,0-15.09.03Z"/>
  <path class="cls-1" d="m56.38,51.38c-2.52.01-2.18-.38-2.25,2.28-.02.92.38,1.15,1.2,1.13,1.38-.04,2.76,0,4.14,0,3.58,0,7.16,0,10.75,0,.45,0,1.05.15,1.06-.63,0-.88,0-1.77,0-2.77h-1.47c-4.48,0-8.95-.01-13.43,0Z"/>
  <path class="cls-1" d="m54.13,84.2c-.04,1.04.31,1.36,1.34,1.35,4.36-.04,8.73-.02,13.09-.02q2.95,0,2.71-3c0-.07-.05-.14-.14-.41-.4,0-.8,0-1.21,0-4.59,0-9.18,0-13.76,0-2.27,0-1.93-.2-2.02,2.07Z"/>
  <path class="cls-1" d="m26.89,23.45c.17.2.37.52.57.53.77.06,1.56.05,2.33,0,.17-.01.45-.31.45-.49.05-.92.02-1.84.02-2.73-3.11-.58-3.58-.24-3.41,2.36,0,.11-.03.26.03.33Z"/>
  <path class="cls-1" d="m21.65,24.03q1.77,0,1.78-1.64c0-1.78,0-1.79-1.61-1.77-2.01.01-1.78-.23-1.8,1.67q0,1.75,1.64,1.75Z"/>
  <path class="cls-1" d="m37.14,22.27q0-1.66-1.74-1.66t-1.75,1.67,1.7,1.75,1.79-1.75Z"/>
</svg>