<?xml version="1.0" encoding="UTF-8"?>
<svg id="Layer_1" data-name="Layer 1" xmlns="http://www.w3.org/2000/svg" viewBox="0 0 100 100">
  <defs>
    <style>
      .cls-1 {
        fill: #eee9dc;
      }
    </style>
  </defs>
  <path class="cls-1" d="m86.12,26.63c0-2.16-.66-2.83-2.84-2.86h-.33c-.82-.02-1.64-.03-2.46-.03-.7,0-1.41,0-2.11.03h-.15c-.67,0-1.16-.16-1.49-.51-.35-.36-.51-.88-.49-1.64.05-1.92.03-3.87.02-5.76v-1.53c-.02-2.61-.5-3.1-3.06-3.11,0,0-4.51.02-5.33.02-1.75,0-3.09-.02-4.37-.07-1.24-.04-2.38-.78-2.82-1.09-1.03-.75-2.03-1.57-3-2.36-.72-.59-1.44-1.18-2.18-1.75-.83-.64-1.69-.96-2.55-.96s-1.74.32-2.62.95c-1.46,1.06-3.16,2.33-4.66,3.78-1.08,1.04-2.2,1.51-3.64,1.51h-.2c-1.31-.04-2.63-.05-3.94-.05-.99,0-1.97,0-2.96.01h-2.24c-2.42.02-2.98.59-3,3.05v.48c-.03,2.23-.05,4.54.01,6.8.02.78-.14,1.32-.5,1.7-.36.36-.87.53-1.61.53h-.12c-1.18-.03-2.37-.04-3.55-.04-1.02,0-2.04,0-3.06.01h-1.52c-2.49.02-3.1.63-3.1,3.11v4.2c0,4.38,0,8.87,0,13.32.4,1.01.98,1.21,2.01,1.21s1.76-.3,2.01-1.36l.04-13.38c0-2.63.24-2.87,2.9-2.87h27.92s27.92,0,27.92,0c2.75,0,3.01.25,3.01,2.94v44.49c0,1.44,0,2.54,0,3.4h0s0,1.34,0,5.7c0,2.72-.25,2.97-3,2.97H23.22c-2.67,0-2.91-.24-2.91-2.87v-32.96c-.34-.73-.09-1.48-2-1.54-1.81-.05-1.76.6-2.06,1.21,0,19.83,0,37.1,0,37.1,0,2.69.5,3.19,3.15,3.19h31.74s31.74,0,31.74,0c2.79,0,3.24-.46,3.24-3.26v-24.12c0-12.53,0-25.07,0-37.61Zm-14.31-3.4c-.45.48-1.13.55-1.8.55h0c-2.7-.02-5.39-.03-8.09-.03h-9.03s-9.01,0-9.01,0c-2.59,0-5.18,0-7.84.04-.57,0-1.28-.06-1.75-.56-.47-.5-.48-1.24-.44-1.76.1-1.4.05-2.82.01-4.19-.02-.66.13-1.13.45-1.46.32-.33.79-.49,1.45-.49h.05c.72,0,1.45.01,2.17.01h3.78c.84,0,1.69,0,2.61,0,1.13,0,2-.38,2.82-1.23.91-.94,1.9-1.82,2.86-2.67.47-.41.94-.83,1.4-1.25.48-.44.97-.66,1.47-.66s1,.22,1.49.66c.51.46,1.03.9,1.55,1.35.93.79,1.89,1.61,2.77,2.5.89.89,1.84,1.29,3.1,1.29h.13c.81-.02,1.62-.02,2.43-.02h3.5c.74.01,1.47,0,2.31,0,.47,0,1.14.05,1.59.53.34.36.48.88.45,1.59-.08,1.62-.08,2.94,0,4.17.05.75-.08,1.26-.42,1.63Z"/>
  <path class="cls-1" d="m65.84,44.56c-.5,0-1.05-.24-1.53-.69-1.03-.95-2.03-1.94-2.96-2.96-1-1.09-1.06-2.11-.17-3.03.37-.38.84-.58,1.35-.58.57,0,1.17.24,1.73.7.21.18.42.36.74.65l1.13,1,1.76-1.92c1.22-1.34,2.38-2.6,3.59-3.84.66-.68,1.14-.92,1.34-.92,1.06.11,2,.5,2.31.95.29.41.22,1.69-.1,2.05-2.35,2.59-4.99,5.25-8.07,8.13-.33.31-.71.47-1.12.47Z"/>
  <path class="cls-1" d="m36.13,55.88c-2.19,0-4.38,0-6.57-.03-.97,0-1.73-.26-2.18-.72-.35-.35-.52-.84-.51-1.43.03-1.68,1.53-2.05,2.78-2.06.83,0,1.66-.01,2.49-.01h3.95s4.01,0,4.01,0c.87,0,1.73,0,2.6.02.95.01,1.73.29,2.22.8.35.36.52.83.51,1.35-.03,1.26-1.05,2.06-2.65,2.07-2.22.02-4.44.03-6.66.03Z"/>
  <path class="cls-1" d="m36.22,44.38h-4.16c-.93,0-1.85,0-2.78,0-1.48-.02-2.4-.81-2.39-2.06,0-1.25.83-1.98,2.26-1.99,2.29-.02,4.59-.03,6.88-.03s4.78.01,7.18.04c.74,0,1.33.23,1.73.64.34.35.52.82.51,1.37-.01,1.17-.96,2.01-2.29,2.03-.93.02-1.86.02-2.79.02h-4.15Z"/>
  <path class="cls-1" d="m66.15,67.75c-.51,0-1.05-.24-1.53-.69-1.03-.94-2.02-1.94-2.96-2.96-1-1.09-1.06-2.11-.16-3.03.37-.38.84-.58,1.35-.58.57,0,1.17.24,1.73.71.21.18.42.36.74.64l1.13,1,1.77-1.93c1.22-1.33,2.37-2.59,3.58-3.83.66-.68,1.14-.92,1.34-.92,1.06.11,2,.5,2.31.95.28.41.22,1.69-.1,2.05-2.36,2.6-5.01,5.26-8.07,8.13-.33.31-.71.47-1.12.47Z"/>
  <path class="cls-1" d="m66.32,56.87c-.5,0-1.05-.24-1.53-.69-1.03-.95-2.03-1.94-2.96-2.96-1-1.09-1.06-2.11-.17-3.03.37-.38.84-.58,1.35-.58.57,0,1.17.24,1.73.7.21.18.42.36.74.65l1.13,1,1.76-1.92c1.22-1.34,2.38-2.6,3.59-3.84.66-.68,1.14-.92,1.34-.92,1.06.11,2,.5,2.31.95.29.41.22,1.69-.1,2.05-2.35,2.59-4.99,5.25-8.07,8.13-.33.31-.71.47-1.12.47Z"/>
  <path class="cls-1" d="m66.63,80.05c-.51,0-1.05-.24-1.53-.69-1.03-.94-2.02-1.94-2.96-2.96-1-1.09-1.06-2.11-.16-3.03.37-.38.84-.58,1.35-.58.57,0,1.17.24,1.73.71.21.18.42.36.74.64l1.13,1,1.77-1.93c1.22-1.33,2.37-2.59,3.58-3.83.66-.68,1.14-.92,1.34-.92,1.06.11,2,.5,2.31.95.28.41.22,1.69-.1,2.05-2.36,2.6-5.01,5.26-8.07,8.13-.33.31-.71.47-1.12.47Z"/>
  <path class="cls-1" d="m36.44,79.06c-2.19,0-4.38,0-6.57-.03-.97,0-1.73-.26-2.18-.72-.35-.36-.52-.84-.51-1.44.03-1.68,1.53-2.05,2.78-2.06.83,0,1.66-.01,2.49-.01h3.95s4.04,0,4.04,0c.86,0,1.71,0,2.57.01.95.01,1.73.29,2.21.8.35.36.52.83.51,1.35-.03,1.26-1.05,2.06-2.65,2.07-2.22.02-4.44.03-6.66.03Z"/>
  <path class="cls-1" d="m36.52,67.56h-4.14c-.93,0-1.87,0-2.8,0-1.48-.02-2.4-.81-2.39-2.06,0-1.25.83-1.98,2.26-1.99,2.29-.02,4.57-.03,6.86-.03,2.4,0,4.8.01,7.2.04.73,0,1.33.23,1.73.64.34.35.52.82.51,1.37-.01,1.17-.96,2.01-2.29,2.03-.93.02-1.86.02-2.79.02h-4.15Z"/>
</svg>