<?xml version="1.0" encoding="UTF-8"?>
<svg id="Layer_1" data-name="Layer 1" xmlns="http://www.w3.org/2000/svg" viewBox="0 0 100 100">
  <defs>
    <style>
      .cls-1 {
        fill: #eee9dc;
      }
    </style>
  </defs>
  <path class="cls-1" d="m76.38,89.88c-1.85,0-2.71-.86-2.71-2.67,0-20.67,0-41.35,0-62.02,0-1.9.83-2.71,2.78-2.71,1.44,0,2.87,0,4.31,0h4.65c2.39,0,3.12.72,3.12,3.08v61.21c0,2.39-.72,3.12-3.07,3.12h-4.88c-1.4,0-2.79,0-4.19,0Zm3.28-63.06c-1.58,0-1.64.61-1.64,2.1v54.71c0,.16.01.33,0,.49-.03.45.07.8.3,1.04.23.25.57.37,1.02.37.4,0,.72-.01,1.04-.01h1.77c1.79,0,2.02-.22,2.02-1.99v-33.46c0-6.42,0-12.83,0-19.25,0-.28.02-.6.05-.92.08-1.03.15-2.09-.45-2.64-.49-.45-1.24-.5-1.83-.5-.28,0-.58.01-.87.03-.27.01-.54.03-.79.03h-.62Z"/>
  <path class="cls-1" d="m60.06,89.89c-1.57,0-3.14,0-4.71,0-1.9,0-2.71-.84-2.72-2.78,0-4.66,0-9.33,0-13.99v-26.55c0-2.32.73-3.06,3.01-3.07h4.78c1.43,0,2.86,0,4.29,0,1.94,0,2.77.82,2.77,2.72,0,13.63,0,27.26,0,40.89,0,1.92-.84,2.77-2.72,2.78-1.57,0-3.14,0-4.71,0Zm-.07-4.39c.4,0,.8.01,1.2.05.12.01.24.02.35.02.53,0,.92-.13,1.19-.41.4-.41.45-1.02.44-1.51-.04-4.15-.03-8.38-.03-12.46v-8.76c0-4.28,0-8.57.02-12.85,0-.44-.04-.99-.41-1.37-.26-.26-.61-.38-1.09-.38-.09,0-.18,0-.28.01-.29.02-.58.03-.88.03-.24,0-.48,0-.71,0-.25,0-.49,0-.73,0-1.84,0-2.07.23-2.07,2v30.76s0,1.13,0,1.13c0,.8,0,1.61,0,2.41,0,.46.1.8.34,1.04.23.24.56.35.99.35h.43c.41-.02.83-.04,1.24-.04Z"/>
  <path class="cls-1" d="m17.48,89.88c-1.38,0-2.77,0-4.16,0-1.89,0-2.74-.86-2.74-2.75,0-11.86,0-23.72,0-35.58,0-1.98.73-2.71,2.7-2.72,1.62,0,3.24,0,4.86,0s3.11,0,4.67,0c1.89,0,2.62.76,2.63,2.68,0,4.1,0,8.21,0,12.31v10.26c0,4.26,0,8.52,0,12.77,0,2.29-.74,3.02-3.05,3.03h-4.91Zm-.97-36.89c-.51,0-.88.13-1.15.4-.4.4-.44,1-.44,1.47.04,3.51.03,7.01.02,10.52v3.83s0,3.82,0,3.82c0,3.59,0,7.17-.02,10.76,0,.44.04,1,.41,1.37.26.26.62.38,1.1.38,0,0,.17,0,.25,0,.43-.03.87-.05,1.3-.05.46,0,.92.02,1.38.04.08,0,.16,0,.23,0,.49,0,.85-.12,1.1-.38.36-.37.4-.91.4-1.29-.03-8.9-.03-18.44,0-29.17,0-.43-.04-.97-.41-1.34-.25-.25-.6-.38-1.07-.38-.07,0-.15,0-.23,0-.44.03-.89.05-1.33.05-.41,0-.82-.02-1.23-.05-.12-.01-.23-.02-.34-.02Z"/>
  <path class="cls-1" d="m38.69,89.88c-1.46,0-2.91,0-4.37,0-1.84,0-2.7-.86-2.7-2.68,0-11.06,0-22.12,0-33.18,0-1.8.81-2.6,2.61-2.61,1.61,0,3.21,0,4.82,0s3.21,0,4.82,0c1.76,0,2.59.84,2.59,2.64,0,3.81,0,7.63,0,11.44,0,0,0,17.66,0,21.39,0,2.21-.78,2.99-2.97,2.99h-4.82Zm.34-4.39c.4,0,.8.02,1.2.05.12.01.23.02.34.02.5,0,.88-.13,1.14-.4.39-.39.44-.99.43-1.47-.03-4.68-.03-9.37-.03-14.05v-4.75s0-2.14,0-2.14c0-1.81-.01-3.62.02-5.42,0-.36-.03-.89-.39-1.26-.26-.26-.55-.44-1.04-.44h-.27c-.48.02-.92.03-1.4.03-.42,0-.83.02-1.26.03-.1,0-.19-.01-.27-.01-.5,0-.88.13-1.15.4-.39.39-.43.97-.43,1.43.03,3.22.03,6.43.02,9.65v3.54s0,3.53,0,3.53c0,3.18.01,6.36-.03,9.54,0,.45.04,1.02.42,1.41.26.26.63.39,1.13.39.1,0,.2,0,.32-.01.41-.03.82-.05,1.23-.05Z"/>
  <path class="cls-1" d="m36.14,42.47c-.3,0-.62-.04-.97-.12-5.8-1.29-22.49-5-22.49-5-1.43-.32-2.33-1.43-2.08-2.59.23-1.07,1.04-1.69,2.22-1.69.27,0,.55.03.83.1,2.14.48,4.28.94,6.41,1.41,4.43.96,9.01,1.96,13.49,3.04.44.1.83.16,1.2.16,1.28,0,2.14-.63,2.88-1.31,5.46-5.03,11.05-10.1,16.46-15.01l3.31-3c.2-.18.43-.33.68-.49.13-.08.25-.16.37-.25l.38-.26-.65-1.15h-1.98c-.34,0-.68,0-1.02,0-1.46-.03-2.52-.95-2.52-2.17,0-1.25,1.05-2.16,2.5-2.17,1.71-.01,3.41-.02,5.12-.02,1.55,0,3.09,0,4.64.02,1.63.01,2.54.9,2.56,2.5.04,3,.04,6.17,0,9.98-.01,1.31-.96,2.34-2.14,2.34-1.22-.03-2.14-1.03-2.17-2.34-.03-.87-.02-1.74-.01-2.71v-2.52s-.8.64-.8.64l-.52.4c-.28.21-.48.37-.67.54l-4.71,4.27c-5.92,5.37-12.05,10.93-18.04,16.44-.71.65-1.43.96-2.26.96Z"/>
</svg>