<?xml version="1.0" encoding="UTF-8"?>
<svg id="Layer_1" data-name="Layer 1" xmlns="http://www.w3.org/2000/svg" viewBox="0 0 100 100">
  <defs>
    <style>
      .cls-1 {
        fill: #9daf82;
      }
    </style>
  </defs>
  <path class="cls-1" d="m74.22,91.03c-1.98,0-3.79-.91-4.71-2.38-1.11-1.77-2.71-2.14-3.86-2.14-.27,0-.55.02-.83.06-.33.05-.65.07-.96.07-1.89,0-3.6-.8-4.7-2.19-1.08-1.37-1.43-3.13-.99-4.94,0-.02,0-.05.01-.07,0,0-.01,0-.02,0-.65-.04-1.27-.08-1.89-.08-4.98,0-31.49,0-36.78,0-6.78,0-9.55-2.78-9.55-9.56v-10.65c0-8.62.01-17.24-.03-25.86,0-1.44-.01-2.93.92-3.87.51-.51,1.2-.76,2.07-.76.16,0,.32,0,.5.02,1.38-4.22,3.06-5.34,7.5-5.35h8.49c0-.08,0-.15,0-.22-.01-.83-.02-1.62.02-2.41.19-3.4,2.48-5.7,5.71-5.74,4.4-.05,8.79-.07,13.05-.07,4.49,0,8.97.03,13.32.08,3.15.04,5.46,2.43,5.63,5.82.03.73.03,1.46.02,2.28,0,.08,0,.17,0,.25h8.08c4.87,0,6.43.96,7.93,5.25h.03c1.05,0,1.87.3,2.46.9.94.96,1.04,2.45,1.01,3.92-.09,4.03-.08,8.13-.06,12.1,0,2.42.01,4.84,0,7.26,0,1.28.13,1.93,1.02,2.6,1.95,1.47,3.62,3.31,2.64,6.74-.18.63.91,2.62,2.28,3.79,1.4,1.19,2.2,3.16,2.09,5.13-.1,1.8-.93,3.36-2.29,4.27-1.62,1.1-2.32,2.75-1.98,4.66.29,1.61-.2,3.32-1.35,4.7-1.12,1.34-2.65,2.11-4.2,2.11-.33,0-.66-.04-.99-.11-.23-.05-.48-.08-.74-.08-1.64,0-3.53.96-4.3,2.19-.89,1.43-2.59,2.29-4.55,2.29Zm-10.63-7.58c3.16,0,7.93,1.94,9.59,4.53.25.39.6.61.97.61s.76-.22,1.05-.6c2.31-3.01,5.37-4.53,9.12-4.53.5,0,1.01.03,1.53.08.11.01.21.02.32.02.51,0,.89-.14,1.09-.4.25-.34.16-.86.08-1.14-.72-2.59,1.95-9.15,4.25-10.49.58-.34.93-.75.93-1.09,0-.36-.37-.8-.99-1.15-2.14-1.24-4.94-7.96-4.28-10.27.18-.64.18-1.16,0-1.41-.17-.22-.57-.26-.79-.26s-.5.03-.78.1c-.26.06-.55.09-.87.09-2.74,0-8.18-2.27-9.44-4.3-.38-.62-.82-.98-1.17-.98s-.79.36-1.17.95c-.59.92-1.41,1.99-2.52,2.18-.79.14-1.59.57-2.44,1.04-1.21.66-2.45,1.33-3.94,1.33-.77,0-1.54-.19-2.28-.58-.2.05-.36.16-.49.32-.27.35-.34.93-.2,1.55.6,2.51-2.12,8.93-4.33,10.25-.58.35-.93.78-.93,1.17,0,.34.27.7.76,1,2.57,1.58,5.01,7.54,4.36,10.64-.1.47-.04.87.18,1.13.23.28.58.34.83.34.11,0,.23-.01.35-.03.38-.07.8-.11,1.25-.11ZM14.62,44.85c0,8.66,0,17.33.02,25.99,0,2.78,1.05,3.76,3.96,3.77,5.34.01,10.67.01,16.01.01,6.78,0,13.57,0,20.35-.01-.89-1.07-1.31-2.43-1.28-4.1h-30.63c-4.72,0-5.16-.44-5.16-5.27,0-1.58,0-3.15-.01-4.73-.02-4.07-.03-8.28.06-12.43.04-1.8-.4-2.18-1.48-2.4-.8-.16-1.4-.46-1.84-.82Zm7.97,6.98c.01,4.37.03,8.5-.05,12.63-.02.85.13,1.09.19,1.15.08.08.33.21,1.15.21,4.9-.04,9.74-.04,14.58-.04h16.04c1.19,0,2.21-.46,2.88-1.3.7-.89.94-2.13.64-3.4-.34-1.46.04-2.97,1.06-4.25,1.21-1.53,3.15-2.48,5.05-2.48.14,0,.28,0,.42.02.15.01.3.02.46.02,1.66,0,3.48-.56,3.9-1.2,1.42-2.19,3.17-2.85,4.93-3.06v-1.95c-4.41,2.29-9.26,3.36-15.12,3.36-.94,0-1.91-.03-2.94-.08-.2.16-.57.63-.74,1.03-1.25,3.06-3.65,4.75-6.76,4.75-3.29-.02-5.67-1.76-6.77-4.89-.12-.34-.23-.68-.37-1.11-1.48.18-2.94.27-4.36.27-5.04,0-9.71-1.11-14.21-3.38,0,1.26,0,2.5.01,3.72Zm56.22-5.15c-.14,2.09-.28,4.25.34,6,.17.5,1.24,1.05,2.17,1.54.11.06.21.11.32.17v-9.37c-.36.24-.78.44-1.26.6-.8.26-1.32.51-1.54.66l-.02.4Zm-32.96,1.69c-.14,1.95-.15,2.99,1.13,3.72.28.16.77.26,1.29.26h0c.54,0,1.06-.11,1.35-.29,1.26-.77,1.23-1.88,1.06-3.79-.01-.17-.03-.33-.04-.5h-4.74c-.01.2-.03.4-.04.6Zm5.78-5.46c1.38,0,2.36.37,3,1.13.56.67.81,1.6.76,2.83.97-.05,1.93-.08,2.86-.1,2.83-.08,5.5-.17,8-.74,3.05-.7,6.06-2.07,8.97-3.39.72-.33,1.44-.66,2.17-.97.45-.2,1.03-1,1.05-1.36.12-2.28.1-4.62.09-6.88,0-1.08-.02-2.17,0-3.25,0-.8-.16-1.37-.48-1.69-.35-.35-.99-.52-1.91-.52-10.43.02-20.85.02-31.26.02-8.14,0-16.29,0-24.43,0-2.04,0-2.33.3-2.36,2.49-.02,1.34-.01,2.68,0,4.02,0,1.86.02,3.79-.04,5.68-.03.95.18,1.24,1.09,1.57,3.43,1.25,6.87,2.6,10.21,4.02,2.02.86,4.05.97,5.77.97.83,0,1.66-.03,2.5-.06.88-.03,1.76-.07,2.66-.07.32,0,.62,0,.91.01-.06-1.09.16-1.93.66-2.56.83-1.03,2.17-1.15,3.09-1.15.3,0,.62.01.95.04.85.07,1.68.1,2.47.1h0c.8,0,1.58-.03,2.33-.1.33-.03.65-.05.95-.05Zm10.67-19.72c.28-1.66.24-2.73-.11-3.16-.07-.08-.27-.34-1.14-.35-3.81-.04-7.61-.05-11.42-.05-2.83,0-5.67,0-8.5.01h-5.63c-.95.01-1.31.37-1.34,1.34-.02.7-.02,1.4-.01,2.14v.07h28.16Z"/>
  <path class="cls-1" d="m74.16,78.61c-2.15,0-4.28-.9-5.82-2.48-1.55-1.57-2.38-3.62-2.35-5.75.07-4.44,3.73-8.06,8.15-8.06h.21c4.46.12,8.05,3.8,8,8.21-.05,4.43-3.71,8.05-8.16,8.07h-.03Zm.02-13.13c-1.4,0-2.68.51-3.61,1.44-.92.93-1.42,2.2-1.41,3.59.02,2.81,2.17,4.93,4.99,4.93h0c1.42,0,2.71-.52,3.63-1.45.92-.93,1.42-2.2,1.41-3.59-.02-2.8-2.17-4.92-5-4.93l-.02-.66v.66Z"/>
</svg>