<?xml version="1.0" encoding="UTF-8"?>
<svg id="Layer_1" data-name="Layer 1" xmlns="http://www.w3.org/2000/svg" viewBox="0 0 100 100">
  <defs>
    <style>
      .cls-1 {
        fill: #9daf82;
      }
    </style>
  </defs>
  <path class="cls-1" d="m55.99,87.65c-1.4,0-2.88-.31-4.51-.93-6.16-2.36-12.83-4.72-20.99-7.43-1.03-.34-2.22-.36-3.48-.39h-.12c-.24,0-.49-.01-.74-.02h-.27s0,.26,0,.26c0,.63,0,1.18,0,1.73-.06,2.82-1.91,4.66-4.73,4.68-1.48,0-2.96.01-4.44.01s-2.96,0-4.44-.01c-2.84-.02-4.75-1.9-4.76-4.68-.03-10.41-.03-20.62,0-30.33,0-2.77,1.93-4.65,4.77-4.66,1.52,0,3.03-.01,4.55-.01s2.88,0,4.33.01c2.81.02,4.66,1.86,4.72,4.69.02,1.05.05,1.81.17,2.11l.05.12.12.03c.13.03.33.05.58.05.36,0,.83-.04,1.29-.07.74-.06,1.49-.09,2.23-.09,6.21,0,12.03,2.18,17,4.22,2.03.84,3.93,1.24,5.79,1.24.2,0,.4,0,.6-.01,1.03-.05,2.13-.07,3.46-.07.91,0,1.81.01,2.72.02h.16c.73,0,1.46.02,2.18.02,4.02.01,6.2,1.95,6.49,5.75l.02.29.29-.06c3.34-1.04,6.64-2.08,9.95-3.12l.35-.11c2.49-.78,4.98-1.56,7.47-2.34.69-.22,1.38-.33,2.06-.33,2.31,0,4.22,1.24,5.11,3.31,1.2,2.8.14,5.74-2.63,7.33-4.77,2.72-9.55,5.44-14.32,8.15l-7.31,4.16c-.83.47-1.67.93-2.51,1.39-1.9,1.04-3.86,2.12-5.67,3.32-1.79,1.19-3.6,1.77-5.53,1.77Zm-28.69-12.24c1.81,0,3.77.1,5.76.84,5.01,1.85,10.09,3.65,15,5.4l.24.08c2.04.72,4.07,1.45,6.11,2.18.56.2,1.09.3,1.61.3.77,0,1.53-.22,2.3-.66,6.77-3.87,13.54-7.74,20.31-11.6l10.66-6.08c1.74-.99,1.7-2.15,1.36-2.94-.32-.73-.94-1.11-1.81-1.11-.37,0-.77.07-1.19.2-1.94.61-3.87,1.23-5.81,1.85-3.7,1.19-7.53,2.41-11.32,3.54-.61.18-1.22.38-1.83.58l-.07.02c-2.3.75-4.67,1.52-7.26,1.52-.14,0-.29,0-.43,0-1.26-.04-2.62-.06-4.27-.06-1.11,0-2.22,0-3.33.02h-.39c-.88.01-1.77.02-2.65.02-2.68,0-3.99,1.26-4.12,3.95-.05.93-.28,2.17-1.76,2.17h-.09c-1.44-.05-1.65-1.26-1.67-2.16-.06-2.09.62-3.99,1.93-5.35,1.33-1.4,3.27-2.18,5.44-2.21,1.6-.02,3.2-.03,4.81-.03h5.44c.61,0,1.23,0,1.84,0,.62,0,1.16-.05,1.64-.14.63-.12,1.32-.55,1.36-1.37.04-.68-.24-1.54-.61-1.88-.43-.39-1.3-.68-2.18-.7-1.72-.05-3.39-.05-4.79-.05h-3.69c-.77,0-1.53,0-2.3,0-1,0-1.82-.13-2.51-.37l-.76-.26c-1.96-.67-3.99-1.35-5.92-2.22-3.81-1.71-8.02-2.55-12.87-2.55-1.08,0-2.17.04-3.33.12l-.24.02v7.02c-.01,3.89-.02,7.79-.03,11.68v.26s.26,0,.26,0c.44,0,.8-.01,1.17-.01Zm-10.37-26c-1.35,0-2.69,0-4.04,0-1.62,0-1.75.13-1.76,1.72,0,3.77,0,7.54,0,11.31v3.33s0,4.54,0,4.54c0,3.41,0,6.81,0,10.22,0,1.26.21,1.47,1.48,1.48,1.33,0,2.65.01,3.98.01s2.74,0,4.1-.01c1.4,0,1.59-.33,1.6-1.52.02-9.69.02-19.62,0-29.53,0-1.27-.27-1.53-1.58-1.54-1.26,0-2.53-.01-3.79-.01Z"/>
  <path class="cls-1" d="m39.41,48.23c-.97,0-1.62-.08-2.01-.48-.39-.4-.45-1.01-.43-1.94v-.23c.04-1.25.07-2.55.29-3.8.39-2.13,1.57-3.9,3.53-5.27.23-.16.46-.33.69-.5l.06-.04c-2.75-4.41-1.26-7.11.51-8.61,1.06-.9,2.41-1.39,3.81-1.39s2.82.52,3.9,1.47c2.45,2.16,2.59,5.19.41,8.54.08.07.16.14.25.2,2.9,1.81,4.37,4.57,4.36,8.18v.67c0,.4,0,.79,0,1.19-.02,1.47-.57,2.01-2.05,2.02-1.08,0-2.15,0-3.23,0h-10.08Zm6.49-10.42c-.79,0-1.58.16-2.35.47-2.39.98-3.73,3.28-3.67,6.32.01.59.16.68.67.68.77-.01,1.49-.02,2.21-.02h3.02s4.4,0,4.4,0c.84,0,1.45,0,1.6-.16.15-.16.1-.76.04-1.59-.24-3.26-2.79-5.72-5.92-5.72Zm-.03-8.87c-1.67,0-2.94,1.26-2.96,2.92,0,.83.28,1.59.83,2.14.54.55,1.29.85,2.12.85,1.74-.02,2.97-1.26,2.96-2.96,0-1.68-1.27-2.95-2.94-2.95v-.34s0,.34,0,.34Z"/>
  <path class="cls-1" d="m74.2,48.23c-.97,0-1.62-.08-2.01-.48-.39-.4-.45-1.01-.43-1.94v-.23c.04-1.25.07-2.55.29-3.8.39-2.13,1.57-3.9,3.53-5.27.23-.16.46-.33.69-.5l.06-.04c-2.75-4.41-1.26-7.11.51-8.61,1.06-.9,2.41-1.39,3.81-1.39s2.82.52,3.9,1.47c2.45,2.16,2.59,5.19.41,8.54.08.07.16.14.25.2,2.9,1.81,4.37,4.57,4.36,8.18v.67c0,.4,0,.79,0,1.19-.02,1.47-.57,2.01-2.05,2.02-1.08,0-2.15,0-3.23,0h-10.08Zm6.49-10.42c-.79,0-1.58.16-2.35.47-2.39.98-3.73,3.28-3.67,6.32.01.59.16.68.67.68.77-.01,1.49-.02,2.21-.02h3.02s4.4,0,4.4,0c.84,0,1.45,0,1.6-.16.15-.16.1-.76.04-1.59-.24-3.26-2.79-5.72-5.92-5.72Zm-.03-8.87c-1.67,0-2.94,1.26-2.96,2.92,0,.83.28,1.59.83,2.14.54.55,1.29.85,2.12.85,1.74-.02,2.97-1.26,2.96-2.96,0-1.68-1.27-2.95-2.94-2.95v-.34s0,.34,0,.34Z"/>
  <path class="cls-1" d="m54.88,48.23c-1.25,0-2.07-.1-2.57-.62-.5-.51-.58-1.29-.55-2.48v-.3c.05-1.6.09-3.26.38-4.86.49-2.72,2.01-4.99,4.52-6.75.3-.21.59-.42.88-.63l.08-.06c-3.52-5.65-1.61-9.1.65-11.01,1.35-1.15,3.09-1.78,4.87-1.78s3.61.67,4.98,1.88c3.13,2.77,3.32,6.63.53,10.92.1.09.2.18.32.26,3.71,2.32,5.58,5.84,5.57,10.46v.86c0,.51,0,1.01,0,1.52-.02,1.87-.73,2.58-2.63,2.58-1.38,0-2.76,0-4.13,0h-12.89Zm8.3-13.33c-1.01,0-2.02.2-3,.6-3.06,1.25-4.77,4.19-4.69,8.08.01.76.2.88.85.88.98-.02,1.91-.02,2.83-.02h3.87s5.63.01,5.63.01c1.08,0,1.86,0,2.04-.2.19-.2.13-.97.05-2.03-.31-4.17-3.57-7.31-7.58-7.31Zm-.03-11.35c-2.13,0-3.76,1.61-3.79,3.74-.01,1.06.36,2.03,1.06,2.74.69.7,1.66,1.09,2.71,1.09,2.22-.02,3.79-1.61,3.79-3.79,0-2.15-1.62-3.77-3.76-3.77v-.43s-.01.43-.01.43Z"/>
</svg>