<?xml version="1.0" encoding="UTF-8"?>
<svg id="Layer_1" data-name="Layer 1" xmlns="http://www.w3.org/2000/svg" viewBox="0 0 100 100">
  <defs>
    <style>
      .cls-1 {
        fill: #9daf82;
      }
    </style>
  </defs>
  <g id="J5yGPz.tif">
    <g>
      <path class="cls-1" d="m88.21,43.51c-1.01-.78-1.82-1.47-2.71-2.07-.73-.49-.75-.93-.19-1.55.18-.2.35-.41.52-.63.49-.62,1.38-.74,2-.25,1.29,1.01,2.57,1.99,3.78,3.04.32.28.35.99.36,1.5.02,12.15.01,24.3.01,36.45,0,1.77.01,3.54,0,5.32-.02,1.89-1.46,3.33-3.37,3.33-24.23,0-48.46,0-72.69,0-1.92,0-3.36-1.43-3.36-3.33,0-14.03,0-28.06-.02-42.09,0-.95.5-1.44,1.15-1.93,4.96-3.75,9.91-7.5,14.86-11.25,7.38-5.58,14.75-11.16,22.13-16.73,1.36-1.03,1.81-1.03,3.16-.01,1.55,1.17,3.09,2.35,4.6,3.49-.05.2-.05.28-.08.34-1.52,2.6-1.55,2.61-3.9.81-2.19-1.68-2.18-1.67-4.43.03-10.83,8.2-21.66,16.39-32.5,24.59-.34.26-.67.53-1.19.94,9.17,7.01,18.21,13.93,27.36,20.93,1.63-1.12,3.25-2.25,4.87-3.37.42-.29.83-.58,1.24-.87,1.94-1.33,2.97-1.33,4.93.03,1.99,1.37,3.97,2.76,6.07,4.21,9.06-6.93,18.12-13.85,27.38-20.93Zm-3.47,41.81c-.43-.38-.66-.63-.94-.82-10.19-7.1-20.4-14.18-30.58-21.29-.65-.45-1.12-.54-1.83-.05-10.21,7.13-20.44,14.24-30.67,21.36-.27.19-.49.44-.88.8h64.89Zm3.87-1.54v-36.38c-8.4,6.42-16.58,12.68-24.91,19.05,8.41,5.85,16.54,11.5,24.91,17.32Zm-47.76-17.33c-8.38-6.4-16.56-12.66-24.89-19.02v36.33c8.34-5.8,16.48-11.46,24.89-17.31Z"/>
      <path class="cls-1" d="m59.6,45.12c.3.44.48.76.72,1.02,1.35,1.46,2.74,2.88,4.08,4.35,1.25,1.36.95,2.87-.72,3.69-1.39.68-2.8,1.34-4.22,1.97-1.42.63-2.34.47-3.42-.65-1.68-1.74-3.35-3.5-5-5.27-.44-.48-.87-.64-1.52-.43-1.67.52-2.8-.03-3.57-1.68-1.33-2.84-2.66-5.69-3.98-8.53-.17-.36-.33-.72-.49-1.08-.73-1.7-.24-3.04,1.45-3.84,2.51-1.19,5.01-2.39,7.55-3.52,1.3-.58,2.33-1.3,3.23-2.5,1.98-2.62,4.24-5.02,6.38-7.52.66-.77,1.3-1.55,1.96-2.32,1.18-1.38,2.56-1.23,3.32.41,3.62,7.75,7.22,15.5,10.82,23.26.71,1.53-.08,2.77-1.75,2.79-4.27.05-8.53.09-12.8.11-.6,0-1.19-.13-2.02-.23Zm3.74-22.36c-.21.09-.29.1-.33.15-2.16,2.47-4.32,4.94-6.45,7.44-.17.2-.17.69-.05.95,1.47,3.25,2.98,6.47,4.46,9.71.32.71.76,1.03,1.58,1,2.89-.09,5.77-.12,8.66-.17.27,0,.53-.08.96-.15-2.97-6.37-5.89-12.63-8.83-18.94Zm-14.48,23.69c2.91-1.34,5.68-2.61,8.43-3.94.18-.09.28-.71.16-.96-1.12-2.5-2.31-4.97-3.44-7.46-.28-.62-.59-.69-1.17-.4-1.42.7-2.87,1.35-4.3,2.02-1.26.59-2.52,1.19-3.85,1.82,1.41,3.01,2.75,5.88,4.17,8.92Zm4.72,1.6c1.17,1.25,2.27,2.43,3.39,3.59,1.49,1.55.91,1.56,3.12.56.85-.38.69-.73.18-1.25-.78-.8-1.54-1.62-2.31-2.43q-1.85-1.93-4.38-.47Z"/>
      <path class="cls-1" d="m72.49,23.11c-1.43-.04-2.23-1.46-1.5-2.53.71-1.04,1.55-1.99,2.42-2.89.59-.62,1.36-.62,2.06-.08.65.5.94,1.28.5,1.91-.81,1.17-1.81,2.23-2.77,3.29-.19.21-.58.25-.71.3Z"/>
      <path class="cls-1" d="m80.84,24.18c.58.57,1.28.96,1.41,1.49.13.53-.15,1.46-.57,1.74-1.06.71-2.28,1.21-3.48,1.67-.73.28-1.54.04-1.82-.73-.19-.52-.21-1.53.1-1.74,1.31-.9,2.77-1.58,4.36-2.44Z"/>
      <path class="cls-1" d="m80.64,33.94c.54,0,1.08-.04,1.62,0,.96.09,1.73.82,1.68,1.66-.06.95-.61,1.57-1.56,1.63-1.18.08-2.38.09-3.55-.01-.93-.08-1.52-.69-1.49-1.67.03-.97.67-1.49,1.59-1.6.57-.07,1.15-.01,1.72-.01,0,0,0,0,0,0Z"/>
    </g>
  </g>
</svg>