<?xml version="1.0" encoding="UTF-8"?>
<svg id="Layer_1" data-name="Layer 1" xmlns="http://www.w3.org/2000/svg" viewBox="0 0 100 100">
  <defs>
    <style>
      .cls-1 {
        fill: #eee9dc;
      }
    </style>
  </defs>
  <path class="cls-1" d="m55.26,39.77c.75.37,1.36.87,1.87,1.53l1.3,1.69,3.71-5.08-.79-.96c-1.09-1.32-2.42-2.29-3.95-2.88-.95-.37-1.94-.62-2.96-.77v-4.01h-5.01v4.2c-1.85.48-3.45,1.47-4.77,2.98-1.63,1.86-2.46,4.38-2.46,7.48,0,1.59.21,2.98.63,4.15.43,1.19,1.04,2.23,1.82,3.08.74.82,1.63,1.53,2.64,2.12.64.37,1.32.72,2.03,1.04v10.27c-.27-.09-.53-.2-.8-.33-.85-.41-1.62-1.01-2.29-1.79l-1.3-1.52-3.78,5.11.86.97c1.03,1.16,2.37,2.11,3.98,2.83,1.09.49,2.21.83,3.33,1.02v4.1h5.01v-4.1c.77-.15,1.5-.39,2.19-.73,1.15-.56,2.16-1.34,2.99-2.33.81-.96,1.45-2.11,1.91-3.43.45-1.29.68-2.77.68-4.38s-.25-3.13-.73-4.32c-.49-1.19-1.16-2.23-2-3.09-.82-.84-1.78-1.55-2.86-2.12-.66-.35-1.36-.69-2.07-1.01v-10.05c.28.08.55.19.82.32Zm-5.93,9.87c-.07-.07-.15-.13-.21-.2-.57-.55-1.04-1.27-1.39-2.15-.38-.94-.57-2.15-.57-3.6,0-2.6.69-4.58,2.05-5.88.04-.04.08-.08.12-.12v11.95Zm5.72,5.76c.51.52.94,1.16,1.26,1.89.32.74.48,1.71.48,2.88,0,2.26-.58,4.03-1.73,5.25-.2.21-.41.41-.62.58v-11.14c.22.17.42.35.61.54Z"/>
  <path class="cls-1" d="m52.1,93.49c-22.03,0-39.96-17.92-39.96-39.96,0-6.73,1.72-13.4,4.97-19.28l.17-.32-7.08-7.71c-.47-.51-.71-1.17-.68-1.86.03-.69.33-1.33.83-1.79l11.25-10.33c.48-.44,1.09-.68,1.74-.68.72,0,1.42.3,1.9.83l6.31,6.87.35-.21c3.51-2.06,7.3-3.57,11.27-4.48l.39-.09v-5.42c0-1.42,1.16-2.58,2.58-2.58h10.46c1.42,0,2.58,1.16,2.58,2.58v5.13l.41.08c18.8,3.59,32.45,20.09,32.45,39.24,0,22.03-17.92,39.96-39.96,39.96Zm.48-13.49c1.16,0,2.1.94,2.1,2.1v5.57s-.08.78-.08.78l.6-.05c7.32-.65,14.15-3.54,19.74-8.37l.61-.53-.74-.31c-.25-.11-.48-.26-.66-.44l-3.94-3.94c-.4-.4-.61-.92-.61-1.48s.22-1.09.61-1.48l.84-.84c.38-.38.92-.59,1.48-.59s1.11.22,1.49.59l3.93,3.93c.17.17.3.37.41.61l.33.73.51-.62c4.76-5.83,7.47-12.87,7.84-20.36l.04-.75-.7.25c-.25.09-.48.13-.7.13h-5.56c-1.16,0-2.1-.94-2.1-2.1v-1.18c0-1.16.94-2.1,2.1-2.1h5.56c.15,0,.31.02.5.07l.71.17-.09-.72c-.85-6.61-3.57-12.81-7.86-17.93l-.51-.61-.33.72c-.11.23-.23.42-.39.59l-3.96,3.95c-.4.4-.92.62-1.49.62-.56,0-1.09-.22-1.49-.62l-.84-.84c-.4-.4-.61-.92-.61-1.49s.22-1.09.61-1.48l3.93-3.93c.17-.17.37-.3.61-.41l.72-.33-.6-.51c-5.48-4.61-12.13-7.4-19.23-8.06l-.55-.05v4.47c0,1.16-.94,2.1-2.1,2.1h-1.18c-1.16,0-2.1-.94-2.1-2.1v-4.47l-.55.05c-7.4.68-14.27,3.65-19.88,8.59l-.64.56.8.28c.31.11.57.27.78.48l3.93,3.93c.82.82.82,2.15,0,2.97l-.84.84c-.4.4-.92.62-1.48.62s-1.09-.22-1.49-.62l-3.93-3.93c-.19-.19-.34-.41-.44-.67l-.32-.77-.53.65c-4.05,5.04-6.63,11.08-7.44,17.47l-.1.8.76-.27c.24-.09.47-.13.69-.13h5.56c1.16,0,2.1.94,2.1,2.1v1.18c0,1.16-.94,2.1-2.1,2.1h-5.56c-.3,0-.6-.07-.89-.2l-.75-.35.04.83c.36,7.74,3.2,14.96,8.22,20.9l.47.55.35-.64c.11-.21.22-.36.35-.48l3.93-3.93c.4-.39.92-.61,1.49-.61s1.09.22,1.48.61l.84.84c.4.4.61.92.61,1.48s-.22,1.09-.61,1.48l-3.93,3.93c-.12.12-.27.23-.46.34l-.64.36.56.46c5.42,4.49,11.97,7.21,18.95,7.87l.6.06-.07-.7v-5.64c0-1.16.93-2.1,2.09-2.1h1.18ZM13.86,24.56l5.21,5.67,1.99-1.83c2.05-2.51,4.34-4.73,6.87-6.65l.44-.33-5.07-5.52-9.43,8.66Zm33.54-11.17h7.99v-3.07h-7.99v3.07Z"/>
</svg>