<?xml version="1.0" encoding="UTF-8"?>
<svg id="Layer_1" data-name="Layer 1" xmlns="http://www.w3.org/2000/svg" viewBox="0 0 100 100">
  <defs>
    <style>
      .cls-1 {
        fill: #5b653e;
      }
    </style>
  </defs>
  <g>
    <path class="cls-1" d="m78.58,89.34c-1.98,0-2.9-.92-2.9-2.87,0-22.19,0-44.37,0-66.55,0-2.04.89-2.91,2.98-2.91,1.54,0,3.08,0,4.62,0h4.99c2.57,0,3.35.78,3.35,3.3v65.69c0,2.57-.77,3.35-3.3,3.35h-5.24c-1.5,0-3,0-4.5,0Zm3.52-67.67c-1.7,0-1.76.65-1.76,2.26v58.71c0,.18.01.35,0,.53-.03.48.08.86.32,1.12.25.26.61.4,1.09.4.43-.01.77-.01,1.12-.01h1.9c1.93,0,2.17-.24,2.17-2.13v-35.91c0-6.89,0-13.77,0-20.66,0-.3.03-.64.05-.99.08-1.1.16-2.24-.48-2.83-.53-.48-1.33-.54-1.97-.54-.3,0-.62.02-.93.03-.29.01-.58.03-.85.03h-.67Z"/>
    <path class="cls-1" d="m61.08,89.36c-1.68,0-3.37,0-5.05-.01-2.04,0-2.91-.9-2.91-2.98,0-5.01,0-10.01,0-15.02v-28.49c0-2.49.79-3.29,3.23-3.29h5.13c1.53,0,3.07,0,4.6,0,2.09,0,2.98.88,2.98,2.92,0,14.63,0,29.25,0,43.88,0,2.06-.9,2.98-2.92,2.98-1.68,0-3.37.01-5.05.01Zm-.08-4.71c.43,0,.86.01,1.29.05.13.01.26.02.37.02.56,0,.98-.14,1.27-.44.43-.43.48-1.09.48-1.62-.04-4.46-.04-8.99-.03-13.38v-9.41c0-4.6,0-9.19.02-13.79,0-.47-.05-1.06-.44-1.47-.27-.28-.66-.41-1.17-.41-.09,0-.19,0-.3.01-.31.03-.62.03-.94.03-.26,0-.51,0-.77,0-.26,0-.53-.01-.79-.01-1.98,0-2.22.24-2.22,2.14v33.01s0,1.22,0,1.22c0,.86,0,1.73,0,2.59,0,.49.11.86.36,1.11.25.25.6.38,1.07.38h.46c.44-.03.89-.04,1.33-.04Z"/>
    <path class="cls-1" d="m15.39,89.35c-1.49,0-2.97,0-4.46,0-2.03,0-2.94-.92-2.94-2.96,0-12.73,0-25.46,0-38.18,0-2.12.79-2.91,2.9-2.92,1.74,0,3.47,0,5.21,0s3.34,0,5.01.01c2.02,0,2.81.82,2.82,2.88,0,4.4,0,8.81,0,13.21v11.01c0,4.57,0,9.14,0,13.71,0,2.46-.8,3.24-3.27,3.25h-5.27Zm-1.05-39.59c-.54,0-.95.14-1.24.43-.42.43-.47,1.07-.47,1.58.04,3.76.03,7.53.03,11.29v4.11s0,4.1,0,4.1c0,3.85,0,7.7-.02,11.55,0,.47.04,1.07.44,1.47.28.28.66.41,1.19.41,0,0,.18,0,.27-.01.46-.04.93-.05,1.4-.05.5,0,.99.02,1.48.05.09,0,.17,0,.25,0,.53,0,.91-.13,1.19-.41.39-.39.43-.98.43-1.38-.03-9.55-.03-19.79,0-31.3,0-.46-.05-1.05-.44-1.44-.27-.27-.65-.4-1.15-.4-.08,0-.16,0-.24,0-.47.04-.95.06-1.43.06-.44,0-.88-.02-1.32-.06-.13-.01-.25-.02-.36-.02Z"/>
    <path class="cls-1" d="m38.14,89.35c-1.56,0-3.12,0-4.69-.02-1.97-.01-2.89-1.61-2.9-5.01,0-20.69-.01-41.38,0-62.07,0-3.36.87-4.87,2.8-4.88,1.72,0,3.45-.01,5.17-.01s3.45,0,5.17.01c1.89.01,2.78,1.58,2.78,4.93,0,7.14,0,14.27,0,21.41,0,0,0,33.03,0,40.02,0,4.13-.84,5.59-3.18,5.6h-5.17Zm.37-4.96c.43,0,.86.04,1.29.11.13.02.25.03.36.03.54,0,.94-.27,1.22-.83.42-.82.47-2.06.47-3.05-.04-9.74-.03-19.49-.03-29.23v-9.89s0-4.45,0-4.45c0-3.76-.01-7.52.02-11.28,0-.76-.03-1.85-.42-2.62-.27-.54-.59-.91-1.12-.91h-.29c-.51.05-.98.06-1.5.06-.45,0-.89.04-1.35.06-.1,0-.2-.02-.29-.02-.54,0-.94.27-1.23.83-.41.81-.46,2.02-.46,2.98.03,6.69.03,13.38.02,20.07v7.35s0,7.33,0,7.33c0,6.62.01,13.24-.03,19.85,0,.94.04,2.12.45,2.92.28.55.67.81,1.21.81.1,0,.22-.01.34-.03.44-.07.88-.11,1.32-.11Z"/>
  </g>
  <path class="cls-1" d="m61.2,35.79c-4.34,0-7.87-3.53-7.87-7.87s3.53-7.87,7.87-7.87,7.87,3.53,7.87,7.87-3.53,7.87-7.87,7.87Zm-.05-11.63c-2.06,0-3.73,1.67-3.73,3.73s1.67,3.73,3.73,3.73,3.73-1.67,3.73-3.73-1.67-3.73-3.73-3.73Z"/>
</svg>