<?xml version="1.0" encoding="UTF-8"?>
<svg id="Layer_1" data-name="Layer 1" xmlns="http://www.w3.org/2000/svg" viewBox="0 0 100 100">
  <defs>
    <style>
      .cls-1 {
        fill: #eee9dc;
      }
    </style>
  </defs>
  <g id="LrbVcC.tif">
    <g>
      <path class="cls-1" d="m83.2,23.83h-4.21c0,.38,0,.66,0,.93.03,1.12-.49,1.71-1.59,1.78-.33.02-.67,0-1,0-9.61,0-19.23,0-28.84,0-2.62,0-2.64-.02-2.8-2.82-1.75,0-3.52.05-5.28-.02-.73-.03-1.89.56-1.88-1.01.01-1.35.49-1.84,2.04-1.87,1.33-.02,2.66,0,3.99,0q1.78,0,2.18-1.78c.06-.28.09-.56.17-1.09-1.44,0-2.79-.07-4.14.02-1.19.08-1.45-.42-1.47-1.52-.02-1.18.47-1.37,1.49-1.35,3.74.04,7.49-.03,11.24.04,1.2.02,1.65-.25,1.69-1.56.11-3.71,2.46-6.29,6.1-6.98,2.97-.56,6.29,1.28,7.54,4.3.39.94.56,2.01.61,3.03.04.92.31,1.21,1.24,1.2,5.12-.04,10.24-.02,15.36-.02,3.9,0,6.29,2.38,6.3,6.3,0,21.52,0,43.04,0,64.56,0,3.87-2.45,6.31-6.32,6.32-12.57.01-25.14,0-37.7.03-1.14,0-1.74-.13-1.73-1.52.01-1.35.64-1.44,1.7-1.44,12.32.02,24.64.02,36.95,0,.62,0,1.25,0,1.86-.1,1.25-.2,2-.96,2.22-2.21.08-.49.1-.99.1-1.49,0-21.27,0-42.54,0-63.81,0-2.3-.74-3.43-2.47-3.74-.49-.09-.99-.06-1.49-.06-2.36,0-4.72,0-7.07,0-.21,2.31.27,2.87,2.28,2.87,1.21,0,2.41,0,3.62,0,1.91.02,2.27.37,2.27,2.25,0,7.12,0,14.24,0,21.35,0,13.2,0,26.39,0,39.59,0,2.3-.2,2.5-2.5,2.5-12.9,0-25.8,0-38.7,0-1.55,0-2.12-.79-1.58-2.29.09-.25.52-.49.82-.53.7-.08,1.41-.03,2.12-.03,8.53,0,17.06-.02,25.59.02,1.11,0,1.44-.31,1.4-1.41-.08-2.2-.03-4.41-.02-6.62.01-1.49.53-2.01,2.04-2.02,2.29-.01,4.58-.03,6.87,0,.76.01,1.12-.17,1.12-1.03-.02-16.03-.02-32.05-.02-48.08,0-.2-.05-.41-.09-.72Zm-21.43-.12c3.74,0,7.49.02,11.23,0,3.43-.02,2.87.49,2.38-3.09-.24-1.78-1.42-2.62-3.23-2.65-1.29-.02-2.58,0-3.87,0-1.72-.02-2.08-.4-2.12-2.15-.02-.95,0-1.92-.14-2.86-.33-2.15-2.17-3.59-4.33-3.48-2.24.12-3.91,1.75-4.01,3.98-.04.91,0,1.83-.03,2.74-.03,1.14-.57,1.78-1.78,1.77-1.21-.01-2.41,0-3.62,0-2.66,0-3.47.67-3.98,3.26-.08.41-.08.83-.17,1.23-.23,1.03.23,1.29,1.2,1.28,4.16-.04,8.32-.02,12.48-.02Zm21.52,55.33c-1.59,1.58-3.05,3.04-4.63,4.62,1.38,0,2.72.03,4.06-.03.2,0,.54-.39.55-.61.05-1.31.03-2.62.03-3.97Zm-7.09,2.03c1.6-1.52,3.03-2.88,4.73-4.49-1.58,0-2.84-.03-4.1.03-.22.01-.58.42-.59.65-.06,1.23-.03,2.46-.03,3.8Z"/>
      <path class="cls-1" d="m13.36,60.57c0-.45,0-.94,0-1.43,0-7.32.14-14.65-.04-21.97-.15-6.12,4.71-10.85,10.65-10.66,4.45.15,8.9.01,13.35.03,5.97.03,10.3,4.34,10.32,10.33.03,8.2.01,16.4,0,24.59,0,1.81-.38,2.18-2.21,2.19-1.29,0-2.58.03-3.87,0-.81-.02-1.11.33-1.11,1.12.01,6.87-.03,13.73.06,20.6,0,.78.63,1.57,1.05,2.32.38.69.88,1.31,1.3,1.98.9,1.44.31,2.59-1.37,2.62-1.87.04-3.74.01-5.62.01-5.32,0-10.65.03-15.97-.04-.69,0-1.56-.35-2.03-.84-.7-.73-.02-1.51.48-2.09,1.84-2.11,2.44-4.53,2.14-7.27-.1-.95-.05-1.91,0-2.87.04-.93-.37-1.24-1.26-1.23-3.49.03-6.99.01-10.48,0-2.24,0-2.58-.35-2.58-2.62,0-4.04,0-8.07,0-12.11,0-2.04.38-2.42,2.38-2.43,1.46,0,2.91-.02,4.36-.05.11,0,.22-.09.46-.2Zm24.25-23.87c.38-.06.58-.12.78-.13q2.06-.11,2.06,1.95c0,4.54-.03,9.07,0,13.61.03,3.28-.64,2.94,3.13,2.97.84,0,1.19-.32,1.19-1.18-.02-5.79.06-11.57-.04-17.36-.07-4.22-3.17-7.11-7.4-7.17-1.12-.02-2.25,0-3.37,0q-2.05,0-2.05,2.04c0,6.49-.02,12.99.02,19.48,0,1.19-.53,1.36-1.53,1.35-.94-.01-1.52-.17-1.42-1.31.08-.91.02-1.83.02-2.75,0-5.83-.02-11.65.02-17.48,0-1.03-.31-1.42-1.36-1.35-1.24.08-2.5.01-3.74.02-4.72.03-7.72,3.02-7.73,7.73-.01,5.12-.02,10.24,0,15.36.01,2.91-.46,2.61,2.69,2.62,1.57,0,1.59-.03,1.59-1.63,0-5.16.04-10.32-.02-15.48-.01-1.22.46-1.44,1.54-1.45,1.1,0,1.43.34,1.42,1.44-.05,5.24,0,10.49-.04,15.73,0,1.1.33,1.44,1.43,1.42,3.83-.06,7.66-.05,11.48,0,1.03.01,1.36-.31,1.36-1.35-.05-5.2-.02-10.41-.02-15.61,0-.49,0-.97,0-1.46Zm1.14,52.64c.08-.12.15-.23.23-.35-1.85-1.78-1.35-4.02-1.36-6.15-.02-7.82-.01-15.64,0-23.46,0-.73.09-1.39-1.03-1.38-4.08.05-8.15.04-12.23,0-1.28,0-.91.89-.97,1.56-.06.73,0,1.29,1.01,1.26,1.95-.06,3.91-.02,5.86-.02,1.65,0,1.65,0,1.65,1.65,0,8.28,0,16.56,0,24.84,0,.42-.07.85.04,1.24.09.3.4.76.62.76,2.06.06,4.11.03,6.17.03Zm-9.76-20.7c-2.04.77-3.79,1.41-5.52,2.08q-4.41,1.71-8.8,0c-.12-.04-.22-.11-.34-.16-1.65-.6-3.3-1.2-5.24-1.9,0,1.92.05,3.52-.02,5.13-.04,1,.36,1.29,1.32,1.27,3.12-.04,6.23-.02,9.35-.02,2.7,0,5.4.02,8.1-.03.39,0,1.09-.36,1.1-.57.09-1.85.05-3.71.05-5.82Zm-9.85-4.98c-2.91,0-5.82,0-8.73,0-.57,0-1.22-.12-1.31.75-.07.75.16,1.22.95,1.5,2.69.96,5.34,2.05,8.04,2.99.58.2,1.34.2,1.92,0,2.7-.95,5.34-2.04,8.04-2.98.9-.31,1.12-.9.88-1.6-.11-.32-.78-.62-1.2-.63-2.87-.05-5.73-.03-8.6-.03Zm2.89,25.68c2.25,0,4.34.02,6.43-.04.19,0,.52-.52.53-.81.04-3.2.05-6.41-.01-9.61,0-.3-.53-.82-.87-.85-.98-.12-1.99-.05-2.99-.05-1.72,0-1.64,0-1.74,1.71-.17,3.16.77,6.47-1.35,9.65Zm-3.64-31.31s0,.01,0,.02c-.49,0-.99-.02-1.48,0-.92.05-.72.77-.69,1.29.04.53-.39,1.38.62,1.45.99.07,1.98.04,2.97,0,.2,0,.48-.18.58-.35.65-1.17-.07-2.41-1.38-2.42-.21,0-.41,0-.62,0Zm24.15,2.79s0,0,0,0c.5,0,1.02.08,1.49-.03.28-.06.65-.38.71-.64.39-1.66,0-2.11-1.65-2.11-.37,0-.75.03-1.12,0-1.1-.12-1.54.26-1.54,1.45,0,1.16.46,1.48,1.49,1.35.2-.03.42,0,.62,0Z"/>
      <path class="cls-1" d="m37.62,15.31c.22,2.31-.3,4.66-2.28,6.45-2.16,1.95-4.7,2.52-7.41,1.44-2.73-1.08-4.42-3.16-4.5-6.16-.06-1.97-.06-4.04.48-5.9.91-3.13,4.4-5.07,7.45-4.57,3.59.58,6.16,3.4,6.26,6.87.02.54,0,1.08,0,1.88Zm-2.72-.12s-.08-.01-.12-.02c0-.54.04-1.08,0-1.62-.19-2.44-2.11-4.2-4.45-4.11-2.33.09-4.05,1.88-4.11,4.29-.02,1.04-.04,2.08.02,3.11.12,2.02,1.69,3.63,3.72,3.88,2.07.25,3.94-.89,4.52-2.86.25-.86.29-1.78.42-2.68Z"/>
      <path class="cls-1" d="m64.64,55.13c-4.24,0-8.48-.03-12.72.02-1.13.01-1.52-.32-1.52-1.49,0-1.15.37-1.49,1.51-1.48,8.56.04,17.13.04,25.69,0,1.05,0,1.49.29,1.49,1.41,0,1.1-.31,1.57-1.49,1.56-4.32-.05-8.65-.02-12.97-.02Z"/>
      <path class="cls-1" d="m64.64,69.44c-4.28,0-8.56-.03-12.84.02-1.14.02-1.39-.43-1.39-1.47,0-1.03.24-1.49,1.38-1.49,8.6.04,17.2.03,25.8,0,1.16,0,1.51.42,1.5,1.54,0,1.12-.44,1.42-1.49,1.41-4.32-.04-8.64-.02-12.96-.02Z"/>
      <path class="cls-1" d="m69.02,43.67c2.87,0,5.74.04,8.61-.02,1.2-.03,1.47.48,1.47,1.57,0,1.14-.47,1.4-1.5,1.39-5.74-.03-11.48-.05-17.22,0-1.2.01-1.33-.51-1.35-1.5-.02-1.04.23-1.51,1.38-1.48,2.87.07,5.74.02,8.61.02Z"/>
      <path class="cls-1" d="m58.98,60.84c-2.45,0-4.9-.05-7.34.02-1.05.03-1.28-.42-1.21-1.33.06-.78-.17-1.57,1.13-1.56,4.98.05,9.96.05,14.93,0,1.22-.01,1.16.69,1.19,1.53.03.91-.17,1.38-1.23,1.35-2.49-.06-4.98-.02-7.47-.02Z"/>
      <path class="cls-1" d="m71.17,40.81c-2.25,0-4.49-.05-6.74.02-1.23.04-1.14-.7-1.17-1.54-.04-.91.17-1.36,1.22-1.35,4.45.05,8.9.05,13.35,0,1.15-.01,1.25.54,1.27,1.46.01.97-.22,1.46-1.31,1.43-2.2-.06-4.41-.02-6.61-.02Z"/>
      <path class="cls-1" d="m57.53,33.72c-1.5,0-2.99-.04-4.49.01-1.19.04-1.2-.67-1.21-1.54,0-.86.12-1.44,1.19-1.43,3.07.04,6.15.04,9.22,0,1.09-.01,1.07.67,1.04,1.41-.02.72.19,1.58-1.03,1.55-1.58-.03-3.16,0-4.74,0Z"/>
      <path class="cls-1" d="m55.44,40.81c-1.29,0-2.58-.06-3.87.02-1.29.08-1.12-.75-1.14-1.54-.02-.78,0-1.36,1.08-1.34,2.66.06,5.32.06,7.98,0,1.17-.03.98.71.98,1.4,0,.74.19,1.55-1.05,1.48-1.33-.07-2.66-.02-3.99-.02Z"/>
      <path class="cls-1" d="m70.3,72.24c.11.29.15.37.16.45q.21,2.4-2.2,2.4c-1.74,0-3.48-.06-5.22.02-1.21.06-1.2-.63-1.19-1.49,0-.8-.03-1.44,1.13-1.4,2.43.08,4.87.02,7.33.02Z"/>
      <path class="cls-1" d="m50.45,72.26c2.75,0,5.35-.04,7.95.02,1.11.03.58.98.65,1.54.07.54.19,1.25-.73,1.26-2.36.01-4.72.03-7.08-.03-.27,0-.71-.42-.76-.7-.11-.63-.04-1.3-.04-2.1Z"/>
      <path class="cls-1" d="m74.73,60.83c-1.08,0-2.17-.05-3.24.01-1.01.06-1.09-.52-1.01-1.25.07-.65-.39-1.62.91-1.61,2.24.02,4.49.01,6.73,0,1.14,0,.91.83.94,1.5.02.69.07,1.37-.96,1.34-1.12-.04-2.24,0-3.37,0Z"/>
      <path class="cls-1" d="m53.37,46.6c-.46,0-.91,0-1.37,0-1.55,0-1.53-.05-1.57-1.63-.03-.98.32-1.36,1.29-1.31,1.12.05,2.25.05,3.37,0,1.1-.04,1.18.63,1.16,1.46-.01.8.01,1.55-1.13,1.48-.58-.04-1.16,0-1.75,0Z"/>
      <path class="cls-1" d="m69.09,33.73c-.46,0-.91,0-1.37,0-1.45-.01-1.57-.18-1.56-1.68,0-.87.28-1.32,1.22-1.28,1.16.05,2.32.06,3.48,0,1.23-.07,1.03.77,1.04,1.49.01.75.13,1.57-1.07,1.47-.58-.05-1.16,0-1.74,0Z"/>
      <path class="cls-1" d="m47.62,68.06c.27,1.28-.49,1.35-1.49,1.41-1.31.08-1.33-.63-1.38-1.6-.05-1.16.5-1.34,1.5-1.37,1.19-.03,1.58.45,1.37,1.56Z"/>
      <path class="cls-1" d="m60.51,14.14c-.17-1.05.72-1.96,1.77-1.79.33.05.62.14.84.32.37.29.36,1.81-.02,2.15-.49.42-1.91.54-2.25.17-.19-.21-.28-.5-.34-.85Z"/>
    </g>
  </g>
</svg>