<?xml version="1.0" encoding="UTF-8"?>
<svg id="Layer_1" data-name="Layer 1" xmlns="http://www.w3.org/2000/svg" viewBox="0 0 100 100">
  <defs>
    <style>
      .cls-1 {
        fill: #fff;
      }

      .cls-2 {
        fill: #9daf82;
      }
    </style>
  </defs>
  <g>
    <path class="cls-2" d="m77.6,95.81c-2.28,0-4.46-.59-6.5-1.77-.38-.22-.88-.35-1.31-.35-11.58-.02-23.16-.02-34.74-.02h-9.68c-1.8,0-2.22-.41-2.22-2.19v-5.1c0-.13,0-.26-.02-.39h-4.75c-2.73,0-2.95-.22-2.95-2.92V9.01c0-.25,0-.49,0-.74.04-.94.62-1.52,1.58-1.57.11,0,.22,0,.33,0h56.36c1.86,0,2.31.45,2.31,2.29v2.74c0,2.84,0,5.67.02,8.51,0,.29.17.68.38.9,1.19,1.22,2.39,2.42,3.6,3.62,1.04,1.04,2.07,2.07,3.1,3.12.36.37.61.93.62,1.39.02,1.4,0,2.81,0,4.21,0,.85-.01,1.71-.01,2.56v10.86c0,8.02,0,16.03-.02,24.05,0,.5.11.69.54.95,4.7,2.8,7.12,8.25,6.02,13.56-1.12,5.41-5.49,9.51-10.86,10.21-.61.08-1.21.12-1.8.12Zm.04-22.74c-5.38,0-9.71,4.28-9.85,9.74-.07,2.54.89,4.97,2.7,6.86,1.86,1.95,4.37,3.05,7.04,3.1h.18c5.28,0,9.66-4.37,9.76-9.75.05-2.58-.92-5.04-2.73-6.92-1.83-1.91-4.29-2.98-6.92-3.03h-.19Zm-51.44,17.6c.12,0,.3,0,.48,0h40.7s0,0,0-.02c-.16-.29-.33-.58-.5-.87-.45-.78-.92-1.59-1.28-2.45-.22-.53-.35-.63-.88-.63-6.07.02-12.13.02-18.2.02h-13.45c-.35,0-.71,0-1.07-.06-.75-.13-1.22-.68-1.23-1.44,0-.78.49-1.35,1.28-1.48.18-.03.37-.04.56-.04h31.68c.17,0,.34-.01.52-.02v-2.45h-31.87c-.89,0-1.47-.17-1.82-.53-.25-.26-.38-.6-.37-1.02.03-1.49,1.63-1.49,2.15-1.49h32.42c.07.01.13,0,.18,0,.09-.02.16-.05.18-.07.38-.72.79-1.5,1.22-2.33l.03-.06h-34c-.88,0-1.46-.17-1.82-.54-.26-.26-.38-.61-.37-1.03.04-1.48,1.63-1.48,2.16-1.48h10.67c8.54,0,17.07,0,25.61-.02.36,0,.8-.14,1.12-.35,1.33-.86,3.39-2.02,5.82-2.14.36-.02.71-.03,1.07-.03.8,0,1.61.04,2.43.07.36.02.72.03,1.09.05v-6.43c0-10.95,0-21.9.02-32.85,0-.28-.04-.35-.04-.37h0s-.08-.03-.31-.03c-1.78.02-3.53.02-5.29.02h-5.55c-1.51,0-2.02-.52-2.03-2.03v-2.14c-.01-2.86-.02-5.72.01-8.59,0-.34-.05-.42-.05-.42h0s-.07-.05-.42-.05c-8.63.02-17.26.02-25.89.02h-14.5c-.17,0-.37,0-.49,0,0,.12,0,.31,0,.48v72.26c0,.18,0,.38,0,.5Zm-3.04-7.7c0-.09,0-.65,0-.65V16.54c0-1.64.47-2.11,2.08-2.11h20.85c7.57,0,15.15,0,22.72,0,.49,0,1.08.24,1.47.6.7.65,1.37,1.34,2.02,2,.21.21.42.43.63.64v-7.88H18.48v73.17s4.65,0,4.68,0Zm47.54-55.36c1.61,0,3.16,0,4.71,0h2.9s-7.75-7.76-7.75-7.76v1.78c-.01,1.97-.01,3.94-.03,5.91,0,.03,0,.05,0,.07.06,0,.13,0,.17,0Z"/>
    <path class="cls-2" d="m42.85,47.92c-6.34,0-11.76-5.2-12.08-11.6-.16-3.25,1.02-6.52,3.24-8.98,2.17-2.4,5.07-3.8,8.17-3.94.21-.01.43-.02.64-.02,6.69,0,12.17,5.14,12.47,11.7.32,6.86-4.91,12.5-11.91,12.82-.18,0-.35.01-.53.01Zm.16-9.07c-2.49,0-4.71,1.44-5.67,3.68-.12.28-.11.31.13.49,1.55,1.19,3.52,1.84,5.55,1.84s3.98-.64,5.53-1.81c.26-.2.27-.25.14-.55-.97-2.22-3.2-3.65-5.69-3.65Zm4.3-1.99c1.52.84,2.72,1.98,3.64,3.46,2.11-3.29,1.86-8.57-2.02-11.82-1.63-1.37-3.72-2.12-5.87-2.12-2.83,0-5.46,1.24-7.21,3.41-3.09,3.81-2.18,8.6-.74,10.53l.19-.25c.43-.57.87-1.15,1.4-1.66.53-.51,1.14-.94,1.73-1.35.1-.07.21-.15.31-.22-.96-1.18-1.44-2.53-1.39-3.93.05-1.52.71-2.97,1.8-3.99,1.06-.98,2.44-1.53,3.89-1.53s2.84.55,3.9,1.54c1.96,1.83,2.65,5.07.38,7.94Zm-4.3-6.48c-1.46.02-2.69,1.26-2.68,2.72,0,1.47,1.21,2.67,2.69,2.67.73,0,1.41-.29,1.92-.81.51-.52.79-1.19.78-1.89-.01-1.46-1.24-2.69-2.68-2.69v-.5l-.03.5Z"/>
    <path class="cls-2" d="m73.91,53.7h-40.98c-.52,0-2.12,0-2.17-1.48-.01-.42.11-.77.36-1.03.35-.37.93-.54,1.82-.54h41.34c.16,0,.31,0,.47.03.86.12,1.37.69,1.36,1.5,0,.82-.51,1.36-1.37,1.49-.15.02-.3.03-.46.03h-.38Z"/>
    <path class="cls-2" d="m46.6,59.21c-.24,0-.54-.02-.78-.21-.19-.15-.82-.69-.85-1.34-.01-.41.25-.82.84-1.29.23-.18.52-.21.74-.21h.31s27.5,0,27.5,0c.15,0,.32,0,.49.04.81.17,1.27.71,1.26,1.49,0,.78-.47,1.32-1.27,1.48-.17.04-.35.04-.53.04h-27.31s-.41,0-.41,0Z"/>
    <path class="cls-2" d="m46.57,64.71c-.23,0-.52-.03-.76-.22-.39-.32-.86-.82-.85-1.35.01-.42.32-.86.92-1.3.22-.16.49-.18.67-.18.08,0,.17,0,.26,0,.06,0,.13,0,.19,0h27.28c.15,0,.3,0,.45.02.86.11,1.38.66,1.39,1.48,0,.81-.49,1.36-1.35,1.5-.14.02-.28.03-.42.03h-27.39s-.37,0-.37,0Z"/>
    <path class="cls-2" d="m74.02,70.22c-8.99,0-27.21,0-27.21,0-1.72-.03-1.9-1.08-1.9-1.53,0-.45.19-1.5,1.92-1.5h27.21c.06,0,.12,0,.19,0,.09,0,.17,0,.26,0,.18,0,.44.02.67.18.41.3.91.77.92,1.3.02.65-.65,1.21-.86,1.37-.24.19-.54.21-.77.21h-.41Z"/>
    <path class="cls-2" d="m54.08,47.83c-.14,0-.29,0-.43-.03-.8-.12-1.29-.67-1.29-1.47,0-.76.46-1.32,1.2-1.46.2-.04.41-.05.62-.05h19.9c.51,0,2.05,0,2.1,1.45.01.41-.11.76-.36,1.02-.35.36-.92.53-1.75.53h-19.99Z"/>
    <path class="cls-2" d="m61.76,39.83c-1.45,0-2.9,0-4.35-.02-.45,0-1.09-.19-1.48-.58-.32-.32-.44-.78-.32-1.24.13-.51.51-.91,1-1.06.36-.11.74-.12,1.12-.12h16.27s.1.5.1.5v-.5c.21,0,.42,0,.63.02.92.09,1.47.68,1.44,1.55-.04.86-.65,1.43-1.56,1.44-.56,0-1.12,0-1.68,0h-11.17Z"/>
    <path class="cls-2" d="m57.31,43.84c-.14,0-.33,0-.53-.05-.74-.16-1.19-.7-1.19-1.46,0-.77.45-1.31,1.2-1.45.27-.05.54-.05.77-.05h16.51c.51,0,2.05,0,2.11,1.44.02.42-.11.76-.36,1.03-.35.36-.92.54-1.74.54h-16.77Z"/>
    <path class="cls-2" d="m63.26,35.83c-1.23,0-2.46,0-3.7-.03-.55-.01-1.21-.33-1.56-.76-.26-.31-.33-.72-.21-1.12.14-.47.53-.85,1.01-1,.34-.1.7-.1.97-.1h14.59c.09,0,.18,0,.27,0,.52.04.96.24,1.24.57.23.28.34.62.31.99-.08.9-.69,1.44-1.63,1.44h-11.29Z"/>
    <path class="cls-2" d="m35.68,59.21c-1.07,0-2.13,0-3.2,0-.55,0-1.01-.18-1.32-.5-.27-.28-.41-.65-.39-1.07.03-.87.7-1.45,1.71-1.46.42,0,.85,0,1.27,0h3.83c.43,0,.87,0,1.3,0,1.02.01,1.68.57,1.71,1.46.02.42-.12.8-.39,1.08-.31.32-.76.49-1.32.5-1.07,0-2.13,0-3.2,0Z"/>
    <path class="cls-2" d="m35.74,64.71c-1.09,0-2.19,0-3.28-.01-1,0-1.68-.6-1.7-1.48,0-.41.13-.76.39-1.03.31-.32.78-.49,1.35-.5.43,0,.85,0,1.28,0h3.84c.43,0,.86,0,1.29,0,1.03.02,1.67.58,1.69,1.48,0,.41-.13.78-.4,1.06-.3.31-.74.48-1.25.48-1.06,0-2.12.01-3.19.01Z"/>
    <path class="cls-2" d="m32.54,70.22c-1.28-.02-1.76-.77-1.77-1.48-.01-.41.12-.77.38-1.04.32-.33.81-.5,1.42-.5,1.01,0,2.02,0,3.03,0,1.07,0,2.14,0,3.21,0,1.29,0,1.76.76,1.78,1.47,0,.41-.12.77-.39,1.04-.32.33-.81.5-1.42.51-.43,0-.86,0-1.28,0h-3.74c-.41,0-.81,0-1.22,0Z"/>
    <path class="cls-2" d="m77.59,90.55c-.55,0-1.1,0-1.65-.01-1.27-.02-1.81-.56-1.83-1.83,0-.61,0-1.21,0-1.86v-.41s-1.24,0-1.24,0c-.35,0-.7,0-1.05,0-1.23-.01-1.76-.54-1.78-1.77-.01-1.17-.01-2.34,0-3.51.01-1.21.57-1.76,1.79-1.78.34,0,.68,0,1.03,0h1.24s0-.41,0-.41c0-.65,0-1.26,0-1.87.02-1.22.57-1.77,1.79-1.78.58,0,1.17,0,1.75,0s1.17,0,1.75,0c1.17.01,1.73.56,1.76,1.73.01.63.03,1.41,0,2.16,0,.09,0,.15,0,.18,0,0,.05,0,.08,0,.39-.02.71-.03,1.03-.03.37,0,.73,0,1.1.02h.1c1.18.03,1.73.58,1.75,1.74.01,1.19.01,2.39,0,3.58-.01,1.18-.55,1.72-1.74,1.73-.35,0-1.9,0-1.9,0h-.43s0,.38,0,.38c0,.63,0,1.24,0,1.85-.01,1.31-.55,1.85-1.87,1.86-.57,0-1.14,0-1.71,0Z"/>
  </g>
  <path class="cls-1" d="m82.73,81.69h-3.46c-.25,0-.46-.21-.46-.46v-3.46c0-.25-.21-.46-.46-.46h-1.27c-.25,0-.46.21-.46.46v3.46c0,.25-.21.46-.46.46h-3.46c-.25,0-.46.21-.46.46v1.27c0,.25.21.46.46.46h3.46c.25,0,.46.21.46.46v3.46c0,.25.21.46.46.46h1.27c.25,0,.46-.21.46-.46v-3.46c0-.25.21-.46.46-.46h3.46c.25,0,.46-.21.46-.46v-1.27c0-.25-.21-.46-.46-.46Z"/>
</svg>