<?xml version="1.0" encoding="UTF-8"?>
<svg id="Layer_1" data-name="Layer 1" xmlns="http://www.w3.org/2000/svg" viewBox="0 0 100 100">
  <defs>
    <style>
      .cls-1 {
        fill: #5b653e;
      }
    </style>
  </defs>
  <path class="cls-1" d="m45.95,49.72c-1.72,0-2.38-.65-2.45-2.38-.06-1.6-.12-1.67-1.61-1.96h0c-.29,0-.69.2-.96.43-.85.76-1.41,1.22-2.07,1.22s-1.24-.5-2.01-1.27l-1.79-1.78c-.95-.94-1.89-1.88-2.83-2.83-1.28-1.29-1.27-2.17.01-3.49.89-.91.93-1.66.16-2.59-.05-.06-.31-.19-.92-.22-2.43-.13-2.92-.64-2.92-3.04v-.97c0-1.77,0-3.55,0-5.32,0-1.67.37-2.57,2.26-2.57.11,0,.5.01.5.01.78,0,1.13-.27,1.45-1.12.28-.75.22-1.09-.26-1.57-.83-.82-1.25-1.36-1.25-2,0-.71.55-1.31,1.32-2.08l1.69-1.69c.95-.95,1.89-1.9,2.85-2.84.68-.68,1.22-.96,1.79-.96.7,0,1.29.48,1.73.91.47.46.97.7,1.45.7.41,0,.82-.18,1.2-.53.06-.05.17-.25.21-.96.13-2.39.63-2.88,2.96-2.88h3.57c.99,0,1.98,0,2.96,0,1.71.01,2.37.67,2.44,2.41.06,1.44.44,1.88,1.79,2.03h0c.1,0,.38-.13.76-.47.88-.8,1.44-1.21,2.09-1.21s1.24.44,2.11,1.31l1.41,1.41c1.04,1.04,2.09,2.08,3.12,3.13,1.29,1.31,1.28,2.15-.02,3.5-.89.92-.93,1.67-.15,2.6.07.08.37.22.92.25,2.59.17,2.92.52,2.92,3.12v1.51c0,1.59,0,3.19,0,4.79,0,1.76-.7,2.46-2.46,2.52-1.43.04-1.8.36-1.94,1.72-.02.15.17.52.5.88,1.61,1.78,1.6,2.39-.11,4.09l-1.46,1.46c-1.05,1.05-2.1,2.1-3.16,3.14-.29.28-.62.5-.97.72-.16.1-.33.21-.5.33l-.31.22-.29-.24c-.19-.16-.37-.3-.55-.44-.39-.31-.76-.6-1.1-.94-.32-.33-.55-.47-.77-.47-.12,0-.25.04-.4.12-.17.09-.34.16-.51.24-.66.28-.93.42-.92,1.1,0,1.14-.04,1.98-.57,2.48-.5.48-1.27.51-2.47.51h-3.6c-.94,0-1.88,0-2.81,0Zm4.33-3.71c.24,0,.48,0,.71.02.05,0,.1,0,.15,0,.32,0,.46,0,.54-.6.1-.77.46-1.8,1.15-2.2,1.25-.72,2.75-1.51,4.36-1.81.11-.02.23-.03.34-.03.63,0,1.26.3,1.88.58.2.09.4.19.61.27l2.96-2.95c-1.27-1.35-1.35-3.01-.23-4.93.06-.1.1-.24.15-.4l.05-.17c.53-1.69,1.6-2.62,3.25-2.84.1-.04.35-.3.37-.42.08-1.06.08-2.24,0-3.59-.02-.07-.2-.26-.29-.29-1.2-.28-2.51-1.4-3.4-2.92-.8-1.36-1.09-2.73-.8-3.77.16-.56.48-1.04.76-1.46.03-.05.07-.1.1-.15l-2.98-3.07c-.73.67-1.55,1-2.45,1-.8,0-1.66-.27-2.6-.81-.09-.05-.21-.09-.35-.13-.08-.02-.16-.04-.23-.07-1.61-.54-2.51-1.59-2.73-3.19-.04-.1-.3-.33-.42-.36-.46-.04-.92-.05-1.39-.05,0,0-1.43,0-1.43,0-.19,0-.6,0-.61,0-.32,0-.41.01-.53.56-.09.43-.4,1.51-1.16,2.19-1.22,1.11-2.64,1.69-4.1,1.69-1.01,0-2-.27-2.94-.81l-3.06,3.08c1.23,1.31,1.29,2.95.17,4.9-.12.21-.21.47-.3.74l-.1.28c-.51,1.42-1.55,2.22-2.99,2.3-.39.02-.46.07-.46.55.02,1.2.02,2.25,0,3.22-.01.45.04.57.58.67.85.16,1.65.55,2.12,1.04,1.88,1.93,2.23,4.91.89,7.23l3.12,3.04s0,0,0,0c.67-.53,1.58-.81,2.66-.81,2.07,0,4.64,1.12,5.36,2.98q.56,1.46,2.14,1.46h1.1Z"/>
  <path class="cls-1" d="m40.38,90.54c-.17,0-.43-.02-.66-.16-.72-.42-1.52-.9-1.54-1.56-.01-.45-.03-.9-.05-1.35-.1-2.29-.21-4.65.69-6.95.94-2.42,2.54-4.34,4.73-5.71.16-.1.31-.21.48-.33-1.19-1.57-2.31-3.66-1.7-6.38.39-1.74,1.21-3.1,2.5-4.16,1.36-1.11,2.96-1.69,4.62-1.69s3.27.59,4.63,1.7c1.67,1.36,2.57,3.19,2.67,5.42.08,1.75-.52,3.38-1.88,5.1l.61.4c3.47,2.33,5.27,5.57,5.34,9.65.01.72,0,1.43,0,2.15v.83c0,2.43-.55,2.99-2.95,2.99h-16.86c-.09,0-.18,0-.28.02-.12,0-.25.02-.37.02Zm9.08-13.67c-1.36,0-2.66.36-3.87,1.08-2.7,1.6-3.92,4.09-3.83,7.83.02.88.17.97.81.97,1.04-.03,1.98-.04,2.92-.04.67,0,7.23.03,7.23.03.68,0,1.36,0,2.04-.01h.4c.31,0,.58,0,.81,0h.49c.46,0,.58-.03.61-.06.11-.14.06-.98.01-1.87l-.03-.62c-.22-4.1-3.56-7.31-7.61-7.31Zm-.04-10.81c-1.97.02-3.46,1.51-3.49,3.48-.01.98.34,1.89,1,2.55.64.65,1.53,1.02,2.49,1.02,2.03,0,3.54-1.51,3.54-3.52,0-.97-.36-1.86-1.01-2.51-.65-.65-1.54-1.01-2.5-1.01v-.5l-.03.5Z"/>
  <path class="cls-1" d="m70.08,90.52c-.2,0-.49-.02-.73-.19-.58-.4-1.25-.87-1.27-1.49-.01-.46-.04-.92-.06-1.38-.11-2.28-.22-4.64.65-6.92.92-2.39,2.47-4.29,4.63-5.66.2-.13.4-.26.61-.39-1.59-2-2.17-4-1.79-6.08.34-1.85,1.23-3.37,2.64-4.51,1.33-1.07,2.91-1.63,4.56-1.63s3.26.58,4.6,1.67c1.68,1.38,2.58,3.2,2.67,5.41.07,1.8-.52,3.45-1.85,5.15,2.17,1.34,3.66,2.88,4.68,4.78,1.57,2.95,1.42,6.11,1.27,9.16v.27c-.07,1.2-.92,1.81-2.54,1.81-3.32,0-6.62,0-9.93,0h-7.66c-.07,0-.39.02-.48.02Zm13.13-3.8c1.03,0,2.06,0,3.09.01h0c.4,0,.53-.07.57-.12.06-.07.09-.22.08-.44-.02-.35-.03-.71-.03-1.06,0-.56-.02-1.1-.09-1.62-.49-3.76-3.72-6.59-7.51-6.59-1.29,0-2.53.32-3.69.96-2.93,1.62-4.72,5.58-3.9,8.64.04.02.39.19.59.2,1.15.03,2.31.03,3.46.03h7.43Zm-3.91-20.67c-1.94.01-3.5,1.53-3.54,3.47-.02.95.33,1.84.99,2.51.66.68,1.56,1.06,2.53,1.06h0c2.01,0,3.57-1.54,3.57-3.51,0-.96-.36-1.85-1.02-2.51-.66-.66-1.55-1.03-2.51-1.03v-.5l-.02.5Z"/>
  <path class="cls-1" d="m10.37,90.5c-1.22,0-2.07-.7-2.12-1.73l-.02-.46c-.18-3.44-.36-6.99,1.91-10.03.8-1.08,1.77-1.98,2.79-2.93.36-.34.73-.68,1.1-1.04-2.45-4.25-2.18-7.69.81-10.25,1.35-1.15,3.03-1.79,4.75-1.79s3.37.62,4.71,1.75c3.08,2.62,3.32,5.95.71,10.47.22.14.44.28.66.43,3.38,2.28,5.14,5.42,5.25,9.32.02.78.02,1.57.01,2.35,0,.57,0,1.13,0,1.7,0,.7-.18,1.25-.56,1.64-.38.38-.91.58-1.6.58-2.9,0-5.81,0-8.71,0h-9.69Zm9.2-13.61c-1.21,0-2.38.29-3.46.86-3.01,1.58-4.34,4.17-4.17,8.15.03.76.17.84.73.84,1.02-.02,1.98-.03,2.94-.03l7.25.02c.66,0,1.31,0,1.97-.02h.51c.32,0,.61,0,.85,0h.49c.4,0,.51-.02.54-.04.05-.1.03-.68.01-1.29-.01-.32-.03-.7-.03-1.13-.08-4.06-3.5-7.37-7.62-7.37Zm0-10.83c-.96,0-1.85.36-2.51,1.02-.66.66-1.02,1.56-1.02,2.52,0,1.96,1.56,3.5,3.54,3.5.99,0,1.89-.39,2.56-1.07.65-.67,1-1.57.98-2.51-.04-1.93-1.6-3.46-3.54-3.46l-.02-.5v.5Z"/>
  <path class="cls-1" d="m49.46,41.53c-6.99,0-12.69-5.67-12.7-12.63-.01-7.03,5.65-12.76,12.63-12.78,7.03,0,12.74,5.68,12.76,12.66.02,7.12-5.53,12.72-12.64,12.75h-.05Zm-.04-21.7c-4.84.02-8.95,4.12-8.98,8.96-.01,2.38.92,4.65,2.63,6.37,1.71,1.72,3.96,2.67,6.34,2.68,4.91,0,9.04-4.12,9.04-8.99,0-2.37-.95-4.62-2.67-6.34-1.72-1.72-3.97-2.67-6.34-2.67v-.5l-.03.5Z"/>
  <path class="cls-1" d="m46.6,36.13c-.8,0-1.67-.59-1.69-2.23-.03-2.49-.02-4.97-.01-7.46v-2.73c0-1.32.67-2.03,1.99-2.13h.13s.12.05.12.05l.22.1c.24.11.54.24.83.43,2.44,1.6,4.88,3.21,7.29,4.85.84.57,1.26,1.18,1.26,1.83,0,.65-.42,1.27-1.26,1.84-2.88,1.96-5.23,3.53-7.38,4.93-.54.35-1.04.53-1.5.53Zm1.29-3.83l5.16-3.46-5.16-3.49v6.95Z"/>
  <path class="cls-1" d="m49.39,61c-1.26,0-2.29-.9-2.29-2v-5.46c0-1.1,1.03-2,2.29-2s2.29.9,2.29,2v5.46c0,1.1-1.03,2-2.29,2Z"/>
  <path class="cls-1" d="m79.66,61.09c-1.26,0-2.29-1.03-2.29-2.29v-26.87c0-.71-.58-1.29-1.29-1.29h-2.69c-1.26,0-2.29-1.03-2.29-2.29s1.03-2.29,2.29-2.29h6.27c1.26,0,2.29,1.03,2.29,2.29v30.45c0,1.26-1.03,2.29-2.29,2.29Z"/>
  <path class="cls-1" d="m19.18,60.55c-1.22-.06-2.17-1.11-2.17-2.39v-7.15c0-1.26,1.03-2.29,2.29-2.29s2.29,1.03,2.29,2.29v7.25c0,.61-.24,1.19-.67,1.62-.43.43-1.01.67-1.62.67h-.12Z"/>
  <path class="cls-1" d="m19.3,44.45c-1.26,0-2.29-1.03-2.29-2.29v-14.35c0-1.26,1.03-2.29,2.29-2.29h6.17c1.28,0,2.33.95,2.39,2.17.03.64-.19,1.24-.63,1.7-.43.45-1.04.71-1.66.71h-2.69c-.71,0-1.29.58-1.29,1.29v10.76c0,1.26-1.03,2.29-2.29,2.29Z"/>
</svg>