<?xml version="1.0" encoding="UTF-8"?>
<svg id="Layer_1" data-name="Layer 1" xmlns="http://www.w3.org/2000/svg" viewBox="0 0 100 100">
  <defs>
    <style>
      .cls-1 {
        fill: #9daf82;
      }
    </style>
  </defs>
  <g id="XAM0rg.tif">
    <g>
      <path class="cls-1" d="m55.35,69.48c-.24-.14-.5-.24-.7-.41-2.96-2.62-3.05-6.72-.29-9.57.41-.42.69-1.15.7-1.75.06-3.34.02-6.68.02-10.02q0-1.81,1.86-1.87c.31-.01.62-.06.95-.09.47-1.02.1-1.74-.62-2.41-.83-.77-1.81-1.59-.82-2.84.71-.9,1.52-.62,2.96.68,1.16,1.05,2,2.13,1.74,3.84-.17,1.14.78.98,1.48,1,.74.02,1.5.07,1.48-1.04-.04-2.21.01-4.43-.08-6.63-.05-1.18.31-1.56,1.52-1.55,6.18.05,12.37.05,18.55,0,1.04,0,1.3.34,1.29,1.32-.05,3.57,0,7.13-.04,10.7-.01.87.26,1.37,1,1.86,6.57,4.34,6.35,14.05-.38,18.17-.36.22-.7.46-1.14.76,2.7,1.15,5.21,2.22,7.71,3.3.33.14.65.32.95.52,1.24.84,1.16,2.12-.26,2.66-1.3.49-2.69.72-4.02,1.16-8.84,2.89-16.67,7.68-24.25,12.92-.33.23-.66.47-1,.7-.89.6-1.8.76-2.49-.24-.7-1.01-.02-1.71.75-2.26,1.43-1.02,2.83-2.11,4.36-2.97,5.34-3,10.72-5.91,16.09-8.85.18-.1.38-.18.57-.27-.02-.12-.03-.24-.05-.37-1.07.1-2.15.14-3.21.31-12.43,1.94-23.37,7.41-33.69,14.31-1.47.98-2.38,1.08-2.95.22-.58-.86-.18-1.8,1.19-2.74,8.65-5.92,17.89-10.66,28.04-13.39,3.37-.91,6.87-1.36,10.74-2.11-1.31-.37-2.3-.72-3.32-.93-12.96-2.68-24.97-.01-36.27,6.55-5.65,3.28-10.67,7.38-15.32,11.95-1.39,1.37-2.31,1.58-3.11.78-.76-.76-.58-1.47.93-2.91.75-.71.78-1.12-.11-1.76-5.75-4.12-11.84-7.57-18.7-9.53-.74-.21-1.54-.23-2.23-.52-.56-.23-1.41-.76-1.4-1.13.02-.69.41-1.7.95-1.99,2.15-1.12,4.36-2.19,6.66-2.95,9.26-3.03,18.75-3.61,28.34-2.15,3.6.55,7.25,1.12,10.69,2.26,1.85.61,3.15.1,4.91-.72Zm19.54-29.51c-1.94,0-3.88,0-5.82,0-1.9,0-1.94.02-1.91,1.86.03,1.94.08,3.87.18,5.8.06,1.15-.33,1.63-1.54,1.58-2.16-.1-4.33-.05-6.49-.1-.84-.02-1.23.23-1.21,1.15.05,2.3-.02,4.6.05,6.9,0,.34.43.89.75.96,1.65.37,3.01,1.13,4.1,2.44.25.3.74.53,1.13.54,1.67.06,3.34,0,5,.04.82.02,1.09-.29,1.07-1.12-.17-6.55,5.23-11.26,10.86-10.91.93.06,1.3-.24,1.28-1.2-.05-2.21-.05-4.42,0-6.63.02-1.02-.4-1.34-1.37-1.32-2.03.04-4.06.01-6.09.01Zm5.91,27.16c4.25,0,7.55-3.33,7.52-7.57-.03-4.15-3.36-7.42-7.54-7.42-4.24,0-7.55,3.34-7.51,7.57.05,4.19,3.33,7.43,7.52,7.42Zm-33.16,5.3c-11.44-3.05-22.56-3.36-33.74-.09.43.26.88.35,1.34.41,2.5.33,5.02.55,7.49,1.01,4.8.9,9.38,2.49,13.85,4.44.38.17,1.01.15,1.37-.05,3.11-1.79,6.19-3.64,9.69-5.72Zm-13.17,8.19c-6.35-2.61-12.56-4.45-19.29-4.73.11.33.11.46.17.48,4.79,2.22,9.28,4.94,13.54,8.06.23.17.82.17,1.04,0,1.47-1.17,2.89-2.41,4.54-3.81Zm39.02-13.04c-.75-1.06-1.37-2.04-2.11-2.93-.24-.29-.77-.46-1.17-.48-1.66-.05-3.33-.06-4.99.01-.38.02-.94.36-1.08.69-.41.97-.65,2-.99,3.12,3.4-.14,6.78-.27,10.34-.42Zm-12.43-3.43c-.02-1.64-1.3-2.98-2.87-2.99-1.75,0-3.11,1.36-3.08,3.08.03,1.67,1.37,2.91,3.1,2.87,1.64-.04,2.87-1.31,2.85-2.96Z"/>
      <path class="cls-1" d="m53.26,27.85c-4.42,0-8.85,0-13.27,0-2.47,0-4.24-1.2-5.18-3.44-1.04-2.45-.73-4.81,1.07-6.81,1.7-1.89,3.9-2.19,6.21-1.43.88.29,1.25.27,1.62-.64,2.03-5.01,7.36-7.16,12.27-4.91.94.43,1.39.29,2.04-.43,2.88-3.23,7.43-4.37,11.22-2.91,4.11,1.59,6.68,5.27,6.78,9.69.12,5.16-2.67,9.17-7.48,10.65-.67.21-1.42.26-2.13.26-4.38.02-8.76.01-13.14.01,0-.01,0-.03,0-.04Zm.56-2.97s0-.01,0-.02c4.47,0,8.93.02,13.4-.02.73,0,1.54-.2,2.18-.55,2.5-1.38,4.27-5.09,3.84-7.84-.5-3.22-2.65-5.74-5.45-6.4-3.38-.8-6.22.28-8.27,3.15q-1.58,2.21-3.82.76c-3.92-2.53-8.36-.79-9.47,3.76-.22.89-.67,1.17-1.51,1.15-1.49-.03-2.98-.03-4.47,0-1.99.04-3.26,1.28-3.2,3.06.06,1.72,1.47,2.94,3.38,2.94,4.47,0,8.93,0,13.4,0Z"/>
    </g>
  </g>
</svg>