<?xml version="1.0" encoding="UTF-8"?>
<svg id="Layer_1" data-name="Layer 1" xmlns="http://www.w3.org/2000/svg" viewBox="0 0 100 100">
  <defs>
    <style>
      .cls-1 {
        fill: #eee9dc;
      }
    </style>
  </defs>
  <path class="cls-1" d="m16.98,90.13c-3.04,0-5.24-2.21-5.25-5.25v-5.63c-.03-9.86-.04-20.07.02-30.1.03-4.41,2.01-7.88,5.89-10.33.19-.12.39-.24.62-.38-1.99-2.1-2.82-4.37-2.56-6.94.2-1.91.98-3.57,2.31-4.94,1.56-1.6,3.74-2.51,5.98-2.51,1.42,0,2.82.37,4.04,1.07,2.01,1.15,3.34,2.91,3.98,5.23.56,2.06.12,3.94-.56,5.58l.86-.35c1.24-.51,2.4-.98,3.56-1.46,1.69-.7,3.38-1.41,5.07-2.12l2.26-.95c.14-.06.36-.12.52-.15,2.35-.36,4.36-1.46,6.49-2.61,1.07-.58,2.18-1.18,3.32-1.67,2.34-1.01,4.7-2.08,6.99-3.12.92-.42,1.83-.83,2.75-1.24-1.72-2.08-2.38-4.42-1.95-6.97.31-1.85,1.22-3.45,2.69-4.76,1.55-1.38,3.51-2.13,5.51-2.13,1.73,0,3.38.56,4.75,1.63,1.29.99,2.32,2.31,2.84,3.62.54,1.35.71,3.06.47,4.68-.15,1.04-.64,2.02-1.1,2.97-.13.27-.27.55-.4.83.27.12.57.25.86.38,4.67,2.21,7.15,5.93,7.38,11.06.04,1.06.04,2.1,0,3.12-.01.31.05.37.05.38,0,0,.07.07.39.07.66-.01,1.26-.02,1.87-.02h2.3c.56,0,1.13,0,1.69,0h0c.42,0,.92.05,1.25.44.39.46.37,1.2.2,2.25-.61,3.75-.6,7.54.02,11.29.19,1.13.12,1.76-.24,2.18-.36.42-.91.48-1.34.48-.7,0-1.35,0-2,0h-3.12c-.97,0-1.93,0-2.9-.02h0c-.43,0-.57.06-.62.12-.05.05-.12.19-.12.61.05,2.96.03,5.9,0,8.66,0,.68-.06,1.35-.11,2.06-.01.17-.03.35-.04.52.26.02.52.04.79.04,0,0,4,.01,5.17.01,1.39,0,2.77,0,4.16-.02h0c.5,0,1.06.06,1.42.48.46.54.41,1.44.16,2.91-.29,1.73-.49,3.52-.61,5.31-.05.75-.67,1.34-1.42,1.34-.79,0-1.43-.64-1.43-1.43v-3.78c0-.5,0-1.03-.07-1.13-.09-.06-.6-.06-1.09-.06h-22.11c-7.84,0-15.68,0-23.53-.04h0c-2.19,0-3.58.54-4.85,1.86-1.34,1.39-2.16,2.37-2.18,4.14-.03,2.45-2.25,4.44-4.95,4.44-.39,0-.78-.04-1.16-.13-.05-.01-.11-.02-.18-.02-.31,0-.69.13-.89.3-2.16,1.91-4.3,3.91-6.37,5.85l-.28.26c-.13.13-.26.29-.41.51.25.02.46.03.66.03h22.39s.1.05.1.05c.86.15,1.49.89,1.49,1.76,0,.99-.81,1.8-1.8,1.8h-.07c-.08,0-.14.01-.2.01h-27.38Zm-1.61-20.43c-.01,5.09-.02,10.17,0,15.26,0,.88.59,1.5,1.42,1.5.86,0,1.45-.65,1.46-1.59.03-5.28.03-10.92,0-17.74,0-.13-.12-.38-.19-.43-.71-.26-1.47-.49-2.27-.72-.13-.04-.27-.08-.4-.12v3.84Zm7.08-3.01c-.24,0-.4.04-.47.11-.07.07-.15.26-.15.77.04,3.16.04,6.36.03,9.47,0,1.32,0,2.64,0,3.96,0,.1,0,.2,0,.3l.56-.51c1.29-1.18,2.63-2.4,3.91-3.63.04-.05.11-.32.08-.65-.03-.36-.1-.71-.17-1.06-.09-.5-.19-1.01-.2-1.54-.05-2.12-.02-4.25,0-6.61,0-.36-.06-.47-.09-.5-.05-.05-.18-.08-.36-.08-.58.02-1.09.04-1.59.04-.43,0-.86-.01-1.28-.05-.1,0-.19-.01-.27-.01Zm3.56-3.65c2.47.02,3.67,1.24,3.68,3.74,0,1.07,0,2.15,0,3.22,0,1.5,0,3.01.01,4.51,0,.92.53,1.51,1.36,1.54h0c.85,0,1.44-.65,1.45-1.55.02-4.42.03-8.39,0-12.4-.02-1.73-1.44-3.14-3.24-3.2-.53-.02-1.06-.04-1.59-.04-.4,0-.8,0-1.2.04-.08,0-.15,0-.22,0-.53,0-.91-.14-1.18-.44-.41-.46-.43-1.16-.31-2.13.27-2.39.27-4.92-.02-7.52-.13-1.17.04-2.07,1.3-2.66,3.35-1.54,6.68-3.12,10.01-4.7l7.86-3.72c.64-.3.96-1.05.74-1.72-.2-.62-.74-1.01-1.36-1.01-.18,0-.37.04-.54.11l-.79.33c-1.91.78-3.88,1.6-5.8,2.44-3.24,1.43-6.5,2.88-10.09,2.88-.65,0-1.3-.05-1.94-.14-.06,0-.12-.01-.18-.01-.11,0-.22,0-.33.02h-.19c-4.07.24-7.53,3.34-7.86,7.08-.37,4.17-.28,8.45-.19,12.21.04,1.86,1.36,3.04,3.45,3.09.91.02,1.83.03,2.74.03h2.99c.48,0,.95,0,1.43,0Zm3.36-7.76c1.75,0,3.49.75,4.77,2.05,1.34,1.37,2.05,3.21,2.02,5.21-.03,1.56-.01,3.15,0,4.69v.41c0,.14.02.27.04.42,0,0,.01,0,.02-.01.43-.36.76-.64,1.05-.96.88-1,1.96-1.45,3.49-1.45h.11c2.26.03,4.52.04,6.78.04h8.11c.66-.01,1.34-.01,1.45-.12.1-.1.09-.72.09-1.32v-.16c-.04-5.99-.04-10.95,0-15.59.03-2.75,1.39-4.92,3.96-6.27.4-.21.8-.4,1.21-.6.7-.34,1.36-.66,1.99-1.04.27-.17.55-.6.56-.87.06-1.4.05-2.83.05-4.21,0-.52,0-1.04,0-1.57v-1.88c-2.3,1.04-4.54,2.14-6.72,3.21-3.62,1.78-7.04,3.47-10.7,4.88-4.23,1.62-8.4,3.67-12.42,5.64-1.98.97-4.04,1.98-6.07,2.93-.6.28-.77.54-.75,1.18.05,1.55.05,3.13,0,4.69-.01.4.06.54.11.59.06.07.22.1.43.1,0,0,.33-.01.44-.01Zm37.96,10.33c.92.02,1.84.03,2.74.03h1.55s0-4.69,0-4.69c0-2.19,0-4.37-.02-6.56,0-.26-.14-.61-.33-.85-.18-.23-.43-.42-.78-.69-.12-.1-.26-.2-.4-.31-.05.01-.11.03-.16.05-.45.14-1.06.32-1.69.41-.69.09-.86.31-.86,1.11,0,2.17-.03,4.33-.06,6.5-.02,1.62-.05,3.23-.06,4.85,0,.03.04.09.08.15Zm-.02-37.71c.96.01,1.42.49,1.41,1.46,0,1.37,0,2.75,0,4.12,0,2.57,0,5.22-.04,7.83-.01.67-.6,1.46-1.15,1.77-.93.53-1.9,1.02-2.84,1.48-.64.32-1.28.64-1.91.97-1.19.63-1.79,1.51-1.8,2.61-.04,4.88-.04,10.01-.01,16.15,0,.75.55,1.3,1.33,1.33h0c.9,0,1.46-.66,1.46-1.64,0-1.93,0-3.85,0-5.78,0-1.67,0-3.35,0-5.03,0-1.78.75-2.81,2.41-3.36,1.16-.38,2.3-.75,3.46-.95.58-.1.7-.27.69-1.01-.01-1.33,0-2.65,0-3.98,0-1.71,0-3.41-.02-5.12,0-.43.03-.97.4-1.34.26-.26.62-.39,1.12-.39.08,0,.16,0,.25,0,.45.03.9.04,1.35.04.55,0,1.11-.02,1.66-.05.08,0,.25-.09.34-.16.13-2.05.25-4.36-1.21-6.17-.46-.57-.65-1.06-.58-1.54.08-.61.56-1.03.91-1.3.17-.12.32-.26.5-.42l.66-.57.33.33c1.78,1.78,2.73,3.65,2.89,5.71.15,1.84.17,3.72.19,5.53,0,.85.02,1.71.04,2.56.03,1.06.33,1.14.76,1.14.45,0,.83-.1.84-1.15v-1.83c.02-1.86.04-3.78-.02-5.66-.11-3.92-2.52-7.07-6.14-8.03-1.67-.44-3.33-.66-4.93-.66-1.98,0-3.83.34-5.51,1.01-3.88,1.55-7.7,3.43-11.4,5.25-1.39.68-2.78,1.37-4.17,2.04-.5.24-.7.71-.59,1.41.1.72.53,1.11,1.2,1.11.34,0,.74-.11,1.14-.31l2.77-1.38c3.46-1.71,7.03-3.49,10.52-5.3,1.03-.54,2.12-.78,3.54-.78h.19Zm7.88,31.22c0,.48,0,.96-.02,1.44-.02,1.16-.04,2.36.07,3.51.04.47.47,1.12.9,1.36.07.04.24.09.49.09.35,0,.68-.1.78-.2.34-.31.61-1,.63-1.63.08-2.31.06-4.67.04-6.94v-.88c0-.39,0-.72,0-1.01,0-.51.01-1.04-.06-1.14-.1-.07-.7-.07-1.02-.07,0,0-1.02,0-1.28,0l-.04-.5v.5c-.31,0-.4.06-.43.09-.03.03-.09.13-.09.47.03,1.16.02,2.33.02,3.49v1.03s0,.38,0,.38Zm-.07-9.12c2.21,0,4.42.01,6.62.01s4.29,0,6.44-.02c.04-.03.25-.24.28-.35.03-1.97.03-3.98.03-5.99v-2.6c0-.26-.05-.34-.07-.35-.02-.02-.09-.07-.32-.07h-.22c-.46.02-.93.04-1.39.04-.42,0-.83-.01-1.25-.05-.11-.01-.22-.02-.32-.02-.25,0-.41.04-.49.12s-.17.28-.16.81c0,1.16-.44,2.24-1.23,3.04-.8.81-1.93,1.27-3.09,1.27h0c-.43,0-.85-.06-1.27-.18-2.04-.59-3.15-2.14-3.2-4.5-.01-.51-.03-.51-.62-.51-.12,0-.24,0-.36-.01-.06,0-.12,0-.18,0-.28,0-.35.06-.37.07-.04.04-.08.19-.07.46.04.7.03,1.41.02,2.09,0,.3,0,.6,0,.9v5.83l1.21.03ZM23.99,27.68c-2.65,0-4.66,1.99-4.67,4.63,0,1.28.48,2.48,1.38,3.38.87.88,2.03,1.37,3.27,1.37,1.22,0,2.42-.52,3.32-1.42.89-.9,1.4-2.1,1.39-3.3-.02-2.54-2.1-4.63-4.65-4.65l-.04-.5v.5Zm45.52-15.65c-2.54,0-4.69,2.15-4.7,4.69,0,2.52,2.11,4.65,4.62,4.65,2.66,0,4.74-2.02,4.76-4.6.01-2.6-2.07-4.72-4.64-4.75l-.04-.5v.5Zm22.85,68.29c-.04-.75-.65-1.34-1.4-1.34s-1.4.63-1.4,1.4v4.8c0,.36,0,.84-.04.93-.1.06-.59.06-.91.06h-33.37c-.11,0-.23,0-.29.03-.63.05-1.2.44-1.48,1-.29.6-.23,1.29.16,1.9.29.44.79.7,1.34.7.04,0,.08,0,.12,0h3.87c10.02,0,23.56,0,32.48.01h0c.49,0,1.05-.06,1.4-.48.46-.54.41-1.43.11-3.33-.3-1.87-.5-3.79-.6-5.69Z"/>
</svg>