<?xml version="1.0" encoding="UTF-8"?>
<svg id="Layer_1" data-name="Layer 1" xmlns="http://www.w3.org/2000/svg" viewBox="0 0 100 100">
  <defs>
    <style>
      .cls-1 {
        fill: #eee9dc;
      }
    </style>
  </defs>
  <path class="cls-1" d="m35.36,96.8c-2.19,0-2.95-.7-3.27-2.97-.96-6.74-1.84-12.69-2.71-18.2-.04-.17-.43-.52-.62-.55-2.31-.36-2.69-.79-2.7-3.05,0-.6,0-1.19,0-1.79,0-1.03.02-2.07-.02-3.1-.03-.83.17-1.47.59-1.9.43-.44,1.05-.66,1.9-.66h3.84c-.19-.2-.37-.39-.57-.58-3.37-3.22-5.26-7.22-5.63-11.88-.07-.87-.06-1.83.5-2.45.52-.57,1.34-.64,1.99-.64.17,0,.35,0,.55.02,4.59.27,8.58,2.15,11.88,5.6.25.26.44.54.61.83,0-.08,0-.15,0-.23-.03-.63-.06-1.29.05-1.94.71-4.22-.67-7.57-4.21-10.25-1.48-1.12-2.75-2.51-3.98-3.87l-.73-.79c-2-2.17-2.8-5.14-2.12-7.96.68-2.84,2.67-5.06,5.46-6.08.95-.35,1.94-.53,2.94-.53,1.27,0,2.61.28,3.97.84.2.08.46.13.73.13s.53-.04.72-.13c1.33-.57,2.67-.87,3.97-.87,3.03,0,5.71,1.57,7.54,4.41.06.09.13.17.22.26-.04-.11-.07-.22-.11-.34-.3-.92-.61-1.87-.97-2.77-.56-1.4-.33-2.49.76-3.51,1.14-1.08,2.26-2.21,3.35-3.31.95-.96,1.9-1.92,2.87-2.85.54-.52.62-.91.34-1.64-1.55-3.98-.34-8.04,3.1-10.34,1.34-.9,2.87-1.37,4.42-1.37,2.2,0,4.39.94,6.15,2.66,1.83,1.78,3.74,3.69,6.21,6.2,2.69,2.73,3.3,6.05,1.78,9.6-.28.66-.2.88.25,1.29.67.62,1.3,1.28,1.92,1.92l.51.52c.93.96.92,2.04-.01,2.98-5.1,5.11-10.21,10.23-15.32,15.33-.49.49-1.02.73-1.57.73s-1.05-.23-1.54-.68l-.11-.1c-.13-.11-.28-.24-.39-.41-1.87-2.76-4.51-3.1-8.04-3.29-.31-.02-.61-.02-.91-.02-3.74,0-6.58,1.29-9.5,4.33-2.77,2.88-4.36,5.42-3.73,9.22.13.8.1,1.62.06,2.41,0,.21-.02.41-.02.62.15-.34.31-.67.58-.96,3.35-3.54,7.44-5.44,12.16-5.65.11,0,.21,0,.31,0,.93,0,1.56.21,1.98.67.46.5.62,1.23.53,2.36-.4,4.73-2.29,8.73-5.61,11.89-.3.28-.65.45-.99.61h2.08c.5,0,1,0,1.49,0,2.42.03,3.06.66,3.08,3.06v.12c.01,1.5.02,3,0,4.5-.03,1.95-.75,2.69-2.63,2.76-.65.02-.82.21-.94,1.01-.52,3.66-2.34,16.47-2.34,16.47l-.03.28c-.4,3.58-.91,4.04-4.47,4.04h-8.21c-2.46,0-4.92,0-7.38,0Zm-1.11-18.36s1.4,10.18,1.8,13.09c.12.85.2,1.03.82,1.03,2.15-.02,4.28-.03,6.41-.03,2.42,0,4.85,0,7.27-.04.15-.03.52-.34.56-.5.43-2.81.83-5.63,1.23-8.46.34-2.42.68-4.83,1.05-7.25.05-.35.15-1,0-1.17-.07-.08-.29-.13-.58-.13-.08,0-.17,0-.26.01-.07,0-.13,0-.2,0-.45,0-.81-.13-1.06-.39-.41-.42-.41-1.04-.4-1.53,0-.14,0-.28,0-.41-.03-.47-.02-1.05.37-1.48.27-.29.67-.44,1.19-.44.32,0,.54.01.77.01.3,0,.61,0,.91,0,.31,0,.62-.01.93-.01.41,0,.82,0,1.23.04.07,0,.14,0,.21,0,.18,0,.42-.02.52-.12.06-.06.14-.23.12-.76v-.21c-.05-.87-.06-1-.8-1-4.28.02-8.54.03-12.81.03s-8.3-.01-12.46-.03h0c-.75,0-.77.15-.81,1.08v.16c-.03.45.05.62.11.69.09.09.31.14.63.14,1.18-.02,2.31-.03,3.44-.03h3.49c.93,0,1.85,0,2.78-.01h0c1.35,0,1.94.57,1.98,1.86.02.61-.02,1.38-.52,1.9-.36.37-.9.55-1.64.55-.08,0-.17,0-.26,0-.92-.04-1.85-.06-2.79-.06-.68,0-1.37,0-2.08.01-.54,0-1.08.01-1.63.01l.48,3.41Zm-3.64-24.82c.04,2.03,1.21,4.46,3.21,6.6,2.27,2.44,5.12,3.96,7.45,4.01-.1-2.07-1.38-4.56-3.48-6.76-2.27-2.37-4.99-3.84-7.1-3.84h-.08Zm15.6,10.61c2.12,0,4.8-1.45,7.01-3.79,2.08-2.2,3.33-4.72,3.42-6.85-2.41.21-5.1,1.65-7.28,3.94-2.01,2.11-3.21,4.57-3.3,6.69.05,0,.15,0,.15,0Zm-7.14-36.22c-1.33,0-2.62.58-3.47,1.56-1.55,1.8-1.5,4.16.12,5.88,2.42,2.57,4.99,5.09,7.48,7.52l.14.14s.27.11.48.11c.01,0,.03,0,.03,0,1.22-1.1,2.42-2.27,3.58-3.4l.62-.6h-1.95c-.59,0-1.17,0-1.76,0h-.15c-.54,0-2.2,0-2.39-1.57-.1-.86.39-1.87.88-2.45.98-1.15,2.13-2.3,3.51-3.51.7-.62,1.6-.97,2.22-1.16.9-.27,1.81-.47,2.77-.68.17-.04.34-.07.51-.11-.82-1.07-2.11-1.73-3.47-1.73-.83,0-1.61.25-2.27.72-.91.65-1.61.93-2.32.93s-1.41-.28-2.2-.89c-.66-.51-1.48-.77-2.38-.77Zm42.18-3.26c-.19,0-.81.62-1.4,1.21l-9.86,9.86c-.62.62-1.2,1.2-1.19,1.4,0,.16.45.55.94.95l12.43-12.41c-.4-.53-.78-1.01-.91-1.01Zm-20.96,10.23s0,0,0,0c-.58-.62-1.03-1.1-1.54-1.53-.25-.22-.66-.39-.92-.39-.02,0-.05,0-.07,0-2.94.47-5.55.96-7.98,1.49-.27.06-.54.23-.82.42h11.33Zm8.39-19.49c-.21,0-.51.11-.64.24-2.72,2.68-5.54,5.49-8.37,8.37-.19.2-.34.52-.34.63.12.37.23.78.34,1.19.35,1.27.71,2.59,1.4,3.59.87,1.26,2.01,2.36,3.21,3.52.41.4.83.8,1.25,1.22l1.85-1.86c3.51-3.54,6.93-6.98,10.31-10.44.03-.06.06-.36.02-.45-2.48-2.82-5.07-5.45-8.97-6.01h-.06Zm-.74-4.53c.59,0,1.19.17,1.74.34l.83.26c3.03.96,6.17,1.95,8.3,4.86.38.52.9.97,1.45,1.45.06.05.12.1.18.15.36-1.59.01-2.67-1.17-3.89-1.84-1.89-3.93-4.04-6.09-6.05-.65-.61-1.51-1.09-2.3-1.29-.34-.09-.68-.13-1.01-.13-1.19,0-2.25.58-3.14,1.71-.79.99-.95,2.06-.49,3.16.5-.39,1.07-.59,1.7-.59Z"/>
  <path class="cls-1" d="m47.14,75.05c-.18,0-.36-.01-.56-.03-.14.02-.27.03-.39.03-1.52,0-1.54-1.29-1.55-1.99,0-.15,0-.3-.02-.44-.05-.63.07-1.09.36-1.4.4-.43,1-.43,1.32-.43h.35c.11,0,.22,0,.32-.01.14-.02.26-.02.38-.02,1.52,0,1.55,1.26,1.56,1.94,0,.13,0,.25.01.38.04.67-.09,1.16-.41,1.5-.4.43-.98.48-1.38.48Z"/>
</svg>