<?xml version="1.0" encoding="UTF-8"?>
<svg id="Layer_1" data-name="Layer 1" xmlns="http://www.w3.org/2000/svg" viewBox="0 0 100 100">
  <defs>
    <style>
      .cls-1 {
        fill: #9daf82;
      }
    </style>
  </defs>
  <path class="cls-1" d="m82.81,61.5c-.16-.73-.31-1.44-.46-2.13l-.03-.17c-.33-1.58-.64-3.06-1.06-4.51-2.11-7.26-6.44-13.19-12.88-17.63-.9-.62-1.31-1.34-1.41-2.49-.85-9.77-5.17-17.75-12.84-23.72l-1.85-1.47.8-.34c4.44-1.9,8.83-2.87,13.04-2.87,4.7,0,9.3,1.2,13.68,3.58,11.67,6.33,17.33,16.7,16.36,30-.65,8.98-4.88,16.39-12.54,22.05l-.64.47-.17-.78Zm-16.87-51.12c-1.56,0-3.08.15-4.53.43l-.91.18.63.68c5.54,5.97,8.83,13.07,9.79,21.11.07.59.48,1.32.94,1.67,6.36,4.84,10.78,11.06,13.15,18.49.07.23.15.47.23.7l.29.85.59-.68c5.77-6.61,9.06-18.84,2.65-30.06-5.63-9.86-15.49-13.38-22.83-13.38Z"/>
  <path class="cls-1" d="m16.9,62.1c-7.53-5.51-11.78-12.78-12.64-21.61-1.18-12.22,3.56-22.24,13.69-28.98,5.07-3.37,10.52-5.08,16.21-5.08,4.18,0,8.58.92,13.08,2.75l.75.3-.59.55-.39.37c-.23.22-.41.39-.6.54-7.88,6.09-12.28,14.24-13.08,24.23-.05.68-.52,1.48-1.09,1.87-6.17,4.21-10.47,9.84-12.78,16.71-.51,1.51-.81,3.05-1.13,4.69-.14.72-.28,1.44-.44,2.15-.04.18-.07.36-.11.6l-.23,1.4-.68-.5ZM34.64,10.53c-6.52,0-15.56,2.86-21.39,10.9-8.15,11.26-5.55,25.21,1.04,32.62l.62.7.26-.9c2.27-7.68,6.78-14.15,13.4-19.22.43-.33.83-1.02.89-1.58.94-8.04,4.24-15.16,9.79-21.17l.59-.64-.84-.22c-1.29-.34-2.76-.51-4.38-.51Z"/>
  <path class="cls-1" d="m50.36,95.02c-5.63,0-11.26-1.78-16.73-5.29-7.81-5.01-12.4-12.61-13.64-22.58l-.1-.83.79.27c.57.2,1.11.39,1.63.58l.1.04c1.14.41,2.21.8,3.28,1.12,3.06.9,6.16,1.36,9.19,1.36,4.77,0,9.58-1.13,14.31-3.35.33-.16.77-.24,1.22-.24.31,0,.76.04,1.18.23,4.79,2.24,9.63,3.37,14.39,3.37,4.24,0,8.55-.9,12.8-2.68.23-.1.48-.17.8-.26.18-.05.35-.1.55-.16l.76-.23-.1.79c-1.26,10.24-6.04,17.96-14.19,22.94-5.34,3.26-10.79,4.91-16.22,4.91Zm-24.68-21.6c2.6,8.05,11.32,16.56,22.95,17.27.57.04,1.14.05,1.71.05,13.1,0,22.04-8.99,24.81-17.35l.29-.89-.91.22c-2.88.7-5.77,1.05-8.61,1.05-4.76,0-9.51-.99-14.14-2.95-.53-.22-.97-.33-1.4-.33s-.84.1-1.34.31c-4.62,1.97-9.37,2.97-14.11,2.97-2.31,0-4.67-.24-7.01-.71-.54-.11-2.5-.48-2.5-.48l.27.83Z"/>
  <path class="cls-1" d="m50.2,62.91c-.54,0-1.08-.2-1.68-.64-7.97-5.74-12.43-13.66-13.24-23.53-.11-1.35.73-1.87,1.53-2.26,4.27-2.06,8.69-3.06,13.5-3.06h.16c4.49,0,8.9,1.03,13.11,3.06.8.39,1.65.91,1.54,2.25-.79,9.86-5.24,17.78-13.22,23.54-.61.44-1.15.64-1.69.64Zm-10.68-22.56c1.02,7.14,4.25,12.88,9.9,17.53.31.25.56.37.78.37.23,0,.5-.13.84-.41,2.96-2.47,5.2-5.15,6.84-8.21,1.6-2.99,2.58-6.07,2.98-9.43l.03-.25-.18-.18c-.08-.08-.15-.13-.22-.17l-.05-.03-.06-.02c-.57-.15-1.18-.33-1.78-.51-1.92-.56-3.85-1.13-5.78-1.41-.99-.14-2-.22-3.01-.22-3.14,0-6.32.68-9.73,2.07-.15.06-.27.13-.36.19l-.33.25.13.31v.11Z"/>
  <path class="cls-1" d="m35.39,34.12c.09-.53.16-1.02.22-1.5.14-.98.27-1.9.49-2.78,1.93-7.66,6.18-13.81,12.64-18.3.53-.37,1-.54,1.47-.54s.94.17,1.45.53c7.2,5.03,11.62,12.02,13.14,20.77.07.39.05.76.03,1.19,0,.2-.02.41-.02.64v.8l-.73-.32c-4.7-2.07-9.23-3.08-13.86-3.08s-9.3,1.03-14.11,3.16l-.87.39.15-.94Zm14.84-6.66c2.89,0,5.71.33,8.6,1l.95.22-.35-.91c-1.84-4.81-4.76-8.81-8.7-11.86-.13-.1-.24-.17-.34-.21l-.19-.08-.19.08c-.11.04-.23.12-.38.24-3.89,3.04-6.76,6.92-8.53,11.52-.04.11-.08.22-.12.33l-.29.87.9-.2c2.94-.66,5.76-.99,8.64-.99Z"/>
  <path class="cls-1" d="m34.56,67.62c-4.43,0-8.79-.97-12.95-2.9-1.46-.67-1.96-1.57-1.8-3.2.88-8.69,4.71-15.88,11.4-21.39.23-.19.48-.37.8-.6l1.3-.95.1.89c1.14,10.32,5.69,18.29,13.91,24.37l.29.21-.29,1-.27.08c-.58.18-1.15.37-1.72.56l-.1.03c-1.33.45-2.7.91-4.11,1.2-2.2.45-4.41.68-6.56.68Zm-4.69-20.49c-3.22,3.92-5.19,8.47-5.84,13.52l-.02.13.05.12c.05.13.2.4.38.53l.05.04.06.02c3.15,1.37,6.48,2.07,9.92,2.07.63,0,1.27-.02,1.91-.07.87-.06,1.74-.2,2.71-.35l.97-.15-.67-.72c-4.09-4.4-6.91-9.3-8.62-14.97l-.28-.93-.62.75Z"/>
  <path class="cls-1" d="m65.9,67.62c-3.78,0-7.64-.75-11.49-2.24-.29-.11-.57-.25-.84-.4-.19-.1-.27-.27-.33-.41-.03-.07-.06-.14-.1-.22l-.19-.39.35-.26c8.02-5.95,12.65-14.11,13.77-24.26l.1-.9,1.23.9c.3.22.54.39.77.58,6.92,5.65,10.8,13.08,11.54,22.1.06.77-.03,1.64-1.18,2.2-4.46,2.18-9.05,3.29-13.63,3.29Zm3.79-20.34c-1.79,5.84-4.61,10.74-8.63,15l-.67.71.96.16c1.52.26,3.04.39,4.52.39,3.46,0,6.88-.71,10.16-2.11l.16-.07.09-.15c.06-.1.16-.32.16-.52-.7-5.17-2.67-9.71-5.86-13.58l-.61-.75-.28.92Z"/>
</svg>