<?xml version="1.0" encoding="UTF-8"?>
<svg id="Layer_1" data-name="Layer 1" xmlns="http://www.w3.org/2000/svg" viewBox="0 0 100 100">
  <defs>
    <style>
      .cls-1 {
        fill: #eee9dc;
      }
    </style>
  </defs>
  <path class="cls-1" d="m6.46,93.32c-.69,0-1.39-.06-1.83-.51-.44-.45-.48-1.15-.46-1.83.01-.53.02-1.07.02-1.61,0-1.6,0-3.26.38-4.83.99-4.07,3.81-6.56,8.18-7.19.17-.02.33-.05.53-.09-2.2-2.06-3.19-4.43-3.01-7.21.15-2.39,1.15-4.42,2.96-6.02,1.66-1.46,3.78-2.27,5.96-2.27,2.4,0,4.67.95,6.4,2.67,3.56,3.56,3.37,8.33-.49,12.84.25.15.49.22.69.22.53,0,.84-.57,1.01-1.04,1.97-5.7,7.11-9.48,13.1-9.63,2.71-.07,5.45-.11,8.16-.11s5.4.04,8.08.1c6.18.16,11.54,4.25,13.34,10.17.18.58.33.58.48.58.09,0,.2-.02.33-.05.45-.11.91-.18,1.44-.26-2.24-2.14-3.21-4.58-2.97-7.41.2-2.33,1.21-4.31,3-5.87,1.65-1.44,3.74-2.23,5.9-2.23,2.29,0,4.48.88,6.17,2.47,2.01,1.89,2.94,4.25,2.77,7.01-.14,2.24-1.08,4.13-3.04,6.04.19.05.36.08.53.11,4.74.69,8.25,4.65,8.35,9.42.02.87.01,1.73.01,2.6,0,.61,0,1.22,0,1.83,0,.68-.17,1.2-.53,1.56-.35.36-.87.54-1.53.54h-13.31c-4.08,0-8.16,0-12.24,0-1.79,0-2.08-1.1-2.13-2.28-.02-.48-.04-.98-.11-1.08-.09-.05-.57-.06-1.03-.06h-12.98c-4.52,0-9.03,0-13.55-.03h0c-.57,0-.89.07-1.02.21-.13.14-.18.44-.16.9.05.84-.1,1.39-.46,1.77-.47.5-1.22.57-1.88.57-4.05,0-8.11,0-12.16,0-4.3,0-8.6,0-12.9,0Zm12.19-12.45c-1.76,0-3.36.02-4.88.06-2.81.08-4.94,1.72-5.68,4.38-.18.64-.19,1.34-.2,2.08,0,.46-.02.92-.06,1.37-.05.49.02.68.08.75.07.08.26.17.78.17,3.43-.03,6.83-.04,10.23-.04h7.92c-.69-.33-1.05-1.01-1.03-2.02.01-1.18.01-2.35,0-3.53v-1.49q0-1.65-1.62-1.67c-1.84-.03-3.68-.05-5.53-.05Zm67.47,8.78c1.31,0,2.18,0,2.43-.25.24-.24.23-1.09.21-2.38-.06-3.65-2.63-6.23-6.26-6.26-1.41-.01-2.82-.02-4.23-.02-1.82,0-3.64.01-5.46.03-.35,0-.71.07-1.09.15-.26.05-.52.1-.78.13-.48.06-.69.21-.67.94.03,1.86.02,3.7,0,5.42-.01,1.25-.27,1.92-1.02,2.23,3.29,0,16.89,0,16.89,0Zm-37.98-19.26c-2.61,0-5.3.02-7.98.07-4.97.08-9.2,3.47-10.28,8.24-.3,1.33-.32,2.72-.34,4.19,0,.8-.02,1.62-.08,2.43-.03.39,0,.65.11.76.11.11.37.17.79.17,2.83-.02,5.63-.03,8.42-.03h9.05s9.21,0,9.21,0c2.79,0,5.57,0,8.36.03h0c.48,0,.76-.07.89-.2.12-.13.17-.41.15-.83-.04-.75-.04-1.51-.04-2.25,0-.87,0-1.77-.07-2.64-.48-5.62-4.88-9.78-10.47-9.88-2.53-.04-5.13-.07-7.72-.07Zm-29.08-5.03c-1.44,0-2.79.56-3.8,1.58-.98.99-1.52,2.28-1.51,3.63.02,2.68,2.48,5.05,5.27,5.07h0c1.46,0,2.85-.58,3.86-1.6.97-.98,1.51-2.25,1.5-3.59-.01-2.76-2.45-5.1-5.31-5.11v-.5s0,.5,0,.5Zm58.6,0c-1.42,0-2.76.54-3.76,1.52-1,.98-1.55,2.28-1.55,3.67,0,2.71,2.49,5.1,5.33,5.1,2.9-.01,5.24-2.33,5.24-5.16,0-2.82-2.35-5.12-5.24-5.13l-.02-.5v.5Z"/>
  <path class="cls-1" d="m48.35,67.12c-4.55,0-8.74-2.54-11.21-6.81-2.17-3.74-2.55-8.04-1.05-11.79,1.47-3.68,4.62-6.47,8.65-7.65,1.3-.38,2.59-.58,3.84-.58,3.22,0,6.14,1.23,8.7,3.66,2.29,2.18,3.63,4.74,3.99,7.56,0-.29.02-.57.04-.86.04-.45.3-.84.53-1.17.1-.14.2-.28.27-.43.06-.11.13-.23.2-.35.08-.13.22-.36.23-.44-2.02-6.05-7.96-10.32-14.45-10.32-.19,0-.39,0-.58.01-6.29.24-12.43,5.02-13.86,10.71,1.31.5,1.43,1.75,1.39,2.69-.04.98-.03,1.99-.02,2.96v1.08c0,.66-.17,1.17-.5,1.53-.35.37-.86.56-1.52.56h-1.16c-2.46-.02-3.82-.88-4.4-2.77-.65-2.11.06-4.21,1.88-5.63.32-.25.62-.76.8-1.34,1.74-5.75,5.41-9.88,10.92-12.28,2.25-.98,4.66-1.48,7.15-1.48,8.37,0,16.01,5.69,18.17,13.54.25.89.59,1.42,1.24,1.86,1.03.71,1.66,1.87,1.72,3.18.08,1.48-.56,2.93-1.69,3.9-.44.38-.84.89-1.09,1.42-1.67,3.49-4.6,5.58-8.7,6.19-1.07.16-1.96.39-2.85.99-2,1.35-4.3,2.06-6.66,2.06Zm-.3-22.98c-1.53,0-3,.36-4.39,1.07-2.26,1.16-3.9,3.14-4.62,5.56-.75,2.54-.41,5.26.96,7.66,1.86,3.24,4.77,5.1,7.98,5.1h0c.89,0,1.78-.14,2.67-.43-.15-.13-.29-.19-.45-.19-.13,0-.28.04-.46.12-.16.07-.35.11-.57.11-.53,0-1.26-.23-1.6-.65-.43-.55-.37-1.67-.03-2.2.54-.83,1.26-1.64,2.21-2.47.33-.29.91-.49,1.4-.49.23,0,.43.05.59.14.54.31,1.12,1.21,1.01,1.87-.08.51.02.66.62.87.38.14.66.24.89.24.15,0,.34-.04.59-.29,2.52-2.64,3.29-7.27,1.76-10.55-1.57-3.36-4.85-5.45-8.55-5.45Zm13.2,10.71c-.05.36-.11.71-.19,1.08-.22,1.04-.58,2.05-.95,3.12-.07.19-.13.38-.2.58,1.09-.51,1.95-1.25,2.67-2.29-1.15-.53-1.34-1.55-1.33-2.48Z"/>
  <path class="cls-1" d="m61.16,36.9c-.24,0-.49-.02-.74-.05-.21-.02-.42-.04-.62-.04h-.53s.04-.54.04-.54c.01-.2,0-.41,0-.62-.01-.54-.03-1.11.23-1.6.53-1.03,1.13-2.04,1.71-3.01.48-.8.95-1.6,1.4-2.42.12-.22.12-.68.05-.8-2.71-2.91-3.9-6.79-3.25-10.63.71-4.19,3.49-7.86,7.62-10.05,2.6-1.38,5.61-2.11,8.71-2.11,4.43,0,8.62,1.46,11.81,4.12,3.11,2.59,4.83,6.09,4.84,9.86.02,3.77-1.68,7.29-4.77,9.91-3.29,2.79-7.17,4.21-11.86,4.33-.46-.06-.85-.11-1.23-.17-.89-.13-1.8-.26-2.7-.33-.15-.01-.31-.02-.47-.02-.57,0-1.04.08-1.39.24-1.26.57-2.5,1.17-3.75,1.78-1.38.67-2.8,1.36-4.23,1.99-.25.11-.54.16-.89.16Zm14.68-28.2c-3.3,0-6.39.99-8.71,2.78-3.37,2.6-4.66,5.69-3.96,9.46.36,1.94,1.39,3.71,3.06,5.25,1,.92,1.13,1.9.41,3.01-.43.65-.82,1.33-1.22,2l-.07.12c.42-.2.83-.4,1.25-.6.95-.46,1.93-.94,2.94-1.35.45-.18.98-.28,1.5-.28.26,0,.52.03.75.08,1.42.31,2.81.47,4.12.47,3.02,0,5.7-.8,8.2-2.46,2.82-1.87,4.52-4.64,4.64-7.61.13-2.95-1.3-5.83-3.92-7.91-2.39-1.9-5.59-2.94-9-2.94Z"/>
  <path class="cls-1" d="m69.82,21.48c-.33,0-.66,0-.99-.01-1.18-.03-1.93-.72-1.96-1.8-.01-.5.14-.94.45-1.25.35-.36.88-.55,1.52-.55,2.48,0,4.96-.01,7.44-.01,2.06,0,4.11,0,6.17.01.67,0,1.19.19,1.54.55.32.33.47.79.45,1.35-.07,1.72-1.6,1.72-2.11,1.72h-6.75s-2.87,0-2.87,0h-2.89Z"/>
  <path class="cls-1" d="m69.18,16.61c-.18,0-.37-.02-.55-.04-1.1-.13-1.76-.82-1.76-1.84,0-1.06.72-1.72,1.88-1.73,1,0,6.5,0,6.5,0l.49-.02h3.61c.96,0,1.93,0,2.89,0,.59,0,2.17,0,2.2,1.77,0,.55-.14,1-.46,1.31-.47.48-1.19.54-1.69.54-2.29,0-4.58,0-6.87,0h-6.25Z"/>
  <path class="cls-1" d="m74.02,26.37c-1.66,0-1.94-1.09-1.97-1.74-.02-.69.23-1.12.45-1.35.33-.35.82-.54,1.42-.55,1.42-.02,2.83-.03,4.25-.03s2.9.01,4.36.03c.54,0,1,.17,1.34.46.26.23.58.67.57,1.41-.02,1.13-.72,1.77-1.94,1.77h-8.48Z"/>
</svg>