<?xml version="1.0" encoding="UTF-8"?>
<svg id="Layer_1" data-name="Layer 1" xmlns="http://www.w3.org/2000/svg" viewBox="0 0 100 100">
  <defs>
    <style>
      .cls-1 {
        fill: #eee9dc;
      }
    </style>
  </defs>
  <path class="cls-1" d="m82.69,62.06c-1.97,0-1.99-2.04-2-2.81v-.71c-.02-1.01-.03-2.05,0-3.09.01-.35-.03-.59-.13-.69-.1-.1-.33-.16-.67-.16-4.54.01-9.08.02-13.61.02s-9.07,0-13.6-.02h0c-.33,0-.54.05-.63.13-.06.06-.12.22-.11.62.03.98.02,1.96.02,2.94,0,.5,0,1,0,1.5,0,.75-.19,1.33-.58,1.72-.35.35-.83.53-1.42.53-.88,0-1.35-.39-1.59-.71-.28-.38-.43-.91-.42-1.57,0-.58,0-1.17,0-1.75,0-.89-.01-1.79.01-2.68.01-.41-.05-.56-.11-.62-.07-.07-.26-.11-.52-.11-4.65.01-9.29.02-13.93.02s-9.02,0-13.54-.01c-.19,0-.43.02-.53.12-.09.09-.13.31-.13.63.02,1.37.01,2.73,0,4.1v.21c-.02,1.96-1.08,2.38-1.97,2.38-.82-.02-2.09-.35-2.09-2.4v-2.39c0-1.33,0-2.66,0-3.99.01-1.99.71-2.7,2.69-2.71,2.19,0,14.71,0,14.71,0h7.76c2.23-.01,4.46,0,6.69.03h0c.6,0,.8-.1.87-.18.1-.11.13-.39.09-.79-.06-.6-.05-1.2-.03-1.77,0-.25.01-.5.01-.75q0-1.33-1.22-1.53l-.24-.04c-3.04-.51-5.56-1.01-7.91-1.58-1.08-.26-2.08-.8-3.04-1.32l-.28-.15c-2.57-1.38-3.8-3.5-3.76-6.5.1-6.85.1-13.67,0-20.28-.05-3,1.17-5.1,3.82-6.6,2.42-1.37,5.18-2.24,8.69-2.74,2.1-.3,4.16-.45,6.14-.45,3.95,0,7.76.61,11.32,1.81.98.33,2.02.8,3.27,1.49,2.51,1.38,3.71,3.48,3.68,6.42-.08,6.21-.09,12.93,0,20.55.03,2.83-1.15,4.9-3.62,6.32-2.82,1.62-6.04,2.56-10.11,2.95h-.13q-2.58.26-2.58,2.85c0,1.1,0,1.89.2,2.09.2.2.98.2,2.08.2h27.46c2.5,0,3.07.58,3.07,3.12v.51c0,1.7,0,3.39,0,5.09,0,2.3-1.13,2.78-2.06,2.78h0Zm-47.02-29.87c.04,1.17.07,2.28-.07,3.4-.24,1.88.53,3.06,2.56,3.94.46.2.93.39,1.41.56,2.98,1.04,6.22,1.54,9.9,1.54,1.64,0,3.37-.1,5.3-.3,3.29-.34,5.84-1.13,8.04-2.46,1.13-.68,1.56-1.43,1.48-2.58-.07-1.01-.06-2.02-.04-3,0-.53.02-1.06.01-1.58,0-.1-.01-.21-.02-.31-4.75,1.89-9.54,2.85-14.25,2.85s-9.52-.96-14.32-2.85c0,.26.01.53.02.79Zm0-11.51c.04,1.12.08,2.17-.08,3.23-.3,2.04.53,3.27,2.87,4.22.43.18.86.35,1.3.5,2.96,1.02,6.16,1.52,9.8,1.52,1.52,0,3.12-.09,4.87-.26,2.45-.25,5.62-.76,8.38-2.55,1.22-.79,1.29-1.19,1.29-1.23.13-1.65.11-3.28.09-5.01,0-.38,0-.77-.01-1.15-4.74,1.88-9.52,2.84-14.21,2.84s-9.52-.96-14.31-2.86c0,.25.02.5.02.75Zm14.39-10.7c-.47.02-.94.04-1.41.05-1.06.03-2.15.07-3.21.2-1.75.21-3.13.49-4.35.88-1.68.53-3.07,1.14-4.27,1.84-.53.32-1.17.8-1.18,1.33-.01.43.39.93,1.15,1.45.66.45,1.26.77,1.83.98,3.59,1.35,7.34,2.03,11.16,2.03,3.17,0,6.47-.47,9.81-1.4,1.58-.44,3.09-1.39,4.08-2.07.26-.18.57-.46.59-.84.02-.33-.19-.71-.6-1.06-.64-.55-1.39-1.02-2.15-1.36-3.97-1.76-8.21-2.01-11.46-2.04Z"/>
  <path class="cls-1" d="m17.88,93.36c-.76,0-1.55-.04-2.35-.12-2.22-.22-4.62-.78-7.15-1.68-2.5-.89-3.79-2.89-3.73-5.79.1-4.58.1-9.38,0-14.29-.05-2.63,1.1-4.48,3.52-5.64,2.67-1.28,5.52-1.93,8.47-1.93.94,0,1.9.07,2.85.2,2.19.3,4.41.9,6.6,1.77,2.42.96,3.67,2.97,3.53,5.65-.09,1.63-.06,3.31-.04,4.93,0,.73.02,1.46.02,2.19s0,1.52-.01,2.28c-.01,1.72-.03,3.5.03,5.24.08,2.15-.88,3.81-2.84,4.94-2.6,1.49-5.6,2.25-8.9,2.25Zm-9.09-8c0,1.91.14,2.12,1.89,2.8,1.95.75,3.98,1.12,6.22,1.12h0c1.34,0,2.76-.14,4.25-.41,1.3-.24,2.56-.8,3.51-1.26.37-.18.79-.69.84-1.03.11-.75.09-1.55.07-2.41,0-.14,0-.28-.01-.42-2.75,1.04-5.44,1.55-8.23,1.55s-5.6-.51-8.55-1.56v1.62Zm.01-9.63c.01.61.03,1.14-.03,1.68-.13,1.22.32,1.94,1.47,2.34l.67.24c.89.31,1.8.64,2.7.78,1.42.22,2.7.33,3.91.33,2.55,0,4.78-.49,6.81-1.5.54-.27,1.08-.8,1.14-1.13.15-.75.12-1.57.09-2.43,0-.15-.01-.3-.02-.45-2.71,1-5.47,1.51-8.21,1.51-2.8,0-5.6-.5-8.54-1.54,0,.06,0,.11,0,.17Zm9.15-2.83c.13,0,.26,0,.39-.01,2.6-.21,4.72-.59,6.57-1.79.58-.37.6-.57.6-.59,0-.03-.02-.22-.56-.64-.18-.14-.41-.3-.65-.4-2.39-.97-4.79-1.47-7.14-1.47s-4.77.51-7.1,1.51c-.49.21-1.02.76-1.04.96,0,.18.51.71,1.11,1.01,1.89.95,4.08,1.41,6.71,1.41h.37s.75,0,.75,0Z"/>
  <path class="cls-1" d="m49.54,93.18c-3.04,0-5.65-.49-7.99-1.5-2.9-1.25-4.2-3.22-4.1-6.2.16-4.82.09-9.63.02-14.28-.03-2.21.91-3.87,2.81-4.95,2.7-1.53,5.75-2.31,9.08-2.31.95,0,1.94.06,2.94.19,2,.25,4.18.82,6.48,1.71,2.53.97,3.78,2.94,3.63,5.71-.09,1.63-.07,3.29-.05,4.91,0,.74.02,1.48.02,2.22s0,1.5,0,2.26c0,1.73-.02,3.52.02,5.28.04,1.82-.7,3.26-2.28,4.4-1.83,1.33-4.1,2.11-6.94,2.39-1.34.13-2.53.2-3.65.2Zm-7.91-9.41c-.34,3.71-.2,3.75,2.72,4.69,1.85.59,3.73.89,5.6.89,2.04,0,4.08-.36,6.07-1.06,1.2-.42,1.95-1,2.3-1.75.33-.71.31-1.61-.06-2.73-2.66,1.02-5.4,1.53-8.14,1.53s-5.63-.53-8.5-1.57Zm-.11-6.89c0,2.25.2,2.53,2.34,3.24,2.02.67,4.07,1.01,6.08,1.01s3.99-.33,5.96-.98c1.27-.42,2.06-.99,2.42-1.74.33-.7.32-1.62-.06-2.79-2.64.99-5.36,1.49-8.08,1.49s-5.7-.53-8.66-1.57v1.33Zm8.42-8.88c-2.36,0-4.75.5-7.1,1.49-.23.1-.45.32-.61.51-.23.25-.23.65,0,.9.21.23.47.49.74.63,1.85.93,4.02,1.39,6.65,1.4,3.13,0,5.41-.45,7.38-1.44.6-.3,1.11-.83,1.12-1.01-.02-.19-.56-.75-1.07-.96-2.36-1-4.75-1.51-7.12-1.51Z"/>
  <path class="cls-1" d="m83.07,93.21c-1.57,0-3.19-.15-4.96-.46-1.55-.27-3.23-.86-5.12-1.81-1.85-.92-2.79-2.56-2.72-4.75.05-1.77.04-3.58.03-5.32,0-.74-.01-1.47-.01-2.21,0-.74,0-1.49.02-2.23.02-1.65.04-3.36-.05-5.03-.14-2.55.99-4.36,3.44-5.55,2.66-1.29,5.52-1.94,8.52-1.94.96,0,1.95.07,2.94.2,2.16.3,4.38.88,6.6,1.75,2.31.9,3.51,2.82,3.46,5.55-.08,4.43-.13,9.19.01,14.03.08,2.87-1.2,4.85-3.93,6.07-2.53,1.13-5.22,1.68-8.23,1.68Zm-8.76-7.79c0,1.78.21,2.08,1.81,2.71,1.97.78,4.04,1.15,6.3,1.15,1.35,0,2.79-.14,4.28-.42,1.2-.22,2.4-.74,3.51-1.27.34-.16.73-.63.77-.92.11-.75.09-1.53.07-2.42,0-.15,0-.3-.01-.46-2.78,1.02-5.48,1.51-8.24,1.51s-5.61-.52-8.5-1.58v1.69Zm.02-9.79c.02.56.04,1.08-.04,1.6-.2,1.35.32,2.15,1.75,2.67,2.24.82,4.49,1.23,6.7,1.23s4.46-.42,6.64-1.26c.78-.3,1.35-.83,1.64-1.54.32-.77.3-1.71-.04-2.69-2.64.98-5.35,1.48-8.07,1.48s-5.67-.52-8.58-1.56c0,.02,0,.04,0,.07Zm8.14-7.56c-2.95,0-5.1.46-6.97,1.48-.54.3-.99.78-1.01.94.01.16.48.65,1.03.93,2.09,1.06,4.36,1.48,8.11,1.48h.36c.78-.01,3.56-.17,6.13-1.6.64-.36.87-.66.87-.83,0-.17-.24-.49-.91-.87-1.71-.96-3.68-1.43-6.39-1.52-.41-.01-.82-.02-1.22-.02Z"/>
  <ellipse class="cls-1" cx="38.53" cy="24.77" rx="1.54" ry="1.6"/>
  <ellipse class="cls-1" cx="42" cy="25.69" rx="1.54" ry="1.6"/>
  <path class="cls-1" d="m45.84,27.92c-.85,0-1.54-.72-1.54-1.6s.69-1.6,1.54-1.6,1.54.72,1.54,1.6-.69,1.6-1.54,1.6Z"/>
  <path class="cls-1" d="m38.01,37.71c-.85,0-1.54-.72-1.54-1.6s.69-1.6,1.54-1.6,1.54.72,1.54,1.6-.69,1.6-1.54,1.6Z"/>
  <path class="cls-1" d="m41.48,38.64c-.85,0-1.54-.72-1.54-1.6s.69-1.6,1.54-1.6,1.54.72,1.54,1.6-.69,1.6-1.54,1.6Z"/>
  <path class="cls-1" d="m45.32,39.26c-.85,0-1.54-.72-1.54-1.6s.69-1.6,1.54-1.6,1.54.72,1.54,1.6-.69,1.6-1.54,1.6Z"/>
</svg>