<?xml version="1.0" encoding="UTF-8"?>
<svg id="Layer_1" data-name="Layer 1" xmlns="http://www.w3.org/2000/svg" viewBox="0 0 100 100">
  <defs>
    <style>
      .cls-1 {
        fill: #eee9dc;
      }
    </style>
  </defs>
  <path class="cls-1" d="m69.43,95.35c-8.25,0-15.8-4.05-20.71-11.12-.43-.62-.88-.83-1.77-.83h-3.24c-2.54,0-5.09,0-7.63,0-2.54,0-5.08-.01-7.63-.01-5.37,0-9.51.03-13.43.09h-.15c-2.17,0-4.04-.73-5.42-2.11-1.42-1.43-2.2-3.43-2.18-5.65.11-20.07.11-40.26,0-60.01-.01-2.34.73-4.33,2.16-5.77,1.41-1.42,3.38-2.17,5.69-2.17h.15c4.04.06,8.42.09,13.77.09,3.21,0,6.42,0,9.62-.02,3.06,0,6.11-.02,9.17-.02h32.71c4.84,0,7.62,2.8,7.62,7.67v1.1c0,11.72,0,23.43-.01,35.15,0,.86.23,1.48.8,2.14,5.37,6.24,7.24,14.83,4.98,22.99-2.25,8.12-8.22,14.51-15.98,17.09-2.82.94-5.7,1.41-8.54,1.41Zm2.68-12.4c-.08.05-.21.19-.24.26-.03,1.94-.03,3.95-.02,6.11v1.04c2.89-1.53,4.48-3.88,5.93-7.09l-.88-.06c-1.66-.11-3.23-.21-4.79-.26Zm-10.67.32c1.33,2.87,2.89,5.52,5.96,7.09v-1.15c0-2.08.01-4.05-.04-5.99-.03-.03-.28-.23-.39-.27-1.48.04-2.99.15-4.58.26l-.94.06Zm-6.9,1.05c1.18,1.36,2.47,2.4,3.9,3.17-.18-.4-.38-.79-.57-1.18l-.22-.45c-.8-1.61-.94-1.84-1.45-1.84-.36,0-.9.12-1.65.3Zm28.32-.37c-.2,0-.41.08-.46.12-.54,1.06-1.08,2.22-1.61,3.35,1.53-.8,2.79-1.8,3.88-3.08-.04-.01-.08-.02-.12-.03-.6-.15-1.12-.28-1.63-.35h-.06Zm-33.54-11.64c-.21,0-.29.04-.31.05,0,0-.05.07-.02.35.32,2.63,1.11,5.06,2.35,7.22.08.14.47.35.7.35.54-.06,1.05-.2,1.6-.34.44-.12.88-.24,1.32-.31.21-.04.36-.1.41-.17.03-.04.07-.17,0-.53-.25-1.27-.46-2.55-.68-3.83l-.07-.43c-.05-.3-.07-.65-.08-1-.02-.42-.05-1.14-.21-1.26-.22-.17-.64-.19-.94-.19-.2,0-.41,0-.61.02-.17,0-.34.02-.51.02l-.43.05h-1.46c-.34,0-.69,0-1.03,0l-.02-.5v.5Zm35.88-.01c-.3,0-.4,0-.46.5-.24,2.12-.57,4.21-.86,5.97-.03.16-.1.58,0,.72.06.08.23.14.47.18.48.07.94.19,1.38.32.49.13.94.26,1.4.31h0c.26,0,.62-.18.69-.28l.35-.86c.69-1.72,1.41-3.5,1.83-5.29.05-.22.1-.43.15-.61.09-.36.19-.77.17-.88-.07-.02-.49-.05-1.21-.05h-2.9c-.3.01-.61.01-.91,0h-.1ZM12.94,31.46c-.53,0-.85.07-.99.21-.14.14-.21.46-.21,1,.03,10.5.03,21,.03,31.5v11.59c0,2.37.85,3.21,3.26,3.21h13.13s16.82,0,16.82,0c.28,0,.55-.01.85-.03-3.59-11.85-.84-21.47,8.17-28.6,4.75-3.76,9.87-5.67,15.21-5.67,4.65,0,9.52,1.45,14.49,4.3.02-.23.03-.43.03-.64,0-1.56,0-3.12,0-4.68,0-3.59-.01-7.3.03-10.96,0-.55-.06-.87-.2-1.02-.14-.14-.46-.21-.97-.21-11.76.02-23.52.03-35.28.03s-22.9,0-34.35-.03v-.5s0,.5,0,.5Zm61.01,40.83c-.64,0-1.15.02-1.62.06-.12.03-.41.29-.45.42-.05,1.05-.05,2.16-.04,3.24,0,.65,0,1.3,0,1.95,0,.42.03.48.52.51,1.99.09,4.11.24,6.29.42.06,0,.12,0,.17,0,.4,0,.52-.11.58-.51l.38-2.48c.15-1.03.31-2.06.47-3.08.04-.26.01-.4-.02-.44-.03-.04-.16-.09-.41-.09-.57.01-1.09.02-1.61.02h-2.25c-.34,0-.67-.01-1.01-.02-.33,0-.66,0-1,0Zm-14.51,0c-.32,0-.4.07-.42.09-.04.05-.08.22-.03.52l.1.62c.25,1.6.5,3.21.74,4.82.07.47.22.55.62.55.07,0,.14,0,.22-.01,2.26-.19,4.28-.33,6.16-.41.56-.02.6-.12.59-.59-.04-2.01-.04-3.56,0-5,.01-.35-.06-.46-.09-.49-.04-.04-.14-.1-.46-.1h-.11c-.48.02-.96.03-1.43.03h-2.12s-2.21,0-2.21,0c-.49,0-.98,0-1.47-.02h-.08Zm-6.39-4.44c.28,0,.57,0,.85.02h.13c.3,0,.42,0,.48-.57.23-2.15.56-4.23.86-5.98.12-.7,0-.75-.45-.83-.96-.17-1.81-.37-2.6-.62-.18-.06-.34-.09-.47-.09-.19,0-.41.04-.59.5-.2.53-.42,1.06-.65,1.59-.51,1.21-1.03,2.46-1.27,3.71-.06.33-.12.63-.18.89-.12.59-.25,1.2-.19,1.34.09.04.7.04.92.04h1.88s1.28-.02,1.28-.02Zm25.56-6.58c-2.28.2-4.33.33-6.29.42-.45.02-.49.07-.49.54.03,1.99.03,3.62,0,5.13,0,.31.06.41.08.43.03.03.12.09.44.09.57-.02,1.05-.02,1.54-.02h2.09s2.18,0,2.18,0c.5,0,1,0,1.5.02h0c.43,0,.52-.08.54-.1.04-.05.07-.2.03-.48-.28-1.81-.55-3.62-.82-5.44-.07-.51-.25-.59-.63-.59-.06,0-.12,0-.19,0Zm-18.14.04c-.15,0-.52.26-.58.4-.28,1.4-.5,2.87-.7,4.29l-.2,1.35c-.04.25,0,.38.03.43.04.05.17.1.43.1.55-.01,1.05-.02,1.55-.02h2.11s2.25,0,2.25,0c.5,0,1,0,1.5.01h0c.37,0,.46-.06.48-.08.02-.02.08-.1.07-.36,0-.7,0-1.41,0-2.11,0-1.08,0-2.17-.04-3.25-.02-.07-.22-.28-.31-.32-2.42-.23-4.59-.37-6.59-.43Zm28.43,6.54c.3,0,.6,0,.9.01h.01c.32,0,.37-.05.37-.06,0,0,.07-.08.03-.42-.28-2.57-1.07-5-2.37-7.21-.06-.1-.43-.29-.72-.29-.56.06-1.08.19-1.62.34-.4.1-.79.21-1.2.28-.23.04-.38.11-.43.18-.06.08-.06.27,0,.52.23,1.18.42,2.38.61,3.57l.09.58q.4,2.5,2.71,2.5h1.62Zm-26.23-10.9c1.43.1,2.78.19,4.12.31.06,0,.17,0,.17,0,.1,0,.28-.01.35-.08.05-.05.12-.19.11-.65-.03-1.25-.02-2.5-.02-3.75,0-.72,0-1.44,0-2.16,0-.26-.02-.52-.05-.82-2.86,1.52-4.48,3.94-5.88,7.07l1.2.08Zm9.19-6.12c0,2.18,0,4.2.03,6.22.01,0,.1.11.16.16,1.61-.07,3.24-.17,4.96-.28l.77-.05c-1.46-3.22-3.05-5.57-5.92-7.08v1.04Zm8.93,1.9c.53,1.12,1.06,2.25,1.62,3.35.04.05.24.15.32.15.55-.08,1.12-.22,1.78-.39.04-.01.09-.02.13-.03-1.11-1.33-2.37-2.33-3.86-3.08Zm-26.03,3.13c.56.14,1.08.27,1.6.35.03,0,.06,0,.1,0,.15,0,.27-.03.34-.05.59-1.16,1.14-2.33,1.72-3.57h0c-1.38.73-3.06,2.15-3.83,3.25.03,0,.05.01.08.02Zm8.2-28.85c6.6,0,13.2,0,19.81.02h0c.47,0,.75-.05.86-.17.11-.11.16-.38.15-.79-.05-2.38-.04-4.79-.04-7.12,0-1.18,0-2.35,0-3.53,0-2.28-.92-3.21-3.17-3.21h-32.78s-32.78,0-32.78,0c-2.28,0-3.21.92-3.21,3.18,0,2.64,0,5.29,0,7.93v2.45c0,.52,0,1.06.08,1.17.1.07.63.07,1.14.07h49.96Z"/>
  <path class="cls-1" d="m38.14,24.8c-3.02,0-5.32-2.25-5.35-5.24-.02-1.49.53-2.88,1.55-3.91,1-1.01,2.33-1.57,3.77-1.57,2.99,0,5.34,2.32,5.38,5.28.02,1.5-.52,2.88-1.51,3.88-.98,1-2.33,1.55-3.81,1.56h-.03Zm-.04-6.81c-.75.02-1.39.69-1.39,1.46,0,.42.13.77.39,1.03.26.26.62.4,1.05.4.87-.02,1.43-.59,1.43-1.42,0-.39-.15-.76-.44-1.04-.27-.27-.63-.42-.99-.42v-.5l-.04.5Z"/>
  <path class="cls-1" d="m22.71,24.8c-1.47,0-2.83-.57-3.81-1.58-.99-1.01-1.52-2.39-1.49-3.87.05-2.95,2.43-5.27,5.41-5.27h.13c2.89.07,5.2,2.53,5.16,5.49-.04,2.98-2.34,5.23-5.35,5.23h-.04Zm.04-6.81c-.37,0-.73.15-1,.42-.28.28-.43.66-.43,1.05,0,.84.58,1.41,1.43,1.41.9-.03,1.44-.59,1.43-1.43,0-.78-.63-1.43-1.4-1.45l-.04-.5v.5Z"/>
  <path class="cls-1" d="m53.54,24.8c-1.48,0-2.84-.55-3.83-1.54-.99-1-1.54-2.36-1.53-3.84.01-2.93,2.4-5.33,5.32-5.34,1.46,0,2.81.56,3.82,1.57,1.01,1.02,1.57,2.39,1.56,3.86-.02,3.01-2.31,5.29-5.33,5.3h-.02Zm-.02-6.81c-.38,0-.74.16-1.01.44-.28.29-.43.68-.42,1.08.03.83.59,1.36,1.43,1.36.86,0,1.42-.54,1.44-1.38,0-.4-.14-.78-.42-1.07-.27-.28-.63-.43-1.01-.43v-.5.5Z"/>
</svg>