<?xml version="1.0" encoding="UTF-8"?>
<svg id="Layer_1" data-name="Layer 1" xmlns="http://www.w3.org/2000/svg" viewBox="0 0 100 100">
  <defs>
    <style>
      .cls-1 {
        fill: #eee9dc;
      }
    </style>
  </defs>
  <g id="Group_201" data-name="Group 201">
    <g id="Group_200" data-name="Group 200">
      <path id="Path_412" data-name="Path 412" class="cls-1" d="m50.1,88.31c-.63-.63-1.64-.63-2.27,0-.63.63-.63,1.64,0,2.27.63.63,1.64.63,2.27,0,.3-.3.47-.71.47-1.13,0-.43-.17-.83-.47-1.14Z"/>
    </g>
  </g>
  <g id="Group_203" data-name="Group 203">
    <g id="Group_202" data-name="Group 202">
      <path id="Path_413" data-name="Path 413" class="cls-1" d="m81.53,61.37l-5.36-1.28v-2.12c3.08-1.94,4.95-5.32,4.95-8.96v-5.98c0-5.85-4.74-10.59-10.58-10.6-3.04,0-5.93,1.3-7.94,3.58-1.75-6.04-7.28-10.21-13.58-10.21h0c-6.3,0-11.84,4.18-13.58,10.24-3.86-4.4-10.55-4.83-14.94-.97-2.29,2.01-3.6,4.91-3.6,7.96v5.98c0,3.64,1.87,7.02,4.95,8.96v2.12l-5.36,1.28c-5.04,1.19-8.59,5.69-8.58,10.87v10.79c0,.89.72,1.61,1.61,1.61h12.84v4.82c0,.89.72,1.61,1.61,1.61h17.61c.89,0,1.61-.72,1.61-1.61s-.72-1.61-1.61-1.61h-7.17v-7.07c0-.89-.72-1.61-1.6-1.61-.89,0-1.61.72-1.61,1.6h0v7.07h-5.63v-7.24c-.01-5.43,3.71-10.15,8.99-11.4l7.9-1.89,5.08,11.56c.26.58.83.96,1.47.96h0c.64,0,1.21-.38,1.47-.96l5.08-11.54,7.87,1.88c5.29,1.25,9.01,5.97,9,11.4v1.79c-.17.4-.17.85,0,1.26v4.19h-5.6v-7.06c0-.89-.72-1.61-1.6-1.61-.89,0-1.61.72-1.61,1.6h0v7.07h-7.86c-.89,0-1.61.72-1.61,1.61s.72,1.61,1.61,1.61h18.28c.89,0,1.61-.72,1.61-1.61v-4.82h12.87c.89,0,1.61-.72,1.61-1.61v-10.79c.01-5.18-3.54-9.68-8.58-10.87Zm-11-25.73c4.08,0,7.38,3.31,7.39,7.38v.56h-4.59c-3.47,0-6.87-.91-9.88-2.64.93-3.14,3.81-5.3,7.09-5.31h0Zm-7.39,13.11c0-.16,0-4.32,0-4.32,3.16,1.56,6.64,2.37,10.17,2.37h4.59v2.21c0,4.08-3.31,7.38-7.39,7.38-4.08,0-7.38-3.31-7.38-7.38v-.26Zm-25.04-8.83c0-6.03,4.89-10.92,10.92-10.92s10.92,4.89,10.92,10.92v.21l-5.96-3.5c-.68-.4-1.54-.25-2.04.35-2.31,2.76-5.72,4.35-9.31,4.35h-4.52v-1.41Zm-18,3.5v-.4c0-4.08,3.31-7.39,7.39-7.38,3.28,0,6.16,2.16,7.09,5.31-3.01,1.73-6.41,2.64-9.88,2.64h-4.59v-.16Zm0,5.59v-2.21h4.59c3.53,0,7.01-.81,10.18-2.37v4.58c0,4.08-3.31,7.38-7.39,7.38-4.08,0-7.38-3.31-7.38-7.38h0Zm2.25,31.6v.82h-4.81v-7.13c0-.89-.72-1.61-1.61-1.61s-1.61.72-1.61,1.61v7.13h-3.21v-9.19c0-3.69,2.52-6.9,6.11-7.75l5.09-1.22,3.32,7.96c-2.14,2.66-3.3,5.96-3.29,9.37h0Zm5.14-13.29l-2.44-5.84s0-.08,0-.12v-2.04c1.6.38,3.26.38,4.85,0v2.03c0,.05,0,.1,0,.15l-2.43,5.82Zm6.32-1.23c-.93.22-1.84.54-2.71.93l1.56-3.74,5.09,1.22c.39.09.78.22,1.15.37l-5.09,1.22Zm7.97-3.35c-1.01-.63-2.12-1.09-3.28-1.37l-5.37-1.29v-2.11c1.34-.84,2.47-1.97,3.32-3.31,1.21,2.36,3.06,4.34,5.34,5.71v2.36Zm11.23,2.38l-4.01,9.12-4.02-9.13v-3.31c2.62.78,5.4.79,8.02.02v3.31h0Zm-3.99-5.95c-6.02,0-10.91-4.89-10.91-10.91v-3.71h4.52c4.07,0,7.98-1.61,10.85-4.49l6.46,3.79v4.78c-.21,5.88-5.03,10.54-10.91,10.54h0Zm7.2,1.23h0c2.29-1.36,4.15-3.34,5.37-5.71.85,1.32,1.97,2.44,3.3,3.28v2.11l-5.37,1.29c-1.17.28-2.28.74-3.3,1.38v-2.35h0Zm7.94,5.68l-5.08-1.21c.38-.16.78-.29,1.18-.38l5.08-1.22,1.57,3.76c-.88-.4-1.81-.72-2.75-.94h0Zm3.93-4.57c0-.06.01-.12.01-.18v-2.03c1.6.38,3.26.38,4.85,0v2.04s0,.06,0,.09l-2.45,5.87-2.42-5.79Zm18.8,19.91h-3.21v-7.13c0-.89-.72-1.61-1.61-1.6-.89,0-1.6.72-1.6,1.6v7.13h-4.84v-.81c0-3.4-1.15-6.7-3.28-9.36l3.33-7.98,5.1,1.22c3.59.85,6.12,4.06,6.11,7.75v9.18Z"/>
    </g>
  </g>
  <g id="Group_205" data-name="Group 205">
    <g id="Group_204" data-name="Group 204">
      <path id="Path_414" data-name="Path 414" class="cls-1" d="m44.76,46.45c-.63-.63-1.64-.63-2.27,0-.63.63-.63,1.64,0,2.27.63.63,1.64.63,2.27,0,.3-.3.47-.71.47-1.13,0-.43-.17-.83-.47-1.14Z"/>
    </g>
  </g>
  <g id="Group_207" data-name="Group 207">
    <g id="Group_206" data-name="Group 206">
      <path id="Path_415" data-name="Path 415" class="cls-1" d="m55.49,46.45c-.63-.63-1.64-.63-2.27,0-.63.63-.63,1.64,0,2.27.63.63,1.64.63,2.27,0,.3-.3.47-.71.47-1.13,0-.43-.17-.83-.47-1.14Z"/>
    </g>
  </g>
  <g id="Group_209" data-name="Group 209">
    <g id="Group_208" data-name="Group 208">
      <path id="Path_416" data-name="Path 416" class="cls-1" d="m52.1,51.86c-.63-.63-1.64-.63-2.27,0-.48.47-1.25.47-1.72,0-.63-.63-1.64-.63-2.27,0s-.63,1.64,0,2.27h0c1.73,1.73,4.53,1.73,6.26,0,.63-.63.63-1.64,0-2.27,0,0,0,0,0,0Z"/>
    </g>
  </g>
  <g id="Group_211" data-name="Group 211">
    <g id="Group_210" data-name="Group 210">
      <path id="Path_417" data-name="Path 417" class="cls-1" d="m74.29,17.53h-1.1c-.89,0-1.61.72-1.6,1.61,0,.89.72,1.6,1.6,1.6h1.1c.89,0,1.61-.72,1.61-1.6,0-.89-.72-1.61-1.6-1.61h0Z"/>
    </g>
  </g>
  <g id="Group_213" data-name="Group 213">
    <g id="Group_212" data-name="Group 212">
      <path id="Path_418" data-name="Path 418" class="cls-1" d="m82.08,17.53h-1.1c-.89,0-1.61.72-1.6,1.61,0,.89.72,1.6,1.6,1.6h1.1c.89,0,1.61-.72,1.6-1.61,0-.89-.72-1.6-1.6-1.6Z"/>
    </g>
  </g>
  <g id="Group_215" data-name="Group 215">
    <g id="Group_214" data-name="Group 214">
      <path id="Path_419" data-name="Path 419" class="cls-1" d="m77.63,20.87c-.89,0-1.61.72-1.61,1.61v1.1c0,.89.72,1.61,1.6,1.61s1.61-.72,1.61-1.6h0v-1.11c0-.89-.72-1.61-1.61-1.61Z"/>
    </g>
  </g>
  <g id="Group_217" data-name="Group 217">
    <g id="Group_216" data-name="Group 216">
      <path id="Path_420" data-name="Path 420" class="cls-1" d="m77.63,13.08c-.89,0-1.61.72-1.61,1.61v1.1c0,.89.72,1.61,1.6,1.61.89,0,1.61-.72,1.61-1.6h0v-1.11c0-.89-.72-1.61-1.61-1.61Z"/>
    </g>
  </g>
  <g id="Group_219" data-name="Group 219">
    <g id="Group_218" data-name="Group 218">
      <path id="Path_421" data-name="Path 421" class="cls-1" d="m16.95,17.53h-1.1c-.89,0-1.61.72-1.6,1.61,0,.89.72,1.6,1.6,1.6h1.1c.89,0,1.61-.72,1.6-1.61,0-.89-.72-1.6-1.6-1.6Z"/>
    </g>
  </g>
  <g id="Group_221" data-name="Group 221">
    <g id="Group_220" data-name="Group 220">
      <path id="Path_422" data-name="Path 422" class="cls-1" d="m24.73,17.53h-1.1c-.89,0-1.61.72-1.61,1.6,0,.89.72,1.61,1.6,1.61h1.1c.89,0,1.61-.72,1.6-1.61,0-.89-.72-1.6-1.6-1.6Z"/>
    </g>
  </g>
  <g id="Group_223" data-name="Group 223">
    <g id="Group_222" data-name="Group 222">
      <path id="Path_423" data-name="Path 423" class="cls-1" d="m20.29,20.87c-.89,0-1.61.72-1.61,1.61h0v1.1c0,.89.72,1.61,1.6,1.61.89,0,1.61-.72,1.61-1.6h0v-1.1c0-.89-.72-1.61-1.61-1.61Z"/>
    </g>
  </g>
  <g id="Group_225" data-name="Group 225">
    <g id="Group_224" data-name="Group 224">
      <path id="Path_424" data-name="Path 424" class="cls-1" d="m20.29,13.08c-.89,0-1.61.72-1.61,1.61h0v1.1c0,.89.72,1.61,1.6,1.61.89,0,1.61-.72,1.61-1.6h0v-1.1c0-.89-.72-1.61-1.61-1.61Z"/>
    </g>
  </g>
  <g id="Group_227" data-name="Group 227">
    <g id="Group_226" data-name="Group 226">
      <path id="Path_425" data-name="Path 425" class="cls-1" d="m49.01,14.97c-.89,0-1.61.72-1.61,1.61v4.22c0,.89.72,1.61,1.61,1.61s1.61-.72,1.61-1.61v-4.22c0-.89-.72-1.61-1.61-1.61h0Z"/>
    </g>
  </g>
  <g id="Group_229" data-name="Group 229">
    <g id="Group_228" data-name="Group 228">
      <path id="Path_426" data-name="Path 426" class="cls-1" d="m50.14,9.33c-.63-.63-1.64-.63-2.27,0-.3.3-.47.71-.47,1.13,0,.89.72,1.61,1.61,1.61.89,0,1.61-.72,1.61-1.61,0-.43-.17-.83-.47-1.14Z"/>
    </g>
  </g>
  <g id="Group_231" data-name="Group 231">
    <g id="Group_230" data-name="Group 230">
      <path id="Path_427" data-name="Path 427" class="cls-1" d="m43.38,15.3l-2.35-2.35c-.63-.63-1.64-.63-2.27,0s-.63,1.64,0,2.27l2.35,2.35c.63.63,1.64.63,2.27,0s.63-1.64,0-2.27h0Z"/>
    </g>
  </g>
  <g id="Group_233" data-name="Group 233">
    <g id="Group_232" data-name="Group 232">
      <path id="Path_428" data-name="Path 428" class="cls-1" d="m59.25,12.86c-.63-.63-1.64-.63-2.27,0,0,0,0,0,0,0l-2.42,2.43c-.63.63-.63,1.64,0,2.27.63.63,1.64.63,2.27,0h0l2.42-2.43c.63-.63.63-1.64,0-2.27Z"/>
    </g>
  </g>
</svg>