<?xml version="1.0" encoding="UTF-8"?>
<svg id="Layer_1" data-name="Layer 1" xmlns="http://www.w3.org/2000/svg" viewBox="0 0 100 100">
  <defs>
    <style>
      .cls-1 {
        fill: #eee9dc;
      }
    </style>
  </defs>
  <path class="cls-1" d="m38.14,92.02c-3.49,0-7.62,0-11.84-.03-.54,0-.97.08-1.63.03-.23-.02-1.04.07-1.22,0l.33-.87.19-.43c.08-.17.14-.35.21-.54.19-.55.37-1.06.75-1.44.4-.41.78-.85,1.19-1.31,1.2-1.37,2.44-2.77,4.02-3.44.91-.38,1.99-.56,3.41-.56.76,0,1.54.05,2.3.1.47.03.89.06,1.31.08h.13c1.36,0,2.09-.86,2.69-1.78l.28-.44c1.38-2.13,2.8-4.34,2.62-7.12-.02-.31-.05-.49-.08-.6l-.12-.49-.5-.07c-.1-.01-.27-.03-.55-.03-5.56.02-11.08.03-16.61.03h-14.45c-2.65,0-2.9-.25-2.9-2.96V10.77c0-2.66.25-2.9,2.94-2.9h78.44c2.5,0,2.78.28,2.78,2.77v59.66c0,2.51-.28,2.79-2.76,2.79h-14.51c-5.55,0-11.11,0-16.66-.03h0c-.29,0-.47.02-.58.03l-.55.07-.09.54c-.02.11-.04.28-.04.54,0,3.18,1.28,5.91,4.17,8.87.34.28.88.39,1.29.41.63.02,1.27.03,1.91.03h1.83c.59,0,1.38,0,2.17.03.58.02,1.45.23,2,.72,1.52,1.4,3.04,2.9,4.63,4.6.33.35.49.82.63,1.24.07.2.12.37.19.52l.32,1.23h-.32c-.22.02-.4.04-.65.04-.62,0-1.02.04-1.53.04-5.71.03-11.47.03-16.36.03h-18.78Zm-5.07-5.52c-.92,0-1.72.31-2.53.97l-1.62,1.33h41.72l-1.68-1.34c-.83-.66-1.68-.97-2.68-.97-.3,0-.62.03-.94.09-.26.05-.53.07-.86.07-.24,0-.49-.01-.73-.02-.27-.01-.48-.02-.69-.02-.18,0-.36,0-.54.03-.23.03-.46.04-.68.04-1.44,0-2.62-.57-3.71-1.81-.44-.5-1.22-.9-1.78-.91-2.01-.04-4.14-.06-6.51-.06-2.02,0-4.17.01-6.77.05-.39,0-.99.19-1.27.48-1.19,1.53-2.68,2.27-4.47,2.27-.32,0-.66-.02-1.02-.07-.15-.02-.3-.03-.44-.03-.2,0-.39.01-.59.02-.21.01-.42.02-.62.02-.27,0-.51-.02-.72-.06-.29-.06-.58-.08-.86-.08Zm14.1-8c-1.24,0-2.13,0-2.59,1.22l-.39,1.02h11.12l-.39-1.02c-.46-1.21-1.35-1.21-2.58-1.21h-5.16Zm-1.17-3.05h3.14c1.04,0,2.39,0,3.76-.03h.68s.05-.69.05-.69c.02-.24.02-.5.02-.76v-.74h-7.65v2.22Zm-35.14-5.5h77.79v-4.91H10.86v4.91Zm-.03-8.09h77.85V11.05H10.82v50.8Z"/>
  <path class="cls-1" d="m38.93,54.17c-1.06,0-2.1-.24-3.07-.71-2.57-1.25-4.13-4.08-3.79-6.87.12-.98.5-2.05,1.15-3.17.13-.22.2-.4.23-.56l.15-.87h-.49c-2.28-3-4.64-6.15-7.02-9.37-.26-.36-.5-.51-.8-.51-.14,0-.32.02-.61.11-.66.21-1.34.31-2.02.31-1.79,0-3.55-.74-4.84-2.04-1.31-1.31-2.03-3.06-2.02-4.92.01-2.98,1.84-5.49,4.78-6.53.69-.25,1.42-.37,2.16-.37,2,0,3.92.9,5.25,2.47,2,2.36,2.25,5.46.66,7.91-.58.89-.46,1.35.2,2.19,2.28,2.94,4.54,5.99,6.65,8.86.32.44.58.58,1.06.58.15,0,.31-.01.5-.04.51-.06,1.04-.1,1.56-.1,1.08,0,2.1.13,3.05.4.33.09.58.13.79.13.38,0,.68-.15,1.07-.55,3.55-3.61,7.03-7.09,10.35-10.34.71-.69.79-1.07.4-1.9-1.25-2.72-.63-5.7,1.63-7.77,1.3-1.19,2.97-1.85,4.7-1.85,1.07,0,2.09.24,3.06.72,2.57,1.27,4.13,4.1,3.79,6.88-.11.92-.48,1.95-1.08,3.03-.23.42-.29.61-.3.77l-.06.81h.41c2.39,3.1,4.74,6.28,7.02,9.36.15.2.28.33.41.42l2.3,1.47-.81-1.63c.52-.12,1.04-.18,1.57-.18,2.28,0,4.34,1.13,5.66,3.09,1.72,2.57,1.55,5.79-.43,8.2-1.34,1.64-3.2,2.54-5.23,2.54-.91,0-1.82-.18-2.72-.53-2.84-1.12-4.58-4.01-4.24-7.04.11-.96.49-2.03,1.14-3.17.13-.23.21-.41.23-.57l.14-.87h-.48c-2.54-3.33-5.08-6.75-7.02-9.36-.13-.17-.24-.3-.35-.39l-.29-.23-.36.08s-.12.03-.23.07c-.65.27-1.34.4-2.05.4-1.17,0-2.3-.36-3.15-.67l-.13-.05h-.09s-.1,0-.17,0c-.19,0-.38.03-.54.08l-.16.05-.12.12c-1.88,1.83-3.78,3.72-5.61,5.56l-.12.12c-1.73,1.73-3.47,3.46-5.22,5.17-.25.25-.36.46-.36.7v.11c.03.13.07.24.26.7l.04.1c1.17,2.82.55,5.73-1.66,7.78-1.28,1.2-2.95,1.85-4.69,1.85Zm34.07-7.21c-.19,1.25.26,2.37,1.31,3.23.73.6,1.59.92,2.49.92.95,0,1.87-.37,2.61-1.04,1.44-1.32,1.67-3.45.54-5.07-.59-.83-1.47-1.39-2.42-1.52l-1.72-.23,1.9,2.66c.76,1.06.72,1.84-.15,2.46-.26.19-.51.28-.78.28-.58,0-.99-.43-1.29-.74l-.15-.15c-.32-.32-.63-.67-1-1.15l-1.07-1.39-.26,1.74Zm-37.85-.04c-.21,1.33.28,2.49,1.42,3.36.71.54,1.53.83,2.39.83,1.05,0,2.04-.43,2.78-1.22.78-.83,1.11-1.8.95-2.79l-.28-1.73-1.05,1.4c-.31.4-.57.72-.83.99-.46.48-1.01,1-1.61,1s-1.03-.42-1.62-1.15c-.27-.34-.54-.67-.81-1.02l-1.06-1.36-.27,1.7Zm-12.46-25.18c-.51,0-1.01.1-1.47.31-1.03.45-1.79,1.24-2.16,2.22-.35.95-.3,2,.16,2.96.55,1.16,1.47,1.88,2.64,2.08l1.8.31-1.06-1.48c-.32-.45-.69-.99-1.02-1.58-.08-.14-.12-.29-.13-.47-.03-.41.11-.79.4-1.1.3-.32.72-.5,1.15-.5.17,0,.34.03.5.08.12.04.24.1.34.17.38.25.65.64.88.99.12.18.22.32.33.45l1.06,1.3.37-1.53c.2-1.23-.22-2.34-1.2-3.21-.73-.64-1.65-1-2.58-1Zm37.84,2.39c.57,0,1.08.33,1.57,1.01.28.38.57.77.88,1.16l1.05,1.34.28-1.68c.22-1.34-.26-2.51-1.39-3.38-.71-.55-1.54-.84-2.41-.84-1.05,0-2.03.42-2.76,1.19-.8.84-1.13,1.86-.93,2.89l.33,1.68,1.01-1.38c.28-.38.57-.76.87-1.13.48-.58.98-.87,1.5-.87Z"/>
</svg>