<?xml version="1.0" encoding="UTF-8"?>
<svg id="Layer_1" data-name="Layer 1" xmlns="http://www.w3.org/2000/svg" viewBox="0 0 100 100">
  <defs>
    <style>
      .cls-1 {
        fill: #9daf82;
      }
    </style>
  </defs>
  <path class="cls-1" d="m38.67,89.4c-6.72,0-13.45,0-20.17-.03-.52,0-.99-.19-1.45-.37-.24-.09-.4-.16-.55-.2l-.59-.18.25-.56c.07-.17.14-.34.2-.51.16-.43.32-.87.62-1.26,2.48-3.19,4.97-6.38,7.46-9.58l1.1-1.41c2.77-3.55,5.53-7.09,8.29-10.64.71-.91,1.56-1.34,2.67-1.34h.11c.81.02,1.62.03,2.44.03.63,0,3.45-.01,3.45-.01.26,0,.65,0,.91-.02l.45-.03.02-.44c.01-.26.01-.64.01-.93v-.19c0-.21,0-.53-.02-.76l-.03-.45-.45-.02c-.23,0-.54,0-.71,0-3.96,0-23.74,0-23.74,0h-1.92c-.7,0-1.21-.18-1.56-.54-.34-.35-.5-.86-.48-1.52.04-1.27.08-2.75,0-4.2-.05-.78.11-1.35.47-1.74.5-.53,1.27-.59,1.81-.59,2.58.02,5.11.02,7.65.02h14.21c1.28-.01,2.57,0,3.85,0h0c.78,0,1.03-.11,1.24-.84.71-2.49,3.14-4.29,5.89-4.36h.15c2.68,0,5.14,1.77,5.87,4.21.26.86.57,1,1.53,1,4.33-.01,8.63-.01,12.93-.01h12.08c2.47,0,2.75.29,2.76,2.8v1.04c0,.75,0,1.51,0,2.26-.01,2.05-.44,2.47-2.54,2.49-.45,0-.89,0-1.34,0h-10.67c-4.37,0-8.74,0-13.11.02-.28,0-.62.08-.75.12l-.35.1-.02.36c-.03.52,0,1.1.08,1.77l.05.38.38.05c.12.01.25.03.36.03,1.17.02,2.34.03,3.52.03.92,0,1.85,0,2.77-.03h.1c1.12,0,1.98.42,2.68,1.33,2.9,3.74,5.81,7.47,8.72,11.2,2.74,3.52,5.48,7.03,8.21,10.54.29.37.43.79.57,1.19.07.22.12.35.17.48l.23.55-.56.19c-.15.05-.29.11-.44.17-.47.2-.93.4-1.43.4-7,.02-14,.03-21,.03h-22.37Zm-1.32-23.19c-.8,0-1.25.22-1.73.85-3.19,4.12-6.39,8.23-9.6,12.34l-5.53,7.09h59.44l-5.41-6.93c-3.25-4.16-6.5-8.33-9.73-12.5-.49-.63-.94-.85-1.73-.85-4.27.02-8.53.02-12.79.02s-8.59,0-12.88-.02h-.02Zm12.81-16.58c-1.92,0-3.36,1.46-3.41,3.48-.03,1.01-.02,2.05-.01,3.05l.02,3c0,1.11.01,2.27-.02,3.4,0,.13,0,.23,0,.3l.04.44.54.02c.94-.02,1.83-.04,2.79-.04s1.95.01,2.92.03h.16s.45-.03.45-.03l.02-.45s0-.11,0-.18c-.02-1.45-.01-2.9-.01-4.35,0-1.72,0-3.49-.02-5.23-.04-2-1.49-3.45-3.46-3.45h0Zm-31.5,5.07c-.15,0-.24,0-.31.01l-.44.05v.45s0,.09,0,.15c.02.31.04.69-.01,1.07-.04.33-.05.58,0,.75l.16.6.42-.21c.12.02.29.03.53.03,3.36-.03,6.9-.05,11.51-.05,1.94,0,12.11,0,12.11,0,.22,0,.53,0,.76,0l.49-.02v-1.38c-.01-.16-.02-.32,0-.48.03-.22.03-.41,0-.54l-.09-.53-.46.11c-.11-.01-.26-.03-.46-.03-1.62.03-3.28.04-5.34.04h-6.47s-6.67,0-6.67,0c-1.91,0-3.82,0-5.73-.02h0Zm38.73,0c-.24,0-.39.02-.48.04l-.39.08-.02.4c0,.07,0,.16,0,.29.04.43.04.83,0,1.21-.02.19-.02.32-.01.4l.02.39.38.07c.08.02.22.04.45.04,1.63-.02,3.34-.04,5.45-.04l13.34.02c1.47,0,2.95,0,4.42-.02h.16c.26,0,.5,0,.71.01.07,0,.42.01.53.01h.49s.04-1.99.04-1.99c0-.18,0-.34-.03-.46l-.06-.33-.33-.07c-.08-.02-.24-.04-.52-.04-4.04.02-8.06.03-12.08.03s-8.04,0-12.06-.03h-.02Z"/>
  <path class="cls-1" d="m39.04,50.16c-2.52-.01-5.05-.02-7.57-.02H14.02s-6.95,0-6.95,0c-1.98,0-2.44-.46-2.45-2.45,0-.72,0-1.44,0-2.15v-.3c0-.73,0-1.47,0-2.2,0-.71.16-1.23.51-1.59.35-.36.87-.54,1.59-.54.27,0,.76,0,1.05-.03l.42-.04.03-.42c.02-.28.03-.78.03-1.1v-1.44c.01-1.22.02-2.37,0-3.49-.02-.8.16-1.38.54-1.77.37-.38.87-.55,1.57-.55h.14c.71.03,1.42.04,2.12.04.79,0,1.58-.01,2.37-.03.78,0,1.29.17,1.65.54.37.38.53.93.51,1.69-.03,1.02-.02,2.06-.02,3.06,0,.99.01,1.91,0,2.83,0,.13,0,.22,0,.28l.04.39.38.06c.07,0,.16.02.29.02h0c.1,0,.17,0,.22,0l.42-.04.04-.42c0-.07.01-.16,0-.28-.02-3.66-.02-7.38-.01-10.98v-2.61c0-2.25.38-2.62,2.68-2.63h3.57c2.26,0,2.68.43,2.69,2.64v2.52c.01,3.56.02,7.24-.01,10.93,0,.17,0,.33.04.45l.07.36.37.04s.1,0,.18,0c.09,0,.19,0,.29-.02l.44-.04v-.44c.01-.07,0-.52,0-.52,0-6.49.01-12.99,0-19.48,0-2.1.02-2.73.5-3.21.4-.4.98-.43,1.65-.43h1.18s.64,0,.64,0c.28,0,.57,0,.85,0,.28,0,.56,0,.84,0,.34,0,.68,0,1.02-.03.1,0,.19,0,.28,0,.63,0,1.09.16,1.42.49.49.49.54,1.24.53,1.76-.04,5.7-.03,11.49-.02,17.09v3.73c0,.15,0,.39,0,.58v.46s.47.03.47.03c.09,0,.2,0,.35,0,.2,0,.42,0,.68-.02h.16c.59,0,1.06.16,1.38.49.34.35.49.86.47,1.56-.05,1.8-.05,3.45,0,5.04.02.71-.13,1.24-.49,1.6-.48.5-1.2.55-1.7.55h-.03Zm-29.11-6.42c-.96,0-1.62,0-1.93.09l-.28.07-.08.27c-.09.31-.11.97-.12,1.87v.15c0,.24,0,.43.03.58l.06.33.32.07c.13.03.29.04.48.04,1.97-.03,4.05-.04,6.62-.04h7.84s8.13.01,8.13.01h5.26s1.06,0,1.06,0c.26,0,.43,0,.55-.01l.45-.03.02-.45c.01-.26.01-.67,0-.96v-.73c0-.23,0-.55-.01-.79l-.02-.45-.45-.02c-.25-.01-.61-.01-.81-.01H9.93Zm21.76-23.38c0,.11-.01.25-.01.43.03,3.76.03,7.58.03,11.28,0,2.28,0,4.54,0,6.8,0,.31,0,.57,0,.81,0,.23,0,.53,0,.74v.48s1.35.02,1.35.02c0,0,.92.02.92.02.26,0,.45-.03.59-.08l.6-.23-.26-.37c0-.11.02-.25.01-.45-.04-2.25-.03-4.51-.03-6.7,0-.98,0-1.87,0-2.76v-9c0-.39,0-.93-.02-1.24l-.03-.44-.44-.03c-.21-.01-.51-.02-.69-.02-.27,0-.59-.01-.95-.03h-.17c-.23,0-.41.02-.54.07l-.88.3.53.4Zm-9.41,6.58c-.17,0-.32.01-.43.04l-.31.07-.07.3c-.04.15-.05.35-.05.59.04,2.2.03,4.42.03,6.57v.11c0,1.34,0,2.66,0,3.99,0,.29,0,.55,0,.79,0,.34,0,.76,0,1.03l.02.45.45.02c.25.01.63.02.89.02.31,0,.67,0,1.08.01,0,0,.16,0,.2,0l.43-.03.03-.43c0-.06,0-.15,0-.27-.03-1.52-.02-3.07-.02-4.57v-3.26c.01-1.13.01-2.26,0-3.39,0-.35,0-.65,0-.91,0-.21,0-.43,0-.61v-.49s-1.05-.01-1.05-.01c-.4,0-.72,0-1.08-.02h-.14Zm-10.15,8.02c-.29,0-.45.02-.54.04l-.32.06-.08.31c-.1.4-.1,1.2-.1,2.13v.64c0,.15,0,.3,0,.45.01.53,0,.97,0,1.33,0,.14,0,.34,0,.51v.49s1.12,0,1.12,0h1.43c.07,0,.13,0,.17,0l.43-.04.02-.43c0-1.41-.02-3.15,0-4.89v-.46s-.46-.05-.46-.05h-.11c-.69-.05-1.18-.09-1.56-.09Z"/>
  <path class="cls-1" d="m93.43,50.16c-2.47-.02-4.94-.03-7.41-.03h-8.64s-8.56,0-8.56,0c-2.45,0-4.9,0-7.35.03-.63,0-1.35-.07-1.84-.58-.37-.39-.53-.95-.49-1.74.07-1.5.07-3.1,0-4.75-.03-.77.11-1.28.47-1.66.34-.36.85-.53,1.55-.53,0,0,.56.02.74.03l.8.03s0-1.26,0-1.53c0-.7,0-1.39,0-2.07,0-1.09,0-2.19,0-3.28-.01-.64.16-1.13.49-1.48.33-.34.83-.52,1.46-.52h2.96c.66,0,1.32,0,1.98,0,.65,0,1.16.17,1.5.52.36.36.54.88.54,1.56v2.29c0,1.21,0,2.41,0,3.62,0,.22,0,.35.02.43l.05.42.42.03s.15,0,.15,0c.14,0,.24,0,.3-.02l.36-.05.06-.35c.01-.08.03-.23.03-.46-.02-4.31-.01-8.46,0-13.45,0-2.17.43-2.61,2.56-2.62h2.58c.51.01,1.01,0,1.51-.01h.18c.68,0,1.19.17,1.55.53.38.38.55.93.54,1.73-.03,2.73-.02,5.51-.02,8.19,0,1.84,0,3.68,0,5.52,0,.15,0,.39.02.55l.05.44.66.02c.1,0,.18,0,.23-.01l.42-.04s.03-.45.03-.47l.11-.02-.11-.99c0-6.69,0-13.38,0-20.07,0-2.15.37-2.53,2.47-2.54.7,0,1.39,0,2.09,0s1.35,0,2.03,0c1.93.01,2.37.46,2.38,2.37,0,4.62,0,9.25,0,13.87v5.06c0,.17,0,.33,0,.5.01.39.02.79-.02,1.21-.04.33-.03.58.03.76l.15.45.37-.1c.06,0,.18.02.35.02h.2c.2-.02.37-.02.52-.02,1.73,0,1.86.89,1.88,2.37,0,.63,0,1.25,0,1.88,0,.93,0,1.79.01,2.64.02.79-.15,1.36-.53,1.76-.38.39-.96.58-1.76.58h-.05Zm-30.56-6.43c-.16,0-.29,0-.38,0l-.44.03-.03.44c-.02.31-.02.85-.02,1.23v.39c0,.28,0,.64.02.88l.02.45.45.02c.25.01.61.01.85.01h27c1.42,0,1.94-.02,2.21-.17l.18-.1.06-.19c.05-.17.07-.51.06-1.99v-.17c0-.21,0-.32-.02-.39l-.05-.39-.39-.05c-.07,0-.18-.02-.38-.02-2.28.02-4.52.03-6.76.03-1.31,0-15.76-.01-15.76-.01-1.79,0-3.58,0-5.37,0h-1.28Zm23.38-23.53c0,.1-.01.22,0,.38.04,2.29.03,4.6.03,6.84v2.77s0,9.05,0,9.05c0,.42,0,.89.02,1.18l.03.45.45.02c.19,0,.42.01.56.02.27,0,.59.01.96.03,0,0,.19,0,.2,0,.23,0,.41-.02.54-.06l.58-.18-.22-.4c.01-.12.02-.28.02-.5-.04-3.84-.04-7.74-.03-11.51,0-2.2,0-4.4,0-6.6,0-.32,0-.6,0-.84,0-.26,0-.53,0-.74v-.49s-1,0-1,0c-.31,0-.67,0-1.1-.02h-.15c-.2,0-.36.01-.48.05l-.53.15.17.42Zm-10.3,6.8l-.05.38c0,.08-.02.2-.01.38.06,1.49.04,2.96.03,4.4,0,.6,0,1.19,0,1.78v1.52c0,1.13,0,2.27,0,3.4,0,.31,0,.58,0,.83,0,.29,0,.54,0,.73v.48s.5,0,.5,0c.22,0,1.76.04,1.76.04.25,0,.44-.03.58-.08l.57-.22-.23-.37c.01-.11.02-.27.02-.48-.03-2.14-.03-4.31-.02-6.41v-.34c0-1.26,0-2.52,0-3.78,0-.33,0-.62,0-.88,0-.29,0-.67,0-.92l-.02-.45-.45-.03c-.27-.02-.68-.02-.99-.02h-.44s-.01-.08-.01-.08l-.99.07v.04l-.23.03Zm-8.42,13.92c.28,0,.51,0,.71-.03l.44-.04v-.44c.05-1.41.04-2.86.04-4.27v-1.09s-.49-.01-.49-.01c-.3,0-.58-.01-.87-.01-.46,0-.82.02-1.14.06h-.13s-.1.09-.1.09c-.07.05-.15.12-.21.19l-.12.13v.18c-.07,1.08-.06,2.21-.05,3.3,0,.54,0,1.94,0,1.94h.51s.36,0,.36,0c.19,0,1.05.01,1.05.01Z"/>
  <path class="cls-1" d="m51.36,27.97c-.48,0-.87-.39-.88-.86v-1.55h-6.24c-.23,0-.46-.09-.62-.26s-.25-.39-.25-.62v-.17s-.01-.43-.01-.43v-.59c0-.23.09-.46.25-.62s.38-.26.62-.26h6.21v-1.61c-.02-.24.07-.46.24-.62.16-.17.39-.26.62-.26.17,0,.34.05.48.14l4.67,3.08c.25.16.39.44.39.73,0,.29-.15.57-.4.73l-4.61,3.02c-.14.09-.31.14-.48.14Z"/>
  <path class="cls-1" d="m48.85,37.25c-.17,0-.33-.05-.48-.14l-4.62-3.02c-.25-.16-.39-.43-.39-.73,0-.29.15-.57.39-.73l4.67-3.08c.14-.09.31-.14.48-.14.23,0,.46.09.62.26.16.17.25.39.25.62v1.61s6.2,0,6.2,0c.24,0,.46.09.62.26.17.17.26.39.26.62v1.38s-.06.1-.06.1c-.04.12-.11.23-.2.33-.17.17-.38.26-.62.26h-6.22v1.55c-.02.48-.41.87-.89.87Z"/>
</svg>