<?xml version="1.0" encoding="UTF-8"?>
<svg id="Layer_1" data-name="Layer 1" xmlns="http://www.w3.org/2000/svg" viewBox="0 0 100 100">
  <defs>
    <style>
      .cls-1 {
        fill: #5b653e;
      }
    </style>
  </defs>
  <path class="cls-1" d="m89.94,25.1c.02-2.78-.16-5.46-1.22-8.08-.92-2.27-1.54-4.67-2.43-6.96-.21-.54-.9-1.08-1.48-1.24-.85-.23-1.31.49-1.6,1.23-.07.17-.15.34-.21.52-.67,2.01-1.37,4.02-2.01,6.04-.66,2.12-1.41,4.16-1.39,6.49.08,17.4.04,34.81.04,52.21,0,.37-.02.75.02,1.12.02.21.14.57.24.57.92.05,1.86.14,2.76-.01.21-.04.37-.96.37-1.47.02-12.4,0-24.8.02-37.2,0-2.34-.41-2.16,2.24-2.21.9-.02,1.24.26,1.24,1.21-.03,14.01-.03,28.01,0,42.02,0,.96-.34,1.21-1.24,1.19-2.16-.05-4.33-.01-6.5-.02-2.07,0-2.51-.44-2.51-2.49,0-6.39,0-12.77,0-19.16,0-2.38.38-2.22-2.32-2.26-.86,0-1.18.29-1.18,1.17.02,6.95.01,13.89.02,20.84,0,2.19,1,3.83,2.99,4.72.82.37,1.79.52,2.69.54.95.02,1.23.35,1.19,1.26-.06,1.27-.03,2.54,0,3.81.03,1.24.63,1.82,1.88,1.83,1.87.01,3.73,0,5.6,0,2.53,0,2.78-.24,2.78-2.72,0-11.02,0-22.04,0-33.05,0-9.97-.04-19.94.02-29.92Zm-3.43,60.79q0,1.5-1.84,1.5-1.62,0-1.62-1.85,0-1.62,1.85-1.61,1.62,0,1.61,1.96Zm-1.7-53.24q-1.75,0-1.76-1.67t1.82-1.7q1.64,0,1.64,1.76,0,1.61-1.7,1.61Zm1.66-7.61c-.04.3-.5.74-.82.78-2.43.34-2.49.17-2.63-2.28-.15-2.53.83-4.72,1.71-7.26,1.42,2.95,2.1,5.76,1.74,8.76Z"/>
  <path class="cls-1" d="m11.27,48.65c0,3.4,0,6.8.01,10.2,0,.35.11.99.22,1,.95.11,1.93.2,2.87.05.21-.03.39-1,.39-1.54.02-14.9.02-29.81,0-44.71,0-.91.02-1.53,1.27-1.52,15.09.04,30.18.04,45.26,0,1.03,0,1.27.38,1.25,1.31-.05,2.24-.02,4.48,0,6.72.01,1.68.54,2.23,2.2,2.24,2.17.02,4.33,0,6.5,0,1.54,0,1.55,0,1.55,1.54,0,9,0,18,0,27,0,2.34-.32,2.17,2.25,2.21.89.01,1.26-.24,1.25-1.21-.03-10.23,0-20.47-.06-30.7,0-.7-.37-1.56-.86-2.07-3.14-3.25-6.37-6.4-9.55-9.62-.59-.6-1.22-.85-2.07-.85-8.37.03-16.73.02-25.1.02-8.4,0-16.81,0-25.21,0-1.57,0-2.14.56-2.18,2.13-.01.37,0,.75,0,1.12,0,12.21,0,24.43,0,36.64ZM66.04,14.82c1.48,1.5,2.71,2.75,4.1,4.16-1.3,0-2.48.02-3.65-.02-.16,0-.42-.33-.43-.52-.04-1.1-.02-2.21-.02-3.62Z"/>
  <path class="cls-1" d="m16.28,77.11c3.52.08,7.05.09,10.57,0,2.3-.06,4.32-1.67,4.77-3.93.21-1.07.68-1.3,1.59-1.22.37.04.79-.09,1.11.03.37.15.92.48.95.77.32,3.04,4.05,4.14,6.21,4.15,2.18,0,4.31-.03,6.52-.05,3.41-.03,6.27-.01,7.16-2.89.57-1.85,1.51-2.05,3.2-2.02.86.01.79-.58.83-1.16-.1-2.16.17-2.17-2.38-2.19-.76,0-1.11-.3-1.17-1-.2-2.29-3.04-4.23-5.38-4.21-3.25.04-6.5-.01-9.75.02-2.49.02-4.49,1.43-5.04,3.82-.29,1.25-.86,1.48-1.92,1.36-.29-.03-.64.08-.89-.03-.35-.16-.88-.45-.89-.72-.15-2.65-3.39-4.62-5.88-4.46-2.44.16-4.89.28-7.33.08-4.12-.34-6.09.72-7.13,4.18-.2.68-.49,1.01-1.24.95-.17-.01-.35-.02-.53-.03-.95-.02-1.72.75-1.72,1.7s.85,1.78,1.83,1.69c.03,0,.06,0,.09,0,.94-.1,1.39.21,1.61,1.19.53,2.34,2.38,3.91,4.79,3.97Zm22.39-8.39c.03-1.1.63-1.79,1.71-1.8,3.39-.04,6.79-.04,10.18,0,1.16.01,1.67.58,1.71,1.78.03,1.04.03,2.09,0,3.13-.04,1.23-.56,1.78-1.8,1.81-1.68.04-3.36,0-5.03,0h0c-1.6,0-3.21.03-4.81,0-1.37-.03-1.94-.63-1.96-2.01-.01-.97-.02-1.94,0-2.91Zm-23.87-.18c.04-1.01.61-1.62,1.62-1.62,3.43-.03,6.86-.03,10.29,0,1.02.01,1.63.69,1.67,1.72.04,1.08.04,2.16,0,3.24-.04,1.07-.67,1.71-1.77,1.74-1.71.04-3.43.01-5.14.01h0c-1.6,0-3.21.03-4.81,0-1.31-.03-1.83-.55-1.86-1.85-.03-1.08-.03-2.16,0-3.24Z"/>
  <path class="cls-1" d="m74.53,87.4c-19.22-.02-38.44-.01-57.66-.01-.34,0-.67-.03-1.01,0-.85.08-1.12-.33-1.09-1.13.04-1.12.03-2.24,0-3.36-.05-2.69.49-2.34-2.47-2.39-.77-.01-1.06.25-1.05,1.03.04,2.31,0,4.63.02,6.94,0,1.77.56,2.3,2.35,2.3,10.15,0,20.3,0,30.45,0,3.88,0,7.76,0,11.64,0,6.46,0,12.91,0,19.37-.01.37,0,1.06-.14,1.07-.26.09-.92.15-1.87-.04-2.76-.05-.23-1.03-.35-1.59-.35Z"/>
  <path class="cls-1" d="m46.86,53.16c2.38,0,1.97.24,2.08-2.11.05-1.05-.3-1.31-1.32-1.31-9.14.04-18.28.01-27.43.03-2.37,0-1.97-.36-2.07,2.09-.04,1.03.27,1.34,1.31,1.33,4.7-.05,9.4-.02,14.1-.02,4.44,0,8.88,0,13.32,0Z"/>
  <polygon class="cls-1" points="32.75 46.7 39.35 28.35 31.87 28.35 31.87 24.69 43.63 24.69 43.63 27.48 36.88 46.7 32.75 46.7"/>
  <path class="cls-1" d="m51.32,47.05c-1.36,0-2.49-.41-3.37-1.22-.8-.74-1.44-1.69-1.89-2.82-.43-1.08-.72-2.28-.88-3.59-.16-1.26-.23-2.51-.23-3.72s.08-2.47.23-3.73c.16-1.3.46-2.51.88-3.59.45-1.13,1.08-2.08,1.89-2.82.88-.81,2.01-1.22,3.37-1.22s2.49.41,3.37,1.22c.8.74,1.44,1.69,1.89,2.82.43,1.08.72,2.28.87,3.59.15,1.26.22,2.51.22,3.72s-.07,2.46-.22,3.72c-.15,1.31-.44,2.52-.87,3.59-.45,1.13-1.08,2.08-1.89,2.82-.88.81-2.01,1.22-3.37,1.22Zm0-19.1c-.29,0-.53.07-.73.23-.26.21-.49.5-.67.86-.22.42-.4.91-.54,1.46-.15.57-.26,1.16-.33,1.77-.07.62-.12,1.24-.15,1.83-.03.6-.04,1.13-.04,1.59s.01,1.02.04,1.63c.03.59.08,1.2.15,1.81.07.6.18,1.19.33,1.75.14.55.32,1.04.54,1.46.19.36.4.64.67.86.2.16.43.24.73.24s.53-.07.73-.23c.27-.21.49-.49.67-.86.21-.42.39-.91.52-1.45.14-.58.25-1.17.32-1.77.07-.62.12-1.23.15-1.81.03-.6.04-1.14.04-1.63s-.01-.99-.04-1.59c-.03-.58-.08-1.2-.15-1.83-.07-.6-.18-1.2-.32-1.78-.13-.54-.31-1.03-.52-1.45-.18-.36-.41-.65-.67-.85-.2-.16-.43-.24-.73-.24Z"/>
  <polygon class="cls-1" points="63.75 40.66 63.75 37.21 60.31 37.21 60.31 34.7 63.75 34.7 63.75 31.25 66.27 31.25 66.27 34.7 69.72 34.7 69.72 37.21 66.27 37.21 66.27 40.66 63.75 40.66"/>
  <path class="cls-1" d="m41.73,60.06c8.8-.05,17.61-.03,26.41-.03h1.28c0-.78,0-1.37,0-1.96q0-1.44-1.49-1.45c-7.5,0-14.99,0-22.49,0-1.38,0-2.76.02-4.14,0-.71-.01-1.04.26-.97.99.03.33.05.68,0,1.01-.18,1.14.27,1.45,1.41,1.44Z"/>
  <path class="cls-1" d="m20.45,56.63c-2.66.01-2.25-.44-2.32,2.41-.02.8.28,1.01,1.04,1,2.79-.03,5.59-.01,8.38-.01,2.5,0,4.99,0,7.49,0,2.24,0,1.86.21,1.97-1.99.06-1.17-.36-1.45-1.47-1.44-5.03.05-10.06,0-15.09.03Z"/>
  <path class="cls-1" d="m54.51,49.77c-2.52.01-2.18-.38-2.25,2.28-.02.92.38,1.15,1.2,1.13,1.38-.04,2.76,0,4.14,0,3.58,0,7.16,0,10.75,0,.45,0,1.05.15,1.06-.63,0-.88,0-1.77,0-2.77h-1.47c-4.48,0-8.95-.01-13.43,0Z"/>
  <path class="cls-1" d="m52.26,82.59c-.04,1.04.31,1.36,1.34,1.35,4.36-.04,8.73-.02,13.09-.02q2.95,0,2.71-3c0-.07-.05-.14-.14-.41-.4,0-.8,0-1.21,0-4.59,0-9.18,0-13.76,0-2.27,0-1.93-.2-2.02,2.07Z"/>
  <path class="cls-1" d="m18.08,45.46c-.02,1.04.19,1.36.8,1.35,2.63-.04,5.25-.02,7.88-.02q1.77,0,1.63-3c0-.07-.03-.14-.09-.41-.24,0-.48,0-.73,0-2.76,0-5.52,0-8.28,0-1.37,0-1.16-.2-1.22,2.07Z"/>
  <path class="cls-1" d="m18.08,39.11c-.02,1.04.19,1.36.8,1.35,2.63-.04,5.25-.02,7.88-.02q1.77,0,1.63-3c0-.07-.03-.14-.09-.41-.24,0-.48,0-.73,0-2.76,0-5.52,0-8.28,0-1.37,0-1.16-.2-1.22,2.07Z"/>
  <path class="cls-1" d="m18.08,32.9c-.02,1.04.19,1.36.8,1.35,2.63-.04,5.25-.02,7.88-.02q1.77,0,1.63-3c0-.07-.03-.14-.09-.41-.24,0-.48,0-.73,0-2.76,0-5.52,0-8.28,0-1.37,0-1.16-.2-1.22,2.07Z"/>
  <path class="cls-1" d="m18.02,26.97c-.02,1.04.19,1.36.8,1.35,2.63-.04,5.25-.02,7.88-.02q1.77,0,1.63-3c0-.07-.03-.14-.09-.41-.24,0-.48,0-.73,0-2.76,0-5.52,0-8.28,0-1.37,0-1.16-.2-1.22,2.07Z"/>
  <path class="cls-1" d="m25.02,19.58c.17.2.37.52.57.53.77.06,1.56.05,2.33,0,.17-.01.45-.31.45-.49.05-.92.02-1.84.02-2.73-3.11-.58-3.58-.24-3.41,2.36,0,.11-.03.26.03.33Z"/>
  <path class="cls-1" d="m19.78,20.16q1.77,0,1.78-1.64c0-1.78,0-1.79-1.61-1.77-2.01.01-1.78-.23-1.8,1.67q0,1.75,1.64,1.75Z"/>
  <path class="cls-1" d="m35.27,18.41q0-1.66-1.74-1.66t-1.75,1.67,1.7,1.75,1.79-1.75Z"/>
</svg>