<?xml version="1.0" encoding="UTF-8"?>
<svg id="Layer_1" data-name="Layer 1" xmlns="http://www.w3.org/2000/svg" viewBox="0 0 100 100">
  <defs>
    <style>
      .cls-1 {
        fill: #9daf82;
      }
    </style>
  </defs>
  <path class="cls-1" d="m50.11,94.71c-7.05,0-13.52-4.53-15.75-11.02-.49-1.43-.73-2.92-.95-4.46-.06-.42-.08-.42-.26-.47-3.76-.9-7.52-1.8-11.28-2.71-.07-.02-.11-.02-.14-.02,0,.01-.06.07-.16.22-1.66,2.66-3.95,4-6.8,4-.55,0-1.12-.05-1.7-.16-3.2-.57-5.56-2.98-6.31-6.46-.45-2.09.09-4.33,1.47-6.13,1.48-1.92,3.69-3.09,6.07-3.2.64-.03.66-.11.78-.65.24-1.09.57-2.16.9-3.15q.14-.41-.29-.62c-4.14-2.14-6.95-5.54-8.35-10.11-2.42-7.91,1.57-16.66,9.09-19.92q.77-.33.48-1c-.51-1.2-.89-2.45-1.26-3.66l-.22-.71c-.17-.55-.23-.63-.83-.63-3.96,0-6.96-2.52-7.83-6.57-.7-3.31,1.14-6.98,4.28-8.52,1.15-.56,2.36-.84,3.61-.84,2.73,0,5.23,1.37,6.69,3.67,2.26,3.56,1.52,7.99-1.76,10.53-.61.47-.61.59-.39,1.16.6,1.52,1.14,3.1,1.59,4.72.12.44.15.44.4.44.08,0,.17,0,.26-.02.71-.08,1.4-.12,2.08-.12,3.05,0,5.88.78,8.41,2.33,5.27,3.22,8.04,8.07,8.25,14.39.03.84.12.85.53.91.28.04.5.15.64.22l.1.05c.65.29,1.16.48,1.58.48.21,0,.7,0,1.43-.95,1.21-1.56,3.14-2.46,5.3-2.46,1.19,0,2.41.27,3.52.79.24.11.35.13.39.13.05,0,.17-.08.38-.31,1.99-2.26,4.01-4.5,6.02-6.74l2.56-2.84c.05-.06.13-.14.18-.2,0,0-.01-.02-.02-.04-2.44-3.71-3.35-7.65-2.72-11.72-.38-.03-.75-.05-1.12-.08-1.57-.1-3.3-.21-4.94-.45-.44-.06-.77-.09-1.06-.09-.71,0-1.36.11-2.05,1.51-1.16,2.35-3.66,3.81-6.54,3.81-1.04,0-2.08-.2-3.02-.58-3.76-1.53-5.68-5.1-4.9-9.11.71-3.62,4.06-6.35,7.79-6.35,3.74.01,6.91,2.54,7.72,6.14.11.49.12.53.71.56,2.41.12,5.02.33,7.97.65.08,0,.16.01.23.01.2,0,.27,0,.5-.49,3.15-6.56,8.38-9.91,15.54-9.95,6.74,0,12.77,4.19,15.37,10.68,3.18,7.94-.35,17.16-8.05,20.99-.7.35-.69.41-.52.94.57,1.84,1.11,3.83,1.65,6.06.02.08.03.12.04.15,0,0,.02,0,.03,0,.03,0,.09,0,.16,0,3.89.18,6.68,2.46,7.67,6.25,1.03,3.99-1.59,8.43-5.61,9.51-.68.18-1.38.28-2.09.28-3.67,0-6.97-2.44-7.83-5.79-.95-3.7.36-7.08,3.51-9.04.21-.13.25-.18.26-.19,0,0,0-.08-.08-.35-.55-1.86-1.01-3.76-1.45-5.59l-.09-.36c-.07-.29-.13-.36-.13-.36-.09.03-.17.04-.26.06-1.04.19-2.08.28-3.09.28-3.93,0-7.58-1.43-10.87-4.26-.03-.03-.05-.05-.08-.07,0,0-.02.02-.03.03-2.58,2.91-5.41,6.06-8.67,9.63-.06.06-.08.09-.09.11h0s.03.07.13.24c1.38,2.44,1.57,5.18.52,7.52-1.04,2.31-3.17,3.96-5.86,4.54-.51.11-1.03.16-1.54.16-2.09,0-4.16-.9-5.66-2.47-1.52-1.59-2.31-3.65-2.23-5.79q.02-.48-.44-.6c-.74-.2-1.45-.45-2.11-.75,0,0,0,0,0,0-.01.04-.03.08-.05.14-2.46,7.47-8.52,11.92-16.2,11.92-.64,0-1.3-.03-1.95-.09-.22-.02-.46-.06-.7-.11-.27-.05-.55-.1-.75-.1h-.02c-.07.17-.14.51-.17.67-.06.27-.12.54-.2.78-.02.07-.04.14-.05.21-.05.21-.11.41-.19.6-.61,1.32-.45,1.92.72,2.66,1.62,1.03,2.55,2.89,2.68,5.36.02.38.02.41.51.52l.17.04c3.24.71,6.59,1.46,9.85,2.37.23.06.37.09.45.09.03-.08.08-.23.15-.51,1.35-5.75,4.86-9.79,10.42-12,1.86-.74,3.83-1.12,5.85-1.12,7.81,0,14.65,5.39,16.27,12.82.4,1.83.41,3.73.43,5.41,0,.18,0,.3.02.37.03,0,.21,0,.21,0,.71-.04,1.44-.05,2.17-.05s1.46.02,2.19.06h.1c.25,0,.31,0,.46-.47.99-3.07,3.21-4.96,6.42-5.46.45-.07.89-.1,1.32-.1,2.33,0,4.35.98,6.01,2.93,1.96,2.31,2.37,5.96.96,8.68-1.35,2.62-4.18,4.38-7.05,4.38-.17,0-.34,0-.52-.02-3.43-.25-6.15-2.33-7.1-5.42-.19-.62-.28-.62-.65-.62h-.16c-.72.05-1.46.06-2.2.06s-1.47-.01-2.2-.03h-.56c-.33-.01-.35-.01-.5.35-2.08,5.05-5.78,8.41-11,10-1.46.45-3,.67-4.55.67h0Zm-5.11-13.98s-.06.04-.12.09c-2.08,1.65-3.19,3.71-3.31,6.12,0,.17.17.57.36.74,2.27,1.96,4.97,2.96,8.03,2.96s6.17-1.07,8.21-2.94c.22-.2.38-.6.37-.75-.11-2.43-1.18-4.43-3.3-6.12-.07-.05-.11-.08-.13-.09-.01.01-.07.04-.15.11-1.67,1.23-3.28,1.83-4.9,1.83-1.62,0-3.22-.6-4.89-1.83-.08-.06-.14-.09-.17-.1Zm34.44-2.97c-2.21,0-3.96,1.73-3.97,3.93-.01,2.22,1.72,3.96,3.93,3.97,1.11,0,2.15-.43,2.92-1.2.74-.75,1.15-1.74,1.14-2.79-.02-2.2-1.79-3.92-4.01-3.92h0Zm-22-.35c1.94,1.44,3.39,3.31,4.32,5.59,1.01-2.13,1.59-6.09.27-9.53-1.93-5.03-6.66-8.28-12.04-8.28-.29,0-.58,0-.87.03-5.32.33-10.11,4.31-11.4,9.47-.74,2.95-.52,5.67.68,8.27.91-2.27,2.22-3.98,4.04-5.3.29-.21.3-.22.18-.86-.29-1.58-.28-2.86.01-3.92.96-3.46,3.93-5.78,7.39-5.78.75,0,1.5.11,2.23.34,2.06.63,3.73,2.02,4.71,3.92.94,1.84,1.12,3.98.47,5.88,0,.03,0,.11,0,.17Zm-7.39-6.28c-2,0-3.67,1.65-3.72,3.68-.03.98.34,1.91,1.02,2.61.7.73,1.65,1.13,2.66,1.14,2.1,0,3.76-1.61,3.77-3.67,0-.99-.39-1.93-1.1-2.65-.71-.72-1.64-1.11-2.63-1.11h0Zm-35.47-2.79c-2.22.02-3.89,1.73-3.87,3.98.02,2.2,1.75,3.93,3.94,3.93,1.08,0,2.08-.42,2.83-1.17.75-.76,1.16-1.79,1.15-2.89-.03-2.16-1.78-3.85-3.99-3.85h-.05Zm70.85-17.59c-2.21.02-3.94,1.76-3.94,3.97,0,2.17,1.81,4.01,3.95,4.01,2.27-.05,3.98-1.79,3.96-4.06-.02-2.2-1.74-3.92-3.93-3.92h-.03Zm-67.08-2.9s-.12.05-.29.19c-1.76,1.42-2.81,3.29-3.21,5.72-.08.49.02.74.43,1.08,2.29,1.87,4.97,2.85,8.19,2.98,3.31-.15,5.98-1.16,8.11-3.08.2-.18.38-.62.36-.81-.25-2.4-1.33-4.39-3.2-5.9-.18-.14-.26-.17-.28-.18,0,0-.09.03-.29.18-1.46,1.12-3.1,1.71-4.76,1.71s-3.32-.6-4.79-1.72c-.16-.12-.25-.16-.27-.17Zm31.73-.51c-2.24,0-3.95,1.65-3.97,3.84-.01,1.12.39,2.16,1.13,2.91.72.73,1.72,1.14,2.8,1.14,2.21,0,3.96-1.71,3.97-3.9.01-2.21-1.69-3.97-3.88-3.99h-.05Zm-26.69-15.06c-3.45,0-6.69,1.36-9.11,3.83-4.19,4.27-4.17,10.43-2.54,13.93.91-2.22,2.35-4.07,4.3-5.53,0-.03,0-.06,0-.08-.52-1.97-.46-3.71.18-5.29,1.23-3.02,3.96-4.9,7.14-4.9.87,0,1.75.14,2.61.42,3.88,1.26,5.96,5.34,4.85,9.49q-.1.35.24.6c1.77,1.28,3.09,3,4.04,5.25,1.95-4.25,1.35-10.51-3.19-14.5-2.37-2.08-5.4-3.23-8.52-3.23Zm.03,6.02c-2.08,0-3.67,1.54-3.7,3.57-.03,2.08,1.6,3.8,3.63,3.85,2.03,0,3.76-1.69,3.78-3.68.01-1.02-.36-1.96-1.04-2.65-.68-.69-1.62-1.08-2.65-1.08h-.03Zm53.47-.93c2.98,0,5.67-1.01,8-3,.18-.16.36-.6.34-.79-.24-2.46-1.36-4.5-3.35-6.05-.06-.05-.1-.07-.13-.09-.02.02-.06.05-.13.1-1.59,1.22-3.25,1.84-4.94,1.84s-3.34-.62-4.9-1.84c-.07-.05-.12-.08-.15-.1-.01.02-.08.06-.19.15-1.84,1.45-2.92,3.38-3.31,5.89-.07.43.03.66.41.96,2.48,1.96,5.09,2.92,7.99,2.92h.17s.2,0,.2,0Zm-.16-23.51c.89,0,1.75.16,2.57.47,3.71,1.41,5.74,5,4.93,8.71-.18.85-.07,1.17.69,1.94,1.1,1.1,1.94,2.41,2.76,3.69.23.36.46.71.68,1.05,2.21-4.88.81-11.19-3.41-14.78-2.29-1.94-5.21-3.01-8.22-3.01-3.38,0-6.58,1.3-9,3.66-4.12,4-4.58,10.15-2.73,14.11.88-2.16,2.32-4.02,4.28-5.53,0-.04,0-.14,0-.18-.58-2.39-.34-4.45.75-6.29,1.4-2.36,3.96-3.82,6.7-3.82Zm-.05,4.01c-.98,0-1.9.4-2.6,1.1-.71.72-1.1,1.67-1.09,2.68.01,2.03,1.62,3.63,3.67,3.64,2.13,0,3.74-1.58,3.74-3.68,0-.99-.39-1.93-1.09-2.64-.7-.71-1.63-1.1-2.61-1.1h-.02Zm-32.4-2.81c-2.21,0-3.96,1.71-3.97,3.9,0,1.09.41,2.11,1.16,2.87.74.75,1.74,1.16,2.8,1.16,2.21-.01,3.94-1.77,3.94-3.99,0-2.24-1.69-3.92-3.93-3.93h0Zm-29.61-3.1c-2.24,0-3.93,1.68-3.94,3.91-.01,2.22,1.71,3.98,3.91,3.99,2.19,0,3.98-1.77,3.99-3.94,0-1.07-.4-2.07-1.13-2.8-.74-.74-1.73-1.15-2.81-1.15h-.02Z"/>
</svg>