<?xml version="1.0" encoding="UTF-8"?>
<svg id="Layer_1" data-name="Layer 1" xmlns="http://www.w3.org/2000/svg" viewBox="0 0 100 100">
  <defs>
    <style>
      .cls-1 {
        fill: #eee9dc;
      }
    </style>
  </defs>
  <g id="HnQIk0.tif">
    <path class="cls-1" d="m28.1,21.43c-1.17-1.18-2.34-2.13-3.21-3.3-1.92-2.55-2.22-5.39-.74-8.25,1.5-2.9,3.99-4.38,7.26-4.21,3.27.17,5.61,1.89,6.83,4.89.58,1.43.75,3.02,1.17,4.79.93-.17,2.03-.28,3.07-.6,3.32-1.01,5.61.43,6.93,3.25.43.91.95,1.78,1.65,3.08.74-1.22,1.26-2.08,1.78-2.93,1.84-3.01,3.25-3.65,6.71-3.04,1.01.18,2.24.76,2.98.39.6-.3.63-1.75.91-2.69,1.46-4.78,5.28-7.15,9.74-6.04,5.59,1.4,7.76,8.47,3.88,12.73-.75.83-1.6,1.59-2.51,2.23-.73.52-.89.89-.24,1.58.77.82,1.46,1.71,2.16,2.58,1.46,1.8,1.62,3.74.46,5.75-.69,1.2-1.44,2.38-2.36,3.89,1.66.05,3.01.09,4.36.14,2.54.09,4.12,1.23,4.87,3.51.31.94.61,1.88.93,2.82.11.34.27.66.45,1.1,4.55-2.1,8.8-2.24,11.94,2.31,1.9,2.76,1.47,6.66-.75,9.31-2.42,2.89-5.96,3.25-11.65,1.07-.48,1.22-.99,2.44-1.42,3.68-.76,2.14-2.34,3.38-4.62,3.45-1.47.05-2.95,0-4.78,0,.54,1.14.96,2.04,1.41,2.93,1.84,3.67,1.6,5.21-1.26,8.2-.52.55-.99,1.14-1.57,1.81.84.76,1.6,1.43,2.35,2.12,2.36,2.16,3.28,5.85,2.19,8.66-1.33,3.4-3.96,5.35-7.22,5.33-4.26-.02-7.57-3.29-8.01-7.93-.06-.57-.1-1.15-.16-1.89-1.36.2-2.64.38-3.91.58-2.82.45-4.37-.31-5.76-2.84-.62-1.14-1.25-2.27-2.06-3.73-.8,1.32-1.44,2.38-2.09,3.43-1.57,2.55-3.24,3.25-6.12,2.61-1.14-.25-2.54-.93-3.36-.51-.69.35-.72,2.01-1.02,3.09-1.15,4.13-5.2,6.68-9.22,5.8-4.22-.92-6.86-4.83-6.05-9.13.46-2.47,1.96-4.33,4.02-5.69.97-.64,1.11-1.13.26-1.96-.6-.59-1.08-1.32-1.61-1.99-1.6-1.98-1.76-3.89-.48-6.1.67-1.16,1.39-2.29,2.17-3.58-2.61-.66-5.27.34-7.49-1.33-2.17-1.63-1.99-4.43-3.32-6.44-6.49,1.83-9.4,1.25-11.9-2.31-1.82-2.59-1.79-6.42.4-9.08,3.36-4.06,7.48-3.57,11.77-1.41,1.4-2.07,1.2-5.27,3.69-6.26,2.15-.86,4.66-.83,7.17-1.22-.73-2.08-2.8-3.89-2.57-6.52.24-2.72,2.77-3.99,3.96-6.1Zm23.05,25.93c2.31,1.4,4.62,2.79,6.91,4.21.75.47,1.22.35,1.58-.46,1.01-2.26,2.04-4.51,3.05-6.76.35-.78.17-1.33-.6-1.79-3.97-2.38-7.93-4.79-11.88-7.21-.71-.43-1.26-.35-1.76.28-1.53,1.94-3.04,3.9-4.58,5.83-.59.74-.47,1.22.35,1.7,2.33,1.37,4.62,2.79,6.93,4.19Zm-1.53,2.59c-2.27-1.38-4.56-2.72-6.79-4.15-.98-.63-1.49-.44-1.93.59-.94,2.19-1.94,4.35-2.92,6.52-.36.8-.13,1.33.63,1.78,3.93,2.36,7.86,4.74,11.76,7.15.82.51,1.41.38,1.97-.35,1.46-1.88,2.91-3.77,4.41-5.62.71-.88.46-1.36-.43-1.88-2.25-1.31-4.47-2.7-6.7-4.05Zm-22.78-12.48c-1.66-.05-3.05-.1-4.43-.13-.97-.02-1.61.43-1.98,1.33-.57,1.42-1.23,2.8-1.7,4.25-.17.51-.06,1.25.2,1.73,1,1.83,1.38,3.82.28,5.52-1.13,1.75-.86,3.22-.15,4.88.34.78.53,1.63.91,2.39.22.44.65,1.03,1.06,1.09,1.69.26,3.4.35,5.41.52-2.84-7.41-2.41-14.42.4-21.58Zm44.43,26.74c-5.01,6.13-11.16,9.49-18.96,10.4.94,1.65,1.69,3.16,2.66,4.53.29.41,1.2.59,1.8.53,1.43-.13,2.86-.37,4.25-.74.61-.16,1.29-.62,1.61-1.15,1.37-2.27,3.28-3.33,5.95-3.15.53.04,1.22-.28,1.6-.67,1.04-1.05,2.03-2.18,2.9-3.37.36-.48.68-1.33.49-1.81-.58-1.48-1.41-2.87-2.3-4.58Zm-41.78-31.31c2.53-3.05,5.18-5.42,8.39-7.12,3.2-1.69,6.61-2.68,10.46-3.13-.9-1.63-1.58-3.1-2.5-4.39-.32-.45-1.25-.71-1.88-.66-1.43.1-2.86.37-4.25.73-.61.16-1.32.59-1.64,1.11-1.4,2.23-3.32,3.3-5.97,3.18-.5-.02-1.17.22-1.52.57-1.08,1.08-2.09,2.23-3.02,3.44-.34.45-.66,1.26-.48,1.69.64,1.5,1.5,2.9,2.4,4.58Zm-.68,30.48c-.87,1.43-1.61,2.55-2.25,3.73-.47.88-.5,1.76.26,2.61.99,1.1,1.83,2.33,2.83,3.42.34.37.95.69,1.45.7,2.76.05,4.68,1.3,5.87,3.79.17.35.56.74.92.83,1.57.38,3.16.72,4.76.92.59.07,1.49-.11,1.8-.52.98-1.3,1.75-2.76,2.71-4.34-7.73-1.11-13.75-4.77-18.34-11.15Zm43.09-29.44c.9-1.48,1.78-2.65,2.33-3.95.26-.61.1-1.64-.27-2.22-.84-1.31-1.9-2.49-2.95-3.66-.31-.35-.87-.67-1.32-.66-2.79.03-4.66-1.3-5.91-3.72-.2-.39-.61-.83-1.01-.93-1.57-.39-3.15-.73-4.75-.92-.59-.07-1.49.12-1.79.53-.98,1.3-1.74,2.76-2.7,4.33,7.74,1.12,13.76,4.77,18.38,11.21Zm2.38,4.3c2.8,7.35,2.62,14.39-.5,21.61,1.91-.02,3.55.04,5.17-.12.47-.05,1.05-.7,1.28-1.21.65-1.48,1.18-3.01,1.67-4.55.12-.39.02-.98-.21-1.34-1.21-1.92-1.57-4.08-.33-5.86,1.25-1.8.71-3.23.1-4.85-.27-.71-.41-1.49-.77-2.15-.26-.47-.75-1.05-1.2-1.12-1.61-.24-3.26-.27-5.2-.4Zm-43.24,11.86h0c1.04.63,2.05,1.31,3.13,1.85.29.15,1.05.02,1.15-.19,1.2-2.46,2.34-4.95,3.42-7.46.12-.29-.13-.98-.42-1.16-2.5-1.59-5.06-3.1-7.58-4.66-.75-.46-1.16-.21-1.42.53-.48,1.3-1.06,2.58-1.41,3.92-1.15,4.41-1.03,4.64,2.79,6.96l.35.21Zm35.1,6.37c1.27.77,2.54,1.53,3.8,2.31.64.4,1.04.29,1.38-.4,1.22-2.5,1.88-5.14,1.96-7.91.01-.46-.21-1.15-.56-1.38-2.07-1.35-4.19-2.63-6.33-3.85-.23-.13-.95.12-1.08.38-1.14,2.34-2.19,4.72-3.3,7.07-.34.71-.24,1.15.45,1.54,1.25.71,2.46,1.48,3.69,2.23Zm-34.84-21.18c3.03,1.84,5.86,3.58,8.72,5.26.21.12.79-.05.97-.27,1.65-2.01,3.23-4.08,4.87-6.1.63-.78.44-1.22-.36-1.68-1.9-1.11-3.75-2.3-5.66-3.4-.38-.22-1.02-.41-1.34-.23-2.83,1.53-5.14,3.66-7.2,6.43Zm28.87,21.17c-1.84,2.3-3.59,4.51-5.38,6.7-.6.74-.36,1.17.36,1.59,1.4.81,2.77,1.67,4.15,2.51,2.58,1.57,2.6,1.59,5.01-.18,1.91-1.4,3.61-3.01,5-5.06-3.11-1.89-6.08-3.7-9.15-5.56Zm-2.58-19.94c1.73,1.05,3.46,2.1,5.19,3.16.63.39,1.22.39,1.26-.45.13-2.4.44-4.85.15-7.21-.37-3-2.53-4.33-5.38-3.34-2.21.76-4.23,2.1-6.29,3.25-.87.49-.75,1.08.11,1.59,1.67.98,3.31,2,4.96,3Zm-14.58,24.17c-1.69-1.03-3.39-2.04-5.07-3.09-.76-.47-1.26-.41-1.44.55-.47,2.45-.69,4.9-.03,7.35.74,2.76,2.5,3.79,5.29,3.17,2.53-.56,4.59-2,6.58-3.56.7-.55.35-.97-.25-1.34-1.7-1.02-3.38-2.05-5.08-3.08Zm32.12-43.36c1.44-2.27,1.17-4.97-.43-6.51-1.78-1.72-4.39-1.9-6.41-.44-1.99,1.44-2.9,4.93-1.97,7.59.66,1.89,2.12,2.78,4.1,2.35,2.06-.44,3.65-1.63,4.71-2.99ZM27.4,87.41c1.33.75,3.16.74,4.93-.47,2.22-1.52,3.04-5.68,1.68-8.32-.67-1.3-1.75-1.9-3.2-1.71-2,.26-3.67,1.2-4.98,2.7-2.06,2.36-1.53,5.89,1.57,7.8Zm2.24-68.71c.17.09.56.33.97.51,2.34,1.03,4.54.19,5.34-2.21.81-2.43.39-4.79-1.28-6.72-2.46-2.85-6.94-1.96-8.25,1.55-.85,2.27.44,5.17,3.22,6.86Zm41.58,59.97c-.47-.25-.85-.49-1.26-.66-2.47-1.04-4.43-.25-5.24,2.28-.72,2.26-.38,4.48.99,6.43,1.28,1.82,3.74,2.41,5.81,1.53,2.06-.87,3.28-3.03,2.93-5.23-.32-2.04-1.68-3.31-3.23-4.34Zm15.25-25.1c1.34.29,2.66.77,4.01.83,2.26.1,4.24-1.61,4.68-3.73.49-2.35-.51-4.46-2.63-5.51-2.03-1.01-3.94-.47-5.79.5-1.53.8-2.89,1.88-2.95,3.73-.06,1.85,1.28,2.97,2.67,4.18Zm-70.16-4.06c.91-1.43.84-2.47-.22-3.81-1.29-1.63-3.02-2.52-5.03-2.86-2.16-.36-4.45.98-5.33,3.04-.82,1.92-.14,4.31,1.6,5.66,2.52,1.95,7.1.91,8.97-2.04Zm11.41,1.93c-.38,3.53,2.97,10.79,5.4,12.08.06-.06.16-.12.16-.19.29-2.4.58-4.8.83-7.2.03-.31-.08-.81-.3-.95-1.95-1.25-3.95-2.43-6.09-3.74Zm14.54-24.24c1.63.99,3.07,1.87,4.52,2.75,1.96,1.19,1.94,1.16,3.82-.18,1.63-1.15,3.32-2.22,5-3.34-2.28-1.53-10.38-1.16-13.33.77Zm30.67,18.64c.45-3.36-2.92-10.71-5.48-12.18-.1,1.46.11,2.98-.35,4.25-1.22,3.29.12,5.06,3.04,6.26.95.39,1.8,1.06,2.8,1.67Zm-14.59,24.18c-2.11-1.28-4.05-2.49-6.02-3.63-.23-.14-.74-.03-1,.14-2.07,1.4-4.1,2.85-6.13,4.27,1.94,1.49,10.47,1.13,13.15-.79Z"/>
  </g>
</svg>