<?xml version="1.0" encoding="UTF-8"?>
<svg id="Layer_1" data-name="Layer 1" xmlns="http://www.w3.org/2000/svg" viewBox="0 0 100 100">
  <defs>
    <style>
      .cls-1 {
        fill: #eee9dc;
      }
    </style>
  </defs>
  <path class="cls-1" d="m92.71,65.78c-.36-.42-.91-.48-1.42-.48h0c-1.39.02-2.77.02-4.16.02-1.17,0-5.17-.01-5.17-.01-.26,0-.52-.02-.79-.04.01-.18.03-.35.04-.52.06-.71.11-1.38.11-2.06.02-2.76.04-5.7,0-8.66,0-.42.07-.57.12-.61.05-.05.19-.12.62-.12h0c.97.02,1.93.02,2.9.02h3.12c.65,0,1.3,0,2,0,.44,0,.98-.05,1.34-.48.44-.52.44-1.35.07-3.04-.57-2.59-.73-5.27-.31-7.89.4-2.46.91-4.01.25-4.78-.33-.39-.83-.44-1.25-.44h0c-.56,0-1.13.01-1.69.01h-2.3c-.6,0-1.21,0-1.87.01-.32,0-.39-.06-.39-.07,0,0-.06-.07-.05-.38.05-1.01.05-2.06,0-3.12-.23-5.13-2.71-8.85-7.38-11.06-.29-.14-.59-.27-.86-.38.25-.54.52-1.06.77-1.58.41-.85.7-1.75.79-2.69.14-1.48-.04-2.98-.53-4.2-.02-.06-.06-.12-.09-.18l3.77-.65c.48-.08.54-.74.08-.91l-10.63-3.86c-.08-.03-.17-.04-.25-.02l-11.47,2.26c-.48.09-.52.76-.06.91l3.91,1.28c-.52.86-.89,1.79-1.06,2.81-.43,2.55.22,4.9,1.95,6.97-.92.41-1.83.83-2.75,1.24-2.28,1.04-4.65,2.11-6.99,3.12-1.14.49-2.25,1.09-3.32,1.67-2.13,1.16-4.13,2.25-6.48,2.61-.15.02-.39.09-.54.15l-2.26.95c-1.69.71-3.38,1.42-5.07,2.12-1.16.48-2.31.95-3.56,1.46l-.86.35c.68-1.64,1.12-3.52.56-5.58-.39-1.44-1.06-2.67-1.99-3.66l5.2-2.36c.51-.23.47-.98-.07-1.15l-11.5-3.63c-.15-.05-.32-.03-.46.04l-10.93,5.51c-.5.25-.43.99.11,1.14l4.81,1.33c-.82,1.15-1.32,2.46-1.47,3.93-.26,2.57.57,4.85,2.56,6.94-.24.15-.43.26-.62.38-3.88,2.45-5.86,5.93-5.89,10.33-.06,10.03-.05,20.23-.03,30.1v5.63c.01,3.04,2.22,5.25,5.26,5.25h27.38c.06,0,.12,0,.2-.01h.07c.99,0,1.8-.8,1.8-1.79,0-.87-.63-1.61-1.49-1.76l-.1-.05h-22.39c-.2,0-.4-.01-.66-.03.15-.22.28-.38.41-.51l.28-.26c2.07-1.94,4.21-3.94,6.37-5.85.2-.17.58-.3.89-.3.07,0,.13,0,.18.02.38.09.77.13,1.16.13,2.7,0,4.92-1.99,4.95-4.44.02-1.78.84-2.75,2.18-4.14,1.27-1.32,2.66-1.86,4.85-1.86h0c7.84.04,15.68.05,23.53.05h22.11c.49,0,1,0,1.09.05.07.11.07.63.07,1.13v3.78c0,.79.64,1.43,1.43,1.43s1.37-.59,1.42-1.34c.12-1.79.32-3.58.61-5.31.24-1.47.29-2.37-.16-2.91Zm-23.65-51.43l3.85-.66c.53.77.84,1.7.84,2.7-.01,2.58-2.1,4.6-4.76,4.6-2.51,0-4.62-2.13-4.62-4.65,0-1.17.47-2.24,1.21-3.08l3.25,1.07c.07.02.15.03.23.02Zm-45.56,14.71l2.41-1.09c1.37.81,2.31,2.29,2.33,3.98,0,1.2-.5,2.41-1.39,3.3-.9.9-2.1,1.42-3.32,1.42-1.23,0-2.39-.49-3.27-1.37-.89-.9-1.38-2.1-1.38-3.38,0-1.53.7-2.83,1.78-3.66l2.84.79Zm-5.69,55.45c0,.94-.6,1.59-1.46,1.59-.83,0-1.42-.63-1.42-1.5-.02-5.09-.01-10.17,0-15.26v-3.84c.14.04.28.08.41.12.81.23,1.57.46,2.27.72.07.06.19.31.19.43.03,6.83.03,12.46,0,17.74Zm8.1-7.73c-1.28,1.23-2.61,2.45-3.91,3.63l-.56.51c0-.1,0-.2,0-.3,0-1.32,0-2.64,0-3.96,0-3.1.01-6.31-.03-9.47,0-.5.08-.69.15-.77.07-.07.23-.11.47-.11.08,0,.17,0,.27.01.43.04.85.05,1.28.05.5,0,1.01-.02,1.59-.04.18,0,.31.03.36.08.03.03.1.14.09.5-.03,2.36-.06,4.49,0,6.61.01.53.11,1.04.2,1.54.07.35.14.71.17,1.06.03.33-.04.6-.08.65Zm6.18-2.65c0,.9-.59,1.55-1.45,1.55h0c-.83-.02-1.35-.61-1.36-1.54-.02-1.5-.01-3.01-.01-4.51,0-1.08,0-2.15,0-3.22-.01-2.49-1.21-3.71-3.68-3.74-.48,0-.95,0-1.43,0h-2.99c-.92,0-1.83,0-2.74-.02-2.09-.04-3.41-1.23-3.45-3.09-.08-3.77-.18-8.04.19-12.21.33-3.73,3.78-6.84,7.86-7.07h.19c.11-.02.22-.03.33-.03.06,0,.12,0,.18.01.64.09,1.29.14,1.94.14,3.59,0,6.85-1.44,10.09-2.88,1.91-.85,3.89-1.66,5.8-2.44l.79-.33c.17-.07.35-.11.54-.11.61,0,1.15.39,1.36,1.01.22.68-.09,1.42-.74,1.72l-7.86,3.72c-3.33,1.58-6.66,3.15-10.01,4.7-1.26.58-1.43,1.48-1.3,2.66.29,2.6.29,5.13.02,7.52-.11.97-.1,1.67.31,2.13.26.3.65.44,1.18.44.07,0,.14,0,.22,0,.4-.03.8-.04,1.2-.04.53,0,1.06.02,1.59.04,1.8.06,3.22,1.46,3.24,3.2.04,4,.03,7.98,0,12.4Zm24.78-26c-.04,4.64-.04,9.6,0,15.59v.16c0,.6,0,1.22-.09,1.32-.1.1-.79.1-1.45.1h-8.11c-2.26.01-4.52,0-6.78-.03h-.11c-1.53,0-2.6.45-3.49,1.45-.28.32-.62.61-1.05.96,0,0-.01,0-.02.01-.02-.15-.04-.29-.04-.42v-.41c-.02-1.54-.04-3.13,0-4.69.04-2-.68-3.84-2.02-5.21-1.28-1.3-3.02-2.05-4.77-2.05-.11,0-.44.01-.44.01-.21,0-.37-.04-.43-.1-.05-.05-.12-.19-.11-.59.05-1.56.05-3.14,0-4.69-.02-.64.15-.9.75-1.18,2.04-.95,4.09-1.95,6.07-2.93,4.03-1.98,8.19-4.02,12.42-5.64,3.67-1.41,7.09-3.09,10.7-4.88,2.17-1.07,4.42-2.18,6.72-3.21v1.88c0,.52,0,1.04,0,1.57,0,1.38.02,2.81-.05,4.21-.01.26-.3.7-.56.87-.63.39-1.29.71-1.99,1.04-.41.19-.81.39-1.21.6-2.56,1.34-3.93,3.51-3.96,6.27Zm14.32,17.14h-1.55c-.9,0-1.82,0-2.74-.03-.04-.06-.07-.12-.08-.15.01-1.62.03-3.23.06-4.85.03-2.17.06-4.33.06-6.5,0-.8.17-1.02.86-1.11.63-.09,1.24-.27,1.69-.41.06-.02.11-.03.16-.05.14.11.28.22.4.31.35.27.6.46.78.69.19.24.33.58.33.85.03,2.19.02,4.37.02,6.56v4.69Zm.46-28.59c-.09,0-.17,0-.25,0-.5,0-.87.13-1.12.39-.37.37-.4.91-.4,1.34.03,1.7.03,3.41.02,5.12,0,1.33,0,2.65,0,3.98,0,.73-.11.9-.69,1.01-1.16.21-2.3.57-3.46.95-1.66.55-2.41,1.59-2.41,3.36,0,1.67,0,3.35,0,5.03,0,1.93,0,3.86,0,5.78,0,.98-.56,1.64-1.46,1.64h0c-.78-.03-1.32-.58-1.33-1.33-.03-6.14-.02-11.27.01-16.15,0-1.1.61-1.98,1.8-2.61.63-.34,1.27-.65,1.91-.97.94-.47,1.91-.95,2.84-1.48.55-.31,1.14-1.1,1.15-1.77.05-2.61.04-5.27.04-7.83,0-1.37,0-2.75,0-4.12,0-.97-.46-1.44-1.41-1.46h-.19c-1.41,0-2.5.24-3.54.77-3.48,1.81-7.06,3.58-10.52,5.3l-2.77,1.38c-.41.2-.8.31-1.14.31-.67,0-1.09-.39-1.2-1.11-.1-.7.1-1.17.59-1.41,1.4-.67,2.78-1.35,4.17-2.04,3.7-1.82,7.53-3.7,11.4-5.25,1.68-.67,3.54-1.01,5.51-1.01,1.6,0,3.26.22,4.93.66,3.61.95,6.02,4.1,6.14,8.03.06,1.88.04,3.8.03,5.66v1.83c-.02,1.05-.4,1.14-.85,1.15-.43,0-.74-.08-.76-1.14-.02-.85-.03-1.71-.04-2.56-.02-1.81-.04-3.69-.19-5.53-.16-2.06-1.11-3.92-2.89-5.71l-.33-.33-.66.57c-.17.15-.33.29-.5.42-.35.26-.83.69-.91,1.3-.06.48.13.97.58,1.54,1.46,1.81,1.34,4.11,1.21,6.17-.09.07-.26.15-.34.16-.55.03-1.1.05-1.66.05-.45,0-.9-.01-1.35-.04Zm1.84,12.93v-5.83c0-.3,0-.6,0-.9,0-.68.02-1.39-.02-2.09-.02-.27.02-.42.07-.46.02-.02.09-.07.37-.07.06,0,.12,0,.18,0,.12,0,.24.01.36.01.58,0,.61,0,.62.51.05,2.36,1.16,3.92,3.2,4.5.42.12.84.18,1.27.18,1.16,0,2.28-.46,3.09-1.27.8-.8,1.24-1.88,1.23-3.04,0-.53.09-.74.16-.81s.24-.12.49-.12c.1,0,.2,0,.32.02.41.04.83.05,1.25.05.46,0,.93-.02,1.39-.03h.22c.24,0,.31.05.32.06.02.02.07.09.07.35v2.6c0,2.01,0,4.03-.03,5.99-.03.1-.24.32-.28.35-2.15.02-4.29.02-6.44.02s-4.42,0-6.62-.01l-1.21-.03Zm4.14,13.73c-.02.62-.29,1.32-.63,1.63-.11.1-.43.2-.78.2-.25,0-.41-.05-.49-.09-.42-.25-.85-.9-.9-1.36-.11-1.15-.09-2.35-.07-3.51,0-.48.02-.96.02-1.44v-.38s0-1.03,0-1.03c0-1.16.01-2.33-.02-3.49,0-.34.06-.45.09-.47.03-.03.12-.09.43-.09v-.5l.04.5c.26,0,1.28,0,1.28,0,.32,0,.91,0,1.02.07.07.11.06.63.06,1.14,0,.29,0,.62,0,1.01v.88c.03,2.28.04,4.64-.03,6.94Z"/>
  <path class="cls-1" d="m91.63,80.12c-.04-.75-.65-1.34-1.4-1.34s-1.4.63-1.4,1.4v4.8c0,.36,0,.84-.04.93-.1.06-.59.06-.91.06h-33.37c-.11,0-.23,0-.29.03-.63.05-1.2.44-1.48,1-.29.6-.23,1.29.16,1.9.29.44.79.7,1.34.7.04,0,.08,0,.12,0h3.87c10.02,0,23.56,0,32.48.01h0c.49,0,1.05-.06,1.4-.48.46-.54.41-1.43.11-3.33-.3-1.87-.5-3.79-.6-5.69Z"/>
</svg>