<?xml version="1.0" encoding="UTF-8"?>
<svg id="Layer_1" data-name="Layer 1" xmlns="http://www.w3.org/2000/svg" viewBox="0 0 100 100">
  <defs>
    <style>
      .cls-1 {
        fill: #9daf82;
      }
    </style>
  </defs>
  <path class="cls-1" d="m57.96,86.44c-1.41,0-2.89-.31-4.54-.94-6.19-2.38-12.89-4.75-21.09-7.47-1.03-.34-2.23-.37-3.5-.39h-.12c-.25,0-.49-.01-.75-.02h-.27s0,.26,0,.26c0,.63,0,1.18,0,1.74-.06,2.84-1.92,4.68-4.76,4.7-1.49,0-2.97.01-4.46.01s-2.97,0-4.46-.01c-2.85-.02-4.77-1.91-4.78-4.7-.03-10.47-.03-20.72,0-30.48,0-2.78,1.94-4.67,4.8-4.69,1.52,0,3.05-.01,4.57-.01s2.9,0,4.35.01c2.82.02,4.68,1.87,4.74,4.72.02,1.05.05,1.82.17,2.12l.05.12.12.03c.13.03.33.05.58.05.36,0,.84-.04,1.29-.07.74-.06,1.5-.09,2.24-.09,6.24,0,12.09,2.19,17.08,4.24,2.04.84,3.95,1.25,5.82,1.25.2,0,.4,0,.61-.01,1.03-.05,2.14-.07,3.48-.07.91,0,1.82.01,2.73.02h.16c.73,0,1.46.02,2.19.02,4.04.01,6.23,1.96,6.52,5.78l.02.29.29-.06c3.36-1.05,6.68-2.09,10-3.13l.36-.11c2.5-.79,5-1.57,7.5-2.35.69-.22,1.39-.33,2.07-.33,2.32,0,4.24,1.24,5.13,3.32,1.2,2.81.14,5.77-2.65,7.36-4.79,2.74-9.59,5.47-14.39,8.19l-7.34,4.18c-.83.47-1.68.94-2.52,1.4-1.91,1.05-3.88,2.13-5.7,3.34-1.8,1.2-3.62,1.78-5.56,1.78Zm-28.83-12.3c1.82,0,3.79.1,5.79.84,5.03,1.86,10.14,3.67,15.08,5.43l.24.08c2.05.73,4.09,1.46,6.14,2.19.56.2,1.09.3,1.62.3.78,0,1.54-.22,2.31-.66,6.8-3.89,13.61-7.77,20.41-11.65l10.71-6.11c1.75-1,1.71-2.16,1.36-2.95-.32-.73-.95-1.12-1.82-1.12-.37,0-.77.07-1.2.2-1.95.61-3.89,1.23-5.84,1.86-3.72,1.19-7.57,2.42-11.38,3.56-.61.18-1.22.38-1.83.58l-.07.02c-2.31.75-4.7,1.53-7.29,1.53-.14,0-.29,0-.43,0-1.27-.04-2.63-.06-4.29-.06-1.12,0-2.23,0-3.35.02h-.39c-.89.01-1.78.02-2.66.02-2.69,0-4.01,1.27-4.14,3.97-.05.94-.28,2.18-1.77,2.18h-.09c-1.45-.05-1.65-1.26-1.68-2.17-.07-2.1.62-4,1.94-5.38,1.34-1.4,3.28-2.19,5.47-2.22,1.61-.02,3.22-.03,4.83-.03h5.46c.62,0,1.23,0,1.85,0,.62,0,1.16-.05,1.64-.15.63-.13,1.33-.55,1.37-1.37.04-.68-.24-1.55-.61-1.89-.43-.4-1.31-.68-2.19-.7-1.73-.05-3.4-.05-4.81-.05h-3.71c-.77,0-1.54,0-2.31,0-1,0-1.83-.13-2.53-.37l-.76-.26c-1.97-.67-4.01-1.36-5.95-2.24-3.83-1.72-8.06-2.56-12.93-2.56-1.09,0-2.18.04-3.35.12l-.24.02v7.05c-.01,3.91-.02,7.83-.03,11.74v.26s.26,0,.26,0c.44,0,.81-.01,1.17-.01Zm-10.42-26.13c-1.35,0-2.71,0-4.06,0-1.63,0-1.76.13-1.76,1.72,0,3.79,0,7.58,0,11.37v3.34s0,4.57,0,4.57c0,3.42,0,6.85,0,10.27,0,1.27.21,1.47,1.49,1.48,1.33,0,2.66.01,4,.01s2.75,0,4.12-.01c1.4,0,1.6-.33,1.6-1.53.02-9.73.02-19.72,0-29.68,0-1.28-.27-1.54-1.59-1.54-1.27,0-2.54-.01-3.81-.01Z"/>
  <path class="cls-1" d="m64.47,52.24c-12.31,0-22.33-10.02-22.33-22.33s10.02-22.33,22.33-22.33,22.33,10.02,22.33,22.33-10.02,22.33-22.33,22.33Zm0-40.04c-9.76,0-17.71,7.94-17.71,17.71s7.94,17.71,17.71,17.71,17.71-7.94,17.71-17.71-7.94-17.71-17.71-17.71Z"/>
  <path class="cls-1" d="m62.76,43.61v-2.57c-.7-.12-1.4-.33-2.09-.64-1.01-.45-1.84-1.05-2.49-1.77l-.54-.61,2.37-3.2.82.95c.42.49.9.87,1.43,1.12.17.08.34.15.5.21v-6.43c-.45-.2-.87-.42-1.27-.65-.63-.37-1.19-.82-1.65-1.33-.49-.54-.87-1.19-1.14-1.93-.26-.73-.4-1.6-.4-2.6,0-1.94.52-3.52,1.54-4.68.82-.94,1.83-1.56,2.98-1.86v-2.63h3.14v2.51c.63.09,1.25.25,1.85.48.96.37,1.79.98,2.47,1.8l.49.6-2.32,3.18-.81-1.06c-.32-.41-.7-.73-1.17-.96-.17-.08-.34-.15-.51-.2v6.3c.45.2.88.41,1.3.63.67.35,1.28.8,1.79,1.33.53.54.95,1.19,1.25,1.93s.46,1.65.46,2.7-.14,1.93-.42,2.74c-.29.82-.69,1.54-1.19,2.15-.52.62-1.15,1.11-1.87,1.46-.43.21-.89.36-1.37.46v2.57h-3.14Zm3.2-5.64c.13-.11.26-.23.39-.37.72-.76,1.08-1.87,1.08-3.29,0-.74-.1-1.34-.3-1.8-.2-.46-.46-.86-.79-1.18-.12-.12-.25-.24-.38-.34v6.98Zm-3.28-17.66c-.85.81-1.29,2.05-1.29,3.68,0,.91.12,1.67.36,2.26.22.55.51,1,.87,1.35.04.04.09.08.13.13v-7.49s-.05.05-.08.07Z"/>
</svg>