<?xml version="1.0" encoding="UTF-8"?>
<svg id="Layer_1" data-name="Layer 1" xmlns="http://www.w3.org/2000/svg" viewBox="0 0 100 100">
  <defs>
    <style>
      .cls-1 {
        fill: #9daf82;
      }
    </style>
  </defs>
  <g id="rYUq04.tif">
    <g>
      <path class="cls-1" d="m29.39,59.19v3.78c3.46-.7,6.88-1.49,10.33-2.06,2.85-.47,3.54.3,3.31,3.25-.03.41-.09.82-.15,1.22-1.48,9.73-2.29,10.55-11.99,12.27-.48.08-.94.24-1.64.42,0,2.38,0,4.75,0,7.13,0,1.32.15,2.96-1.68,3.01-1.85.05-1.78-1.56-1.78-2.91,0-2.38,0-4.76,0-7.29-2.16-.41-4.16-.76-6.16-1.17-3.6-.74-5.86-2.86-6.54-6.52-.41-2.18-.84-4.37-1.08-6.57-.27-2.47.52-3.26,2.93-2.87,3.54.57,7.05,1.32,10.67,2.01v-3.69c-2.4-.56-4.79-1.07-7.17-1.67-2.73-.69-4.46-2.47-5.07-5.19-.57-2.56-.99-5.16-1.39-7.76-.32-2.07.75-2.99,2.73-2.66,3.62.61,7.21,1.34,10.91,2.04v-3.79c-2.12-.42-4.21-.8-6.28-1.26-3.39-.75-5.54-2.79-6.2-6.24-.43-2.26-.81-4.53-1.15-6.81-.32-2.11.57-3.23,2.76-2.86,3.61.62,7.2,1.35,11.02,2.08,0-1.2-.17-2.67.04-4.09.25-1.72-1.23-4.77,1.78-4.71,2.96.06,1.37,3.1,1.66,4.82.23,1.36.05,2.78.05,4.17,3.17-.74,6.2-1.61,9.3-2.13,4.25-.71,4.94.12,4.26,4.5-1.51,9.73-2.54,10.75-12.33,12.23-.31.05-.62.14-1.08.25-.05.75-.12,1.47-.14,2.18-.02.65,0,1.3,0,1.71,3.63-.72,7.12-1.54,10.66-2.06,2.67-.39,3.25.31,3.09,2.99-.02.41-.06.82-.12,1.23-1.4,9.99-2.27,10.88-12.21,12.61-.4.07-.78.22-1.32.37Zm9.66-32.44c-7.76.61-10.06,3.02-9.24,9.53,7.64-.51,9.16-1.61,9.24-9.53Zm-23.04-.02c-.07,7.55,1.54,9.39,9.33,9.42-.57-8.53-1.85-8.58-9.33-9.42Zm-.17,19.01c.09,7.5,3.34,10.53,9.6,9.14-.92-7.78-1.38-8.49-9.6-9.14Zm13.84,9.28c7.65-.08,9.34-1.46,9.35-9.23-7.74.46-8.87,1.38-9.35,9.23Zm-13.74,9.64c-.32,7.02,3.21,10.41,9.46,9.26-.33-7.26-2.34-9.26-9.46-9.26Zm13.64,9.42c7.24.15,10.51-3.2,9.34-9.4-6.95-.04-8.92,1.9-9.34,9.4Z"/>
      <path class="cls-1" d="m48.35,67.22c0-5.93-.02-11.85,0-17.78.02-3.93,1.46-5.42,5.34-5.43,9.14-.03,18.27-.03,27.41,0,3.95.01,5.44,1.45,5.44,5.33.03,12.1-.02,24.19.03,36.29,0,2.17-.74,3.11-3.03,3.09-10.7-.07-21.4-.08-32.1,0-2.43.02-3.16-.97-3.13-3.24.08-6.09.03-12.18.03-18.27Zm34.61,17.83c0-7.7.03-15.25-.08-22.8,0-.38-1.12-1.06-1.72-1.06-9.14-.07-18.28-.03-27.42-.07-1.41,0-1.88.5-1.86,1.87.05,4.03.02,8.07.02,12.1,0,3.27,0,6.54,0,9.97h31.07Zm-22.25-27.54h13.44v-9.86h-13.44v9.86Zm-3.79-10.06c-1.26,0-2.42-.13-3.51.06-.55.09-1.4.77-1.42,1.21-.13,2.91-.07,5.83-.07,8.81h4.99v-10.08Zm21.07.17v9.9h5c0-1.99,0-3.85,0-5.71q0-4.71-5-4.19Z"/>
      <path class="cls-1" d="m81.31,21.59c0,2.11.05,3.83,0,5.54-.24,7.44-6.18,13.23-13.63,13.35s-13.93-6.28-14.07-13.91c-.03-1.55,0-3.12,0-4.95-1.68,0-3.1.22-4.41-.08,0,0-.02,0-.03,0-1.61-.39-1.71-2.72-.15-3.29.09-.03.19-.06.28-.08,1.33-.29,2.77-.07,4.22-.07.24-.76.43-1.38.63-1.99,1.96-5.99,7.25-9.91,13.34-9.89,6.01.02,11.36,3.82,13.16,9.74.56,1.85,1.38,2.34,3.08,2.16.89-.09,1.89-.21,2.69.09.17.06.32.16.46.27.9.72.92,2.14,0,2.82-.15.11-.31.19-.48.22-1.51.24-3.09.08-5.08.08Zm-24.15.18c0,2.18-.21,4.25.04,6.25.93,7.43,9.08,11.37,15.51,7.59,4.38-2.58,6.25-8,4.74-13.84h-20.28Zm20.18-3.78c-.78-5.3-5.55-8.84-10.9-8.33-4.8.46-8.85,4.33-8.64,8.33h19.54Z"/>
      <path class="cls-1" d="m58.86,66.35c.65.03,1.39-.12,1.92.14.56.27,1.25.93,1.28,1.45.03.54-.58,1.55-1.04,1.62-1.42.23-2.92.25-4.34.05-.47-.06-1.21-1.07-1.14-1.54.09-.61.79-1.29,1.39-1.6.51-.27,1.27-.05,1.92-.05,0-.02,0-.04,0-.07Z"/>
      <path class="cls-1" d="m76.48,66.37c.57,0,1.34-.03,1.78.21.61.34,1.08.88,1.09,1.42.01.57-.73,1.48-1.32,1.65-.98.29-2.16.36-3.13.07,0,0-.02,0-.02,0-1.32-.42-1.84-2.06-.69-2.81.16-.11.33-.21.49-.3.31-.17,1.13-.23,1.54-.23,0,.01.26-.02.26,0Z"/>
    </g>
  </g>
</svg>