<svg xmlns="http://www.w3.org/2000/svg" width="496" height="78.94736842105263" viewBox="0 0 496 78.94736842105263" class="editor-view__logo-preview" data-v-719f541d="" data-v-75053935=""><svg id="mark" viewBox="0 0 456 450" width="80" height="78.94736842105263" x="0" y="0" data-v-719f541d="" style="fill: rgb(78, 128, 72);"><rect x="0" y="0" width="100%" height="100%" fill="none" data-v-719f541d=""></rect><g data-v-719f541d="">
	<path xmlns="http://www.w3.org/2000/svg" d="M 203.708 5.523 C 162.287 10.534, 119.641 28.069, 85.033 54.319 C 41.073 87.663, 11.487 138.369, 4.524 192.301 C 2.487 208.079, 2.495 241.754, 4.539 255.872 C 6.348 268.366, 11.623 287.779, 16.660 300.478 C 36.401 350.254, 80.965 399.660, 126.582 422.342 C 148.144 433.063, 183.183 442.997, 210.500 446.135 C 223.064 447.578, 257.100 446.678, 269.500 444.575 C 305.744 438.428, 340.807 422.608, 368.740 399.800 C 404.313 370.753, 435.801 323.445, 446.437 283.069 C 453.125 257.680, 455.042 221.644, 451.030 196.733 C 443.403 149.374, 420.700 104.901, 386.904 71.117 C 337.613 21.844, 269.723 -2.465, 203.708 5.523 M 202 11.524 C 163.419 16.877, 130.190 29.691, 96.625 52.162 C 52.466 81.725, 22.658 126.370, 10.604 181 C -0.307 230.451, 8.507 284.898, 34.467 328.402 C 58.273 368.296, 95.939 404.181, 128.816 418.290 C 136.865 421.744, 142.860 421.788, 151.703 418.460 C 172.463 410.646, 183.555 400.655, 191.066 383.004 C 203.236 354.406, 209.040 296.689, 202.932 265 C 199.026 244.732, 188.344 223.468, 175.850 211.090 C 162.267 197.633, 136.085 190.148, 123.141 196.022 C 120.743 197.110, 116.468 198.044, 113.641 198.098 L 108.500 198.196 113.887 199.861 C 121.320 202.158, 122.691 204.403, 120.567 210.799 C 118.811 216.086, 115.788 220, 113.461 220 C 112.657 220, 112 220.450, 112 221 C 112 221.550, 111.058 222, 109.906 222 C 108.670 222, 107.603 222.800, 107.302 223.954 C 106.885 225.547, 106.209 225.798, 103.645 225.313 C 101.915 224.986, 100.050 224.388, 99.500 223.983 C 98.950 223.578, 97.600 223.593, 96.500 224.016 C 94.374 224.834, 94.446 224.892, 99.483 226.462 C 101.537 227.102, 100.267 229.948, 97.449 231.019 C 94.903 231.987, 88 230.478, 88 228.953 C 88 228.429, 86.376 228, 84.390 228 C 81.470 228, 79.768 227.075, 75.484 223.159 C 71.065 219.121, 69.687 218.392, 67.164 218.763 C 62.890 219.390, 55.624 213.635, 56.464 210.288 C 56.887 208.602, 56.607 208, 55.402 208 C 54.272 208, 53.925 207.397, 54.278 206.046 C 54.895 203.686, 53.198 201.291, 50.585 200.834 C 49.532 200.650, 47.920 199.150, 47.002 197.500 C 45.011 193.921, 43.733 187, 45.063 187 C 45.578 187, 46 186.386, 46 185.635 C 46 184.884, 46.951 183.060, 48.114 181.582 C 50.551 178.484, 50.649 178.686, 45.750 176.656 C 43.688 175.801, 41.993 174.517, 41.985 173.801 C 41.974 172.866, 41.697 172.922, 41 174 C 40.467 174.825, 40.024 177.164, 40.015 179.198 C 40.005 181.685, 39.226 183.732, 37.638 185.445 C 35.987 187.227, 35.425 188.771, 35.770 190.576 C 36.218 192.920, 35.998 193.128, 33.388 192.829 C 31.133 192.571, 30.048 191.562, 28.352 188.146 C 27.164 185.751, 25.698 183.298, 25.096 182.696 C 23.529 181.129, 23.743 177.243, 25.448 176.289 C 26.611 175.638, 26.703 174.626, 25.917 171.128 C 24.231 163.623, 27.827 150.381, 31.836 149.332 C 33.047 149.016, 33.526 147.711, 33.594 144.540 C 33.665 141.222, 34.460 139.206, 36.928 136.091 C 38.710 133.841, 41.030 132, 42.084 132 C 44.005 132, 44.401 131.112, 44.032 127.633 C 43.924 126.606, 45.109 124.356, 46.667 122.633 C 50.192 118.734, 51.556 116.297, 52.425 112.343 C 52.798 110.642, 54.205 108.216, 55.552 106.951 C 56.898 105.686, 58 103.870, 58 102.915 C 58 101.959, 59.446 99.961, 61.212 98.475 C 63.991 96.136, 65.046 95.845, 69.032 96.317 C 72.893 96.775, 74.114 96.475, 76.569 94.467 C 78.181 93.150, 80.400 92.056, 81.500 92.036 C 82.600 92.016, 84.757 90.425, 86.293 88.500 C 87.829 86.575, 89.768 85, 90.603 85 C 91.717 85, 91.998 84.226, 91.661 82.090 C 91.311 79.864, 91.845 78.565, 93.932 76.565 C 95.433 75.127, 97.699 73.751, 98.968 73.506 C 100.236 73.262, 102 72.442, 102.887 71.683 C 106.360 68.714, 111 68.670, 111 71.607 C 111 73.268, 112.603 73.451, 113.562 71.899 C 113.946 71.278, 115.481 71.046, 117.083 71.367 C 120.707 72.091, 121.622 70.598, 119.519 67.389 C 118.290 65.513, 118.149 64.526, 118.968 63.538 C 119.574 62.808, 119.948 61.826, 119.798 61.355 C 119.333 59.896, 126.012 51, 127.573 51 C 128.385 51, 129.477 49.875, 130 48.500 C 130.600 46.921, 131.730 46, 133.065 46 C 134.228 46, 135.927 45.136, 136.840 44.080 C 140.285 40.097, 155.301 38.319, 161.210 41.194 C 165.522 43.293, 166 43.368, 166 41.947 C 166 41.367, 167.238 39.342, 168.750 37.447 C 170.630 35.090, 172.331 34, 174.128 34 C 175.573 34, 177.315 33.325, 178 32.500 C 178.685 31.675, 180.288 31, 181.563 31 C 182.839 31, 184.160 30.550, 184.500 30 C 184.840 29.450, 187.087 29, 189.494 29 C 191.901 29, 195.085 28.538, 196.570 27.973 C 198.664 27.177, 199.819 27.307, 201.716 28.549 C 203.061 29.431, 204.744 29.928, 205.456 29.655 C 206.168 29.382, 207.984 29.798, 209.490 30.579 C 210.996 31.361, 213.098 32, 214.161 32 C 215.261 32, 216.827 33.289, 217.797 34.994 C 219.138 37.352, 220.190 37.989, 222.750 37.994 C 224.758 37.998, 226.840 38.840, 228.198 40.198 C 231.641 43.641, 237.498 42.799, 241.652 38.264 C 244.132 35.557, 245.881 34.612, 248.989 34.301 C 251.233 34.077, 254.741 32.751, 256.784 31.355 C 261.704 27.994, 268.377 28.414, 272.622 32.351 C 274.205 33.820, 276.093 34.794, 276.817 34.516 C 278.422 33.901, 287.075 37.720, 288.504 39.675 C 289.071 40.449, 290.651 41.637, 292.017 42.315 C 293.525 43.063, 294.619 44.566, 294.804 46.145 C 295.053 48.270, 295.963 49.014, 299.804 50.230 C 303.715 51.469, 304.688 52.284, 305.625 55.109 C 306.470 57.658, 307.401 58.579, 309.375 58.816 C 310.819 58.991, 312.438 59.951, 312.973 60.950 C 313.508 61.950, 315.461 63.052, 317.313 63.399 C 320.702 64.035, 324.175 67.006, 325.320 70.250 C 325.659 71.213, 326.601 72, 327.412 72 C 328.223 72, 329.541 72.935, 330.341 74.077 L 331.796 76.154 336.013 73.492 C 339.760 71.126, 340.856 70.903, 345.865 71.489 C 348.964 71.851, 352.181 72.677, 353.014 73.324 C 355.092 74.939, 358 79.623, 358 81.356 C 358 82.141, 359.238 83.088, 360.750 83.461 C 364.155 84.300, 370 89.782, 370 92.137 C 370 94.438, 371.419 95.215, 376.030 95.438 C 379.965 95.629, 383 97.364, 383 99.422 C 383 100.163, 384.215 100.457, 386.284 100.215 C 389.154 99.880, 390.164 100.467, 394.284 104.873 C 396.878 107.646, 399 110.728, 399 111.722 C 399 112.716, 401.149 116.222, 403.775 119.514 C 406.402 122.807, 409.092 126.737, 409.754 128.250 C 410.416 129.762, 411.399 131, 411.940 131 C 413.884 131, 417 135.435, 417 138.202 C 417 141.595, 418.546 144.438, 422.280 147.913 C 425.364 150.782, 426.004 153.403, 426.697 166 C 426.990 171.341, 427.691 175.087, 428.582 176.079 C 429.362 176.947, 430 178.257, 430 178.991 C 430 182.159, 426.440 191.229, 424.866 192.072 C 422.402 193.390, 420 192.155, 420 189.569 C 420 186.761, 413.692 177.800, 411.018 176.811 C 409.839 176.375, 409 176.481, 409 177.067 C 409 177.727, 408.338 177.716, 407.066 177.035 C 404.467 175.644, 404.466 175.645, 404.230 178.495 C 404.071 180.416, 404.920 181.556, 407.928 183.454 C 412.483 186.330, 412.986 187.017, 414.091 191.868 C 414.730 194.673, 414.470 196.430, 412.949 199.586 C 410.833 203.978, 406.015 207.519, 405.251 205.244 C 404.646 203.441, 403 204.762, 403 207.051 C 403 208.115, 401.658 210.180, 400.018 211.641 C 397.799 213.619, 397.183 214.880, 397.609 216.577 C 397.923 217.830, 397.895 219.755, 397.546 220.855 C 396.704 223.509, 390.298 227.230, 387.889 226.465 C 386.692 226.085, 385.995 226.348, 385.988 227.183 C 385.961 230.002, 371.858 236.650, 368.575 235.391 C 367.899 235.131, 366.255 235.317, 364.922 235.805 C 362.144 236.822, 356 235.495, 356 233.878 C 356 233.292, 356.910 232.575, 358.023 232.284 C 359.818 231.814, 359.868 231.624, 358.464 230.598 C 357.210 229.680, 357.094 228.884, 357.903 226.756 C 359.186 223.381, 357.837 222.417, 355.479 225.024 C 354.495 226.111, 352.661 227, 351.404 227 C 350.147 227, 348.840 227.450, 348.500 228 C 346.764 230.809, 339 226.160, 339 222.312 C 339 221.040, 338.411 220, 337.691 220 C 335.584 220, 332.705 217.456, 332.483 215.399 C 332.370 214.355, 331.942 212.711, 331.531 211.748 C 330.424 209.149, 331.732 205.220, 333.937 204.520 C 336.923 203.572, 335.994 200.068, 332.046 197.386 C 327.571 194.344, 328.739 194.335, 334.783 197.363 C 339.985 199.969, 349.758 202.575, 350.721 201.613 C 351.058 201.276, 350.554 201, 349.603 201 C 348.651 201, 345.538 199.940, 342.686 198.645 C 333.567 194.503, 329.690 193.619, 321 193.699 C 314.686 193.757, 310.651 194.418, 305.310 196.269 C 278.466 205.572, 261.942 225.923, 251.981 261.950 C 246.418 282.072, 245.544 289.354, 245.555 315.500 C 245.565 340.603, 246.812 352.979, 251.016 369.691 C 255.384 387.057, 266.618 403.906, 279.554 412.492 C 285.806 416.642, 298.135 421.448, 305.276 422.519 C 307.888 422.910, 310.248 423.592, 310.521 424.033 C 311.482 425.589, 297.052 428, 286.776 428 C 278.378 428, 273.916 427.368, 262.903 424.619 C 245.636 420.308, 240.373 419.610, 232.157 420.543 L 225.500 421.299 238 423.585 C 244.875 424.842, 254.775 426.764, 260 427.855 C 281.333 432.311, 292.738 431.675, 313.351 424.884 C 346.077 414.101, 374.928 393.065, 401.652 360.500 C 413.690 345.831, 431.042 315.081, 437.447 297.064 C 450.131 261.391, 452.489 219.495, 443.884 182.696 C 440.934 170.085, 434.791 152.575, 429.095 140.544 C 423.088 127.857, 410.870 107.346, 403.312 97.260 C 387.827 76.596, 360.018 52.461, 336.500 39.273 C 307.775 23.165, 286.554 15.878, 255.500 11.460 C 243.129 9.699, 214.907 9.733, 202 11.524 M 215.500 11.614 C 193.303 13.946, 162.302 21.011, 145.997 27.454 C 117.116 38.867, 84.610 59.706, 66.577 78.370 C 55.882 89.439, 36.859 114.567, 32.034 124 C 29.979 128.017, 32.195 125.195, 39.495 114.500 C 51.475 96.947, 67.969 78.788, 83.584 65.962 C 99.328 53.029, 126.297 37.766, 149.500 28.655 C 159.636 24.676, 181.735 18.876, 196 16.451 C 208.981 14.245, 237.965 13.443, 251.045 14.928 C 265.009 16.513, 288.451 22.015, 300.623 26.563 C 339.276 41.007, 376.499 68.529, 402.090 101.585 C 410.672 112.670, 415.746 117.726, 409.532 109 C 393.769 86.863, 378.207 70.499, 359.941 56.850 C 345.275 45.891, 337.807 41.308, 320.967 32.937 C 300.306 22.667, 282.456 17.121, 258.458 13.519 C 248.286 11.992, 222.703 10.857, 215.500 11.614 M 244.324 145.676 C 241.807 151.561, 241.431 159.201, 243.503 162.363 C 245.732 165.766, 246.474 165.685, 248.055 161.867 C 248.769 160.144, 250.438 157.444, 251.765 155.867 C 253.092 154.290, 253.800 152.955, 253.339 152.900 C 252.878 152.845, 253.623 152.488, 254.995 152.106 C 258.888 151.023, 258.613 148.426, 254.313 145.653 C 247.579 141.311, 246.190 141.314, 244.324 145.676 M 202.200 144.200 C 201.540 144.860, 201 145.985, 201 146.700 C 201 147.415, 200.550 148, 200 148 C 199.450 148, 199 147.325, 199 146.500 C 199 145.675, 198.625 145, 198.167 145 C 196.513 145, 196.091 146.301, 197.121 148.226 C 198.240 150.317, 198.480 150.303, 192.250 148.512 C 188.584 147.458, 189.682 149.740, 193.438 150.979 C 199.626 153.022, 202 155.630, 202 160.385 C 202 163.711, 201.406 165.190, 199.250 167.242 C 197.738 168.680, 195.258 170.164, 193.741 170.539 C 192.223 170.915, 190.787 171.536, 190.549 171.920 C 190.312 172.305, 191.392 175.147, 192.951 178.237 C 194.864 182.029, 195.316 183.675, 194.341 183.301 C 192.583 182.626, 186 174.159, 186 172.572 C 186 171.944, 184.646 170.631, 182.991 169.654 C 180.319 168.075, 179.813 168.044, 178.485 169.372 C 176.128 171.729, 173.258 172.240, 169.446 170.982 C 164.354 169.302, 162.591 171, 163.388 176.818 C 164.429 184.410, 168.718 190.584, 180.811 201.898 C 187.043 207.729, 192.533 212.500, 193.012 212.500 C 194.261 212.500, 205.978 201, 206.115 199.639 C 206.384 196.977, 205.735 194.808, 202.950 189.057 C 199.276 181.473, 199.277 179.845, 202.961 173 C 204.589 169.975, 205.938 166.092, 205.960 164.372 C 206.010 160.495, 203.627 154.627, 200.894 151.894 C 199.760 150.760, 199.103 149.563, 199.433 149.233 C 199.763 148.903, 200.566 149.166, 201.217 149.817 C 203.023 151.623, 205.211 151.191, 208.383 148.402 C 210.532 146.513, 210.978 145.578, 210.133 144.733 C 209.289 143.889, 208.694 143.906, 207.800 144.800 C 206.167 146.433, 205 146.308, 205 144.500 C 205 142.692, 203.833 142.567, 202.200 144.200 M 83.591 147.750 C 85.999 160.995, 99.655 174.513, 118.500 182.305 C 132.356 188.035, 158.784 194.549, 160.640 192.693 C 161.872 191.461, 148.624 176, 146.337 176 C 145.602 176, 145 176.450, 145 177 C 145 178.640, 138.010 178.191, 137.365 176.509 C 136.882 175.250, 136.399 175.328, 134.262 177.009 C 131.075 179.515, 129.344 179.507, 125.175 176.965 C 122.750 175.487, 120.938 175.109, 118.483 175.569 C 113.597 176.486, 105.896 172.569, 97.686 164.994 C 90.650 158.501, 85.026 150.185, 85.009 146.250 C 85.004 145.012, 84.530 144, 83.955 144 C 83.292 144, 83.159 145.374, 83.591 147.750 M 367.106 146.333 C 367.821 147.903, 367.982 150.634, 367.535 153.616 C 366.913 157.766, 365.952 159.253, 360.160 165.032 C 349.303 175.865, 334.577 181.197, 323.774 178.206 C 320.625 177.334, 319.674 177.469, 317.632 179.075 C 316.304 180.120, 312.381 182.478, 308.916 184.315 C 301.801 188.087, 300.384 190, 304.704 190 C 309.425 190, 337.700 184.089, 343.032 181.987 C 356.437 176.704, 368.208 165.338, 375.859 150.290 C 379.128 143.862, 378.423 144.036, 374.100 150.724 C 371.955 154.043, 369.783 157.016, 369.273 157.331 C 368.737 157.663, 368.379 155.120, 368.423 151.301 C 368.475 146.803, 368.095 144.557, 367.231 144.259 C 366.230 143.913, 366.204 144.353, 367.106 146.333 M 259.574 147.464 C 258.597 151.101, 258.958 151.388, 261.500 149 C 264.507 146.175, 264.624 145.429, 262.061 145.429 C 260.956 145.429, 259.886 146.304, 259.574 147.464 M 148 151.441 C 148 155.917, 147.340 156.870, 145.450 155.121 C 144.928 154.637, 142.700 153.680, 140.500 152.994 C 138.300 152.308, 135.647 151.017, 134.604 150.124 C 133.390 149.084, 132.854 148.960, 133.113 149.778 C 133.336 150.482, 136.848 152.957, 140.916 155.278 C 150.480 160.736, 152.465 163.413, 152.619 171.057 C 152.715 175.816, 153.261 177.653, 155.420 180.484 C 156.895 182.418, 158.483 184, 158.948 184 C 159.414 184, 160.006 180.063, 160.264 175.250 L 160.734 166.500 155.367 161.479 C 150.539 156.961, 150 156.039, 150 152.288 C 150 149.994, 149.550 147.840, 149 147.500 C 148.389 147.122, 148 148.656, 148 151.441 M 316.325 150.725 C 316.597 153.457, 315.928 154.638, 311.947 158.453 C 308.634 161.628, 306.943 164.215, 306.211 167.228 C 305.079 171.889, 305.701 181.697, 307.187 182.616 C 307.698 182.931, 309.889 182.015, 312.058 180.581 C 316.596 177.577, 317.464 173.396, 314 171.232 C 309.054 168.143, 313.388 157.543, 321.500 152.888 C 327.061 149.697, 327.095 149.227, 321.600 151.523 C 318.728 152.723, 317.870 152.776, 317.557 151.773 C 316.423 148.150, 316.035 147.819, 316.325 150.725 M 229.696 153.651 C 230.548 155.872, 225.163 162.187, 223.002 161.501 C 221.993 161.181, 220.878 161.389, 220.522 161.964 C 220.167 162.539, 217.268 164.781, 214.080 166.946 C 203.850 173.893, 202.633 180.781, 209.833 190.997 C 215.895 199.600, 215.890 199.927, 209.592 206.986 C 200.933 216.689, 200.957 220.870, 209.770 238.500 C 212.245 243.450, 215.729 251.069, 217.513 255.431 L 220.756 263.362 226.469 251.431 C 240.271 222.606, 241.009 218.377, 234.675 204.374 C 232.634 199.860, 231 194.653, 231 192.659 C 231 187.318, 233.733 180.221, 238.302 173.695 C 242.224 168.094, 242.312 167.796, 240.819 165.195 C 238.388 160.961, 237.951 157.648, 239.445 154.769 L 240.821 152.116 234.996 152.198 C 230.497 152.262, 229.290 152.593, 229.696 153.651 M 213.635 162.583 C 212.059 163.969, 211.034 165.367, 211.357 165.691 C 211.917 166.250, 219 161.392, 219 160.449 C 219 159.221, 216.185 160.341, 213.635 162.583 M 278.337 167.832 C 277.708 168.840, 274.562 170.959, 271.346 172.542 C 268.131 174.125, 265.346 175.517, 265.158 175.635 C 264.970 175.753, 265.245 176.616, 265.770 177.553 C 267.080 179.895, 265.311 186.418, 262.748 188.692 C 260.754 190.460, 260.734 190.452, 261.854 188.316 C 263.407 185.355, 263.294 181.948, 261.500 177.654 C 259.731 173.421, 259.529 168.895, 261.125 169.250 C 261.744 169.387, 262.454 168.945, 262.703 168.267 C 263.044 167.338, 262.161 167.385, 259.128 168.455 C 253.030 170.606, 250.854 171.901, 246.668 175.868 C 239.528 182.634, 238.007 189.172, 241.828 196.665 C 242.904 198.774, 245.006 204.550, 246.498 209.500 C 247.991 214.450, 249.651 218.950, 250.188 219.500 C 250.833 220.161, 252.069 219.467, 253.832 217.453 C 258.808 211.769, 268.461 204.190, 279.757 197.097 C 285.949 193.209, 293.544 187.539, 296.635 184.496 C 301.905 179.310, 302.219 178.735, 301.659 175.286 C 301.331 173.263, 299.947 170.492, 298.584 169.130 C 296.260 166.805, 295.852 166.728, 292.009 167.879 C 287.880 169.116, 284 168.658, 284 166.933 C 284 165.246, 279.506 165.960, 278.337 167.832 M 262.086 172 C 262.055 172.825, 262.467 174.175, 263 175 C 264.181 176.828, 264.181 175.249, 263 172.500 C 262.433 171.181, 262.122 171.011, 262.086 172 M 123.155 331.047 C 120.553 332.633, 119.498 332.828, 118.409 331.924 C 117.638 331.285, 115.094 330.624, 112.754 330.456 L 108.500 330.151 111.500 331.701 C 113.150 332.553, 115.175 333.834, 116 334.548 C 116.825 335.261, 119.445 336.513, 121.821 337.330 C 126.096 338.799, 126.123 338.794, 124.363 336.849 C 122.282 334.549, 123.237 332.251, 127.098 330.265 C 128.470 329.559, 128.857 329.025, 128 329.018 C 127.175 329.012, 124.995 329.925, 123.155 331.047 M 173.500 419.649 C 171.850 419.874, 166.483 420.720, 161.574 421.529 C 156.664 422.338, 150.589 423.039, 148.074 423.086 C 138.561 423.265, 148.521 424.721, 164.060 425.423 C 181.312 426.203, 190.595 427.564, 212.500 432.523 C 229.594 436.393, 241.106 437.618, 249.613 436.471 L 255.500 435.678 248.500 434.433 C 237.923 432.551, 216.951 427.540, 203.500 423.681 C 192.039 420.392, 179.952 418.768, 173.500 419.649" stroke="none" fill="inherit" fill-rule="evenodd"></path>
</g></svg><svg id="name" viewBox="0 0 400.06201171875 44.29800033569336" width="400" height="44.29113391234513" x="96" y="17.32811725435375" data-v-719f541d="" style="fill: rgb(0, 0, 0);"><rect x="0" y="0" width="100%" height="100%" fill="none" data-v-719f541d=""></rect><g data-v-719f541d=""><path xmlns="http://www.w3.org/2000/svg" d="M17.62 2.99L17.62 2.99L28.80 31.79Q29.44 33.44 30.25 34.06Q31.05 34.68 31.69 34.73L31.69 34.73L31.69 35.65Q30.31 35.56 28.45 35.53Q26.59 35.51 24.70 35.51L24.70 35.51Q22.59 35.51 20.70 35.53Q18.81 35.56 17.71 35.65L17.71 35.65L17.71 34.73Q20.06 34.64 20.68 33.92Q21.30 33.21 20.38 30.87L20.38 30.87L12.56 9.48L13.39 8.28L6.39 26.50Q5.38 29.03 5.18 30.64Q4.97 32.25 5.40 33.12Q5.84 33.99 6.83 34.34Q7.82 34.68 9.20 34.73L9.20 34.73L9.20 35.65Q7.68 35.56 6.30 35.53Q4.92 35.51 3.50 35.51L3.50 35.51Q2.48 35.51 1.59 35.53Q0.69 35.56 0 35.65L0 35.65L0 34.73Q0.97 34.55 1.98 33.49Q2.99 32.43 3.96 29.90L3.96 29.90L14.44 2.99Q15.18 3.04 16.03 3.04Q16.88 3.04 17.62 2.99ZM7.59 22.40L20.84 22.40L20.84 23.32L7.13 23.32L7.59 22.40ZM41.40 44.30L41.40 44.30Q38.55 44.30 36.32 43.81Q34.09 43.33 32.82 42.34Q31.56 41.35 31.56 39.93L31.56 39.93Q31.56 38.50 32.84 37.38Q34.13 36.25 36.66 35.60L36.66 35.60L37.08 36.34Q36.20 37.03 35.81 37.84Q35.42 38.64 35.42 39.51L35.42 39.51Q35.42 41.45 37.19 42.48Q38.96 43.52 42.00 43.52L42.00 43.52Q44.07 43.52 45.70 42.96Q47.33 42.41 48.28 41.31Q49.22 40.20 49.22 38.59L49.22 38.59Q49.22 37.21 48.21 36.27Q47.20 35.33 44.16 35.33L44.16 35.33L41.31 35.33Q39.42 35.33 38.02 34.91Q36.62 34.50 35.83 33.60Q35.05 32.71 35.05 31.33L35.05 31.33Q35.05 29.39 36.57 27.92Q38.09 26.45 41.08 25.16L41.08 25.16L41.54 25.53Q40.66 26.08 39.91 26.70Q39.15 27.32 39.15 28.29L39.15 28.29Q39.15 29.76 40.99 29.76L40.99 29.76L46 29.76Q48.53 29.76 50.53 30.36Q52.53 30.96 53.70 32.31Q54.88 33.67 54.88 35.83L54.88 35.83Q54.88 38.09 53.43 40.02Q51.98 41.95 48.99 43.13Q46 44.30 41.40 44.30ZM41.86 25.85L41.86 25.85Q39.24 25.85 37.17 25.07Q35.10 24.29 33.90 22.68Q32.71 21.07 32.71 18.54L32.71 18.54Q32.71 16.01 33.90 14.38Q35.10 12.74 37.17 11.98Q39.24 11.22 41.86 11.22L41.86 11.22Q44.48 11.22 46.55 11.98Q48.62 12.74 49.82 14.38Q51.01 16.01 51.01 18.54L51.01 18.54Q51.01 21.07 49.82 22.68Q48.62 24.29 46.55 25.07Q44.48 25.85 41.86 25.85ZM41.86 25.02L41.86 25.02Q43.10 25.02 43.79 23.62Q44.48 22.22 44.48 18.54L44.48 18.54Q44.48 14.86 43.79 13.45Q43.10 12.05 41.86 12.05L41.86 12.05Q40.66 12.05 39.95 13.45Q39.24 14.86 39.24 18.54L39.24 18.54Q39.24 22.22 39.95 23.62Q40.66 25.02 41.86 25.02ZM49.04 15.18L49.04 15.18L48.12 14.86Q48.81 13.06 50.35 11.87Q51.89 10.67 53.68 10.67L53.68 10.67Q55.15 10.67 55.91 11.48Q56.67 12.28 56.67 13.57L56.67 13.57Q56.67 14.95 55.94 15.62Q55.20 16.28 54.28 16.28L54.28 16.28Q53.50 16.28 52.83 15.73Q52.16 15.18 52.07 14.05Q51.98 12.93 52.85 11.13L52.85 11.13L53.18 11.41Q51.43 12.05 50.55 12.90Q49.68 13.75 49.04 15.18ZM73.74 11.22L73.74 11.22Q75.21 11.22 76.13 11.84Q77.05 12.47 77.49 13.43Q77.92 14.40 77.92 15.46L77.92 15.46Q77.92 17.16 76.94 18.24Q75.95 19.32 74.34 19.32L74.34 19.32Q72.73 19.32 71.83 18.52Q70.93 17.71 70.93 16.38L70.93 16.38Q70.93 15.09 71.51 14.24Q72.08 13.39 72.96 12.79L72.96 12.79Q72.31 12.60 71.67 12.83L71.67 12.83Q70.79 12.97 70.01 13.55Q69.23 14.12 68.68 14.97Q68.13 15.82 67.80 16.81Q67.48 17.80 67.48 18.72L67.48 18.72L67.48 30.91Q67.48 33.12 68.56 33.90Q69.64 34.68 71.81 34.68L71.81 34.68L71.81 35.65Q70.75 35.60 68.72 35.53Q66.70 35.47 64.49 35.47L64.49 35.47Q62.65 35.47 60.77 35.53Q58.88 35.60 57.91 35.65L57.91 35.65L57.91 34.68Q59.52 34.68 60.19 33.99Q60.86 33.30 60.86 31.37L60.86 31.37L60.86 16.88Q60.86 14.81 60.24 13.82Q59.62 12.83 57.91 12.83L57.91 12.83L57.91 11.87Q59.39 12.01 60.77 12.01L60.77 12.01Q62.70 12.01 64.38 11.84Q66.06 11.68 67.48 11.36L67.48 11.36L67.48 15.64Q68.03 14.40 68.95 13.39Q69.87 12.37 71.07 11.80Q72.27 11.22 73.74 11.22ZM85.38 0L85.38 0Q87.31 0 88.44 0.94Q89.56 1.89 89.56 3.54L89.56 3.54Q89.56 5.20 88.44 6.14Q87.31 7.08 85.38 7.08L85.38 7.08Q83.44 7.08 82.32 6.14Q81.19 5.20 81.19 3.54L81.19 3.54Q81.19 1.89 82.32 0.94Q83.44 0 85.38 0ZM88.96 11.36L88.96 11.36L88.96 31.37Q88.96 33.30 89.63 33.99Q90.30 34.68 91.91 34.68L91.91 34.68L91.91 35.65Q91.08 35.60 89.33 35.53Q87.58 35.47 85.79 35.47L85.79 35.47Q84.00 35.47 82.16 35.53Q80.32 35.60 79.40 35.65L79.40 35.65L79.40 34.68Q81.01 34.68 81.67 33.99Q82.34 33.30 82.34 31.37L82.34 31.37L82.34 16.88Q82.34 14.81 81.72 13.82Q81.10 12.83 79.40 12.83L79.40 12.83L79.40 11.87Q80.87 12.01 82.25 12.01L82.25 12.01Q84.18 12.01 85.86 11.84Q87.54 11.68 88.96 11.36ZM105.85 2.48L105.85 2.48Q108.56 2.48 110.03 3.06Q111.50 3.63 112.56 4.28L112.56 4.28Q113.11 4.60 113.46 4.76Q113.80 4.92 114.13 4.92L114.13 4.92Q114.59 4.92 114.79 4.42Q115 3.91 115.14 2.90L115.14 2.90L116.20 2.90Q116.15 3.77 116.08 4.99Q116.01 6.21 115.99 8.19Q115.97 10.17 115.97 13.39L115.97 13.39L114.91 13.39Q114.72 10.99 113.80 8.74Q112.88 6.49 111.20 5.04Q109.53 3.59 107.09 3.59L107.09 3.59Q104.88 3.59 103.45 4.83Q102.03 6.07 102.03 8.28L102.03 8.28Q102.03 10.12 102.95 11.43Q103.87 12.74 105.64 13.98Q107.41 15.23 109.94 16.97L109.94 16.97Q112.15 18.40 113.90 19.83Q115.64 21.25 116.70 23.05Q117.76 24.84 117.76 27.32L117.76 27.32Q117.76 30.36 116.17 32.34Q114.59 34.32 112.01 35.30Q109.43 36.29 106.35 36.29L106.35 36.29Q103.50 36.29 101.80 35.74Q100.10 35.19 98.95 34.59L98.95 34.59Q97.93 33.95 97.38 33.95L97.38 33.95Q96.92 33.95 96.72 34.45Q96.51 34.96 96.37 35.97L96.37 35.97L95.31 35.97Q95.40 34.87 95.43 33.40Q95.45 31.92 95.47 29.55Q95.50 27.19 95.50 23.55L95.50 23.55L96.55 23.55Q96.74 26.59 97.59 29.23Q98.44 31.88 100.21 33.49Q101.98 35.10 104.93 35.10L104.93 35.10Q106.54 35.10 107.80 34.52Q109.07 33.95 109.85 32.80Q110.63 31.65 110.63 29.95L110.63 29.95Q110.63 28.01 109.73 26.59Q108.84 25.16 107.30 23.92Q105.75 22.68 103.73 21.39L103.73 21.39Q101.57 19.96 99.68 18.54Q97.80 17.11 96.67 15.27Q95.54 13.43 95.54 10.90L95.54 10.90Q95.54 8.00 96.99 6.14Q98.44 4.28 100.81 3.38Q103.18 2.48 105.85 2.48ZM137.45 11.22L137.45 11.22Q139.38 11.22 140.58 11.71Q141.77 12.19 142.51 13.02L142.51 13.02Q143.24 13.89 143.57 15.29Q143.89 16.70 143.89 19.00L143.89 19.00L143.89 31.37Q143.89 33.30 144.49 33.99Q145.08 34.68 146.56 34.68L146.56 34.68L146.56 35.65Q145.73 35.60 144.05 35.53Q142.37 35.47 140.76 35.47L140.76 35.47Q139.10 35.47 137.49 35.53Q135.88 35.60 135.06 35.65L135.06 35.65L135.06 34.68Q136.30 34.68 136.78 33.99Q137.26 33.30 137.26 31.37L137.26 31.37L137.26 17.07Q137.26 15.92 137.08 15.06Q136.90 14.21 136.37 13.73Q135.84 13.25 134.78 13.25L134.78 13.25Q133.58 13.25 132.57 13.94Q131.56 14.63 130.94 15.85Q130.32 17.07 130.32 18.58L130.32 18.58L130.32 31.37Q130.32 33.30 130.82 33.99Q131.33 34.68 132.53 34.68L132.53 34.68L132.53 35.65Q131.79 35.60 130.25 35.53Q128.71 35.47 127.10 35.47L127.10 35.47Q125.35 35.47 123.51 35.53Q121.67 35.60 120.75 35.65L120.75 35.65L120.75 34.68Q122.36 34.68 123.03 33.99Q123.69 33.30 123.69 31.37L123.69 31.37L123.69 16.88Q123.69 14.81 123.07 13.82Q122.45 12.83 120.75 12.83L120.75 12.83L120.75 11.87Q122.22 12.01 123.60 12.01L123.60 12.01Q125.53 12.01 127.21 11.84Q128.89 11.68 130.32 11.36L130.32 11.36L130.32 15.50Q131.42 13.20 133.31 12.21Q135.19 11.22 137.45 11.22ZM151.29 11.22L151.29 11.22Q153.23 11.22 154.42 11.71Q155.62 12.19 156.35 13.02L156.35 13.02Q157.09 13.89 157.41 15.29Q157.73 16.70 157.73 19.00L157.73 19.00L157.73 31.37Q157.73 33.30 158.40 33.99Q159.07 34.68 160.68 34.68L160.68 34.68L160.68 35.65Q159.80 35.60 158.06 35.53Q156.31 35.47 154.61 35.47L154.61 35.47Q152.95 35.47 151.34 35.53Q149.73 35.60 148.90 35.65L148.90 35.65L148.90 34.68Q150.14 34.68 150.63 33.99Q151.11 33.30 151.11 31.37L151.11 31.37L151.11 17.07Q151.11 15.92 150.90 15.06Q150.70 14.21 150.12 13.73Q149.55 13.25 148.35 13.25L148.35 13.25Q147.15 13.25 146.14 13.98Q145.13 14.72 144.51 15.96Q143.89 17.20 143.84 18.72L143.84 18.72L143.61 15.92Q144.85 13.16 146.90 12.19Q148.95 11.22 151.29 11.22ZM168.73 35.97L168.73 35.97Q166.66 35.97 165.28 35.19Q163.90 34.41 163.25 33.10Q162.61 31.79 162.61 30.22L162.61 30.22Q162.61 28.24 163.51 27.00Q164.40 25.76 165.83 24.98Q167.26 24.20 168.84 23.69Q170.43 23.18 171.88 22.70Q173.33 22.22 174.23 21.55Q175.12 20.88 175.12 19.83L175.12 19.83L175.12 16.24Q175.12 15.04 174.73 14.10Q174.34 13.16 173.54 12.65Q172.73 12.14 171.44 12.14L171.44 12.14Q170.52 12.14 169.60 12.40Q168.68 12.65 168.08 13.25L168.08 13.25Q169.37 13.71 170.09 14.65Q170.80 15.59 170.80 16.79L170.80 16.79Q170.80 18.35 169.72 19.27Q168.64 20.19 167.16 20.19L167.16 20.19Q165.51 20.19 164.66 19.16Q163.81 18.12 163.81 16.65L163.81 16.65Q163.81 15.32 164.47 14.44Q165.14 13.57 166.34 12.79L166.34 12.79Q167.62 12.05 169.44 11.64Q171.26 11.22 173.37 11.22L173.37 11.22Q175.49 11.22 177.19 11.66Q178.89 12.10 180.04 13.25L180.04 13.25Q181.10 14.31 181.42 15.85Q181.75 17.39 181.75 19.73L181.75 19.73L181.75 32.25Q181.75 33.40 181.98 33.83Q182.21 34.27 182.76 34.27L182.76 34.27Q183.17 34.27 183.56 34.04Q183.95 33.81 184.41 33.49L184.41 33.49L184.87 34.27Q183.91 35.10 182.64 35.53Q181.38 35.97 179.81 35.97L179.81 35.97Q178.11 35.97 177.10 35.49Q176.09 35.01 175.65 34.18Q175.21 33.35 175.21 32.25L175.21 32.25Q174.11 33.99 172.55 34.98Q170.98 35.97 168.73 35.97ZM171.99 33.03L171.99 33.03Q172.91 33.03 173.67 32.59Q174.43 32.15 175.12 31.14L175.12 31.14L175.12 21.71Q174.71 22.40 173.97 22.95Q173.24 23.51 172.41 24.08Q171.58 24.66 170.82 25.35Q170.06 26.04 169.60 27.05Q169.14 28.06 169.14 29.49L169.14 29.49Q169.14 31.28 169.92 32.15Q170.71 33.03 171.99 33.03ZM202.03 11.22L202.03 11.22Q203.50 11.22 204.42 11.84Q205.34 12.47 205.78 13.43Q206.22 14.40 206.22 15.46L206.22 15.46Q206.22 17.16 205.23 18.24Q204.24 19.32 202.63 19.32L202.63 19.32Q201.02 19.32 200.12 18.52Q199.23 17.71 199.23 16.38L199.23 16.38Q199.23 15.09 199.80 14.24Q200.38 13.39 201.25 12.79L201.25 12.79Q200.61 12.60 199.96 12.83L199.96 12.83Q199.09 12.97 198.31 13.55Q197.52 14.12 196.97 14.97Q196.42 15.82 196.10 16.81Q195.78 17.80 195.78 18.72L195.78 18.72L195.78 30.91Q195.78 33.12 196.86 33.90Q197.94 34.68 200.10 34.68L200.10 34.68L200.10 35.65Q199.04 35.60 197.02 35.53Q194.99 35.47 192.79 35.47L192.79 35.47Q190.95 35.47 189.06 35.53Q187.17 35.60 186.21 35.65L186.21 35.65L186.21 34.68Q187.82 34.68 188.49 33.99Q189.15 33.30 189.15 31.37L189.15 31.37L189.15 16.88Q189.15 14.81 188.53 13.82Q187.91 12.83 186.21 12.83L186.21 12.83L186.21 11.87Q187.68 12.01 189.06 12.01L189.06 12.01Q190.99 12.01 192.67 11.84Q194.35 11.68 195.78 11.36L195.78 11.36L195.78 15.64Q196.33 14.40 197.25 13.39Q198.17 12.37 199.36 11.80Q200.56 11.22 202.03 11.22ZM217.03 4.32L217.03 4.32L217.03 11.87L222.46 11.87L222.46 12.79L217.03 12.79L217.03 31.37Q217.03 32.75 217.53 33.33Q218.04 33.90 219.05 33.90L219.05 33.90Q219.88 33.90 220.71 33.28Q221.54 32.66 222.18 31.14L222.18 31.14L222.96 31.56Q222.23 33.63 220.73 34.96Q219.24 36.29 216.66 36.29L216.66 36.29Q215.14 36.29 213.99 35.90Q212.84 35.51 212.06 34.73L212.06 34.73Q211.05 33.72 210.73 32.22Q210.40 30.73 210.40 28.34L210.40 28.34L210.40 12.79L206.54 12.79L206.54 11.87L210.40 11.87L210.40 5.80Q212.34 5.80 213.97 5.45Q215.60 5.11 217.03 4.32ZM241.04 2.44L241.04 2.44Q244.08 2.44 246.03 3.34Q247.99 4.23 249.50 5.43L249.50 5.43Q250.42 6.12 250.91 5.59Q251.39 5.06 251.57 3.08L251.57 3.08L252.63 3.08Q252.54 4.88 252.49 7.43Q252.45 9.98 252.45 14.21L252.45 14.21L251.39 14.21Q251.16 12.10 250.79 10.60Q250.42 9.11 249.78 7.96Q249.14 6.81 247.94 5.89L247.94 5.89Q246.79 4.74 245.27 4.19Q243.75 3.63 242.10 3.63L242.10 3.63Q239.61 3.63 237.87 4.95Q236.12 6.26 235.04 8.51Q233.96 10.76 233.45 13.59Q232.94 16.42 232.94 19.46L232.94 19.46Q232.94 22.54 233.47 25.37Q234.00 28.20 235.13 30.41Q236.26 32.61 238.05 33.90Q239.84 35.19 242.28 35.19L242.28 35.19Q243.80 35.19 245.34 34.62Q246.88 34.04 247.99 32.94L247.99 32.94Q249.78 31.56 250.42 29.51Q251.07 27.46 251.39 24.06L251.39 24.06L252.45 24.06Q252.45 28.43 252.49 31.12Q252.54 33.81 252.63 35.65L252.63 35.65L251.57 35.65Q251.39 33.67 250.95 33.17Q250.52 32.66 249.50 33.30L249.50 33.30Q247.80 34.50 245.89 35.40Q243.98 36.29 240.99 36.29L240.99 36.29Q236.12 36.29 232.46 34.32Q228.80 32.34 226.78 28.61Q224.76 24.89 224.76 19.64L224.76 19.64Q224.76 14.49 226.85 10.63Q228.94 6.76 232.60 4.60Q236.26 2.44 241.04 2.44ZM268.18 11.22L268.18 11.22Q271.54 11.22 274.07 12.47Q276.60 13.71 278.02 16.47Q279.45 19.23 279.45 23.78L279.45 23.78Q279.45 28.34 278.02 31.07Q276.60 33.81 274.07 35.05Q271.54 36.29 268.18 36.29L268.18 36.29Q264.91 36.29 262.36 35.05Q259.81 33.81 258.36 31.07Q256.91 28.34 256.91 23.78L256.91 23.78Q256.91 19.23 258.36 16.47Q259.81 13.71 262.36 12.47Q264.91 11.22 268.18 11.22ZM268.18 12.14L268.18 12.14Q266.34 12.14 265.10 14.88Q263.86 17.62 263.86 23.78L263.86 23.78Q263.86 29.95 265.10 32.66Q266.34 35.37 268.18 35.37L268.18 35.37Q270.07 35.37 271.29 32.66Q272.50 29.95 272.50 23.78L272.50 23.78Q272.50 17.62 271.29 14.88Q270.07 12.14 268.18 12.14ZM299.41 11.22L299.41 11.22Q301.35 11.22 302.57 11.71Q303.78 12.19 304.47 13.02L304.47 13.02Q305.21 13.89 305.56 15.27Q305.90 16.65 305.90 19.00L305.90 19.00L305.90 31.37Q305.90 33.30 306.57 33.99Q307.23 34.68 308.84 34.68L308.84 34.68L308.84 35.65Q307.97 35.60 306.22 35.53Q304.47 35.47 302.77 35.47L302.77 35.47Q301.02 35.47 299.35 35.53Q297.67 35.60 296.79 35.65L296.79 35.65L296.79 34.68Q298.17 34.68 298.72 33.99Q299.28 33.30 299.28 31.37L299.28 31.37L299.28 17.07Q299.28 15.92 299.05 15.06Q298.82 14.21 298.22 13.73Q297.62 13.25 296.42 13.25L296.42 13.25Q295.18 13.25 294.15 13.94Q293.11 14.63 292.49 15.85Q291.87 17.07 291.87 18.58L291.87 18.58L291.87 31.37Q291.87 33.30 292.45 33.99Q293.02 34.68 294.35 34.68L294.35 34.68L294.35 35.65Q293.53 35.60 291.94 35.53Q290.35 35.47 288.65 35.47L288.65 35.47Q286.90 35.47 285.06 35.53Q283.22 35.60 282.30 35.65L282.30 35.65L282.30 34.68Q283.91 34.68 284.58 33.99Q285.25 33.30 285.25 31.37L285.25 31.37L285.25 16.88Q285.25 14.81 284.63 13.82Q284.00 12.83 282.30 12.83L282.30 12.83L282.30 11.87Q283.77 12.01 285.15 12.01L285.15 12.01Q287.09 12.01 288.77 11.84Q290.44 11.68 291.87 11.36L291.87 11.36L291.87 15.50Q293.02 13.16 295.00 12.19Q296.98 11.22 299.41 11.22ZM327.66 11.22L327.66 11.22Q329.59 11.22 330.81 11.71Q332.03 12.19 332.72 13.02L332.72 13.02Q333.45 13.89 333.80 15.27Q334.14 16.65 334.14 19.00L334.14 19.00L334.14 31.37Q334.14 33.30 334.81 33.99Q335.48 34.68 337.09 34.68L337.09 34.68L337.09 35.65Q336.21 35.60 334.47 35.53Q332.72 35.47 331.02 35.47L331.02 35.47Q329.27 35.47 327.59 35.53Q325.91 35.60 325.04 35.65L325.04 35.65L325.04 34.68Q326.42 34.68 326.97 33.99Q327.52 33.30 327.52 31.37L327.52 31.37L327.52 17.07Q327.52 15.92 327.29 15.06Q327.06 14.21 326.46 13.73Q325.86 13.25 324.67 13.25L324.67 13.25Q323.43 13.25 322.39 13.94Q321.36 14.63 320.74 15.85Q320.11 17.07 320.11 18.58L320.11 18.58L320.11 31.37Q320.11 33.30 320.69 33.99Q321.26 34.68 322.60 34.68L322.60 34.68L322.60 35.65Q321.77 35.60 320.18 35.53Q318.60 35.47 316.89 35.47L316.89 35.47Q315.15 35.47 313.31 35.53Q311.47 35.60 310.55 35.65L310.55 35.65L310.55 34.68Q312.16 34.68 312.82 33.99Q313.49 33.30 313.49 31.37L313.49 31.37L313.49 16.88Q313.49 14.81 312.87 13.82Q312.25 12.83 310.55 12.83L310.55 12.83L310.55 11.87Q312.02 12.01 313.40 12.01L313.40 12.01Q315.33 12.01 317.01 11.84Q318.69 11.68 320.11 11.36L320.11 11.36L320.11 15.50Q321.26 13.16 323.24 12.19Q325.22 11.22 327.66 11.22ZM350.66 11.22L350.66 11.22Q354.71 11.22 357.01 13.62Q359.31 16.01 359.31 21.44L359.31 21.44L344.17 21.44L344.08 20.56L353.51 20.56Q353.56 18.31 353.23 16.40Q352.91 14.49 352.22 13.34Q351.53 12.19 350.38 12.19L350.38 12.19Q348.77 12.19 347.65 14.21Q346.52 16.24 346.29 20.93L346.29 20.93L346.43 21.21Q346.38 21.76 346.36 22.36Q346.33 22.95 346.33 23.60L346.33 23.60Q346.33 26.77 347.23 28.75Q348.13 30.73 349.51 31.63Q350.89 32.52 352.31 32.52L352.31 32.52Q353.28 32.52 354.32 32.22Q355.35 31.92 356.41 31.12Q357.47 30.31 358.39 28.84L358.39 28.84L359.21 29.12Q358.66 30.87 357.47 32.52Q356.27 34.18 354.43 35.24Q352.59 36.29 350.01 36.29L350.01 36.29Q346.89 36.29 344.49 34.96Q342.10 33.63 340.75 30.91Q339.39 28.20 339.39 24.01L339.39 24.01Q339.39 19.73 340.84 16.88Q342.29 14.03 344.84 12.63Q347.39 11.22 350.66 11.22ZM373.93 11.22L373.93 11.22Q375.73 11.22 377.22 11.61Q378.72 12.01 379.68 12.60L379.68 12.60Q380.88 13.34 381.55 14.42Q382.21 15.50 382.21 16.93L382.21 16.93Q382.21 18.54 381.20 19.57Q380.19 20.61 378.58 20.61L378.58 20.61Q376.97 20.61 376.00 19.69Q375.04 18.77 375.04 17.20L375.04 17.20Q375.04 15.73 375.96 14.74Q376.88 13.75 378.07 13.43L378.07 13.43Q377.71 12.97 376.97 12.65Q376.23 12.33 375.31 12.33L375.31 12.33Q373.89 12.33 372.81 13.16Q371.73 13.98 370.99 15.46Q370.25 16.93 369.86 18.91Q369.47 20.88 369.47 23.23L369.47 23.23Q369.47 26.77 370.37 28.80Q371.27 30.82 372.67 31.65Q374.07 32.48 375.59 32.48L375.59 32.48Q376.46 32.48 377.50 32.20Q378.53 31.92 379.62 31.10Q380.70 30.27 381.62 28.75L381.62 28.75L382.40 29.03Q381.89 30.73 380.74 32.43Q379.59 34.13 377.75 35.21Q375.91 36.29 373.24 36.29L373.24 36.29Q370.25 36.29 367.84 34.98Q365.42 33.67 363.98 30.93Q362.53 28.20 362.53 23.87L362.53 23.87Q362.53 19.73 364.02 16.90Q365.52 14.08 368.09 12.65Q370.67 11.22 373.93 11.22ZM394.13 4.32L394.13 4.32L394.13 11.87L399.56 11.87L399.56 12.79L394.13 12.79L394.13 31.37Q394.13 32.75 394.63 33.33Q395.14 33.90 396.15 33.90L396.15 33.90Q396.98 33.90 397.81 33.28Q398.64 32.66 399.28 31.14L399.28 31.14L400.06 31.56Q399.33 33.63 397.83 34.96Q396.34 36.29 393.76 36.29L393.76 36.29Q392.24 36.29 391.09 35.90Q389.94 35.51 389.16 34.73L389.16 34.73Q388.15 33.72 387.83 32.22Q387.50 30.73 387.50 28.34L387.50 28.34L387.50 12.79L383.64 12.79L383.64 11.87L387.50 11.87L387.50 5.80Q389.44 5.80 391.07 5.45Q392.70 5.11 394.13 4.32Z"></path></g></svg><!----></svg>